<svg width="126" height="126" viewBox="0 0 126 126" fill="none" xmlns="http://www.w3.org/2000/svg">
<path d="M87.0778 10.0404C85.1091 9.9715 83.0518 10.316 80.9944 10.9854C76.8699 12.3242 72.5485 14.9327 68.1089 18.5356C66.3764 19.9531 64.6242 21.5674 62.8622 23.2802C61.1396 21.6068 59.4267 20.0318 57.7238 18.6438C53.2941 15.041 48.9825 12.4423 44.8678 11.1035C40.7532 9.77462 36.6582 9.73525 33.3014 11.6745C29.9349 13.6137 27.9267 17.1771 27.0211 21.4099C26.1155 25.6427 26.2139 30.6827 27.1196 36.3134C27.4346 38.2821 27.8874 40.3296 28.3992 42.4263C26.4797 43.0071 24.6094 43.6174 22.8867 44.2967C17.6597 46.3343 13.3383 48.7756 10.1883 51.6795C7.04816 54.5834 5.0105 58.1074 5.0105 61.976C5.0105 65.8446 7.04816 69.3687 10.1883 72.2627C13.3383 75.1667 17.6597 77.6177 22.8867 79.6554C24.7275 80.374 26.7357 81.0335 28.8028 81.6438C28.0547 84.4198 27.4542 87.117 27.0408 89.6763C26.1352 95.3168 26.0466 100.357 26.9424 104.599C27.848 108.842 29.866 112.425 33.2424 114.374C36.6188 116.323 40.7335 116.274 44.858 114.935C48.9825 113.606 53.2941 110.998 57.7336 107.395C59.4563 105.997 61.1986 104.393 62.941 102.7C64.6932 104.403 66.4453 106.017 68.168 107.415C72.6075 111.027 76.9191 113.626 81.0338 114.955C85.1485 116.294 89.2336 116.333 92.6002 114.394C95.9667 112.455 97.9749 108.891 98.8707 104.659C99.7763 100.426 99.6778 95.3857 98.7722 89.7452C98.3588 87.1859 97.7583 84.4887 97.0102 81.6931C99.1463 81.0631 101.213 80.4035 103.113 79.6554C108.34 77.6177 112.662 75.1667 115.802 72.2627C118.952 69.3687 120.98 65.8446 120.98 61.976C120.98 58.1074 118.952 54.5834 115.802 51.6795C112.662 48.7756 108.34 46.3343 103.113 44.2967C101.361 43.6076 99.4711 42.9874 97.5122 42.3968C98.0339 40.2902 98.4867 38.2231 98.8018 36.2543C99.7172 30.6138 99.8058 25.564 98.9002 21.3213C98.0044 17.0885 95.9864 13.5054 92.6002 11.5563C90.9169 10.5818 89.0466 10.1093 87.0778 10.0404ZM86.8514 15.169C88.0819 15.1985 89.1352 15.4938 90.031 16.0156C91.8324 17.059 93.1613 19.077 93.87 22.4042C94.5788 25.7313 94.5591 30.2299 93.7224 35.4471C93.4271 37.2288 93.0136 39.1188 92.5411 41.0581C87.383 39.8177 81.7425 38.8924 75.728 38.3609C72.6961 34.1674 69.5953 30.3579 66.465 26.9717C68.1188 25.3573 69.7627 23.8413 71.3672 22.542C75.4622 19.2049 79.3407 16.9409 82.5792 15.8876C84.1936 15.3659 85.6111 15.1395 86.8514 15.169ZM39.0305 15.1788C40.261 15.1493 41.6883 15.3757 43.3027 15.8974C46.5511 16.9507 50.4394 19.2246 54.5442 22.5518C56.1094 23.8413 57.7238 25.3179 59.348 26.8929C56.1882 30.3087 53.0578 34.1576 50.0161 38.3806C44.0213 38.9318 38.3907 39.8571 33.2621 41.1073C32.7896 39.1779 32.386 37.2977 32.1005 35.516C31.2539 30.2988 31.2342 25.8002 31.9528 22.4632C32.6616 19.1163 34.0003 17.0885 35.8214 16.0451C36.7271 15.5135 37.7902 15.2182 39.0305 15.1887V15.1788ZM62.941 30.604C64.9983 32.8287 67.0458 35.2798 69.0835 37.9081C67.0852 37.8293 65.0574 37.7801 63 37.7801C60.9033 37.7801 58.8361 37.8293 56.7985 37.9179C58.8361 35.2798 60.8836 32.8385 62.941 30.604ZM63 42.8693C66.4257 42.8693 69.7627 43.0071 73.0111 43.2434C75.2555 46.4524 77.4408 49.8584 79.5178 53.471C81.3488 56.6309 83.0025 59.8006 84.5086 62.921C82.9828 66.0907 81.2996 69.2899 79.4489 72.5088C77.8149 75.334 76.1119 78.0115 74.3794 80.6102C70.7077 80.9154 66.908 81.0827 63 81.0827C59.0035 81.0827 55.1152 80.9056 51.3549 80.5807C49.6519 78.0312 47.9785 75.3832 46.3739 72.5974C44.5233 69.3884 42.8499 66.199 41.3241 63.0392C42.8597 59.8596 44.5332 56.6407 46.3936 53.4218C48.4707 49.8387 50.6461 46.4524 52.8708 43.2532C56.1586 43.0071 59.535 42.8693 63 42.8693ZM79.508 43.8734C83.6621 44.3951 87.5602 45.1137 91.1925 45.9799C90.1097 49.504 88.7808 53.1954 87.1763 57.0049C86.1328 54.987 85.05 52.969 83.8885 50.951C82.471 48.4999 80.9944 46.1571 79.508 43.8734ZM46.2263 43.9127C44.7694 46.1571 43.3322 48.4409 41.9442 50.8526C40.763 52.9001 39.6605 54.9476 38.6072 56.9852C37.0125 53.1954 35.6935 49.5335 34.6205 46.0193C38.2233 45.1531 42.1017 44.4345 46.2263 43.9127ZM96.1735 47.3187C97.9552 47.8502 99.6877 48.4212 101.263 49.0413C106.076 50.9117 109.886 53.1462 112.357 55.4201C114.827 57.694 115.9 59.8695 115.9 61.976C115.9 64.0826 114.827 66.2581 112.357 68.532C109.886 70.8059 106.076 73.0404 101.263 74.9107C99.5105 75.5998 97.5811 76.2298 95.573 76.8106C94.1358 72.3809 92.3049 67.7642 90.1294 63.0392C92.6297 57.6152 94.6575 52.339 96.1735 47.3187ZM29.738 47.3384C31.2441 52.3095 33.2424 57.5463 35.7033 62.9112C33.518 67.6559 31.6772 72.3021 30.24 76.7613C28.3008 76.1904 26.4305 75.5801 24.7374 74.9206C19.9238 73.0404 16.1142 70.8059 13.6435 68.532C11.1727 66.2581 10.1096 64.0826 10.1096 61.976C10.1096 59.8695 11.1727 57.694 13.6435 55.4201C16.1142 53.1462 19.9238 50.9117 24.7374 49.0413C26.2927 48.431 27.9858 47.8699 29.7478 47.3384H29.738ZM63 50.3998C56.07 50.3998 50.4 56.0698 50.4 62.9998C50.4 69.9298 56.07 75.5998 63 75.5998C69.93 75.5998 75.6 69.9298 75.6 62.9998C75.6 56.0698 69.93 50.3998 63 50.3998ZM63 55.4398C67.2033 55.4398 70.56 58.7965 70.56 62.9998C70.56 67.2031 67.2033 70.5598 63 70.5598C58.7967 70.5598 55.44 67.2031 55.44 62.9998C55.44 58.7965 58.7967 55.4398 63 55.4398ZM87.2452 68.9552C88.5642 72.0856 89.7061 75.147 90.6807 78.1001C87.6488 78.799 84.42 79.3896 81.0239 79.8621C81.9985 78.297 82.9632 76.7121 83.9082 75.0781C85.0894 73.0306 86.1821 70.9929 87.2452 68.9552ZM38.6564 68.9552C39.7196 71.0027 40.8221 73.0601 42.0132 75.1174C42.9483 76.7318 43.8933 78.3068 44.858 79.8424C41.4717 79.3699 38.2528 78.7793 35.2407 78.0706C36.1955 75.1371 37.3472 72.0757 38.6663 68.9552H38.6564ZM33.7838 82.9727C38.3414 84.0457 43.283 84.8824 48.5297 85.4238C52.0341 90.4835 55.6763 95.0313 59.348 99.0082C57.7041 100.603 56.0799 102.109 54.4852 103.399C50.3902 106.736 46.5019 108.99 43.2732 110.043C40.0346 111.096 37.613 110.959 35.8214 109.915C34.02 108.872 32.6911 106.854 31.9824 103.526C31.2736 100.199 31.2933 95.7106 32.13 90.4934C32.5139 88.1309 33.075 85.5912 33.7838 82.9727ZM92.1277 82.9924C92.8463 85.6306 93.4172 88.1702 93.8011 90.5524C94.6378 95.7696 94.6575 100.268 93.9389 103.605C93.2302 106.942 91.8914 108.98 90.0802 110.033C88.2689 111.077 85.8277 111.214 82.5792 110.171C79.3407 109.118 75.4524 106.844 71.3475 103.507C69.7528 102.207 68.1089 100.691 66.4552 99.087C70.1564 95.0904 73.8282 90.5229 77.3424 85.4337C82.5989 84.8923 87.5602 84.0654 92.1277 82.9924ZM55.1053 85.9357C57.6942 86.0735 60.3127 86.172 63 86.172C65.5988 86.172 68.1286 86.0834 70.6388 85.9456C68.0794 89.4106 65.4708 92.5507 62.8721 95.3759C60.2733 92.5409 57.6647 89.3909 55.1053 85.9357Z" fill="#63DAFB"/>
</svg>
