<svg width="126" height="126" viewBox="0 0 126 126" fill="none" xmlns="http://www.w3.org/2000/svg">
<path d="M16.8032 10.0801C13.1217 10.0801 10.08 13.1218 10.08 16.8034V109.197C10.08 112.878 13.1217 115.92 16.8032 115.92H109.197C112.878 115.92 115.92 112.888 115.92 109.197V16.8034C115.92 13.1218 112.888 10.0801 109.197 10.0801H16.8032ZM16.8032 15.1201H109.197C110.132 15.1201 110.88 15.8682 110.88 16.8034V109.197C110.88 110.132 110.132 110.88 109.197 110.88H16.8032C15.8681 110.88 15.12 110.132 15.12 109.197V16.8034C15.12 15.8682 15.8681 15.1201 16.8032 15.1201ZM57.96 57.9601V89.6471C57.96 94.5099 56.1192 95.7601 52.92 95.7601C49.5731 95.7601 47.25 93.6732 45.7143 90.9662L37.8 95.7601C40.0936 100.613 45.7143 105.84 53.5106 105.84C62.1337 105.84 68.04 101.253 68.04 91.1827V57.9601H57.96ZM89.3418 57.9601C80.7581 57.9601 75.2554 63.4529 75.2554 70.6684C75.2554 78.4941 79.8721 82.1954 86.812 85.1485L89.2139 86.1821C93.5943 88.1016 95.76 89.273 95.76 92.5707C95.76 95.3171 93.6731 97.3055 89.6864 97.3055C84.9417 97.3055 82.6973 94.0866 80.64 90.7201L73.08 95.7601C75.9051 101.341 80.9746 105.84 89.9029 105.84C99.0379 105.84 105.84 101.095 105.84 92.4427C105.84 84.4102 101.233 80.837 93.0529 77.3326L90.6511 76.3088C86.5265 74.5173 84.735 73.3557 84.735 70.4715C84.735 68.1385 86.5265 66.347 89.3418 66.347C92.1079 66.347 93.8798 67.5184 95.5237 70.4715L103.015 65.6677C99.855 60.0863 95.4548 57.9601 89.3418 57.9601Z" fill="#F7DF1F"/>
</svg>
