<svg width="126" height="126" viewBox="0 0 126 126" fill="none" xmlns="http://www.w3.org/2000/svg">
<path d="M93.695 72.2573V72.2577C91.8997 63.3146 86.4246 55.6963 78.9045 51.0452C78.9041 51.0452 78.9021 51.0436 78.9017 51.0436L78.8932 51.0384C78.8908 51.0368 78.8884 51.0352 78.8855 51.034C78.187 50.6023 77.472 50.1976 76.7428 49.82L56.5943 39.7539V39.7543V39.7539L56.5951 39.7535L55.5116 39.2123C55.4486 39.1817 55.3856 39.1507 55.323 39.1193H55.3226C55.3181 39.1169 55.3141 39.1145 55.3096 39.1125H55.3092C55.3048 39.11 55.2999 39.108 55.2955 39.1056L55.2838 39.0996L55.2822 39.0984L55.2713 39.0931L55.2684 39.0915L55.2587 39.0867L55.2547 39.0847L55.247 39.0806C55.245 39.0798 55.243 39.079 55.2414 39.0778L55.2357 39.075C55.2329 39.0738 55.2305 39.0726 55.228 39.071C53.1362 37.9996 51.3514 36.4173 50.0401 34.4719C48.5595 32.2751 47.6962 29.631 47.6962 26.7857C47.6962 21.4985 50.68 16.9064 55.0608 14.5894L48.5575 17.9012C37.8544 23.2253 30.5052 34.2455 30.5052 46.9772L30.988 52.5633H30.9883L30.988 52.5621L31.013 52.5705L30.9883 52.5633C32.742 62.6486 39.1605 71.1391 47.9519 75.7431L47.9528 75.7439L47.9641 75.7499L47.9669 75.7512C47.9701 75.7528 47.9742 75.7556 47.9774 75.7568C47.9826 75.7604 47.9879 75.7632 47.9936 75.7656L48.0271 75.783L48.0311 75.7854L48.0396 75.7898L48.0457 75.7934L48.0537 75.7975L48.0598 75.8007L48.0675 75.8047L48.0756 75.8091L48.0812 75.8119C48.0861 75.814 48.0909 75.8168 48.0954 75.8192L50.1157 76.8287C50.1132 76.8234 50.1112 76.8174 50.1088 76.8114L50.1165 76.8291L50.1157 76.8287L50.1161 76.8295L52.5198 78.0298L69.3261 86.4264C73.9509 88.6616 77.1419 93.3844 77.1419 98.8517V98.9467C77.1415 98.9507 77.1415 98.9547 77.1415 98.9592V98.9785L77.1411 98.9861V99.0103V99.0168V99.0341L77.1407 99.0413V99.0465L77.1403 99.0747V99.0771C77.0834 102.638 75.6727 105.871 73.3991 108.288C72.3528 109.401 71.1287 110.334 69.777 111.049L73.9529 108.923L76.2807 107.739C86.9829 102.414 94.3329 91.3928 94.3329 78.66L93.695 72.2573Z" fill="#95C93F"/>
<path d="M30.5052 46.9772C30.5052 34.2457 37.8544 23.2252 48.5575 17.9009L55.0608 14.5894C50.6804 16.9067 47.6962 21.4985 47.6962 26.7854C47.6962 29.631 48.5595 32.2751 50.0401 34.4719C47.8368 39.9689 46.5542 45.6089 46.1227 51.2216C43.2577 52.6651 40.0917 53.4161 36.8816 53.4133C36.5635 53.4133 36.2444 53.4056 35.9235 53.3907C34.2508 53.3158 32.5934 53.038 30.988 52.5633L30.5052 46.9772ZM77.1423 98.8657V98.8516V98.8657ZM77.1423 98.881V98.869V98.881ZM77.1419 98.8971L77.1423 98.8835L77.1419 98.8971ZM77.1419 98.9116V98.9004V98.9116ZM77.1419 98.9277V98.9145V98.9277ZM77.1419 98.9418V98.9318V98.9418ZM77.1419 98.9592V98.9467V98.9592ZM77.1419 98.972V98.9644V98.9716V98.972ZM77.1415 98.9865V98.9789V98.9861V98.9865ZM77.1415 99.003V98.9966V99.003ZM77.1411 99.0167L77.1415 99.0103L77.1411 99.0167ZM77.1411 99.0345V99.0276V99.0345ZM77.1411 99.0465V99.0417V99.0465ZM77.1407 99.0771V99.0747V99.0771Z" fill="#95C93F"/>
<path d="M50.1169 76.8289L48.0958 75.819C48.0913 75.8162 48.0865 75.8138 48.0816 75.8114L48.076 75.809L48.0675 75.8045L48.0602 75.8005C48.0582 75.7993 48.0562 75.7981 48.0541 75.7973C48.0517 75.7957 48.0489 75.7945 48.0461 75.7933L48.04 75.7896L48.0315 75.7852L48.0275 75.7828L47.994 75.7655C47.9883 75.7631 47.983 75.7602 47.9778 75.757L47.9673 75.751L47.9649 75.7498L47.9536 75.7437L47.9523 75.7429C39.1609 71.1389 32.7422 62.6481 30.9885 52.5619C32.5939 53.0366 34.2512 53.3144 35.924 53.3897C36.2451 53.4046 36.5639 53.4119 36.8821 53.4119C40.0921 53.4143 43.2581 52.6637 46.1231 51.2202C45.444 60.0489 46.8681 68.8087 50.1169 76.8289Z" fill="#95C93F"/>
<path d="M56.5943 39.754L55.5113 39.2129C55.4478 39.1827 55.3848 39.1517 55.3222 39.1199C55.3178 39.1174 55.3133 39.1154 55.3089 39.1134C55.3044 39.111 55.2996 39.1086 55.2951 39.1062L55.2834 39.1001L55.2814 39.0993L55.2705 39.0937L55.2681 39.0925L55.258 39.0872L55.2543 39.0856L55.2462 39.0812C55.2446 39.0804 55.2426 39.0796 55.241 39.0788L55.2353 39.076C55.2325 39.0744 55.2297 39.0736 55.2273 39.0715C53.1359 38.0004 51.3511 36.4181 50.0397 34.4727C47.8364 39.9695 46.5538 45.6095 46.1219 51.2226C49.8681 49.3341 52.948 46.3532 54.9522 42.6769L56.5943 39.754ZM93.6947 72.2578C86.0275 77.3128 76.858 80.243 67.0627 80.243C66.3169 80.243 65.5671 80.226 64.8145 80.1914C60.6402 80.0022 56.5075 79.2762 52.5198 78.0308L69.3258 86.4274C73.9505 88.6625 77.1416 93.3853 77.1416 98.8526V98.9472C77.1412 98.9513 77.1412 98.9557 77.1412 98.9597V98.9794L77.1408 98.9867V99.0109L77.1404 99.0173V99.0346V99.0423V99.0471L77.1395 99.0753V99.0777C77.083 102.638 75.6723 105.872 73.3983 108.289C72.352 109.401 71.1283 110.335 69.7762 111.05L73.9526 108.924L76.2803 107.74C86.9825 102.415 94.3326 91.3934 94.3326 78.6609L93.6947 72.2578Z" fill="#95C93F"/>
<path d="M67.0639 80.2419C66.3178 80.2419 65.5684 80.225 64.8158 80.1904C60.641 80.0011 56.5087 79.2747 52.5206 78.0297L50.1169 76.829C46.8677 68.8084 45.4441 60.0494 46.1228 51.2215C49.8689 49.3335 52.9488 46.3526 54.953 42.6759L56.5952 39.7534L76.7433 49.8199C77.4753 50.1988 78.1928 50.6051 78.8937 51.0383L78.9021 51.0432L78.9054 51.0448C86.4255 55.6959 91.9006 63.3142 93.6955 72.2572C86.0288 77.3118 76.8596 80.2419 67.0639 80.2419Z" fill="#95C93F"/>
</svg>
