<?xml version="1.0" standalone="no"?>
<!DOCTYPE svg PUBLIC "-//W3C//DTD SVG 1.1//EN" "http://www.w3.org/Graphics/SVG/1.1/DTD/svg11.dtd" >
<svg xmlns="http://www.w3.org/2000/svg" xmlns:xlink="http://www.w3.org/1999/xlink" version="1.1">
<metadata>
Created by FontForge 20170731 at Wed Apr 28 16:42:51 2021
 By Aleksey,,,
Copyright 2020 The Tourney Project Authors (https://github.com/Etcetera-Type-Co/Tourney)
</metadata>
<defs>
<font id="Tourney-BlackItalic" horiz-adv-x="0" >
  <font-face 
    font-family="Tourney Black"
    font-weight="900"
    font-style="italic"
    font-stretch="normal"
    units-per-em="2000"
    panose-1="0 0 0 0 0 0 0 0 0 0"
    ascent="1600"
    descent="-400"
    x-height="1080"
    cap-height="1400"
    bbox="-554 -533 2771 2102"
    underline-thickness="50"
    underline-position="-175"
    slope="-12"
    unicode-range="U+000D-FB02"
  />
<missing-glyph horiz-adv-x="669" 
d="M-20 73l286 1344h509l-286 -1344h-509zM152 176l-24 26l129 98l-88 98l36 26l88 -98l130 98l24 -26l-130 -98l89 -98l-36 -26l-88 98zM245 612l-25 26l130 98l-88 98l35 26l89 -98l129 98l25 -26l-130 -98l88 -98l-35 -26l-88 98zM26 107h431l272 1276h-431zM337 1048
l-24 26l131 98l-89 98l35 25l88 -97l130 97l25 -25l-131 -98l89 -98l-36 -26l-88 98z" />
    <glyph glyph-name="fi" unicode="fi" horiz-adv-x="1920" 
d="M129 0l169 798h-202l60 282h202l46 214l249 206h450l-55 -263h-329l-54 -45l-24 -112h1081l-169 -797h267l-60 -283h-815l60 283h266l109 515h-799l-169 -798h-283zM299 135v0l171 805h1073l-171 -801h-272v0h564v0h-292l171 801h-1073l64 299l159 131h263v0h-263
l-159 -131l-64 -299h-215v0h215zM1434 1237l55 263h322l-55 -263h-322zM1620 1352v0l10 48v0z" />
    <glyph glyph-name="fl" unicode="fl" horiz-adv-x="1862" 
d="M129 0l169 798h-202l60 282h202l46 214l249 206h1097l-258 -1217h270l-60 -283h-822l60 283h270l203 954h-694l-54 -45l-24 -112h313l-60 -282h-313l-169 -798h-283zM297 135v0l172 806h336v0h-336l63 297l164 133h882l-262 -1232h-281v0h571v0h-290l262 1232h-882
l-164 -133l-63 -297h-214v0h214z" />
    <glyph glyph-name="f_f" unicode="ff" horiz-adv-x="1899" 
d="M129 0l169 798h-202l60 282h202l46 214l249 206h390l-55 -263h-269l-54 -45l-24 -112h313l-60 -282h-313l-169 -798h-283zM301 142h-1l169 798h325v0h-325l64 298l157 130h195v-1h-195l-156 -129l-64 -298h-216v0h216zM1079 0l169 798h-202l60 282h202l46 214l249 206
h390l-55 -263h-269l-54 -45l-24 -112h313l-60 -282h-313l-169 -798h-283zM1251 142h-1l169 798h325v0h-325l64 298l157 130h195v-1h-195l-156 -129l-64 -298h-216v0h216z" />
    <glyph glyph-name="f_f_i" unicode="ffi" horiz-adv-x="2871" 
d="M129 0l169 798h-202l60 282h202l46 214l249 206h390l-55 -263h-269l-54 -45l-24 -112h313l-60 -282h-313l-169 -798h-283zM301 142h-1l169 798h325v0h-325l64 298l157 130h195v-1h-195l-156 -129l-64 -298h-216v0h216zM1079 0l169 798h-202l60 282h202l46 214l249 206
h390l-55 -263h-269l-54 -45l-24 -112h313l-60 -282h-313l-169 -798h-283zM1251 142h-1l169 798h325v0h-325l64 298l157 130h195v-1h-195l-156 -129l-64 -298h-216v0h216zM2385 1237l55 263h322l-55 -263h-322zM2571 1352h-1l10 48h1zM1895 0l60 283h267l109 514h-267l60 283
h549l-169 -797h267l-60 -283h-816zM2051 142h565v0h-288l169 797h-277v0h277l-169 -797h-277v0z" />
    <glyph glyph-name="f_f_l" unicode="ffl" horiz-adv-x="2812" 
d="M129 0l169 798h-202l60 282h202l46 214l249 206h390l-55 -263h-269l-54 -45l-24 -112h313l-60 -282h-313l-169 -798h-283zM301 142h-1l169 798h325v0h-325l64 298l157 130h195v-1h-195l-156 -129l-64 -298h-216v0h216zM1079 0l169 798h-202l60 282h202l46 214l249 206
h390l-55 -263h-269l-54 -45l-24 -112h313l-60 -282h-313l-169 -798h-283zM1251 142h-1l169 798h325v0h-325l64 298l157 130h195v-1h-195l-156 -129l-64 -298h-216v0h216zM1830 0l60 283h270l198 934h-270l60 283h552l-258 -1217h270l-60 -283h-822zM1986 142h571v0h-291
l258 1217h-280v0h280l-258 -1217h-280v0z" />
    <glyph glyph-name=".notdef" horiz-adv-x="669" 
d="M-20 73l286 1344h509l-286 -1344h-509zM152 176l-24 26l129 98l-88 98l36 26l88 -98l130 98l24 -26l-130 -98l89 -98l-36 -26l-88 98zM245 612l-25 26l130 98l-88 98l35 26l89 -98l129 98l25 -26l-130 -98l88 -98l-35 -26l-88 98zM26 107h431l272 1276h-431zM337 1048
l-24 26l131 98l-89 98l35 25l88 -97l130 97l25 -25l-131 -98l89 -98l-36 -26l-88 98z" />
    <glyph glyph-name=".null" 
 />
    <glyph glyph-name="nonmarkingreturn" horiz-adv-x="666" 
 />
    <glyph glyph-name="CR" unicode="&#xd;" horiz-adv-x="1200" 
 />
    <glyph glyph-name="space" unicode=" " horiz-adv-x="550" 
 />
    <glyph glyph-name="exclam" unicode="!" horiz-adv-x="558" 
d="M85 388l85 691l75 349h286l-75 -349l-209 -691h-162zM207 574h-1l100 476l45 209h1l-44 -209zM-73 0l62 294h314l-62 -294h-314zM91 142h48v0h-48v0z" />
    <glyph glyph-name="quotedbl" unicode="&#x22;" horiz-adv-x="860" 
d="M246 946l-10 172l60 282h302l-60 -282l-84 -172h-208zM377 1054h-1l13 62l33 152h1l-32 -152zM576 946l-10 172l60 282h302l-60 -282l-84 -172h-208zM707 1054h-1l13 62l33 152h1l-32 -152z" />
    <glyph glyph-name="numbersign" unicode="#" horiz-adv-x="1344" 
d="M82 0l95 298h-162l52 246h188l95 302h-163l52 246h188l99 308h285l-99 -308h163l99 308h285l-99 -308h167l-52 -246h-192l-95 -302h167l-52 -246h-194l-95 -298h-284l95 298h-164l-95 -298h-284zM345 418l182 559h467l-181 -559h-468zM540 544h164l94 302h-163zM247 112
h-1l100 307h466l-100 -307h-1l100 307h220v-1h-219l181 559h215v-1h-215l105 320h1l-105 -319h-466l104 319h2l-104 -319h-206v1h204l-182 -559h-199v1h200z" />
    <glyph glyph-name="dollar" unicode="$" horiz-adv-x="1282" 
d="M319 -96l20 96h-150l-162 206l54 252h283l-25 -114l48 -61h310l74 61l36 170l-48 61h-442l-162 206l88 413l250 206h144l20 96h281l-20 -96h136l162 -206l-54 -252h-283l25 114l-48 61h-285l-75 -61l-29 -137l49 -61h442l162 -206l-95 -446l-250 -206h-155l-20 -96h-281z
M474 -16h-1l32 152h215l175 144l66 310l-108 126h-444l-98 138l59 278l162 134h404l114 -144l-13 -60h-1l13 60l-113 144h-189l33 152h1l-33 -152h-216l-162 -134l-59 -278l98 -138h444l108 -126l-66 -310l-175 -144h-418l-113 144l14 68h1l-14 -68l112 -144h204z" />
    <glyph glyph-name="percent" unicode="%" horiz-adv-x="1556" 
d="M35 0l1303 1400h223l-1303 -1400h-223zM277 142h-1l1042 1117h1zM249 709l-104 132l91 427l160 132h357l104 -132l-91 -427l-160 -132h-357zM320 800h262l103 89l71 336l-66 86h-267l-103 -86l-71 -336zM320 800l-71 89l71 336l103 86h267l66 -86l-71 -336l-103 -89h-262
zM376 890h180l47 39l53 251l-30 39h-180l-48 -39l-53 -251zM786 -79l-104 132l91 427l160 132h357l104 -132l-91 -427l-160 -132h-357zM856 12h262l103 89l71 336l-65 86h-267l-104 -86l-71 -336zM856 12l-71 89l71 336l104 86h267l65 -86l-71 -336l-103 -89h-262zM912 102
h180l48 39l53 251l-31 39h-180l-47 -39l-53 -251z" />
    <glyph glyph-name="ampersand" unicode="&#x26;" horiz-adv-x="1282" 
d="M199 -1l-162 206l77 362l297 247l-115 156l47 223l250 206h234l162 -206l-47 -223l-185 -161l125 -175l16 74h244l-81 -381l-297 -328h-565zM358 282h283l89 89l-186 257l-188 -158l-31 -146zM303 142l-122 142l49 230l351 302l320 -452l-203 -222h-395zM303 142h395
l263 288l36 168v0l-36 -168l-60 -66l-320 452l223 187l33 155l-88 102h-140l-130 -102l-34 -156l136 -186l-351 -302l-49 -230zM581 816l-136 186l34 156l130 102h140l88 -102l-33 -155zM625 1002l72 66l4 15l-27 41h-45l-43 -41l-4 -15z" />
    <glyph glyph-name="quotesingle" unicode="'" horiz-adv-x="534" 
d="M246 946l-10 172l60 282h302l-60 -282l-84 -172h-208zM377 1054h-1l13 62l33 152h1l-32 -152z" />
    <glyph glyph-name="parenleft" unicode="(" horiz-adv-x="784" 
d="M162 -400l-168 214l312 1472l260 214h387l-370 -298l-278 -1304l244 -298h-387zM252 -265v-2l-106 134l294 1382l162 132l-1 -1l-160 -131l-294 -1382z" />
    <glyph glyph-name="parenright" unicode=")" horiz-adv-x="784" 
d="M226 -400h-387l370 298l278 1304l-244 298h387l168 -214l-312 -1472zM194 -265l161 132l294 1382l-106 131l1 1l106 -132l-294 -1382l-164 -134z" />
    <glyph glyph-name="asterisk" unicode="*" horiz-adv-x="804" 
d="M227 896l24 113l-119 -70l-79 177l160 92l-122 96l152 175l92 -72l26 121h218l-25 -120l121 71l78 -175l-164 -96l122 -92l-155 -177l-88 68l-23 -111h-218zM362 1012h-1l43 200l154 -123h-1l-154 123l200 119v-1l-200 -119l43 205h1l-43 -204l-146 114v1l146 -114
l-203 -121l1 1l203 121z" />
    <glyph glyph-name="plus" unicode="+" horiz-adv-x="836" 
d="M223 288l40 188h-188l54 256h188l40 188h256l-40 -188h188l-54 -256h-188l-40 -188h-256zM378 410h-1l40 191h198v-1h-198l41 194h1l-41 -193h-187l1 1h187z" />
    <glyph glyph-name="comma" unicode="," horiz-adv-x="558" 
d="M72 -160l96 160h-48l62 294h302l-58 -275l-163 -179h-191zM227 -62h-1l60 84l26 120h-48v1h49l-26 -121z" />
    <glyph glyph-name="hyphen" unicode="-" horiz-adv-x="836" 
d="M75 476l54 256h632l-54 -256h-632zM232 602h384v0h-384v0z" />
    <glyph glyph-name="period" unicode="." horiz-adv-x="558" 
d="M91 0l62 294h314l-62 -294h-314zM255 142h48v0h-48v0z" />
    <glyph glyph-name="slash" unicode="/" horiz-adv-x="624" 
d="M-143 -201l612 1701h283l-612 -1701h-283zM43 -77h-1l531 1458h1z" />
    <glyph glyph-name="zero" unicode="0" horiz-adv-x="1125" 
d="M132 0l-162 206l210 988l250 206h563l162 -206l-210 -988l-250 -206h-563zM370 283h267l74 61l105 494zM222 144l-58 71l790 983l52 -71l-180 -846l-167 -137h-437zM222 144h437l167 137l180 846l-109 134h-438l-165 -134l-180 -846zM114 281l180 846l165 134h438l57 -63
l-790 -983zM313 584l429 533h-253l-75 -61z" />
    <glyph glyph-name="one" unicode="1" horiz-adv-x="969" 
d="M-73 0l60 283h266l167 786l-282 -75l67 311l380 95h188l-238 -1117h270l-60 -283h-818zM98 142h534v0h-267l238 1119v0l-298 -79v0l298 79l-238 -1119h-267v0z" />
    <glyph glyph-name="two" unicode="2" horiz-adv-x="1080" 
d="M-74 0l123 577l250 206h381l74 61l45 212l-48 61h-244l-74 -61l-31 -143h-282l60 281l250 206h518l162 -206l-104 -488l-250 -206h-381l-73 -61l-34 -156h648l-60 -283h-930zM102 142h642v0h-642l78 366l175 144h370l159 138l72 339l-112 130h-362l-170 -130l-17 -82v0
l17 82l170 130h362l112 -130l-72 -339l-159 -138h-370l-175 -144z" />
    <glyph glyph-name="three" unicode="3" horiz-adv-x="1073" 
d="M132 0l-162 206l58 271h282l-29 -133l48 -61h237l74 61l33 153l-48 61h-216l60 282h215l76 67l32 149l-48 61h-237l-74 -61l-29 -133h-282l58 271l250 206h511l162 -206l-92 -431l-76 -63l49 -65l-91 -429l-250 -206h-511zM232 142h377l160 134l59 280l-110 144l172 144
l61 288l-104 127h-383l-157 -127l-21 -100v0l21 100l157 127h383l104 -127l-61 -288l-172 -144h-177v0h177l110 -144l-59 -280l-160 -134h-377l-107 134l20 94v0l-20 -94z" />
    <glyph glyph-name="four" unicode="4" horiz-adv-x="1088" 
d="M440 0l68 321h-539l70 327l551 752h431l-169 -796h166l-61 -283h-166l-68 -321h-283zM617 142h-1l66 309h201v-1h-202l172 809h-198l-473 -623l-39 -185h540zM142 451l39 185l474 623h199l-172 -808h-540zM341 604h228l103 487h-9l-313 -442z" />
    <glyph glyph-name="five" unicode="5" horiz-adv-x="1086" 
d="M132 0l-162 206l54 252h282l-25 -114l48 -61h250l74 61l64 299l-48 61h-240l-107 -96h-267l169 792h931l-60 -283h-649l-34 -160l36 30h418l162 -207l-122 -574l-250 -206h-524zM237 138h383l154 126l98 460l-101 126h-336l-126 -102h-81l109 511h661v0h-661l-109 -511
h81l126 102h336l101 -126l-98 -460l-154 -126h-383l-110 136l19 88v0l-19 -88z" />
    <glyph glyph-name="six" unicode="6" horiz-adv-x="1082" 
d="M132 0l-162 206l210 988l250 206h514l163 -206l-45 -213h-283l16 75l-48 61h-240l-74 -61l-30 -138l37 30h414l162 -206l-114 -536l-250 -206h-520zM241 142l-112 143l71 333l234 190h316l111 -137l-83 -392l-171 -137h-366zM329 283h246l74 61l56 260l-48 61h-226
l-98 -80l-52 -241zM241 142h366l171 137l83 392l-111 137h-316l-234 -190l107 507l163 134h373l105 -134l-9 -43v0l9 43l-105 134h-373l-163 -134l-178 -840z" />
    <glyph glyph-name="seven" unicode="7" horiz-adv-x="984" 
d="M-65 0l763 965l33 152h-602l60 283h884l-106 -495l-693 -905h-339zM217 142h-1l618 791l70 326h-622v1h623l-70 -327z" />
    <glyph glyph-name="eight" unicode="8" horiz-adv-x="1080" 
d="M132 0l-162 206l91 427l108 86l-71 89l82 386l250 206h518l162 -206l-82 -386l-109 -91l72 -84l-91 -427l-250 -206h-518zM230 142l-102 132l67 312l162 134h377l106 -134l-67 -312l-157 -132h-386zM230 142h386l157 132l67 312l-106 134l163 134l58 273l-101 132h-386
l-158 -132l-58 -273l105 -134l-162 -134l-67 -312zM357 720l-105 134l58 273l158 132h386l101 -132l-58 -273l-163 -134h-377zM329 283h244l74 61l37 172l-48 61h-244l-74 -61l-37 -172zM453 860h242l76 66l28 130l-48 61h-244l-74 -61l-28 -130z" />
    <glyph glyph-name="nine" unicode="9" horiz-adv-x="1082" 
d="M950 1400l162 -206l-210 -988l-250 -206h-514l-163 206l45 213h283l-16 -75l48 -61h240l74 61l30 138l-37 -30h-414l-162 206l114 536l250 206h520zM841 1258l112 -143l-71 -333l-234 -190h-316l-111 137l83 392l171 137h366zM753 1117h-246l-74 -61l-56 -260l48 -61h226
l98 80l52 241zM841 1258h-366l-171 -137l-83 -392l111 -137h316l234 190l-107 -507l-163 -134h-373l-105 134l9 43v0l-9 -43l105 -134h373l163 134l178 840z" />
    <glyph glyph-name="colon" unicode=":" horiz-adv-x="558" 
d="M151 787l62 294h314l-62 -294h-314zM315 929h48v0h-48v0zM-17 0l62 294h314l-62 -294h-314zM147 142h48v0h-48v0z" />
    <glyph glyph-name="semicolon" unicode=";" horiz-adv-x="558" 
d="M-51 -160l96 160h-48l62 294h302l-58 -275l-163 -179h-191zM104 -62h-1l60 84l26 120h-48v1h49l-26 -121zM151 787l62 294h314l-62 -294h-314zM315 929h48v0h-48v0z" />
    <glyph glyph-name="less" unicode="&#x3c;" horiz-adv-x="826" 
d="M588 -2l-513 419l73 346l692 423l-76 -359l-413 -238l1 2l312 -233zM517 258v-1l-318 253l32 154l427 256v-1l-427 -255l-32 -154z" />
    <glyph glyph-name="equal" unicode="=" horiz-adv-x="836" 
d="M75 276l54 256h632l-54 -256h-632zM232 402h384v0h-384v0zM75 676l54 256h632l-54 -256h-632zM232 802h384v0h-384v0z" />
    <glyph glyph-name="greater" unicode="&#x3e;" horiz-adv-x="826" 
d="M-14 -2l76 360l412 233l-1 -2l-311 238l76 359l512 -423l-73 -346zM167 258l426 252l32 154l-317 255v1l317 -256l-32 -154l-426 -253v1z" />
    <glyph glyph-name="question" unicode="?" horiz-adv-x="1100" 
d="M363 379l44 208l325 267l43 202l-49 61h-150l-75 -61l-25 -114h-282l54 252l250 206h426l162 -206l-98 -459l-324 -268l-18 -88h-283zM433 142h48v0h-48v0zM275 0l60 283h301l-60 -283h-301zM540 484h-1l9 44l307 262l69 324l-113 144h-250l-175 -144l-11 -52h-1l11 52
l175 144h251l114 -144l-69 -324l-307 -262z" />
    <glyph glyph-name="at" unicode="@" horiz-adv-x="1834" 
d="M151 -68l-169 214l240 1128l259 214h1192l169 -214l-164 -772l-260 -214h-254l-59 78l-95 -78h-404l-168 214l90 426l260 214h424l168 -214l-64 -302l35 -44h6l53 44l107 504l-50 64h-904l-78 -64l-178 -840l50 -64h1050l-62 -294h-1194zM252 78h1004v0h-1004l-107 136
l210 990l165 136h1044l107 -136l-136 -638l-165 -136h-108l-107 136l62 288l-100 152h-288l-160 -132l-66 -308l107 -136h280l165 136l107 -136h108l165 136l136 638l-107 136h-1044l-165 -136l-210 -990zM710 430l-107 136l66 308l160 132h288l100 -152l-62 -288l-165 -136
h-280zM793 582h176l53 44l38 178l-35 44h-176l-53 -44l-38 -178z" />
    <glyph glyph-name="A" unicode="A" horiz-adv-x="1288" 
d="M-34 0l254 1194l250 206h646l162 -206l-254 -1194h-282l88 412h-494l-88 -412h-282zM137 142h-1l87 407h782l-87 -407h-1l211 993l-98 124h-530l-152 -124zM396 694h494l77 362l-48 61h-372l-74 -61zM223 548l124 587l153 125h530l99 -125l-124 -587h-782z" />
    <glyph glyph-name="B" unicode="B" horiz-adv-x="1273" 
d="M-24 0l298 1400h782l162 -206l-76 -357l-108 -89l106 -135l-87 -407l-250 -206h-827zM150 138h598l179 148l57 270l-122 156h-67l222 202l44 205l-98 144h-574zM150 138l122 574h590l122 -156l-57 -270l-179 -148h-598zM272 712l117 551h574l98 -144l-44 -205l-222 -202
h-523zM319 283h406l74 61l30 141l-69 88h-379zM441 856h323l121 99l22 101l-48 61h-362z" />
    <glyph glyph-name="C" unicode="C" horiz-adv-x="1244" 
d="M162 0l-162 206l210 988l250 206h621l163 -206l-68 -322h-283l39 184l-48 61h-346l-74 -61l-152 -712l48 -61h346l74 61l39 184h283l-68 -322l-251 -206h-621zM265 142h478l163 134l25 120v0l-25 -120l-163 -134h-478l-109 139l180 848l169 139h472l110 -139l-26 -121v0
l26 121l-110 139h-472l-169 -139l-180 -848z" />
    <glyph glyph-name="D" unicode="D" horiz-adv-x="1289" 
d="M-24 0l298 1400h833l162 -206l-210 -988l-250 -206h-833zM319 283h413l74 61l152 712l-48 61h-413zM152 142h610l175 144l176 829l-113 144h-610zM152 142l238 1117h610l113 -144l-176 -829l-175 -144h-610z" />
    <glyph glyph-name="E" unicode="E" horiz-adv-x="1140" 
d="M-34 0l298 1400h910l-60 -283h-627l-58 -269h558l-60 -283h-558l-60 -282h627l-60 -283h-910zM141 142h635v0h-635l120 565h565v0h-565l118 552h635v0h-635z" />
    <glyph glyph-name="F" unicode="F" horiz-adv-x="1080" 
d="M-34 0l298 1400h890l-60 -283h-607l-58 -269h569l-60 -283h-569l-120 -565h-283zM137 142h-1l121 569h565v-1h-565l117 549h605v-1h-604z" />
    <glyph glyph-name="G" unicode="G" horiz-adv-x="1278" 
d="M172 0l-162 206l210 988l250 206h636l162 -206l-54 -252h-282l25 114l-48 61h-363l-74 -63l-151 -711l47 -60h363l74 61l30 138h-277l60 282h559l-119 -558l-250 -206h-636zM278 142h485l170 140l72 338h-269v0h269l-72 -338l-170 -140h-485l-110 140l179 843l163 134
h501l101 -134l-11 -53v0l11 53l-101 134h-501l-163 -134l-179 -843z" />
    <glyph glyph-name="H" unicode="H" horiz-adv-x="1295" 
d="M-24 0l298 1400h283l-118 -552h480l118 552h282l-298 -1400h-282l120 565h-480l-120 -565h-283zM147 142h-1l120 565h766l-120 -565h-1l238 1117h1l-118 -552h-766l118 552h1z" />
    <glyph glyph-name="I" unicode="I" horiz-adv-x="1059" 
d="M-34 0l60 283h274l178 834h-274l60 283h829l-60 -283h-273l-178 -834h273l-60 -283h-829zM122 142h578v0h-289l238 1117h289v0h-578v0h289l-238 -1117h-289v0z" />
    <glyph glyph-name="J" unicode="J" horiz-adv-x="1216" 
d="M173 0l-163 206l76 357h283l-47 -219l48 -61h298l74 61l165 773h-512l60 283h795l-254 -1194l-251 -206h-572zM274 147h434l170 139l207 973h-517v0h517l-207 -973l-170 -139h-434l-107 136l32 149v0l-32 -149z" />
    <glyph glyph-name="K" unicode="K" horiz-adv-x="1298" 
d="M-24 0l298 1400h283l-118 -552h349l145 119l92 433h283l-118 -552l-170 -140l110 -143l-120 -565h-283l95 447l-94 118h-349l-120 -565h-283zM149 142h-1l122 574h566l145 -194l-81 -380v0l81 380l-145 194l226 186l76 357v0l-76 -357l-226 -186h-566l116 543h1z" />
    <glyph glyph-name="L" unicode="L" horiz-adv-x="1091" 
d="M-24 0l298 1400h283l-238 -1117h608l-60 -283h-891zM148 142h613v0h-613l238 1117v0z" />
    <glyph glyph-name="M" unicode="M" horiz-adv-x="1741" 
d="M-24 0l298 1400h548l-42 -993h48l380 993h557l-298 -1400h-283l237 1116h-39l-383 -996h-502l40 996h-41l-237 -1116h-283zM146 142h-1l238 1117h292l-28 -982h259l397 982h290l-238 -1117h-1l238 1117h-289l-397 -982h-259l28 982h-291z" />
    <glyph glyph-name="N" unicode="N" horiz-adv-x="1465" 
d="M147 142h-1l238 1117h294l109 -1117h292l238 1117h1l-238 -1117h-293l-109 1117h-293zM-24 0l298 1400h543l99 -1113h53l237 1113h283l-298 -1400h-543l-101 1116h-51l-237 -1116h-283z" />
    <glyph glyph-name="O" unicode="O" horiz-adv-x="1306" 
d="M172 0l-162 206l210 988l250 206h664l162 -206l-210 -988l-250 -206h-664zM370 283h388l74 61l152 712l-48 61h-388l-74 -61l-152 -712zM275 142h521l163 134l180 849l-105 134h-521l-163 -134l-180 -849zM275 142l-105 134l180 849l163 134h521l105 -134l-180 -849
l-163 -134h-521z" />
    <glyph glyph-name="P" unicode="P" horiz-adv-x="1258" 
d="M-24 0l298 1400h831l162 -206l-117 -551l-273 -225h-529l-89 -418h-283zM147 142h-1l90 423h612l185 152l86 408l-105 134h-629zM408 701h391l98 80l59 275l-48 61h-411zM236 565l148 694h630l105 -134l-86 -408l-185 -152h-612z" />
    <glyph glyph-name="Q" unicode="Q" horiz-adv-x="1342" 
d="M835 -242l-189 242h-474l-162 206l210 988l250 206h690l162 -206l-210 -988l-147 -121l103 -135zM894 -67h-1l-158 209h83l170 138l181 848l-103 131h-558l-156 -131l-181 -848l109 -138h456zM370 283h414l75 61l151 712l-49 61h-414l-74 -61l-151 -712zM280 142
l-110 138l181 848l157 132h558l104 -132l-181 -848l-171 -138h-538z" />
    <glyph glyph-name="R" unicode="R" horiz-adv-x="1309" 
d="M-24 0l298 1400h863l162 -206l-92 -434l-146 -112l94 -133l-110 -515h-283l88 415l-78 100h-403l-110 -515h-283zM149 142h-1l111 521h613l133 -197l-69 -324h-1l69 324l-132 197l199 152l68 316l-102 128h-650zM429 798h442l74 62l42 196l-48 61h-442zM259 662l127 598
h651l103 -129l-68 -316l-201 -153h-612z" />
    <glyph glyph-name="S" unicode="S" horiz-adv-x="1302" 
d="M172 0l-162 206l54 252h283l-25 -114l48 -61h384l74 61l33 154l-48 61h-516l-162 206l91 429l250 206h635l162 -206l-54 -252h-283l25 114l-48 61h-359l-75 -61l-33 -153l49 -61h516l162 -206l-91 -430l-250 -206h-660zM268 142h509l174 138l63 300l-88 119h-521
l-110 146l60 283l165 131h498l98 -131l-12 -56v0l12 56l-98 131h-498l-165 -131l-60 -283l110 -146h521l88 -119l-63 -300l-174 -138h-509l-99 118l15 68v0l-15 -68z" />
    <glyph glyph-name="T" unicode="T" horiz-adv-x="1126" 
d="M273 0l238 1117h-347l60 283h976l-60 -283h-347l-238 -1117h-282zM445 142h-1l238 1117h357v0h-714v0h358z" />
    <glyph glyph-name="U" unicode="U" horiz-adv-x="1328" 
d="M172 0l-162 206l254 1194h283l-225 -1056l48 -61h410l74 61l225 1056h283l-254 -1194l-250 -206h-686zM271 142h548l162 129l210 988v0l-210 -988l-162 -129h-548l-106 131l210 986v0l-210 -986z" />
    <glyph glyph-name="V" unicode="V" horiz-adv-x="1338" 
d="M352 0l-296 376l218 1024h283l-189 -886l161 -203h115l246 203l189 886h283l-218 -1024l-456 -376h-336zM451 142h198l368 299l174 818v0l-174 -818l-368 -299h-198l-240 301l174 816v0l-174 -816z" />
    <glyph glyph-name="W" unicode="W" horiz-adv-x="1738" 
d="M274 1400h283l-237 -1116h44l377 996h502l-44 -996h43l237 1116h283l-298 -1400h-551l47 993h-48l-375 -993h-561zM384 1258l-238 -1117h299l383 982h260l-25 -982h288l238 1117h1l-238 -1117h-289l25 982h-260l-383 -982h-300l238 1117h1z" />
    <glyph glyph-name="X" unicode="X" horiz-adv-x="1353" 
d="M-24 0l110 515l234 193l-153 190l107 502h283l-81 -383l132 -169h199l205 169l82 383h283l-107 -502l-231 -190l149 -193l-109 -515h-283l84 397l-133 168h-199l-204 -168l-85 -397h-283zM148 142h-1l66 306l308 261h316l197 -261l-65 -306h-1l65 306l-196 260l305 252
l64 299h1l-64 -299l-305 -251h-317l-198 251l63 299h1l-63 -299l198 -252l-308 -260z" />
    <glyph glyph-name="Y" unicode="Y" horiz-adv-x="1294" 
d="M356 0l94 443l-318 382l122 575h283l-101 -473l214 -253h-19l323 253l101 473h283l-122 -575l-483 -382l-94 -443h-283zM528 142h-1l75 353l482 374l83 390h1l-83 -390l-483 -374v0l-322 374l83 390h1l-83 -390l322 -374z" />
    <glyph glyph-name="Z" unicode="Z" horiz-adv-x="1123" 
d="M145 142h621v0h-621l57 264l737 601l54 252h-611v0h611l-54 -252l-737 -601zM-44 0l96 448l738 605l14 64h-590l60 283h893l-95 -444l-730 -597l-16 -76h603l-60 -283h-913z" />
    <glyph glyph-name="bracketleft" unicode="[" horiz-adv-x="656" 
d="M-100 -400l404 1900h492l-63 -294h-198l-278 -1312h198l-63 -294h-492zM77 -248h211v0h-211l341 1604h211v0h-211z" />
    <glyph glyph-name="backslash" unicode="\" horiz-adv-x="624" 
d="M393 -201h-283l112 1701h283zM261 -77l87 1458h1l-87 -1458h-1z" />
    <glyph glyph-name="bracketright" unicode="]" horiz-adv-x="656" 
d="M358 -400h-492l63 294h198l278 1312h-198l63 294h492zM245 -248l341 1604h-211v0h211l-341 -1604h-211v0h211z" />
    <glyph glyph-name="asciicircum" unicode="^" horiz-adv-x="912" 
d="M14 980l346 448h293l148 -448h-293l-51 219v0l-149 -219h-294zM228 1078h-1l181 250h154l75 -250h-1l-75 250h-152z" />
    <glyph glyph-name="underscore" unicode="_" horiz-adv-x="1156" 
d="M75 -256l54 256h952l-54 -256h-952zM232 -126h704v0h-704v0z" />
    <glyph glyph-name="grave" unicode="`" horiz-adv-x="688" 
d="M562 1112h-247l-228 264h287zM386 1180l-93 126h1l93 -126h-1z" />
    <glyph glyph-name="a" unicode="a" horiz-adv-x="1253" 
d="M201 0l-162 206l61 285l249 206h544l9 39l-48 61h-675l60 283h813l162 -206l-142 -668l-250 -206h-621zM304 138l-102 126l40 186l128 106h637l-60 -282l-166 -136h-477zM304 138h477l166 136l114 532l-103 128h-625v0h625l103 -128l-54 -250h-637l-128 -106l-40 -186z
M399 283h345l74 61l17 80h-426l-51 -42l-8 -38z" />
    <glyph glyph-name="b" unicode="b" horiz-adv-x="1166" 
d="M173 0l-164 206l275 1294h283l-93 -439l24 19h466l163 -206l-142 -668l-250 -206h-562zM273 135l-109 136l105 492l214 176h398l94 -116l-118 -552l-167 -136h-417zM370 283h288l74 61l83 392l-48 62h-269l-97 -81l-79 -373zM273 135h417l167 136l118 552l-94 116h-398
l-214 -176l128 603v0l-233 -1095z" />
    <glyph glyph-name="c" unicode="c" horiz-adv-x="1250" 
d="M201 0l-162 206l142 668l250 206h764l-60 -283h-626l-74 -61l-84 -392l48 -61h626l-60 -283h-764zM310 141h558v0h-558l-113 137l113 531l162 131h566v0h-566l-162 -131l-113 -531z" />
    <glyph glyph-name="d" unicode="d" horiz-adv-x="1256" 
d="M765 0h-562l-164 206l142 668l251 206h466l16 -19l93 439h283l-275 -1294zM721 135h-417l-109 136l118 552l142 116h398l140 -176l-105 -492zM688 283l74 61l79 373l-63 81h-269l-74 -62l-83 -392l48 -61h288zM721 135l167 136l233 1095v0l-128 -603l-140 176h-398
l-142 -116l-118 -552l109 -136h417z" />
    <glyph glyph-name="e" unicode="e" horiz-adv-x="1253" 
d="M1052 1080l162 -206l-61 -285l-249 -206h-544l-9 -39l48 -61h675l-60 -283h-813l-162 206l142 668l250 206h621zM949 942l102 -126l-40 -186l-128 -106h-637l60 282l166 136h477zM949 942h-477l-166 -136l-114 -532l103 -128h625v0h-625l-103 128l54 250h637l128 106
l40 186zM854 797h-345l-74 -61l-17 -80h426l51 42l8 38z" />
    <glyph glyph-name="f" unicode="f" horiz-adv-x="950" 
d="M129 0l169 798h-202l60 282h202l46 214l249 206h390l-55 -263h-269l-54 -45l-24 -112h313l-60 -282h-313l-169 -798h-283zM301 142h-1l169 798h325v0h-325l64 298l157 130h195v-1h-195l-156 -129l-64 -298h-216v0h216z" />
    <glyph glyph-name="g" unicode="g" horiz-adv-x="1255" 
d="M-40 -400l60 282h562l98 81l12 57l-24 -20h-467l-162 206l142 668l249 206h563l163 -206l-228 -1068l-249 -206h-719zM115 -260h509l190 166l189 892l-107 142h-427l-165 -136l-108 -508l120 -154h346l243 192l-91 -428l-190 -166h-509v0zM316 142l-120 154l108 508
l165 136h427l107 -142l-98 -464l-243 -192h-346zM399 283h249l121 100l75 354l-49 61h-287l-74 -61l-83 -393z" />
    <glyph glyph-name="h" unicode="h" horiz-adv-x="1166" 
d="M-34 0l318 1499h283l-93 -438l23 19h467l162 -206l-185 -874h-283l156 736l-48 62h-268l-97 -81l-152 -717h-283zM143 142h-1l133 628l210 171h393l96 -120l-144 -679h-1l144 679l-95 120h-393l-210 -171l123 576h1z" />
    <glyph glyph-name="i" unicode="i" horiz-adv-x="972" 
d="M486 1237l55 263h322l-55 -263h-322zM672 1352h-1l10 48h1zM-4 0l60 283h267l109 514h-267l60 283h549l-169 -797h267l-60 -283h-816zM152 142h565v0h-288l169 797h-277v0h277l-169 -797h-277v0z" />
    <glyph glyph-name="j" unicode="j" horiz-adv-x="767" 
d="M-217 -400l60 282h251l97 81l178 835h-331l60 282h614l-271 -1274l-250 -206h-408zM-23 -253h177l163 140l224 1053h-331v1h331l-224 -1054l-163 -141h-177v1zM462 1236l56 264h283l-56 -264h-283zM629 1352h-1l11 48h1z" />
    <glyph glyph-name="k" unicode="k" horiz-adv-x="1139" 
d="M-24 0l298 1400h283l-154 -722h204l145 119l60 283h283l-86 -402l-170 -140l110 -143l-84 -395h-283l59 277l-94 118h-204l-84 -395h-283zM149 142h-1l85 397h416l145 -195l-43 -202h-1l43 202l-144 195l227 187l45 214h1l-45 -214l-228 -187h-416l153 720h1z" />
    <glyph glyph-name="l" unicode="l" horiz-adv-x="913" 
d="M-69 0l60 283h270l198 934h-270l60 283h552l-258 -1217h270l-60 -283h-822zM87 142h571v0h-291l258 1217h-280v0h280l-258 -1217h-280v0z" />
    <glyph glyph-name="m" unicode="m" horiz-adv-x="1613" 
d="M-5 0l186 874l250 206h387l82 -102l125 102h387l162 -206l-186 -874h-283l157 736l-48 61h-150l-74 -61l-144 -676h-283l144 676l-48 61h-150l-74 -61l-157 -736h-283zM164 142h-1l141 660l167 138h277l113 -144l-126 -594h-1l126 594l176 144h277l109 -138l-141 -660h-1
l141 660l-108 138h-277l-175 -144l-113 144h-277l-166 -138z" />
    <glyph glyph-name="n" unicode="n" horiz-adv-x="1180" 
d="M-5 0l186 874l250 206h548l162 -206l-186 -874h-282l157 736l-48 61h-274l-74 -61l-157 -736h-282zM168 142h-1l139 650l179 148h387l115 -146l-139 -652h-1l139 652l-114 146h-387l-178 -148z" />
    <glyph glyph-name="o" unicode="o" horiz-adv-x="1257" 
d="M201 0l-162 206l142 668l250 206h625l162 -206l-142 -668l-250 -206h-625zM311 142h477l161 140l112 524l-103 134h-485l-161 -134l-112 -524zM311 142l-111 140l112 524l161 134h485l103 -134l-112 -524l-161 -140h-477zM399 283h349l74 61l84 392l-48 61h-349l-74 -61
l-84 -392z" />
    <glyph glyph-name="p" unicode="p" horiz-adv-x="1188" 
d="M-115 -378l266 1252l250 206h586l162 -206l-142 -668l-250 -206h-490l-14 20l-85 -398h-283zM57 -240h-1l121 568l145 -185h397l169 137l113 532l-103 128h-451l-168 -138zM389 283h291l74 61l83 392l-48 62h-310l-74 -62l-79 -373zM322 142l-145 186l101 474l169 138
h451l104 -128l-113 -532l-170 -138h-397z" />
    <glyph glyph-name="q" unicode="q" horiz-adv-x="1278" 
d="M913 -378h-283l85 398l-24 -20h-490l-162 206l142 668l250 206h586l162 -206zM799 -240l222 1042l-110 138h-451l-157 -128l-113 -532l111 -137h397l223 185l-121 -568h-1zM691 283l97 80l79 373l-48 62h-310l-74 -62l-83 -392l48 -61h291zM698 142h-397l-112 138
l113 532l158 128h451l111 -138l-101 -474z" />
    <glyph glyph-name="r" unicode="r" horiz-adv-x="1148" 
d="M-5 -1l61 283h194l107 501l-12 15h-177l60 282h253l51 -80l94 80h388l172 -219l-263 -212l-106 148h-113l-74 -61l-97 -455h194l-60 -282h-672zM154 142h415v0h-209l144 674l151 124h269l69 -100v0l-69 100h-269l-151 -124l-90 124h-90v0h90l91 -124l-144 -674h-207v0z
" />
    <glyph glyph-name="s" unicode="s" horiz-adv-x="1203" 
d="M5 0l60 283h630l74 61l-1 -5l-46 60h-436l-162 206l57 269l250 206h757l-60 -283h-620l-74 -61l1 6l48 -61h434l162 -206l-57 -269l-250 -206h-767zM190 145h554l150 124l34 157l-99 119h-462l-89 114l34 157l149 123h543v0h-543l-149 -123l-34 -157l89 -114h462l99 -119
l-34 -157l-150 -124h-554v0z" />
    <glyph glyph-name="t" unicode="t" horiz-adv-x="935" 
d="M179 0l170 798h-249l60 282h249l58 274h283l-58 -274h248l-60 -282h-248l-110 -515h241l-60 -283h-524zM351 143h258v-1h-258l170 800h263v-1h-263l61 288v0l-61 -287h-264l1 1h264z" />
    <glyph glyph-name="u" unicode="u" horiz-adv-x="1202" 
d="M201 0l-162 206l186 874h283l-157 -736l48 -61h294l74 61l157 736h283l-186 -874l-250 -206h-570zM311 142h417l171 150l138 648v0l-138 -648l-171 -150h-417l-114 151l138 647v0l-138 -647z" />
    <glyph glyph-name="v" unicode="v" horiz-adv-x="1200" 
d="M168 0l-8 1080h309l-10 -796h177l325 796h309l-464 -1080h-638zM319 142h399l344 798v0l-344 -798h-399l-5 798v0z" />
    <glyph glyph-name="w" unicode="w" horiz-adv-x="1613" 
d="M225 1080h283l-157 -736l48 -61h150l74 61l144 676h283l-144 -676l48 -61h150l74 61l157 736h283l-186 -874l-250 -206h-387l-81 102l-126 -102h-387l-162 206zM334 938l-141 -660l108 -138h277l175 144l113 -144h277l166 138l141 660h1l-141 -660l-167 -138h-277
l-114 144l126 594h1l-126 -594l-175 -144h-277l-109 138l141 660h1z" />
    <glyph glyph-name="x" unicode="x" horiz-adv-x="1252" 
d="M-5 0l78 365l221 183l-144 180l75 352h283l-49 -233l123 -159h150l192 159l50 233h283l-76 -352l-218 -180l141 -183l-77 -365h-283l52 247l-124 158h-150l-191 -158l-53 -247h-283zM169 142h-1l34 156l292 248h266l187 -248l-33 -156h-1l33 156l-186 248l291 240l33 154
h1l-33 -154l-292 -241h-266l-188 241l32 154h1l-32 -154l187 -240l-291 -248z" />
    <glyph glyph-name="y" unicode="y" horiz-adv-x="1251" 
d="M202 0l-162 206l185 874h283l-156 -736l48 -61h245l121 100l148 697h282l-271 -1274l-249 -206h-715l60 282h558l98 81l12 57l-24 -20h-463zM107 -263h509l192 162l222 1041v0l-128 -598l-243 -200h-355l-110 143l140 655v0l-140 -655l110 -143h355l243 200l-94 -443
l-192 -162h-509v0z" />
    <glyph glyph-name="z" unicode="z" horiz-adv-x="1070" 
d="M196 142h554v0h-554l44 204l591 378l46 216h-533v0h533l-46 -216l-591 -378zM-5 0l85 399l593 368l7 30h-496l60 283h831l-87 -407l-584 -358l-7 -32h508l-60 -283h-850z" />
    <glyph glyph-name="braceleft" unicode="{" horiz-adv-x="822" 
d="M349 362l-132 -620h195v0h-195l132 620l-121 189l201 189l132 618h215v0h-215l-132 -618l-201 -189zM504 362l-99 -468h198l-63 -294h-492l160 751l-128 200l213 200l159 749h492l-63 -294h-198l-99 -466l-201 -189z" />
    <glyph glyph-name="bar" unicode="|" horiz-adv-x="618" 
d="M-43 -428l410 1928h294l-410 -1928h-294zM132 -306h-1l358 1683h1z" />
    <glyph glyph-name="braceright" unicode="}" horiz-adv-x="822" 
d="M393 362l201 189l-121 189l132 618h-215v0h215l-132 -618l121 -189l-201 -189l-132 -620h-195v0h195zM238 362l201 189l-121 189l99 466h-198l63 294h492l-159 -749l127 -200l-212 -200l-160 -751h-492l63 294h198z" />
    <glyph glyph-name="asciitilde" unicode="~" horiz-adv-x="780" 
d="M86 509l29 136l135 112h178l44 -56h18l12 56h192l-29 -136l-135 -112h-178l-44 56h-18l-12 -56h-192zM200 579h-1l4 20l81 72h82l48 -74h88l82 72l4 20h1l-4 -20l-83 -72h-88l-48 74h-82l-80 -72z" />
    <glyph glyph-name="uni00A0" unicode="&#xa0;" horiz-adv-x="550" 
 />
    <glyph glyph-name="exclamdown" unicode="&#xa1;" horiz-adv-x="558" 
d="M265 1012h162l-85 -691l-74 -349h-286l74 349zM308 826l-101 -476l-46 -209h-1l45 209l102 476h1zM274 1400h314l-63 -294h-314zM378 1258h1h47h-1h-47z" />
    <glyph glyph-name="cent" unicode="&#xa2;" horiz-adv-x="1178" 
d="M291 0l33 154h-92l-162 206l144 680l250 206h92l33 154h304l-33 -154h88l162 -206l-49 -230h-283l20 92l-48 61h-208l-74 -61l-86 -404l48 -61h208l74 61l20 92h283l-49 -230l-250 -206h-88l-33 -154h-304zM462 96h-1l41 196h160l177 146l7 32h1l-7 -32l-178 -146h-307
l-123 156l111 518l179 148h315l115 -146l-7 -32h-1l7 32l-114 146h-159l42 196h1l-42 -196h-157l-178 -148l-111 -518l122 -156h148z" />
    <glyph glyph-name="sterling" unicode="&#xa3;" horiz-adv-x="1204" 
d="M-74 0l60 283h120l74 61l43 202h-159l55 256h159l83 392l250 206h627l-60 -283h-489l-74 -61l-54 -254h190l-55 -256h-190l-56 -263h546l-60 -283h-1010zM55 143h794v0h-704l160 132l83 394h216v0h-216l98 459l165 135h444v0h-444l-165 -135l-98 -459h-168v0h168
l-83 -394l-160 -132h-90v0z" />
    <glyph glyph-name="currency" unicode="&#xa4;" horiz-adv-x="1240" 
d="M48 8l-142 181l179 148l-11 14l111 523l17 14l-120 152l220 181l120 -152l13 11h558l10 -13l187 154l142 -181l-186 -154l9 -12l-111 -523l-10 -8l122 -154l-220 -181l-121 154l-21 -17h-558l-8 11zM434 428h282l74 61l53 247l-48 61h-282l-74 -61l-53 -247zM77 185
l211 174l58 -75h410l91 75l137 -174v0l-137 174l70 58l83 391l-49 62l211 175v0l-211 -175l-56 71h-418l-85 -71l-137 175v0l137 -175l-78 -64l-81 -379l55 -68l-211 -174v0zM346 284l-113 143l81 379l163 135h418l105 -133l-83 -391l-161 -133h-410z" />
    <glyph glyph-name="yen" unicode="&#xa5;" horiz-adv-x="1220" 
d="M319 0l15 70h-173l52 246h173l7 31h-173l47 222l-151 181l138 650h283l-117 -548l178 -208l266 208l117 548h283l-138 -650l-226 -179l-48 -224h-176l-7 -31h176l-52 -246h-176l-15 -70h-283zM485 122v0l16 73h194v0h-194l56 267h194v0h-194l437 332l102 482v0l-102 -482
l-437 -332v0l-293 332l102 482v0l-102 -482l293 -332h-190v0h190l-56 -267h-190v0h190z" />
    <glyph glyph-name="brokenbar" unicode="&#xa6;" horiz-adv-x="619" 
d="M190 665l178 835h294l-178 -835h-294zM362 787v0l126 590v0zM-36 -400l178 835h294l-178 -835h-294zM136 -278v0l125 590v0z" />
    <glyph glyph-name="section" unicode="&#xa7;" horiz-adv-x="1166" 
d="M-54 -189l60 283h563l72 59l-45 57h-369l-162 206l57 269l78 64l-51 63l57 269l250 206h690l-60 -283h-553l-71 -58l46 -58h367l162 -206l-57 -269l-76 -63l49 -64l-57 -269l-250 -206h-700zM121 -45h487l166 135l30 137l-105 127l160 132l29 137l-102 124h-383l-99 119
l34 157l159 128h466v0h-466l-159 -128l-34 -157l99 -119l-158 -130l-29 -137l100 -126h383l105 -127l-30 -137l-166 -135h-487v0zM424 492h232l69 57l-45 57h-234l-68 -56zM316 354l-100 126l29 137l158 130h383l102 -124l-29 -137l-160 -132h-383z" />
    <glyph glyph-name="dieresis" unicode="&#xa8;" horiz-adv-x="944" 
d="M552 1132l44 210h212l-44 -210h-212zM136 1132l44 210h212l-44 -210h-212zM261 1226h-1l4 20h1zM679 1226h-1l4 20h1z" />
    <glyph glyph-name="copyright" unicode="&#xa9;" horiz-adv-x="1618" 
d="M209 -28l-168 214l218 1028l260 214h910l168 -214l-218 -1028l-260 -214h-910zM296 126h804l158 130l190 896l-102 130h-804l-158 -130l-190 -896zM296 126l-102 130l190 896l158 130h804l102 -130l-190 -896l-158 -130h-804zM635 414h262l118 104l7 32v0l-7 -32
l-118 -104h-262l-90 114l73 340l128 106h270l74 -104l-7 -32v0l7 32l-74 104h-270l-128 -106l-73 -340zM396 266h662l77 64l158 740l-51 64h-662l-77 -64l-158 -740zM545 300l-127 164l100 470l196 162h380l128 -162l-40 -188h-232l16 74l-33 44h-154l-53 -44l-52 -244
l34 -44h154l52 44l16 76h232l-40 -188l-197 -164h-380z" />
    <glyph glyph-name="ordfeminine" unicode="&#xaa;" horiz-adv-x="885" 
d="M280.428 717l-104.314 132.647l39.2793 183.518l160.336 132.647h350.293l5.79492 25.1133l-30.9082 39.2793h-434.646l38.6357 182.229h523.507l104.315 -132.647l-91.4365 -430.14l-160.98 -132.647h-399.875zM346.752 805.861l-65.6797 81.1338l25.7568 119.77
l82.4219 68.2549h410.178l-38.6357 -181.585l-106.891 -87.5732h-307.15zM346.752 805.861h307.15l106.891 87.5732l73.4072 342.565l-66.3242 82.4219h-402.45v0h402.45l66.3242 -82.4219l-34.7715 -160.98h-410.178l-82.4219 -68.2549l-25.7568 -119.77zM407.925 899.229
h222.152l47.6504 39.2793l10.9463 51.5137h-274.311l-32.8398 -27.0449l-5.15137 -24.4688z" />
    <glyph glyph-name="guillemotleft" unicode="&#xab;" horiz-adv-x="1200" 
d="M979 216l-395 250l63 293l500 244l-63 -293l-239 -98v0l197 -102zM922 409v-1l-223 128l33 154l277 128v-1l-277 -128l-32 -152zM481 216l-395 250l63 293l500 244l-63 -293l-239 -98v0l197 -102zM424 409v-1l-223 128l33 154l277 128v-1l-277 -128l-32 -152z" />
    <glyph glyph-name="logicalnot" unicode="&#xac;" horiz-adv-x="1128" 
d="M1085 883l-116 -548h-283l56 265h-641l60 283h924zM917 742h-662v0h662l-59 -281v0z" />
    <glyph glyph-name="uni00AD" unicode="&#xad;" horiz-adv-x="836" 
d="M75 476l54 256h632l-54 -256h-632zM232 602h384v0h-384v0z" />
    <glyph glyph-name="registered" unicode="&#xae;" horiz-adv-x="1382" 
d="M212 262l-168 214l156 738l260 214h710l168 -214l-156 -738l-260 -214h-710zM288 366h604l158 130l139 656l-102 130h-604l-158 -130l-139 -656zM288 366l-102 130l139 656l158 130h604l102 -130l-139 -656l-158 -130h-604zM396 546h462l78 64l100 470l-50 64h-462
l-78 -64l-100 -470zM390 602l73 344l197 162h210l130 -166l-221 -158l-72 92h18l-54 -44l-49 -230h-232zM526 692h-1l42 196l109 88h123l36 -47h-1l-36 47h-122l-108 -88z" />
    <glyph glyph-name="macron" unicode="&#xaf;" horiz-adv-x="836" 
d="M75 1119l54 256h632l-54 -256h-632zM232 1245h384v0h-384v0z" />
    <glyph glyph-name="degree" unicode="&#xb0;" horiz-adv-x="884" 
d="M277.643 709l-103.682 131.843l90.8818 427.53l160.004 131.843h400.009l103.683 -131.843l-90.8818 -427.53l-160.004 -131.843h-400.01zM348.045 799.882h305.287l103.042 89.6025l71.6816 335.367l-65.9219 85.7617h-310.407l-103.042 -85.7617l-71.6816 -335.367z
M348.045 799.882l-71.042 89.6025l71.6816 335.367l103.042 85.7617h310.407l65.9219 -85.7617l-71.6816 -335.367l-103.042 -89.6025h-305.287zM404.366 890.124h223.364l47.3613 39.041l53.7617 250.886l-30.7207 39.041h-223.365l-47.3613 -39.041l-53.7607 -250.886z
" />
    <glyph glyph-name="plusminus" unicode="&#xb1;" horiz-adv-x="940" 
d="M276 538l40 188h-188l54 256h188l40 188h256l-40 -188h188l-54 -256h-188l-40 -188h-256zM431 660h-1l40 191h198v-1h-198l41 194h1l-41 -193h-187l1 1h187zM128 235l54 256h632l-54 -256h-632zM285 361h384v0h-384v0z" />
    <glyph glyph-name="uni00B2" unicode="&#xb2;" horiz-adv-x="513" 
d="M103 830l51 238l106 85h131l24 20l18 84l-16 20h-75l-24 -20l-13 -62h-124l26 120l106 85h186l70 -84l-43 -199l-106 -87h-130l-25 -21l-11 -56h237l-27 -123h-361zM181 892h236v0h-236l31 146l70 58h126l64 55l29 136l-45 52h-123l-68 -52l-7 -33v0l7 33l68 52h123
l45 -52l-29 -136l-64 -55h-126l-70 -58z" />
    <glyph glyph-name="uni00B3" unicode="&#xb3;" horiz-adv-x="511" 
d="M190 830l-68 87l24 114h123l-12 -58l15 -20h76l24 20l13 61l-16 19h-80l26 123h80l25 22l12 59l-16 20h-76l-23 -20l-12 -58h-124l24 114l107 87h186l68 -87l-37 -173l-30 -25l19 -26l-36 -172l-106 -87h-186zM231 892h132l64 53l24 112l-45 58l69 58l25 115l-42 51h-134
l-63 -51l-9 -40v0l9 40l63 51h134l42 -51l-25 -115l-69 -58h-60v0h60l45 -58l-24 -112l-64 -53h-132l-43 53l8 38v0l-8 -38z" />
    <glyph glyph-name="acute" unicode="&#xb4;" horiz-adv-x="688" 
d="M54 1112l300 264h287l-340 -264h-247zM258 1180h-1l147 126h1z" />
    <glyph glyph-name="uni00B5" unicode="&#xb5;" horiz-adv-x="1142" 
d="M-95 -428l320 1508h283l-156 -736l48 -61h234l74 61l156 736h283l-186 -874l-249 -206h-433l-91 -428h-283zM72 -306v0l126 593l114 -144h357l169 144l141 667v0l-141 -667l-169 -144h-357l-114 144l141 667v0z" />
    <glyph glyph-name="paragraph" unicode="&#xb6;" horiz-adv-x="1335" 
d="M372 -234l139 652h-221l-177 225l117 551l250 206h889l-348 -1634h-283l288 1352h-82l-288 -1352h-284zM540 -113v1l292 1374h365l-292 -1375v1l292 1374h-639l-164 -130l-90 -420l128 -162v0l-128 162l90 420l164 130h274z" />
    <glyph glyph-name="periodcentered" unicode="&#xb7;" horiz-adv-x="558" 
d="M91 588l62 294h314l-62 -294h-314zM255 730h48v0h-48v0z" />
    <glyph glyph-name="cedilla" unicode="&#xb8;" horiz-adv-x="638" 
d="M40 -349l33 157h205l37 32l-23 30h-134l33 157h244l123 -187l-203 -189h-315zM162 -272h157l122 112l-74 110h-85v0h85l74 -110l-122 -112h-157v0z" />
    <glyph glyph-name="uni00B9" unicode="&#xb9;" horiz-adv-x="467" 
d="M103 830l27 123h95l64 301l-101 -28l29 136l146 38h81l-95 -447h97l-27 -123h-316zM178 892h192v0h-96l95 447v0l-108 -30v0l108 30l-95 -447h-96v0z" />
    <glyph glyph-name="ordmasculine" unicode="&#xba;" horiz-adv-x="884" 
d="M277.643 709l-103.682 131.843l90.8818 427.53l160.004 131.843h400.009l103.683 -131.843l-90.8818 -427.53l-160.004 -131.843h-400.01zM348.045 799.882h305.287l103.042 89.6025l71.6816 335.367l-65.9219 85.7617h-310.407l-103.042 -85.7617l-71.6816 -335.367z
M348.045 799.882l-71.042 89.6025l71.6816 335.367l103.042 85.7617h310.407l65.9219 -85.7617l-71.6816 -335.367l-103.042 -89.6025h-305.287zM404.366 890.124h223.364l47.3613 39.041l53.7617 250.886l-30.7207 39.041h-223.365l-47.3613 -39.041l-53.7607 -250.886z
" />
    <glyph glyph-name="guillemotright" unicode="&#xbb;" horiz-adv-x="1200" 
d="M53 216l63 294l241 102v0l-199 98l63 293l396 -244l-63 -293zM192 409l278 128l32 152l-223 128v1l223 -128l-33 -154l-277 -128v1zM551 216l63 294l241 102v0l-199 98l63 293l396 -244l-63 -293zM690 409l278 128l32 152l-223 128v1l223 -128l-33 -154l-277 -128v1z" />
    <glyph glyph-name="onequarter" unicode="&#xbc;" horiz-adv-x="1022" 
d="M103 830l27 123h95l64 301l-101 -28l29 136l146 38h81l-95 -447h97l-27 -123h-316zM178 892h192v0h-96l95 447v0l-108 -30v0l108 30l-95 -447h-96v0zM-87 0l1040 1400h154l-1039 -1400h-155zM32 53v0l964 1300v0zM642 0l28 128h-188l29 136l180 306h196l-68 -318h58
l-26 -124h-58l-28 -128h-123zM642 252h54l39 184h3l-93 -171zM719 62v0l26 123h72v0h-72l69 324h-98l-144 -250l-15 -74h188zM557 185l15 74l144 250h98l-69 -324h-188z" />
    <glyph glyph-name="onehalf" unicode="&#xbd;" horiz-adv-x="1066" 
d="M103 830l27 123h95l64 301l-101 -28l29 136l146 38h81l-95 -447h97l-27 -123h-316zM178 892h192v0h-96l95 447v0l-108 -30v0l108 30l-95 -447h-96v0zM-87 0l1040 1400h154l-1039 -1400h-155zM32 53v0l964 1300v0zM480 0l51 238l106 85h131l24 20l18 84l-16 20h-75
l-24 -20l-13 -62h-124l26 120l106 85h186l70 -84l-43 -199l-106 -87h-130l-25 -21l-11 -56h237l-27 -123h-361zM558 62h236v0h-236l31 146l70 58h126l64 55l29 136l-45 52h-123l-68 -52l-7 -33v0l7 33l68 52h123l45 -52l-29 -136l-64 -55h-126l-70 -58z" />
    <glyph glyph-name="threequarters" unicode="&#xbe;" horiz-adv-x="1066" 
d="M190 830l-68 87l24 114h123l-12 -58l15 -20h76l24 20l13 61l-16 19h-80l26 123h80l25 22l12 59l-16 20h-76l-23 -20l-12 -58h-124l24 114l107 87h186l68 -87l-37 -173l-30 -25l19 -26l-36 -172l-106 -87h-186zM231 892h132l64 53l24 112l-45 58l69 58l25 115l-42 51h-134
l-63 -51l-9 -40v0l9 40l63 51h134l42 -51l-25 -115l-69 -58h-60v0h60l45 -58l-24 -112l-64 -53h-132l-43 53l8 38v0l-8 -38zM-43 0l1040 1400h154l-1039 -1400h-155zM76 53v0l964 1300v0zM686 0l28 128h-188l29 136l180 306h196l-68 -318h58l-26 -124h-58l-28 -128h-123z
M686 252h54l39 184h3l-93 -171zM763 62v0l26 123h72v0h-72l69 324h-98l-144 -250l-15 -74h188zM601 185l15 74l144 250h98l-69 -324h-188z" />
    <glyph glyph-name="questiondown" unicode="&#xbf;" horiz-adv-x="1100" 
d="M755 1021l-44 -208l-325 -267l-43 -202l49 -61h150l75 61l25 114h282l-54 -252l-250 -206h-426l-162 206l98 459l324 268l18 88h283zM685 1258h-48v0h48v0zM843 1400l-60 -283h-301l60 283h301zM578 916h1l-9 -44l-307 -262l-69 -324l113 -144h250l175 144l11 52h1
l-11 -52l-175 -144h-251l-114 144l69 324l307 262z" />
    <glyph glyph-name="Agrave" unicode="&#xc0;" horiz-adv-x="1288" 
d="M-34 0l254 1194l250 206h646l162 -206l-254 -1194h-282l88 412h-494l-88 -412h-282zM137 142h-1l87 407h782l-87 -407h-1l211 993l-98 124h-530l-152 -124zM396 694h494l77 362l-48 61h-372l-74 -61zM223 548l124 587l153 125h530l99 -125l-124 -587h-782zM923 1432h-247
l-228 264h287zM747 1500l-93 126h1l93 -126h-1z" />
    <glyph glyph-name="Aacute" unicode="&#xc1;" horiz-adv-x="1311" 
d="M-94 0l667 1400h508l76 -1400h-325l-10 296h-456l-134 -296h-326zM123 121v0l141 299h717l15 -299v0l-60 1139h-276zM264 420l396 840h276l45 -840h-717zM477 552h344l-18 564h-77zM719 1432l300 264h287l-340 -264h-247zM923 1500h-1l147 126h1z" />
    <glyph glyph-name="Acircumflex" unicode="&#xc2;" horiz-adv-x="1311" 
d="M-94 0l667 1400h508l76 -1400h-325l-10 296h-456l-134 -296h-326zM123 121v0l141 299h717l15 -299v0l-60 1139h-276zM264 420l396 840h276l45 -840h-717zM477 552h344l-18 564h-77zM765 1716h252l164 -284h-277l-50 108l-96 -108h-277zM816 1638l-110 -116v0l110 116h114
l60 -116v0l-60 116h-114z" />
    <glyph glyph-name="Atilde" unicode="&#xc3;" horiz-adv-x="1288" 
d="M-34 0l254 1194l250 206h646l162 -206l-254 -1194h-282l88 412h-494l-88 -412h-282zM137 142h-1l87 407h782l-87 -407h-1l211 993l-98 124h-530l-152 -124zM396 694h494l77 362l-48 61h-372l-74 -61zM223 548l124 587l153 125h530l99 -125l-124 -587h-782zM524 1432
l29 136l135 112h178l44 -56h18l12 56h192l-29 -136l-135 -112h-178l-44 56h-18l-12 -56h-192zM638 1502h-1l4 20l81 72h82l48 -74h88l82 72l4 20h1l-4 -20l-83 -72h-88l-48 74h-82l-80 -72z" />
    <glyph glyph-name="Adieresis" unicode="&#xc4;" horiz-adv-x="1288" 
d="M-34 0l254 1194l250 206h646l162 -206l-254 -1194h-282l88 412h-494l-88 -412h-282zM137 142h-1l87 407h782l-87 -407h-1l211 993l-98 124h-530l-152 -124zM396 694h494l77 362l-48 61h-372l-74 -61zM223 548l124 587l153 125h530l99 -125l-124 -587h-782zM905 1452
l44 210h212l-44 -210h-212zM489 1452l44 210h212l-44 -210h-212zM614 1546h-1l4 20h1zM1032 1546h-1l4 20h1z" />
    <glyph glyph-name="Aring" unicode="&#xc5;" horiz-adv-x="1288" 
d="M-34 0l254 1194l250 206h646l162 -206l-254 -1194h-282l88 412h-494l-88 -412h-282zM137 142h-1l87 407h782l-87 -407h-1l211 993l-98 124h-530l-152 -124zM396 694h494l77 362l-48 61h-372l-74 -61zM223 548l124 587l153 125h530l99 -125l-124 -587h-782zM710 1430
l-78 97l37 174l119 98h183l77 -98l-37 -174l-118 -97h-183zM766 1515h108l63 51l21 100l-41 52h-108l-63 -52l-21 -100zM766 1515l-41 51l21 100l63 52h108l41 -52l-21 -100l-63 -51h-108zM828 1597h17l11 10l4 15l-7 9h-17l-11 -9l-4 -15z" />
    <glyph glyph-name="AE" unicode="&#xc6;" horiz-adv-x="1934" 
d="M-119 0l893 1400h1147l-60 -283h-550l-58 -269h512l-60 -283h-512l-60 -282h550l-60 -283h-833l88 412h-429l-261 -412h-307zM79 112h-1l283 435h699l-89 -420h582v-1h-583l125 588h543v-1h-543l119 562h583v-1h-958zM362 546l478 729h375l-155 -729h-698zM625 694h313
l90 423h-133z" />
    <glyph glyph-name="Ccedilla" unicode="&#xc7;" horiz-adv-x="1211" 
d="M231 -349l33 157h205l37 32l-23 30h-134l27 130h-157l-162 206l210 988l250 206h547l163 -206l-68 -322h-283l39 184l-48 61h-272l-74 -61l-152 -712l48 -61h272l74 61l40 184h283l-69 -322l-251 -206h-122l105 -160l-203 -189h-315zM348 -270h168l119 110l-73 108h-96
l41 194h225l158 130l31 144v0l-31 -144l-158 -130h-419l-102 130l183 860l158 130h419l102 -130l-31 -144v0l31 144l-102 130h-419l-158 -130l-183 -860l102 -130h194l-41 -194h96l73 -108l-119 -110h-168v0z" />
    <glyph glyph-name="Egrave" unicode="&#xc8;" horiz-adv-x="1140" 
d="M-34 0l298 1400h910l-60 -283h-627l-58 -269h558l-60 -283h-558l-60 -282h627l-60 -283h-910zM141 142h635v0h-635l120 565h565v0h-565l118 552h635v0h-635zM840 1432h-247l-228 264h287zM664 1500l-93 126h1l93 -126h-1z" />
    <glyph glyph-name="Eacute" unicode="&#xc9;" horiz-adv-x="1140" 
d="M-34 0l298 1400h910l-60 -283h-627l-58 -269h558l-60 -283h-558l-60 -282h627l-60 -283h-910zM141 142h635v0h-635l120 565h565v0h-565l118 552h635v0h-635zM601 1432l300 264h287l-340 -264h-247zM805 1500h-1l147 126h1z" />
    <glyph glyph-name="Ecircumflex" unicode="&#xca;" horiz-adv-x="1140" 
d="M-34 0l298 1400h910l-60 -283h-627l-58 -269h558l-60 -283h-558l-60 -282h627l-60 -283h-910zM141 142h635v0h-635l120 565h565v0h-565l118 552h635v0h-635zM647 1716h252l164 -284h-277l-50 108l-96 -108h-277zM698 1638l-110 -116v0l110 116h114l60 -116v0l-60 116
h-114z" />
    <glyph glyph-name="Edieresis" unicode="&#xcb;" horiz-adv-x="1140" 
d="M-34 0l298 1400h910l-60 -283h-627l-58 -269h558l-60 -283h-558l-60 -282h627l-60 -283h-910zM141 142h635v0h-635l120 565h565v0h-565l118 552h635v0h-635zM822 1452l44 210h212l-44 -210h-212zM406 1452l44 210h212l-44 -210h-212zM531 1546h-1l4 20h1zM949 1546h-1
l4 20h1z" />
    <glyph glyph-name="Igrave" unicode="&#xcc;" horiz-adv-x="1059" 
d="M-34 0l60 283h274l178 834h-274l60 283h829l-60 -283h-273l-178 -834h273l-60 -283h-829zM122 142h578v0h-289l238 1117h289v0h-578v0h289l-238 -1117h-289v0zM808 1432h-247l-228 264h287zM632 1500l-93 126h1l93 -126h-1z" />
    <glyph glyph-name="Iacute" unicode="&#xcd;" horiz-adv-x="1059" 
d="M-34 0l60 283h274l178 834h-274l60 283h829l-60 -283h-273l-178 -834h273l-60 -283h-829zM122 142h578v0h-289l238 1117h289v0h-578v0h289l-238 -1117h-289v0zM569 1432l300 264h287l-340 -264h-247zM773 1500h-1l147 126h1z" />
    <glyph glyph-name="Icircumflex" unicode="&#xce;" horiz-adv-x="1059" 
d="M-34 0l60 283h274l178 834h-274l60 283h829l-60 -283h-273l-178 -834h273l-60 -283h-829zM122 142h578v0h-289l238 1117h289v0h-578v0h289l-238 -1117h-289v0zM615 1716h252l164 -284h-277l-50 108l-96 -108h-277zM666 1638l-110 -116v0l110 116h114l60 -116v0l-60 116
h-114z" />
    <glyph glyph-name="Idieresis" unicode="&#xcf;" horiz-adv-x="1059" 
d="M-34 0l60 283h274l178 834h-274l60 283h829l-60 -283h-273l-178 -834h273l-60 -283h-829zM122 142h578v0h-289l238 1117h289v0h-578v0h289l-238 -1117h-289v0zM790 1452l44 210h212l-44 -210h-212zM374 1452l44 210h212l-44 -210h-212zM499 1546h-1l4 20h1zM917 1546h-1
l4 20h1z" />
    <glyph glyph-name="Eth" unicode="&#xd0;" horiz-adv-x="1223" 
d="M29 0l120 562h-173l54 256h173l124 582h759l162 -206l-210 -988l-250 -206h-759zM202 142h548l158 134l180 846l-100 137h-548l-122 -572h-176v0h176zM202 142l116 545h268v0h-268l122 572h548l100 -137l-180 -846l-158 -134h-548zM372 283h339l74 61l152 712l-48 61
h-339l-64 -299h256l-54 -256h-256z" />
    <glyph glyph-name="Ntilde" unicode="&#xd1;" horiz-adv-x="1465" 
d="M147 142h-1l238 1117h294l109 -1117h292l238 1117h1l-238 -1117h-293l-109 1117h-293zM-24 0l298 1400h543l99 -1113h53l237 1113h283l-298 -1400h-543l-101 1116h-51l-237 -1116h-283zM642 1432l29 136l135 112h178l44 -56h18l12 56h192l-29 -136l-135 -112h-178l-44 56
h-18l-12 -56h-192zM756 1502h-1l4 20l81 72h82l48 -74h88l82 72l4 20h1l-4 -20l-83 -72h-88l-48 74h-82l-80 -72z" />
    <glyph glyph-name="Ograve" unicode="&#xd2;" horiz-adv-x="1306" 
d="M172 0l-162 206l210 988l250 206h664l162 -206l-210 -988l-250 -206h-664zM370 283h388l74 61l152 712l-48 61h-388l-74 -61l-152 -712zM275 142h521l163 134l180 849l-105 134h-521l-163 -134l-180 -849zM275 142l-105 134l180 849l163 134h521l105 -134l-180 -849
l-163 -134h-521zM931 1432h-247l-228 264h287zM755 1500l-93 126h1l93 -126h-1z" />
    <glyph glyph-name="Oacute" unicode="&#xd3;" horiz-adv-x="1306" 
d="M172 0l-162 206l210 988l250 206h664l162 -206l-210 -988l-250 -206h-664zM370 283h388l74 61l152 712l-48 61h-388l-74 -61l-152 -712zM275 142h521l163 134l180 849l-105 134h-521l-163 -134l-180 -849zM275 142l-105 134l180 849l163 134h521l105 -134l-180 -849
l-163 -134h-521zM692 1432l300 264h287l-340 -264h-247zM896 1500h-1l147 126h1z" />
    <glyph glyph-name="Ocircumflex" unicode="&#xd4;" horiz-adv-x="1306" 
d="M172 0l-162 206l210 988l250 206h664l162 -206l-210 -988l-250 -206h-664zM370 283h388l74 61l152 712l-48 61h-388l-74 -61l-152 -712zM275 142h521l163 134l180 849l-105 134h-521l-163 -134l-180 -849zM275 142l-105 134l180 849l163 134h521l105 -134l-180 -849
l-163 -134h-521zM738 1716h252l164 -284h-277l-50 108l-96 -108h-277zM789 1638l-110 -116v0l110 116h114l60 -116v0l-60 116h-114z" />
    <glyph glyph-name="Otilde" unicode="&#xd5;" horiz-adv-x="1306" 
d="M172 0l-162 206l210 988l250 206h664l162 -206l-210 -988l-250 -206h-664zM370 283h388l74 61l152 712l-48 61h-388l-74 -61l-152 -712zM275 142h521l163 134l180 849l-105 134h-521l-163 -134l-180 -849zM275 142l-105 134l180 849l163 134h521l105 -134l-180 -849
l-163 -134h-521zM532 1432l29 136l135 112h178l44 -56h18l12 56h192l-29 -136l-135 -112h-178l-44 56h-18l-12 -56h-192zM646 1502h-1l4 20l81 72h82l48 -74h88l82 72l4 20h1l-4 -20l-83 -72h-88l-48 74h-82l-80 -72z" />
    <glyph glyph-name="Odieresis" unicode="&#xd6;" horiz-adv-x="1306" 
d="M172 0l-162 206l210 988l250 206h664l162 -206l-210 -988l-250 -206h-664zM370 283h388l74 61l152 712l-48 61h-388l-74 -61l-152 -712zM275 142h521l163 134l180 849l-105 134h-521l-163 -134l-180 -849zM275 142l-105 134l180 849l163 134h521l105 -134l-180 -849
l-163 -134h-521zM913 1452l44 210h212l-44 -210h-212zM497 1452l44 210h212l-44 -210h-212zM622 1546h-1l4 20h1zM1040 1546h-1l4 20h1z" />
    <glyph glyph-name="multiply" unicode="&#xd7;" horiz-adv-x="836" 
d="M486 278l-105 133l-161 -133l-143 181l162 133l-105 132l219 181l105 -132l161 132l143 -181l-161 -132l104 -133zM528 455v-1l-107 135l170 140v0l-169 -140l-108 137l1 1l107 -137l-160 -132l-1 1l160 132z" />
    <glyph glyph-name="Oslash" unicode="&#xd8;" horiz-adv-x="1390" 
d="M143 -53l-167 139l95 102l-16 18l210 988l250 206h644l13 -16l74 81l168 -137l-107 -117l14 -17l-210 -988l-250 -206h-644l-11 15zM452 283h331l74 61l105 493zM306 130l-68 80l907 987l40 -53l-187 -880l-168 -134h-524zM120 82l118 128l68 -80h524l168 134l187 880
l-40 53l111 123v0l-111 -123l-71 85h-524l-169 -138l-187 -880l44 -54l-118 -128v0zM238 210l-44 54l187 880l169 138h524l71 -85zM413 560l513 558h-332l-76 -62z" />
    <glyph glyph-name="Ugrave" unicode="&#xd9;" horiz-adv-x="1328" 
d="M172 0l-162 206l254 1194h283l-225 -1056l48 -61h410l74 61l225 1056h283l-254 -1194l-250 -206h-686zM271 142h548l162 129l210 988v0l-210 -988l-162 -129h-548l-106 131l210 986v0l-210 -986zM943 1432h-247l-228 264h287zM767 1500l-93 126h1l93 -126h-1z" />
    <glyph glyph-name="Uacute" unicode="&#xda;" horiz-adv-x="1328" 
d="M172 0l-162 206l254 1194h283l-225 -1056l48 -61h410l74 61l225 1056h283l-254 -1194l-250 -206h-686zM271 142h548l162 129l210 988v0l-210 -988l-162 -129h-548l-106 131l210 986v0l-210 -986zM704 1432l300 264h287l-340 -264h-247zM908 1500h-1l147 126h1z" />
    <glyph glyph-name="Ucircumflex" unicode="&#xdb;" horiz-adv-x="1328" 
d="M172 0l-162 206l254 1194h283l-225 -1056l48 -61h410l74 61l225 1056h283l-254 -1194l-250 -206h-686zM271 142h548l162 129l210 988v0l-210 -988l-162 -129h-548l-106 131l210 986v0l-210 -986zM750 1716h252l164 -284h-277l-50 108l-96 -108h-277zM801 1638l-110 -116
v0l110 116h114l60 -116v0l-60 116h-114z" />
    <glyph glyph-name="Udieresis" unicode="&#xdc;" horiz-adv-x="1328" 
d="M172 0l-162 206l254 1194h283l-225 -1056l48 -61h410l74 61l225 1056h283l-254 -1194l-250 -206h-686zM271 142h548l162 129l210 988v0l-210 -988l-162 -129h-548l-106 131l210 986v0l-210 -986zM925 1452l44 210h212l-44 -210h-212zM509 1452l44 210h212l-44 -210h-212z
M634 1546h-1l4 20h1zM1052 1546h-1l4 20h1z" />
    <glyph glyph-name="Yacute" unicode="&#xdd;" horiz-adv-x="1294" 
d="M356 0l94 443l-318 382l122 575h283l-101 -473l214 -253h-19l323 253l101 473h283l-122 -575l-483 -382l-94 -443h-283zM528 142h-1l75 353l482 374l83 390h1l-83 -390l-483 -374v0l-322 374l83 390h1l-83 -390l322 -374zM686 1432l300 264h287l-340 -264h-247zM890 1500
h-1l147 126h1z" />
    <glyph glyph-name="Thorn" unicode="&#xde;" horiz-adv-x="1132" 
d="M-44 0l298 1400h283l-68 -320h432l163 -206l-74 -348l-251 -206h-432l-68 -320h-283zM124 123h-1l73 343h484l184 148l43 202l-105 128h-504l72 338h1zM196 465l102 480h504l106 -129l-43 -202l-185 -149h-484zM367 603h295l74 61l16 72l-48 62h-295z" />
    <glyph glyph-name="germandbls" unicode="&#xdf;" horiz-adv-x="1306" 
d="M-39 0l254 1194l250 206h659l162 -206l-76 -357l-108 -89l121 -155l-78 -367l-274 -226h-375l60 283h237l99 81l21 101l-129 164l48 227l121 99l22 101l-48 61h-384l-74 -61l-225 -1056h-283zM129 142h-1l216 1013l122 104h597l72 -109l-56 -262l-108 -91l-23 -108
l117 -157l-54 -255l-170 -133h-206h1h205l170 133l54 255l-117 157l23 108l108 91l56 262l-72 109h-597l-121 -104z" />
    <glyph glyph-name="agrave" unicode="&#xe0;" horiz-adv-x="1253" 
d="M201 0l-162 206l61 285l249 206h544l9 39l-48 61h-675l60 283h813l162 -206l-142 -668l-250 -206h-621zM304 138l-102 126l40 186l128 106h637l-60 -282l-166 -136h-477zM304 138h477l166 136l114 532l-103 128h-625v0h625l103 -128l-54 -250h-637l-128 -106l-40 -186z
M399 283h345l74 61l17 80h-426l-51 -42l-8 -38zM872 1112h-247l-228 264h287zM696 1180l-93 126h1l93 -126h-1z" />
    <glyph glyph-name="aacute" unicode="&#xe1;" horiz-adv-x="1253" 
d="M201 0l-162 206l61 285l249 206h544l9 39l-48 61h-675l60 283h813l162 -206l-142 -668l-250 -206h-621zM304 138l-102 126l40 186l128 106h637l-60 -282l-166 -136h-477zM304 138h477l166 136l114 532l-103 128h-625v0h625l103 -128l-54 -250h-637l-128 -106l-40 -186z
M399 283h345l74 61l17 80h-426l-51 -42l-8 -38zM633 1112l300 264h287l-340 -264h-247zM837 1180h-1l147 126h1z" />
    <glyph glyph-name="acircumflex" unicode="&#xe2;" horiz-adv-x="1253" 
d="M201 0l-162 206l61 285l249 206h544l9 39l-48 61h-675l60 283h813l162 -206l-142 -668l-250 -206h-621zM304 138l-102 126l40 186l128 106h637l-60 -282l-166 -136h-477zM304 138h477l166 136l114 532l-103 128h-625v0h625l103 -128l-54 -250h-637l-128 -106l-40 -186z
M399 283h345l74 61l17 80h-426l-51 -42l-8 -38zM679 1396h252l164 -284h-277l-50 108l-96 -108h-277zM730 1318l-110 -116v0l110 116h114l60 -116v0l-60 116h-114z" />
    <glyph glyph-name="atilde" unicode="&#xe3;" horiz-adv-x="1253" 
d="M201 0l-162 206l61 285l249 206h544l9 39l-48 61h-675l60 283h813l162 -206l-142 -668l-250 -206h-621zM304 138l-102 126l40 186l128 106h637l-60 -282l-166 -136h-477zM304 138h477l166 136l114 532l-103 128h-625v0h625l103 -128l-54 -250h-637l-128 -106l-40 -186z
M399 283h345l74 61l17 80h-426l-51 -42l-8 -38zM473 1112l29 136l135 112h178l44 -56h18l12 56h192l-29 -136l-135 -112h-178l-44 56h-18l-12 -56h-192zM587 1182h-1l4 20l81 72h82l48 -74h88l82 72l4 20h1l-4 -20l-83 -72h-88l-48 74h-82l-80 -72z" />
    <glyph glyph-name="adieresis" unicode="&#xe4;" horiz-adv-x="1253" 
d="M201 0l-162 206l61 285l249 206h544l9 39l-48 61h-675l60 283h813l162 -206l-142 -668l-250 -206h-621zM304 138l-102 126l40 186l128 106h637l-60 -282l-166 -136h-477zM304 138h477l166 136l114 532l-103 128h-625v0h625l103 -128l-54 -250h-637l-128 -106l-40 -186z
M399 283h345l74 61l17 80h-426l-51 -42l-8 -38zM854 1132l44 210h212l-44 -210h-212zM438 1132l44 210h212l-44 -210h-212zM563 1226h-1l4 20h1zM981 1226h-1l4 20h1z" />
    <glyph glyph-name="aring" unicode="&#xe5;" horiz-adv-x="1253" 
d="M201 0l-162 206l61 285l249 206h544l9 39l-48 61h-675l60 283h813l162 -206l-142 -668l-250 -206h-621zM304 138l-102 126l40 186l128 106h637l-60 -282l-166 -136h-477zM304 138h477l166 136l114 532l-103 128h-625v0h625l103 -128l-54 -250h-637l-128 -106l-40 -186z
M399 283h345l74 61l17 80h-426l-51 -42l-8 -38zM659 1110l-78 97l37 174l119 98h183l77 -98l-37 -174l-118 -97h-183zM715 1195h108l63 51l21 100l-41 52h-108l-63 -52l-21 -100zM715 1195l-41 51l21 100l63 52h108l41 -52l-21 -100l-63 -51h-108zM777 1277h17l11 10l4 15
l-7 9h-17l-11 -9l-4 -15z" />
    <glyph glyph-name="ae" unicode="&#xe6;" horiz-adv-x="1790" 
d="M224 0l-162 206l60 280l249 206h342l80 65l-4 -21l-49 61h-207l-157 -128l-187 192l265 219h485l53 -67l81 67h485l162 -206l-62 -292l-247 -194h-342l-80 -65l4 21l49 -61h207l157 128l187 -192l-265 -219h-485l-53 67l-81 -67h-485zM310 140h354l173 143l108 -143h361
l109 90v0l-109 -90h-361l-108 143l10 43l232 196h320l147 119l36 166l-104 131h-360l-172 -143l-108 144h-370l-92 -76v0l92 76h370l108 -144l-10 -48l-244 -193h-313l-144 -116l-33 -158zM310 140l-108 140l33 158l144 116h313l244 193l-99 -464l-173 -143h-354zM847 326
l99 469l172 143h360l104 -131l-36 -166l-147 -119h-320zM423 283h207l75 61l21 96l-23 -19h-270l-51 -42l-8 -35zM1056 640l23 19h270l51 42l8 35l-49 61h-207l-75 -61z" />
    <glyph glyph-name="ccedilla" unicode="&#xe7;" horiz-adv-x="1148" 
d="M233 -349l33 157h205l37 32l-23 30h-134l27 130h-123l-162 206l142 668l250 206h484l162 -206l-48 -224h-283l19 86l-48 61h-208l-74 -61l-84 -392l48 -61h208l74 61l19 86h283l-48 -224l-250 -206h-93l105 -160l-203 -189h-315zM350 -270h168l119 110l-73 108h-96
l41 193h193l160 132l7 32v0l-7 -32l-160 -132h-338l-113 137l113 531l163 134h346l104 -132l-7 -32v0l7 32l-104 132h-346l-163 -134l-113 -531l113 -137h145l-41 -193h96l73 -108l-119 -110h-168v0z" />
    <glyph glyph-name="egrave" unicode="&#xe8;" horiz-adv-x="1253" 
d="M1052 1080l162 -206l-61 -285l-249 -206h-544l-9 -39l48 -61h675l-60 -283h-813l-162 206l142 668l250 206h621zM949 942l102 -126l-40 -186l-128 -106h-637l60 282l166 136h477zM949 942h-477l-166 -136l-114 -532l103 -128h625v0h-625l-103 128l54 250h637l128 106
l40 186zM854 797h-345l-74 -61l-17 -80h426l51 42l8 38zM876 1112h-247l-228 264h287zM700 1180l-93 126h1l93 -126h-1z" />
    <glyph glyph-name="eacute" unicode="&#xe9;" horiz-adv-x="1253" 
d="M1052 1080l162 -206l-61 -285l-249 -206h-544l-9 -39l48 -61h675l-60 -283h-813l-162 206l142 668l250 206h621zM949 942l102 -126l-40 -186l-128 -106h-637l60 282l166 136h477zM949 942h-477l-166 -136l-114 -532l103 -128h625v0h-625l-103 128l54 250h637l128 106
l40 186zM854 797h-345l-74 -61l-17 -80h426l51 42l8 38zM637 1112l300 264h287l-340 -264h-247zM841 1180h-1l147 126h1z" />
    <glyph glyph-name="ecircumflex" unicode="&#xea;" horiz-adv-x="1253" 
d="M1052 1080l162 -206l-61 -285l-249 -206h-544l-9 -39l48 -61h675l-60 -283h-813l-162 206l142 668l250 206h621zM949 942l102 -126l-40 -186l-128 -106h-637l60 282l166 136h477zM949 942h-477l-166 -136l-114 -532l103 -128h625v0h-625l-103 128l54 250h637l128 106
l40 186zM854 797h-345l-74 -61l-17 -80h426l51 42l8 38zM683 1396h252l164 -284h-277l-50 108l-96 -108h-277zM734 1318l-110 -116v0l110 116h114l60 -116v0l-60 116h-114z" />
    <glyph glyph-name="edieresis" unicode="&#xeb;" horiz-adv-x="1253" 
d="M1052 1080l162 -206l-61 -285l-249 -206h-544l-9 -39l48 -61h675l-60 -283h-813l-162 206l142 668l250 206h621zM949 942l102 -126l-40 -186l-128 -106h-637l60 282l166 136h477zM949 942h-477l-166 -136l-114 -532l103 -128h625v0h-625l-103 128l54 250h637l128 106
l40 186zM854 797h-345l-74 -61l-17 -80h426l51 42l8 38zM858 1132l44 210h212l-44 -210h-212zM442 1132l44 210h212l-44 -210h-212zM567 1226h-1l4 20h1zM985 1226h-1l4 20h1z" />
    <glyph glyph-name="igrave" unicode="&#xec;" horiz-adv-x="990" 
d="M-1 0l60 283h240l110 514h-240l60 283h522l-170 -797h240l-60 -283h-762zM155 142h511v0h-261l170 797h-250v0h250l-170 -797h-250v0zM739 1112h-247l-228 264h287zM563 1180l-93 126h1l93 -126h-1z" />
    <glyph glyph-name="iacute" unicode="&#xed;" horiz-adv-x="990" 
d="M-1 0l60 283h240l110 514h-240l60 283h522l-170 -797h240l-60 -283h-762zM155 142h511v0h-261l170 797h-250v0h250l-170 -797h-250v0zM500 1112l300 264h287l-340 -264h-247zM704 1180h-1l147 126h1z" />
    <glyph glyph-name="icircumflex" unicode="&#xee;" horiz-adv-x="990" 
d="M-1 0l60 283h240l110 514h-240l60 283h522l-170 -797h240l-60 -283h-762zM155 142h511v0h-261l170 797h-250v0h250l-170 -797h-250v0zM546 1396h252l164 -284h-277l-50 108l-96 -108h-277zM597 1318l-110 -116v0l110 116h114l60 -116v0l-60 116h-114z" />
    <glyph glyph-name="idieresis" unicode="&#xef;" horiz-adv-x="990" 
d="M-1 0l60 283h240l110 514h-240l60 283h522l-170 -797h240l-60 -283h-762zM155 142h511v0h-261l170 797h-250v0h250l-170 -797h-250v0zM721 1132l44 210h212l-44 -210h-212zM305 1132l44 210h212l-44 -210h-212zM430 1226h-1l4 20h1zM848 1226h-1l4 20h1z" />
    <glyph glyph-name="eth" unicode="&#xf0;" horiz-adv-x="1120" 
d="M174 0l-162 206l114 536l250 206h187l-97 111l122 100l-190 241h394l35 -45l79 65l103 -118l-88 -72l149 -196l-176 -828l-250 -206h-470zM274 142l-103 133l85 401l160 132h279l150 -184l-72 -336l-168 -146h-331zM371 283h196l74 61l51 241l-64 80h-176l-74 -61
l-55 -260zM274 142h331l168 146l144 677l-165 230l97 80v0l-97 -80l-71 94v0l71 -94l-114 -93v0l114 93l165 -230l-72 -341l-150 184h-279l-160 -132l-85 -401zM761 908l6 28l-81 101l-108 -89h152z" />
    <glyph glyph-name="ntilde" unicode="&#xf1;" horiz-adv-x="1180" 
d="M-5 0l186 874l250 206h548l162 -206l-186 -874h-282l157 736l-48 61h-274l-74 -61l-157 -736h-282zM168 142h-1l139 650l179 148h387l115 -146l-139 -652h-1l139 652l-114 146h-387l-178 -148zM442 1112l29 136l135 112h178l44 -56h18l12 56h192l-29 -136l-135 -112h-178
l-44 56h-18l-12 -56h-192zM556 1182h-1l4 20l81 72h82l48 -74h88l82 72l4 20h1l-4 -20l-83 -72h-88l-48 74h-82l-80 -72z" />
    <glyph glyph-name="ograve" unicode="&#xf2;" horiz-adv-x="1257" 
d="M201 0l-162 206l142 668l250 206h625l162 -206l-142 -668l-250 -206h-625zM311 142h477l161 140l112 524l-103 134h-485l-161 -134l-112 -524zM311 142l-111 140l112 524l161 134h485l103 -134l-112 -524l-161 -140h-477zM399 283h349l74 61l84 392l-48 61h-349l-74 -61
l-84 -392zM873 1112h-247l-228 264h287zM697 1180l-93 126h1l93 -126h-1z" />
    <glyph glyph-name="oacute" unicode="&#xf3;" horiz-adv-x="1257" 
d="M201 0l-162 206l142 668l250 206h625l162 -206l-142 -668l-250 -206h-625zM311 142h477l161 140l112 524l-103 134h-485l-161 -134l-112 -524zM311 142l-111 140l112 524l161 134h485l103 -134l-112 -524l-161 -140h-477zM399 283h349l74 61l84 392l-48 61h-349l-74 -61
l-84 -392zM634 1112l300 264h287l-340 -264h-247zM838 1180h-1l147 126h1z" />
    <glyph glyph-name="ocircumflex" unicode="&#xf4;" horiz-adv-x="1257" 
d="M201 0l-162 206l142 668l250 206h625l162 -206l-142 -668l-250 -206h-625zM311 142h477l161 140l112 524l-103 134h-485l-161 -134l-112 -524zM311 142l-111 140l112 524l161 134h485l103 -134l-112 -524l-161 -140h-477zM399 283h349l74 61l84 392l-48 61h-349l-74 -61
l-84 -392zM680 1396h252l164 -284h-277l-50 108l-96 -108h-277zM731 1318l-110 -116v0l110 116h114l60 -116v0l-60 116h-114z" />
    <glyph glyph-name="otilde" unicode="&#xf5;" horiz-adv-x="1257" 
d="M201 0l-162 206l142 668l250 206h625l162 -206l-142 -668l-250 -206h-625zM311 142h477l161 140l112 524l-103 134h-485l-161 -134l-112 -524zM311 142l-111 140l112 524l161 134h485l103 -134l-112 -524l-161 -140h-477zM399 283h349l74 61l84 392l-48 61h-349l-74 -61
l-84 -392zM474 1112l29 136l135 112h178l44 -56h18l12 56h192l-29 -136l-135 -112h-178l-44 56h-18l-12 -56h-192zM588 1182h-1l4 20l81 72h82l48 -74h88l82 72l4 20h1l-4 -20l-83 -72h-88l-48 74h-82l-80 -72z" />
    <glyph glyph-name="odieresis" unicode="&#xf6;" horiz-adv-x="1257" 
d="M201 0l-162 206l142 668l250 206h625l162 -206l-142 -668l-250 -206h-625zM311 142h477l161 140l112 524l-103 134h-485l-161 -134l-112 -524zM311 142l-111 140l112 524l161 134h485l103 -134l-112 -524l-161 -140h-477zM399 283h349l74 61l84 392l-48 61h-349l-74 -61
l-84 -392zM855 1132l44 210h212l-44 -210h-212zM439 1132l44 210h212l-44 -210h-212zM564 1226h-1l4 20h1zM982 1226h-1l4 20h1z" />
    <glyph glyph-name="divide" unicode="&#xf7;" horiz-adv-x="836" 
d="M75 476l54 256h632l-54 -256h-632zM232 602h384v0h-384v0zM287 159l44 210h212l-44 -210h-212zM411 249h-1l6 28h1zM287 839l44 210h212l-44 -210h-212zM411 929h-1l6 28h1z" />
    <glyph glyph-name="oslash" unicode="&#xf8;" horiz-adv-x="1158" 
d="M174 -53l-167 139l75 80l-31 40l142 668l249 206h485h5l52 57l167 -137l-87 -94l25 -32l-142 -668l-249 -206h-475l-5 -5zM483 283h136l75 61l44 207zM152 82l109 119l48 -61h351l151 121l121 566l-46 51l110 121v0l-110 -121l-46 62h-355l-155 -124l-118 -554l49 -61
l-109 -119v0zM309 140l-48 61l625 677l46 -51l-121 -566l-151 -121h-351zM261 201l-49 61l118 554l155 124h355l46 -62zM398 510l274 288h-151l-75 -62z" />
    <glyph glyph-name="ugrave" unicode="&#xf9;" horiz-adv-x="1202" 
d="M201 0l-162 206l186 874h283l-157 -736l48 -61h294l74 61l157 736h283l-186 -874l-250 -206h-570zM311 142h417l171 150l138 648v0l-138 -648l-171 -150h-417l-114 151l138 647v0l-138 -647zM847 1112h-247l-228 264h287zM671 1180l-93 126h1l93 -126h-1z" />
    <glyph glyph-name="uacute" unicode="&#xfa;" horiz-adv-x="1202" 
d="M201 0l-162 206l186 874h283l-157 -736l48 -61h294l74 61l157 736h283l-186 -874l-250 -206h-570zM311 142h417l171 150l138 648v0l-138 -648l-171 -150h-417l-114 151l138 647v0l-138 -647zM608 1112l300 264h287l-340 -264h-247zM812 1180h-1l147 126h1z" />
    <glyph glyph-name="ucircumflex" unicode="&#xfb;" horiz-adv-x="1202" 
d="M201 0l-162 206l186 874h283l-157 -736l48 -61h294l74 61l157 736h283l-186 -874l-250 -206h-570zM311 142h417l171 150l138 648v0l-138 -648l-171 -150h-417l-114 151l138 647v0l-138 -647zM654 1396h252l164 -284h-277l-50 108l-96 -108h-277zM705 1318l-110 -116v0
l110 116h114l60 -116v0l-60 116h-114z" />
    <glyph glyph-name="udieresis" unicode="&#xfc;" horiz-adv-x="1202" 
d="M201 0l-162 206l186 874h283l-157 -736l48 -61h294l74 61l157 736h283l-186 -874l-250 -206h-570zM311 142h417l171 150l138 648v0l-138 -648l-171 -150h-417l-114 151l138 647v0l-138 -647zM829 1132l44 210h212l-44 -210h-212zM413 1132l44 210h212l-44 -210h-212z
M538 1226h-1l4 20h1zM956 1226h-1l4 20h1z" />
    <glyph glyph-name="yacute" unicode="&#xfd;" horiz-adv-x="1251" 
d="M202 0l-162 206l185 874h283l-156 -736l48 -61h245l121 100l148 697h282l-271 -1274l-249 -206h-715l60 282h558l98 81l12 57l-24 -20h-463zM107 -263h509l192 162l222 1041v0l-128 -598l-243 -200h-355l-110 143l140 655v0l-140 -655l110 -143h355l243 200l-94 -443
l-192 -162h-509v0zM598 1112l300 264h287l-340 -264h-247zM802 1180h-1l147 126h1z" />
    <glyph glyph-name="thorn" unicode="&#xfe;" horiz-adv-x="1132" 
d="M-97 -400l404 1900h283l-93 -439l24 19h412l163 -206l-142 -668l-251 -206h-412l-16 19l-89 -419h-283zM411 282h215l74 62l84 392l-48 62h-215l-98 -81l-75 -354zM83 -233h-1l118 558l141 -178h325l165 136l112 527l-107 136h-325l-217 -178l124 581h1zM341 147
l-141 178l94 443l217 178h325l107 -136l-112 -527l-165 -136h-325z" />
    <glyph glyph-name="ydieresis" unicode="&#xff;" horiz-adv-x="1251" 
d="M202 0l-162 206l185 874h283l-156 -736l48 -61h245l121 100l148 697h282l-271 -1274l-249 -206h-715l60 282h558l98 81l12 57l-24 -20h-463zM107 -263h509l192 162l222 1041v0l-128 -598l-243 -200h-355l-110 143l140 655v0l-140 -655l110 -143h355l243 200l-94 -443
l-192 -162h-509v0zM819 1132l44 210h212l-44 -210h-212zM403 1132l44 210h212l-44 -210h-212zM528 1226h-1l4 20h1zM946 1226h-1l4 20h1z" />
    <glyph glyph-name="Amacron" unicode="&#x100;" horiz-adv-x="1288" 
d="M-34 0l254 1194l250 206h646l162 -206l-254 -1194h-282l88 412h-494l-88 -412h-282zM137 142h-1l87 407h782l-87 -407h-1l211 993l-98 124h-530l-152 -124zM396 694h494l77 362l-48 61h-372l-74 -61zM223 548l124 587l153 125h530l99 -125l-124 -587h-782zM481 1431
l54 256h632l-54 -256h-632zM638 1557h384v0h-384v0z" />
    <glyph glyph-name="amacron" unicode="&#x101;" horiz-adv-x="1253" 
d="M201 0l-162 206l61 285l249 206h544l9 39l-48 61h-675l60 283h813l162 -206l-142 -668l-250 -206h-621zM304 138l-102 126l40 186l128 106h637l-60 -282l-166 -136h-477zM304 138h477l166 136l114 532l-103 128h-625v0h625l103 -128l-54 -250h-637l-128 -106l-40 -186z
M399 283h345l74 61l17 80h-426l-51 -42l-8 -38zM430 1111l54 256h632l-54 -256h-632zM587 1237h384v0h-384v0z" />
    <glyph glyph-name="Abreve" unicode="&#x102;" horiz-adv-x="1311" 
d="M-94 0l667 1400h508l76 -1400h-325l-10 296h-456l-134 -296h-326zM123 121v0l141 299h717l15 -299v0l-60 1139h-276zM264 420l396 840h276l45 -840h-717zM477 552h344l-18 564h-77zM716 1432l-89 112l33 156h192l-16 -76h78l16 76h192l-33 -156l-135 -112h-238zM786 1520
h136l82 72l5 26v0l-5 -26l-82 -72h-136l-50 72l5 26v0l-5 -26z" />
    <glyph glyph-name="abreve" unicode="&#x103;" horiz-adv-x="1253" 
d="M201 0l-162 206l61 285l249 206h544l9 39l-48 61h-675l60 283h813l162 -206l-142 -668l-250 -206h-621zM304 138l-102 126l40 186l128 106h637l-60 -282l-166 -136h-477zM304 138h477l166 136l114 532l-103 128h-625v0h625l103 -128l-54 -250h-637l-128 -106l-40 -186z
M399 283h345l74 61l17 80h-426l-51 -42l-8 -38zM630 1112l-89 112l33 156h192l-16 -76h78l16 76h192l-33 -156l-135 -112h-238zM700 1200h136l82 72l5 26v0l-5 -26l-82 -72h-136l-50 72l5 26v0l-5 -26z" />
    <glyph glyph-name="Aogonek" unicode="&#x104;" horiz-adv-x="1164" 
d="M666 -369l-123 189l200 180h-26l3 296h-389l-122 -296h-299l602 1400h498l6 -1400h-52l-218 -180l23 -32h235l-33 -157h-305zM725 -294h182v0h-182l-81 114l229 195v0l-1 1258h-275l-493 -1152v0l129 305h642l-2 -411v0l-229 -195zM233 426l364 847h275l3 -847h-642z
M437 552h286l6 564h-60z" />
    <glyph glyph-name="aogonek" unicode="&#x105;" horiz-adv-x="1140" 
d="M437 -369l-143 189l218 180h-261l-162 206l58 270l249 206h407l12 54l-48 61h-538l60 283h676l162 -206l-142 -668l-468 -386l23 -32h235l-33 -157h-305zM481 -290h192v0h-192l-78 110l448 393l123 580l-104 142h-457v0h457l104 -142l-53 -249h-495l-147 -120l-33 -152
l104 -132h420l-367 -320zM450 283h269l26 126h-289l-51 -42l-4 -23zM350 140l-104 132l33 152l147 120h495l-70 -331l-81 -73h-420z" />
    <glyph glyph-name="Cacute" unicode="&#x106;" horiz-adv-x="1244" 
d="M162 0l-162 206l210 988l250 206h621l163 -206l-68 -322h-283l39 184l-48 61h-346l-74 -61l-152 -712l48 -61h346l74 61l39 184h283l-68 -322l-251 -206h-621zM265 142h478l163 134l25 120v0l-25 -120l-163 -134h-478l-109 139l180 848l169 139h472l110 -139l-26 -121v0
l26 121l-110 139h-472l-169 -139l-180 -848zM665 1432l300 264h287l-340 -264h-247zM869 1500h-1l147 126h1z" />
    <glyph glyph-name="cacute" unicode="&#x107;" horiz-adv-x="1250" 
d="M201 0l-162 206l142 668l250 206h764l-60 -283h-626l-74 -61l-84 -392l48 -61h626l-60 -283h-764zM310 141h558v0h-558l-113 137l113 531l162 131h566v0h-566l-162 -131l-113 -531zM596 1112l300 264h287l-340 -264h-247zM800 1180h-1l147 126h1z" />
    <glyph glyph-name="Ccircumflex" unicode="&#x108;" horiz-adv-x="1244" 
d="M162 0l-162 206l210 988l250 206h621l163 -206l-68 -322h-283l39 184l-48 61h-346l-74 -61l-152 -712l48 -61h346l74 61l39 184h283l-68 -322l-251 -206h-621zM265 142h478l163 134l25 120v0l-25 -120l-163 -134h-478l-109 139l180 848l169 139h472l110 -139l-26 -121v0
l26 121l-110 139h-472l-169 -139l-180 -848zM711 1716h252l164 -284h-277l-50 108l-96 -108h-277zM762 1638l-110 -116v0l110 116h114l60 -116v0l-60 116h-114z" />
    <glyph glyph-name="ccircumflex" unicode="&#x109;" horiz-adv-x="1250" 
d="M201 0l-162 206l142 668l250 206h764l-60 -283h-626l-74 -61l-84 -392l48 -61h626l-60 -283h-764zM310 141h558v0h-558l-113 137l113 531l162 131h566v0h-566l-162 -131l-113 -531zM642 1396h252l164 -284h-277l-50 108l-96 -108h-277zM693 1318l-110 -116v0l110 116h114
l60 -116v0l-60 116h-114z" />
    <glyph glyph-name="Cdotaccent" unicode="&#x10a;" horiz-adv-x="1244" 
d="M162 0l-162 206l210 988l250 206h621l163 -206l-68 -322h-283l39 184l-48 61h-346l-74 -61l-152 -712l48 -61h346l74 61l39 184h283l-68 -322l-251 -206h-621zM265 142h478l163 134l25 120v0l-25 -120l-163 -134h-478l-109 139l180 848l169 139h472l110 -139l-26 -121v0
l26 121l-110 139h-472l-169 -139l-180 -848zM680 1452l44 210h212l-44 -210h-212zM804 1542h-1l6 28h1z" />
    <glyph glyph-name="cdotaccent" unicode="&#x10b;" horiz-adv-x="1250" 
d="M201 0l-162 206l142 668l250 206h764l-60 -283h-626l-74 -61l-84 -392l48 -61h626l-60 -283h-764zM310 141h558v0h-558l-113 137l113 531l162 131h566v0h-566l-162 -131l-113 -531zM611 1132l44 210h212l-44 -210h-212zM735 1222h-1l6 28h1z" />
    <glyph glyph-name="Ccaron" unicode="&#x10c;" horiz-adv-x="1244" 
d="M162 0l-162 206l210 988l250 206h621l163 -206l-68 -322h-283l39 184l-48 61h-346l-74 -61l-152 -712l48 -61h346l74 61l39 184h283l-68 -322l-251 -206h-621zM265 142h478l163 134l25 120v0l-25 -120l-163 -134h-478l-109 139l180 848l169 139h472l110 -139l-26 -121v0
l26 121l-110 139h-472l-169 -139l-180 -848zM661 1432l-164 284h277l50 -108l96 108h277l-284 -284h-252zM744 1510h114l110 116v0l-110 -116h-114l-60 116v0z" />
    <glyph glyph-name="ccaron" unicode="&#x10d;" horiz-adv-x="1250" 
d="M201 0l-162 206l142 668l250 206h764l-60 -283h-626l-74 -61l-84 -392l48 -61h626l-60 -283h-764zM310 141h558v0h-558l-113 137l113 531l162 131h566v0h-566l-162 -131l-113 -531zM592 1112l-164 284h277l50 -108l96 108h277l-284 -284h-252zM675 1190h114l110 116v0
l-110 -116h-114l-60 116v0z" />
    <glyph glyph-name="Dcaron" unicode="&#x10e;" horiz-adv-x="1289" 
d="M-24 0l298 1400h833l162 -206l-210 -988l-250 -206h-833zM319 283h413l74 61l152 712l-48 61h-413zM152 142h610l175 144l176 829l-113 144h-610zM152 142l238 1117h610l113 -144l-176 -829l-175 -144h-610zM680 1432l-164 284h277l50 -108l96 108h277l-284 -284h-252z
M763 1510h114l110 116v0l-110 -116h-114l-60 116v0z" />
    <glyph glyph-name="dcaron" unicode="&#x10f;" horiz-adv-x="1486" 
d="M765 0h-562l-164 206l142 668l251 206h466l16 -19l93 439h283l-275 -1294zM721 135h-417l-109 136l118 552l142 116h398l140 -176l-105 -492zM688 283l74 61l79 373l-63 81h-269l-74 -62l-83 -392l48 -61h288zM721 135l167 136l233 1095v0l-128 -603l-140 176h-398
l-142 -116l-118 -552l109 -136h417zM1338 1046l-10 172l60 282h302l-60 -282l-84 -172h-208zM1469 1154h-1l13 62l33 152h1l-32 -152z" />
    <glyph glyph-name="Dcroat" unicode="&#x110;" horiz-adv-x="1223" 
d="M29 0l120 562h-173l54 256h173l124 582h759l162 -206l-210 -988l-250 -206h-759zM202 142h548l158 134l180 846l-100 137h-548l-122 -572h-176v0h176zM202 142l116 545h268v0h-268l122 572h548l100 -137l-180 -846l-158 -134h-548zM372 283h339l74 61l152 712l-48 61
h-339l-64 -299h256l-54 -256h-256z" />
    <glyph glyph-name="dcroat" unicode="&#x111;" horiz-adv-x="1170" 
d="M153 0l-164 206l142 668l251 206h412l16 -19l24 113h-229l53 247h229l16 79h283l-16 -79h120l-53 -247h-120l-206 -968l-250 -206h-508zM257 137l-110 141l116 546l145 119h337l138 -183l-101 -474l-172 -149h-353zM350 283h234l74 61l79 373l-63 81h-215l-74 -62
l-83 -392zM257 137h353l172 149l216 1013h141v0h-141l12 57v0l-12 -57h-218v0h218l-115 -539l-138 183h-337l-145 -119l-116 -546z" />
    <glyph glyph-name="Emacron" unicode="&#x112;" horiz-adv-x="1140" 
d="M-34 0l298 1400h910l-60 -283h-627l-58 -269h558l-60 -283h-558l-60 -282h627l-60 -283h-910zM141 142h635v0h-635l120 565h565v0h-565l118 552h635v0h-635zM398 1431l54 256h632l-54 -256h-632zM555 1557h384v0h-384v0z" />
    <glyph glyph-name="emacron" unicode="&#x113;" horiz-adv-x="1253" 
d="M1052 1080l162 -206l-61 -285l-249 -206h-544l-9 -39l48 -61h675l-60 -283h-813l-162 206l142 668l250 206h621zM949 942l102 -126l-40 -186l-128 -106h-637l60 282l166 136h477zM949 942h-477l-166 -136l-114 -532l103 -128h625v0h-625l-103 128l54 250h637l128 106
l40 186zM854 797h-345l-74 -61l-17 -80h426l51 42l8 38zM434 1111l54 256h632l-54 -256h-632zM591 1237h384v0h-384v0z" />
    <glyph glyph-name="Ebreve" unicode="&#x114;" horiz-adv-x="1140" 
d="M-34 0l298 1400h910l-60 -283h-627l-58 -269h558l-60 -283h-558l-60 -282h627l-60 -283h-910zM141 142h635v0h-635l120 565h565v0h-565l118 552h635v0h-635zM598 1432l-89 112l33 156h192l-16 -76h78l16 76h192l-33 -156l-135 -112h-238zM668 1520h136l82 72l5 26v0
l-5 -26l-82 -72h-136l-50 72l5 26v0l-5 -26z" />
    <glyph glyph-name="ebreve" unicode="&#x115;" horiz-adv-x="1253" 
d="M1052 1080l162 -206l-61 -285l-249 -206h-544l-9 -39l48 -61h675l-60 -283h-813l-162 206l142 668l250 206h621zM949 942l102 -126l-40 -186l-128 -106h-637l60 282l166 136h477zM949 942h-477l-166 -136l-114 -532l103 -128h625v0h-625l-103 128l54 250h637l128 106
l40 186zM854 797h-345l-74 -61l-17 -80h426l51 42l8 38zM634 1112l-89 112l33 156h192l-16 -76h78l16 76h192l-33 -156l-135 -112h-238zM704 1200h136l82 72l5 26v0l-5 -26l-82 -72h-136l-50 72l5 26v0l-5 -26z" />
    <glyph glyph-name="Edotaccent" unicode="&#x116;" horiz-adv-x="1140" 
d="M-34 0l298 1400h910l-60 -283h-627l-58 -269h558l-60 -283h-558l-60 -282h627l-60 -283h-910zM141 142h635v0h-635l120 565h565v0h-565l118 552h635v0h-635zM616 1452l44 210h212l-44 -210h-212zM740 1542h-1l6 28h1z" />
    <glyph glyph-name="edotaccent" unicode="&#x117;" horiz-adv-x="1253" 
d="M1052 1080l162 -206l-61 -285l-249 -206h-544l-9 -39l48 -61h675l-60 -283h-813l-162 206l142 668l250 206h621zM949 942l102 -126l-40 -186l-128 -106h-637l60 282l166 136h477zM949 942h-477l-166 -136l-114 -532l103 -128h625v0h-625l-103 128l54 250h637l128 106
l40 186zM854 797h-345l-74 -61l-17 -80h426l51 42l8 38zM652 1132l44 210h212l-44 -210h-212zM776 1222h-1l6 28h1z" />
    <glyph glyph-name="Eogonek" unicode="&#x118;" horiz-adv-x="1063" 
d="M407 -369l-123 189l200 180h-479l298 1400h833l-60 -283h-550l-57 -269h481l-60 -283h-481l-60 -282h550l-61 -283h-133l-218 -180l23 -32h235l-33 -157h-305zM455 -290h187v0h-187l-74 110l368 322v0v0h-568l120 565h488v0h-488l117 552h564v0h-564l-237 -1117h568v0
l-368 -322z" />
    <glyph glyph-name="eogonek" unicode="&#x119;" horiz-adv-x="1140" 
d="M463 -367l-123 189l198 178h-285l-162 206l142 668l250 206h484l162 -206l-57 -270l-250 -206h-407l-12 -54l48 -61h538l-60 -283h-170l-216 -178l24 -32h235l-34 -157h-305zM508 -288h192v0h-192l-68 110l365 320v0v0h-448l-114 137l54 257h487l158 130l28 134l-112 140
h-323l-184 -150l-108 -511l114 -137h448l-365 -320zM297 536l54 254l184 150h323l112 -140l-28 -134l-158 -130h-487zM473 671h289l51 42l5 23l-49 61h-208l-74 -61z" />
    <glyph glyph-name="Ecaron" unicode="&#x11a;" horiz-adv-x="1140" 
d="M-34 0l298 1400h910l-60 -283h-627l-58 -269h558l-60 -283h-558l-60 -282h627l-60 -283h-910zM141 142h635v0h-635l120 565h565v0h-565l118 552h635v0h-635zM597 1432l-164 284h277l50 -108l96 108h277l-284 -284h-252zM680 1510h114l110 116v0l-110 -116h-114l-60 116v0
z" />
    <glyph glyph-name="ecaron" unicode="&#x11b;" horiz-adv-x="1253" 
d="M1052 1080l162 -206l-61 -285l-249 -206h-544l-9 -39l48 -61h675l-60 -283h-813l-162 206l142 668l250 206h621zM949 942l102 -126l-40 -186l-128 -106h-637l60 282l166 136h477zM949 942h-477l-166 -136l-114 -532l103 -128h625v0h-625l-103 128l54 250h637l128 106
l40 186zM854 797h-345l-74 -61l-17 -80h426l51 42l8 38zM633 1112l-164 284h277l50 -108l96 108h277l-284 -284h-252zM716 1190h114l110 116v0l-110 -116h-114l-60 116v0z" />
    <glyph glyph-name="Gcircumflex" unicode="&#x11c;" horiz-adv-x="1278" 
d="M172 0l-162 206l210 988l250 206h636l162 -206l-54 -252h-282l25 114l-48 61h-363l-74 -63l-151 -711l47 -60h363l74 61l30 138h-277l60 282h559l-119 -558l-250 -206h-636zM278 142h485l170 140l72 338h-269v0h269l-72 -338l-170 -140h-485l-110 140l179 843l163 134
h501l101 -134l-11 -53v0l11 53l-101 134h-501l-163 -134l-179 -843zM724 1716h252l164 -284h-277l-50 108l-96 -108h-277zM775 1638l-110 -116v0l110 116h114l60 -116v0l-60 116h-114z" />
    <glyph glyph-name="gcircumflex" unicode="&#x11d;" horiz-adv-x="1255" 
d="M-40 -400l60 282h562l98 81l12 57l-24 -20h-467l-162 206l142 668l249 206h563l163 -206l-228 -1068l-249 -206h-719zM115 -260h509l190 166l189 892l-107 142h-427l-165 -136l-108 -508l120 -154h346l243 192l-91 -428l-190 -166h-509v0zM316 142l-120 154l108 508
l165 136h427l107 -142l-98 -464l-243 -192h-346zM399 283h249l121 100l75 354l-49 61h-287l-74 -61l-83 -393zM643 1396h252l164 -284h-277l-50 108l-96 -108h-277zM694 1318l-110 -116v0l110 116h114l60 -116v0l-60 116h-114z" />
    <glyph glyph-name="Gbreve" unicode="&#x11e;" horiz-adv-x="1278" 
d="M172 0l-162 206l210 988l250 206h636l162 -206l-54 -252h-282l25 114l-48 61h-363l-74 -63l-151 -711l47 -60h363l74 61l30 138h-277l60 282h559l-119 -558l-250 -206h-636zM278 142h485l170 140l72 338h-269v0h269l-72 -338l-170 -140h-485l-110 140l179 843l163 134
h501l101 -134l-11 -53v0l11 53l-101 134h-501l-163 -134l-179 -843zM675 1432l-89 112l33 156h192l-16 -76h78l16 76h192l-33 -156l-135 -112h-238zM745 1520h136l82 72l5 26v0l-5 -26l-82 -72h-136l-50 72l5 26v0l-5 -26z" />
    <glyph glyph-name="gbreve" unicode="&#x11f;" horiz-adv-x="1255" 
d="M-40 -400l60 282h562l98 81l12 57l-24 -20h-467l-162 206l142 668l249 206h563l163 -206l-228 -1068l-249 -206h-719zM115 -260h509l190 166l189 892l-107 142h-427l-165 -136l-108 -508l120 -154h346l243 192l-91 -428l-190 -166h-509v0zM316 142l-120 154l108 508
l165 136h427l107 -142l-98 -464l-243 -192h-346zM399 283h249l121 100l75 354l-49 61h-287l-74 -61l-83 -393zM594 1112l-89 112l33 156h192l-16 -76h78l16 76h192l-33 -156l-135 -112h-238zM664 1200h136l82 72l5 26v0l-5 -26l-82 -72h-136l-50 72l5 26v0l-5 -26z" />
    <glyph glyph-name="Gdotaccent" unicode="&#x120;" horiz-adv-x="1278" 
d="M172 0l-162 206l210 988l250 206h636l162 -206l-54 -252h-282l25 114l-48 61h-363l-74 -63l-151 -711l47 -60h363l74 61l30 138h-277l60 282h559l-119 -558l-250 -206h-636zM278 142h485l170 140l72 338h-269v0h269l-72 -338l-170 -140h-485l-110 140l179 843l163 134
h501l101 -134l-11 -53v0l11 53l-101 134h-501l-163 -134l-179 -843zM693 1452l44 210h212l-44 -210h-212zM817 1542h-1l6 28h1z" />
    <glyph glyph-name="gdotaccent" unicode="&#x121;" horiz-adv-x="1255" 
d="M-40 -400l60 282h562l98 81l12 57l-24 -20h-467l-162 206l142 668l249 206h563l163 -206l-228 -1068l-249 -206h-719zM115 -260h509l190 166l189 892l-107 142h-427l-165 -136l-108 -508l120 -154h346l243 192l-91 -428l-190 -166h-509v0zM316 142l-120 154l108 508
l165 136h427l107 -142l-98 -464l-243 -192h-346zM399 283h249l121 100l75 354l-49 61h-287l-74 -61l-83 -393zM612 1132l44 210h212l-44 -210h-212zM736 1222h-1l6 28h1z" />
    <glyph glyph-name="uni0122" unicode="&#x122;" horiz-adv-x="1278" 
d="M172 0l-162 206l210 988l250 206h636l162 -206l-54 -252h-282l25 114l-48 61h-363l-74 -63l-151 -711l47 -60h363l74 61l30 138h-277l60 282h559l-119 -558l-250 -206h-636zM278 142h485l170 140l72 338h-269v0h269l-72 -338l-170 -140h-485l-110 140l179 843l163 134
h501l101 -134l-11 -53v0l11 53l-101 134h-501l-163 -134l-179 -843zM133 -530l212 458h271l-257 -458h-226zM299 -424h-1l115 220h1z" />
    <glyph glyph-name="uni0123" unicode="&#x123;" horiz-adv-x="1255" 
d="M-40 -400l60 282h562l98 81l12 57l-24 -20h-467l-162 206l142 668l249 206h563l163 -206l-228 -1068l-249 -206h-719zM115 -260h509l190 166l189 892l-107 142h-427l-165 -136l-108 -508l120 -154h346l243 192l-91 -428l-190 -166h-509v0zM316 142l-120 154l108 508
l165 136h427l107 -142l-98 -464l-243 -192h-346zM399 283h249l121 100l75 354l-49 61h-287l-74 -61l-83 -393zM1057 1568l-212 -458h-271l257 458h226zM891 1462h1l-115 -220h-1z" />
    <glyph glyph-name="Hcircumflex" unicode="&#x124;" horiz-adv-x="1295" 
d="M-24 0l298 1400h283l-118 -552h480l118 552h282l-298 -1400h-282l120 565h-480l-120 -565h-283zM147 142h-1l120 565h766l-120 -565h-1l238 1117h1l-118 -552h-766l118 552h1zM733 1716h252l164 -284h-277l-50 108l-96 -108h-277zM784 1638l-110 -116v0l110 116h114
l60 -116v0l-60 116h-114z" />
    <glyph glyph-name="hcircumflex" unicode="&#x125;" horiz-adv-x="1166" 
d="M-34 0l318 1499h283l-93 -438l23 19h467l162 -206l-185 -874h-283l156 736l-48 62h-268l-97 -81l-152 -717h-283zM143 142h-1l133 628l210 171h393l96 -120l-144 -679h-1l144 679l-95 120h-393l-210 -171l123 576h1zM709 1816h252l164 -284h-277l-50 108l-96 -108h-277z
M760 1738l-110 -116v0l110 116h114l60 -116v0l-60 116h-114z" />
    <glyph glyph-name="Hbar" unicode="&#x126;" horiz-adv-x="1270" 
d="M-7 0l208 979h-109l53 246h109l37 175h283l-37 -175h400l37 175h283l-37 -175h100l-53 -246h-100l-208 -979h-283l120 565h-400l-120 -565h-283zM166 142h-1l121 569h682l-121 -569h-1l207 973h124v0h-123l31 144v0l-31 -145h-682l31 145v0l-31 -144h-123v0h124zM286 710
l86 405h682l-86 -405h-682zM456 848h400l28 131h-400z" />
    <glyph glyph-name="hbar" unicode="&#x127;" horiz-adv-x="1192" 
d="M-16 0l249 1175h-111l53 246h111l16 79h283l-16 -79h271l-53 -246h-271l-24 -114l23 19h414l161 -206l-185 -874h-282l156 736l-49 62h-213l-98 -81l-152 -717h-283zM153 142h-1l130 611l225 191h323l104 -134l-142 -668h-1l142 668l-103 133h-323l-225 -190l116 547h276
v-1h-276l20 97h1l-20 -96h-135v1h135z" />
    <glyph glyph-name="Itilde" unicode="&#x128;" horiz-adv-x="1059" 
d="M-34 0l60 283h274l178 834h-274l60 283h829l-60 -283h-273l-178 -834h273l-60 -283h-829zM122 142h578v0h-289l238 1117h289v0h-578v0h289l-238 -1117h-289v0zM409 1432l29 136l135 112h178l44 -56h18l12 56h192l-29 -136l-135 -112h-178l-44 56h-18l-12 -56h-192z
M523 1502h-1l4 20l81 72h82l48 -74h88l82 72l4 20h1l-4 -20l-83 -72h-88l-48 74h-82l-80 -72z" />
    <glyph glyph-name="itilde" unicode="&#x129;" horiz-adv-x="990" 
d="M-1 0l60 283h240l110 514h-240l60 283h522l-170 -797h240l-60 -283h-762zM155 142h511v0h-261l170 797h-250v0h250l-170 -797h-250v0zM340 1112l29 136l135 112h178l44 -56h18l12 56h192l-29 -136l-135 -112h-178l-44 56h-18l-12 -56h-192zM454 1182h-1l4 20l81 72h82
l48 -74h88l82 72l4 20h1l-4 -20l-83 -72h-88l-48 74h-82l-80 -72z" />
    <glyph glyph-name="Imacron" unicode="&#x12a;" horiz-adv-x="1059" 
d="M-34 0l60 283h274l178 834h-274l60 283h829l-60 -283h-273l-178 -834h273l-60 -283h-829zM122 142h578v0h-289l238 1117h289v0h-578v0h289l-238 -1117h-289v0zM366 1431l54 256h632l-54 -256h-632zM523 1557h384v0h-384v0z" />
    <glyph glyph-name="imacron" unicode="&#x12b;" horiz-adv-x="990" 
d="M-1 0l60 283h240l110 514h-240l60 283h522l-170 -797h240l-60 -283h-762zM155 142h511v0h-261l170 797h-250v0h250l-170 -797h-250v0zM297 1111l54 256h632l-54 -256h-632zM454 1237h384v0h-384v0z" />
    <glyph glyph-name="Ibreve" unicode="&#x12c;" horiz-adv-x="1059" 
d="M-34 0l60 283h274l178 834h-274l60 283h829l-60 -283h-273l-178 -834h273l-60 -283h-829zM122 142h578v0h-289l238 1117h289v0h-578v0h289l-238 -1117h-289v0zM566 1432l-89 112l33 156h192l-16 -76h78l16 76h192l-33 -156l-135 -112h-238zM636 1520h136l82 72l5 26v0
l-5 -26l-82 -72h-136l-50 72l5 26v0l-5 -26z" />
    <glyph glyph-name="ibreve" unicode="&#x12d;" horiz-adv-x="990" 
d="M-1 0l60 283h240l110 514h-240l60 283h522l-170 -797h240l-60 -283h-762zM155 142h511v0h-261l170 797h-250v0h250l-170 -797h-250v0zM497 1112l-89 112l33 156h192l-16 -76h78l16 76h192l-33 -156l-135 -112h-238zM567 1200h136l82 72l5 26v0l-5 -26l-82 -72h-136
l-50 72l5 26v0l-5 -26z" />
    <glyph glyph-name="Iogonek" unicode="&#x12e;" horiz-adv-x="990" 
d="M194 -368l-123 189l199 179h-266l60 283h240l178 834h-240l60 283h762l-60 -283h-240l-178 -834h240l-60 -283h-275l-217 -179l23 -32h235l-33 -157h-305zM245 -289h192h-1h-191l-72 109l371 322h118h-1h-256l237 1117h266h-1h-508h1h242l-237 -1117h-234h1h372
l-371 -322z" />
    <glyph glyph-name="iogonek" unicode="&#x12f;" horiz-adv-x="990" 
d="M161 -369l-122 189l200 180h-245l60 283h240l109 514h-240l60 283h522l-169 -797h240l-60 -283h-296l-218 -180l23 -32h235l-34 -157h-305zM208 -290h186h-1h-185l-72 110l368 321h147h-1h-255l170 801h-235h1h234l-170 -801h-235h1h343l-368 -321zM457 1237l56 263h322
l-56 -263h-322zM644 1362l1 1l5 27v-1z" />
    <glyph glyph-name="Idotaccent" unicode="&#x130;" horiz-adv-x="1059" 
d="M-34 0l60 283h274l178 834h-274l60 283h829l-60 -283h-273l-178 -834h273l-60 -283h-829zM122 142h578v0h-289l238 1117h289v0h-578v0h289l-238 -1117h-289v0zM584 1452l44 210h212l-44 -210h-212zM708 1542h-1l6 28h1z" />
    <glyph glyph-name="dotlessi" unicode="&#x131;" horiz-adv-x="990" 
d="M-1 0l60 283h240l110 514h-240l60 283h522l-170 -797h240l-60 -283h-762zM155 142h511v0h-261l170 797h-250v0h250l-170 -797h-250v0z" />
    <glyph glyph-name="Jcircumflex" unicode="&#x134;" horiz-adv-x="1216" 
d="M173 0l-163 206l76 357h283l-47 -219l48 -61h298l74 61l165 773h-512l60 283h795l-254 -1194l-251 -206h-572zM274 147h434l170 139l207 973h-517v0h517l-207 -973l-170 -139h-434l-107 136l32 149v0l-32 -149zM793 1716h252l164 -284h-277l-50 108l-96 -108h-277z
M844 1638l-110 -116v0l110 116h114l60 -116v0l-60 116h-114z" />
    <glyph glyph-name="jcircumflex" unicode="&#x135;" horiz-adv-x="706" 
d="M-132 -400l60 282h181l97 81l177 835h-261l60 282h544l-271 -1274l-249 -206h-338zM62 -253h107l163 140l224 1053h-261v1h261l-224 -1054l-163 -141h-107v1zM446 1396h252l164 -284h-277l-50 108l-96 -108h-277zM497 1318l-110 -116v0l110 116h114l60 -116v0l-60 116
h-114z" />
    <glyph glyph-name="uni0136" unicode="&#x136;" horiz-adv-x="1298" 
d="M-24 0l298 1400h283l-118 -552h349l145 119l92 433h283l-118 -552l-170 -140l110 -143l-120 -565h-283l95 447l-94 118h-349l-120 -565h-283zM149 142h-1l122 574h566l145 -194l-81 -380v0l81 380l-145 194l226 186l76 357v0l-76 -357l-226 -186h-566l116 543h1z
M137 -530l212 458h271l-257 -458h-226zM303 -424h-1l115 220h1z" />
    <glyph glyph-name="uni0137" unicode="&#x137;" horiz-adv-x="1139" 
d="M-24 0l298 1400h283l-154 -722h204l145 119l60 283h283l-86 -402l-170 -140l110 -143l-84 -395h-283l59 277l-94 118h-204l-84 -395h-283zM149 142h-1l85 397h416l145 -195l-43 -202h-1l43 202l-144 195l227 187l45 214h1l-45 -214l-228 -187h-416l153 720h1zM67 -530
l212 458h271l-257 -458h-226zM233 -424h-1l115 220h1z" />
    <glyph glyph-name="kgreenlandic" unicode="&#x138;" horiz-adv-x="1092" 
d="M10 0l230 1080h283l-86 -402h157l145 119l60 283h283l-86 -402l-170 -140l110 -143l-84 -395h-283l59 277l-94 118h-157l-84 -395h-283zM183 142h-1l85 397h369l145 -195l-43 -202h-1l43 202l-144 195l227 187l45 214h1l-45 -214l-228 -187h-369l85 400h1z" />
    <glyph glyph-name="Lacute" unicode="&#x139;" horiz-adv-x="1091" 
d="M-24 0l298 1400h283l-238 -1117h608l-60 -283h-891zM148 142h613v0h-613l238 1117v0zM295 1432l300 264h287l-340 -264h-247zM499 1500h-1l147 126h1z" />
    <glyph glyph-name="lacute" unicode="&#x13a;" horiz-adv-x="913" 
d="M-69 0l60 283h270l198 934h-270l60 283h552l-258 -1217h270l-60 -283h-822zM87 142h571v0h-291l258 1217h-280v0h280l-258 -1217h-280v0zM506 1532l300 264h287l-340 -264h-247zM710 1600h-1l147 126h1z" />
    <glyph glyph-name="uni013B" unicode="&#x13b;" horiz-adv-x="1091" 
d="M-24 0l298 1400h283l-238 -1117h608l-60 -283h-891zM148 142h613v0h-613l238 1117v0zM29 -530l212 458h271l-257 -458h-226zM195 -424h-1l115 220h1z" />
    <glyph glyph-name="uni013C" unicode="&#x13c;" horiz-adv-x="913" 
d="M-69 0l60 283h270l198 934h-270l60 283h552l-258 -1217h270l-60 -283h-822zM87 142h571v0h-291l258 1217h-280v0h280l-258 -1217h-280v0zM-18 -530l212 458h271l-257 -458h-226zM148 -424h-1l115 220h1z" />
    <glyph glyph-name="Lcaron" unicode="&#x13d;" horiz-adv-x="1091" 
d="M-24 0l298 1400h283l-238 -1117h608l-60 -283h-891zM148 142h613v0h-613l238 1117v0zM940 946l-10 172l60 282h302l-60 -282l-84 -172h-208zM1071 1054h-1l13 62l33 152h1l-32 -152z" />
    <glyph glyph-name="lcaron" unicode="&#x13e;" horiz-adv-x="1056" 
d="M-69 0l60 283h270l198 934h-270l60 283h552l-258 -1217h270l-60 -283h-822zM87 142h571v0h-291l258 1217h-280v0h280l-258 -1217h-280v0zM908 1046l-10 172l60 282h302l-60 -282l-84 -172h-208zM1039 1154h-1l13 62l33 152h1l-32 -152z" />
    <glyph glyph-name="Ldot" unicode="&#x13f;" horiz-adv-x="1070" 
d="M-24 0l298 1400h283l-238 -1117h608l-60 -283h-891zM148 142h613v0h-613l238 1117v0zM602 588l62 294h314l-62 -294h-314zM766 730h48v0h-48v0z" />
    <glyph glyph-name="ldot" unicode="&#x140;" horiz-adv-x="1032" 
d="M-69 0l60 283h270l198 934h-270l60 283h552l-258 -1217h270l-60 -283h-822zM87 142h571v0h-291l258 1217h-280v0h280l-258 -1217h-280v0zM687 588l62 294h314l-62 -294h-314zM851 730h48v0h-48v0z" />
    <glyph glyph-name="Lslash" unicode="&#x141;" horiz-adv-x="1100" 
d="M32 0l104 488l-127 -47l53 250l127 47l141 662h283l-118 -553l371 135l-53 -250l-371 -135l-67 -314h530l-60 -283h-813zM200 142h582v0h-582l111 521l-132 -49v0l132 49l127 599v0l-127 -599l367 134v0l-367 -134z" />
    <glyph glyph-name="lslash" unicode="&#x142;" horiz-adv-x="588" 
d="M-6 0l96 452l-175 -52l52 248l175 52l170 800h282l-151 -712l173 50l-53 -249l-173 -50l-114 -539h-282zM161 116h-1l105 495l205 59v-1l-205 -59l165 776h1l-165 -775l-205 -59v1l206 59z" />
    <glyph glyph-name="Nacute" unicode="&#x143;" horiz-adv-x="1465" 
d="M147 142h-1l238 1117h294l109 -1117h292l238 1117h1l-238 -1117h-293l-109 1117h-293zM-24 0l298 1400h543l99 -1113h53l237 1113h283l-298 -1400h-543l-101 1116h-51l-237 -1116h-283zM802 1432l300 264h287l-340 -264h-247zM1006 1500h-1l147 126h1z" />
    <glyph glyph-name="nacute" unicode="&#x144;" horiz-adv-x="1180" 
d="M-5 0l186 874l250 206h548l162 -206l-186 -874h-282l157 736l-48 61h-274l-74 -61l-157 -736h-282zM168 142h-1l139 650l179 148h387l115 -146l-139 -652h-1l139 652l-114 146h-387l-178 -148zM602 1112l300 264h287l-340 -264h-247zM806 1180h-1l147 126h1z" />
    <glyph glyph-name="uni0145" unicode="&#x145;" horiz-adv-x="1465" 
d="M147 142h-1l238 1117h294l109 -1117h292l238 1117h1l-238 -1117h-293l-109 1117h-293zM-24 0l298 1400h543l99 -1113h53l237 1113h283l-298 -1400h-543l-101 1116h-51l-237 -1116h-283zM257 -530l212 458h271l-257 -458h-226zM423 -424h-1l115 220h1z" />
    <glyph glyph-name="uni0146" unicode="&#x146;" horiz-adv-x="1180" 
d="M-5 0l186 874l250 206h548l162 -206l-186 -874h-282l157 736l-48 61h-274l-74 -61l-157 -736h-282zM168 142h-1l139 650l179 148h387l115 -146l-139 -652h-1l139 652l-114 146h-387l-178 -148zM125 -530l212 458h271l-257 -458h-226zM291 -424h-1l115 220h1z" />
    <glyph glyph-name="Ncaron" unicode="&#x147;" horiz-adv-x="1465" 
d="M147 142h-1l238 1117h294l109 -1117h292l238 1117h1l-238 -1117h-293l-109 1117h-293zM-24 0l298 1400h543l99 -1113h53l237 1113h283l-298 -1400h-543l-101 1116h-51l-237 -1116h-283zM798 1432l-164 284h277l50 -108l96 108h277l-284 -284h-252zM881 1510h114l110 116
v0l-110 -116h-114l-60 116v0z" />
    <glyph glyph-name="ncaron" unicode="&#x148;" horiz-adv-x="1180" 
d="M-5 0l186 874l250 206h548l162 -206l-186 -874h-282l157 736l-48 61h-274l-74 -61l-157 -736h-282zM168 142h-1l139 650l179 148h387l115 -146l-139 -652h-1l139 652l-114 146h-387l-178 -148zM598 1112l-164 284h277l50 -108l96 108h277l-284 -284h-252zM681 1190h114
l110 116v0l-110 -116h-114l-60 116v0z" />
    <glyph glyph-name="Eng" unicode="&#x14a;" horiz-adv-x="1249" 
d="M405 -400l60 282h181l97 81l10 47l-295 800l-172 -810h-283l297 1400h277l299 -810l172 810h283l-339 -1594l-249 -206h-338zM615 -252h98l157 134l292 1377v0l-254 -1198l-446 1198h-52l-237 -1117v0l237 1117h52l446 -1198l-38 -179l-157 -134h-98v0z" />
    <glyph glyph-name="eng" unicode="&#x14b;" horiz-adv-x="1130" 
d="M338 -400l60 282h161l97 81l164 773l-48 61h-220l-74 -61l-156 -736h-282l186 874l249 206h494l163 -206l-228 -1068l-248 -206h-318zM511 -252h112l157 134l196 926l-103 132h-356l-177 -134l-141 -664v0l141 664l177 134h356l103 -132l-196 -926l-157 -134h-112v0z" />
    <glyph glyph-name="Omacron" unicode="&#x14c;" horiz-adv-x="1306" 
d="M172 0l-162 206l210 988l250 206h664l162 -206l-210 -988l-250 -206h-664zM370 283h388l74 61l152 712l-48 61h-388l-74 -61l-152 -712zM275 142h521l163 134l180 849l-105 134h-521l-163 -134l-180 -849zM275 142l-105 134l180 849l163 134h521l105 -134l-180 -849
l-163 -134h-521zM489 1431l54 256h632l-54 -256h-632zM646 1557h384v0h-384v0z" />
    <glyph glyph-name="omacron" unicode="&#x14d;" horiz-adv-x="1257" 
d="M201 0l-162 206l142 668l250 206h625l162 -206l-142 -668l-250 -206h-625zM311 142h477l161 140l112 524l-103 134h-485l-161 -134l-112 -524zM311 142l-111 140l112 524l161 134h485l103 -134l-112 -524l-161 -140h-477zM399 283h349l74 61l84 392l-48 61h-349l-74 -61
l-84 -392zM431 1111l54 256h632l-54 -256h-632zM588 1237h384v0h-384v0z" />
    <glyph glyph-name="Obreve" unicode="&#x14e;" horiz-adv-x="1306" 
d="M172 0l-162 206l210 988l250 206h664l162 -206l-210 -988l-250 -206h-664zM370 283h388l74 61l152 712l-48 61h-388l-74 -61l-152 -712zM275 142h521l163 134l180 849l-105 134h-521l-163 -134l-180 -849zM275 142l-105 134l180 849l163 134h521l105 -134l-180 -849
l-163 -134h-521zM689 1432l-89 112l33 156h192l-16 -76h78l16 76h192l-33 -156l-135 -112h-238zM759 1520h136l82 72l5 26v0l-5 -26l-82 -72h-136l-50 72l5 26v0l-5 -26z" />
    <glyph glyph-name="obreve" unicode="&#x14f;" horiz-adv-x="1257" 
d="M201 0l-162 206l142 668l250 206h625l162 -206l-142 -668l-250 -206h-625zM311 142h477l161 140l112 524l-103 134h-485l-161 -134l-112 -524zM311 142l-111 140l112 524l161 134h485l103 -134l-112 -524l-161 -140h-477zM399 283h349l74 61l84 392l-48 61h-349l-74 -61
l-84 -392zM631 1112l-89 112l33 156h192l-16 -76h78l16 76h192l-33 -156l-135 -112h-238zM701 1200h136l82 72l5 26v0l-5 -26l-82 -72h-136l-50 72l5 26v0l-5 -26z" />
    <glyph glyph-name="Ohungarumlaut" unicode="&#x150;" horiz-adv-x="1306" 
d="M172 0l-162 206l210 988l250 206h664l162 -206l-210 -988l-250 -206h-664zM370 283h388l74 61l152 712l-48 61h-388l-74 -61l-152 -712zM275 142h521l163 134l180 849l-105 134h-521l-163 -134l-180 -849zM275 142l-105 134l180 849l163 134h521l105 -134l-180 -849
l-163 -134h-521zM869 1432l201 264h287l-251 -264h-237zM684 1494h-1l112 131h1zM517 1432l201 264h287l-251 -264h-237zM1036 1494h-1l112 131h1z" />
    <glyph glyph-name="ohungarumlaut" unicode="&#x151;" horiz-adv-x="1257" 
d="M201 0l-162 206l142 668l250 206h625l162 -206l-142 -668l-250 -206h-625zM311 142h477l161 140l112 524l-103 134h-485l-161 -134l-112 -524zM311 142l-111 140l112 524l161 134h485l103 -134l-112 -524l-161 -140h-477zM399 283h349l74 61l84 392l-48 61h-349l-74 -61
l-84 -392zM811 1112l201 264h287l-251 -264h-237zM626 1174h-1l112 131h1zM459 1112l201 264h287l-251 -264h-237zM978 1174h-1l112 131h1z" />
    <glyph glyph-name="OE" unicode="&#x152;" horiz-adv-x="1922" 
d="M214 0l-162 206l210 988l250 206h1400l-60 -283h-550l-58 -269h511l-60 -283h-511l-60 -282h550l-60 -283h-1400zM319 126l-113 144l184 868l175 144h506l102 -130l-190 -896l-158 -130h-506zM412 283h368l74 61l152 712l-48 61h-368l-74 -61l-152 -712zM319 126h506
l158 130l-28 -130h562v0h-562l124 584h522v0h-522l122 572h562v0h-562l-28 -130l-102 130h-506l-175 -144l-184 -868z" />
    <glyph glyph-name="oe" unicode="&#x153;" horiz-adv-x="1766" 
d="M210 0l-162 206l142 668l250 206h484l52 -64l78 64h484l162 -206l-60 -280l-249 -206h-342l-79 -65l4 21l48 -61h208l157 128l187 -192l-266 -219h-484l-50 65l-79 -65h-485zM310 141l-112 142l112 523l162 134h352l101 -139l-111 -525l-160 -135h-344zM409 283h207
l75 61l84 392l-49 61h-207l-75 -61l-84 -392zM310 141h344l160 135l106 -135h376l96 76v0l-96 -76h-376l-106 135l11 50l245 200h300l135 110l37 172l-104 132h-340l-173 -139l-101 139h-352l-162 -134l-112 -523zM825 326l100 475l173 139h340l104 -132l-37 -172l-135 -110
h-300zM1037 640l23 19h269l51 42l8 35l-48 61h-208l-74 -61z" />
    <glyph glyph-name="Racute" unicode="&#x154;" horiz-adv-x="1309" 
d="M-24 0l298 1400h863l162 -206l-92 -434l-146 -112l94 -133l-110 -515h-283l88 415l-78 100h-403l-110 -515h-283zM149 142h-1l111 521h613l133 -197l-69 -324h-1l69 324l-132 197l199 152l68 316l-102 128h-650zM429 798h442l74 62l42 196l-48 61h-442zM259 662l127 598
h651l103 -129l-68 -316l-201 -153h-612zM696 1432l300 264h287l-340 -264h-247zM900 1500h-1l147 126h1z" />
    <glyph glyph-name="racute" unicode="&#x155;" horiz-adv-x="1148" 
d="M-5 -1l61 283h194l107 501l-12 15h-177l60 282h253l51 -80l94 80h388l172 -219l-263 -212l-106 148h-113l-74 -61l-97 -455h194l-60 -282h-672zM154 142h415v0h-209l144 674l151 124h269l69 -100v0l-69 100h-269l-151 -124l-90 124h-90v0h90l91 -124l-144 -674h-207v0z
M551 1112l300 264h287l-340 -264h-247zM755 1180h-1l147 126h1z" />
    <glyph glyph-name="uni0156" unicode="&#x156;" horiz-adv-x="1309" 
d="M-24 0l298 1400h863l162 -206l-92 -434l-146 -112l94 -133l-110 -515h-283l88 415l-78 100h-403l-110 -515h-283zM149 142h-1l111 521h613l133 -197l-69 -324h-1l69 324l-132 197l199 152l68 316l-102 128h-650zM429 798h442l74 62l42 196l-48 61h-442zM259 662l127 598
h651l103 -129l-68 -316l-201 -153h-612zM151 -530l212 458h271l-257 -458h-226zM317 -424h-1l115 220h1z" />
    <glyph glyph-name="uni0157" unicode="&#x157;" horiz-adv-x="1148" 
d="M-5 -1l61 283h194l107 501l-12 15h-177l60 282h253l51 -80l94 80h388l172 -219l-263 -212l-106 148h-113l-74 -61l-97 -455h194l-60 -282h-672zM154 142h415v0h-209l144 674l151 124h269l69 -100v0l-69 100h-269l-151 -124l-90 124h-90v0h90l91 -124l-144 -674h-207v0z
M-25 -530l212 458h271l-257 -458h-226zM141 -424h-1l115 220h1z" />
    <glyph glyph-name="Rcaron" unicode="&#x158;" horiz-adv-x="1309" 
d="M-24 0l298 1400h863l162 -206l-92 -434l-146 -112l94 -133l-110 -515h-283l88 415l-78 100h-403l-110 -515h-283zM149 142h-1l111 521h613l133 -197l-69 -324h-1l69 324l-132 197l199 152l68 316l-102 128h-650zM429 798h442l74 62l42 196l-48 61h-442zM259 662l127 598
h651l103 -129l-68 -316l-201 -153h-612zM692 1432l-164 284h277l50 -108l96 108h277l-284 -284h-252zM775 1510h114l110 116v0l-110 -116h-114l-60 116v0z" />
    <glyph glyph-name="rcaron" unicode="&#x159;" horiz-adv-x="1148" 
d="M-5 -1l61 283h194l107 501l-12 15h-177l60 282h253l51 -80l94 80h388l172 -219l-263 -212l-106 148h-113l-74 -61l-97 -455h194l-60 -282h-672zM154 142h415v0h-209l144 674l151 124h269l69 -100v0l-69 100h-269l-151 -124l-90 124h-90v0h90l91 -124l-144 -674h-207v0z
M547 1112l-164 284h277l50 -108l96 108h277l-284 -284h-252zM630 1190h114l110 116v0l-110 -116h-114l-60 116v0z" />
    <glyph glyph-name="Sacute" unicode="&#x15a;" horiz-adv-x="1302" 
d="M172 0l-162 206l54 252h283l-25 -114l48 -61h384l74 61l33 154l-48 61h-516l-162 206l91 429l250 206h635l162 -206l-54 -252h-283l25 114l-48 61h-359l-75 -61l-33 -153l49 -61h516l162 -206l-91 -430l-250 -206h-660zM268 142h509l174 138l63 300l-88 119h-521
l-110 146l60 283l165 131h498l98 -131l-12 -56v0l12 56l-98 131h-498l-165 -131l-60 -283l110 -146h521l88 -119l-63 -300l-174 -138h-509l-99 118l15 68v0l-15 -68zM690 1432l300 264h287l-340 -264h-247zM894 1500h-1l147 126h1z" />
    <glyph glyph-name="sacute" unicode="&#x15b;" horiz-adv-x="1203" 
d="M5 0l60 283h630l74 61l-1 -5l-46 60h-436l-162 206l57 269l250 206h757l-60 -283h-620l-74 -61l1 6l48 -61h434l162 -206l-57 -269l-250 -206h-767zM190 145h554l150 124l34 157l-99 119h-462l-89 114l34 157l149 123h543v0h-543l-149 -123l-34 -157l89 -114h462l99 -119
l-34 -157l-150 -124h-554v0zM616 1112l300 264h287l-340 -264h-247zM820 1180h-1l147 126h1z" />
    <glyph glyph-name="Scircumflex" unicode="&#x15c;" horiz-adv-x="1302" 
d="M172 0l-162 206l54 252h283l-25 -114l48 -61h384l74 61l33 154l-48 61h-516l-162 206l91 429l250 206h635l162 -206l-54 -252h-283l25 114l-48 61h-359l-75 -61l-33 -153l49 -61h516l162 -206l-91 -430l-250 -206h-660zM268 142h509l174 138l63 300l-88 119h-521
l-110 146l60 283l165 131h498l98 -131l-12 -56v0l12 56l-98 131h-498l-165 -131l-60 -283l110 -146h521l88 -119l-63 -300l-174 -138h-509l-99 118l15 68v0l-15 -68zM736 1716h252l164 -284h-277l-50 108l-96 -108h-277zM787 1638l-110 -116v0l110 116h114l60 -116v0
l-60 116h-114z" />
    <glyph glyph-name="scircumflex" unicode="&#x15d;" horiz-adv-x="1203" 
d="M5 0l60 283h630l74 61l-1 -5l-46 60h-436l-162 206l57 269l250 206h757l-60 -283h-620l-74 -61l1 6l48 -61h434l162 -206l-57 -269l-250 -206h-767zM190 145h554l150 124l34 157l-99 119h-462l-89 114l34 157l149 123h543v0h-543l-149 -123l-34 -157l89 -114h462l99 -119
l-34 -157l-150 -124h-554v0zM662 1396h252l164 -284h-277l-50 108l-96 -108h-277zM713 1318l-110 -116v0l110 116h114l60 -116v0l-60 116h-114z" />
    <glyph glyph-name="Scedilla" unicode="&#x15e;" horiz-adv-x="1232" 
d="M241 -349l33 157h205l37 32l-23 30h-134l27 130h-175l-162 206l54 252h283l-25 -114l48 -61h310l74 61l25 114l-48 61l-423 90l-162 206l80 379l250 206h561l162 -206l-53 -252h-283l24 114l-48 61h-285l-75 -61l-22 -103l49 -61l423 -90l162 -206l-83 -390l-250 -206
h-143l105 -160l-203 -189h-315zM364 -271h162l120 111l-74 109h-95l41 191h237l158 130l59 281l-86 111l-440 88l-106 135l52 243l158 130h439l94 -120l-13 -61v0l13 61l-94 120h-439l-158 -130l-52 -243l106 -135l440 -88l86 -111l-59 -281l-158 -130h-453l-94 120l15 73v0
l-15 -73l94 -120h216l-41 -191h95l74 -109l-120 -111h-162v0z" />
    <glyph glyph-name="scedilla" unicode="&#x15f;" horiz-adv-x="1152" 
d="M244 -349l33 157h205l37 32l-23 30h-134l27 130h-339l60 283h563l72 59l-45 57h-369l-162 206l57 269l250 206h690l-60 -283h-553l-71 -58l46 -58h367l162 -206l-57 -269l-250 -206h-93l105 -160l-203 -189h-315zM367 -270h160l116 110l-77 109h-87l41 193h201l151 127
l34 157l-99 119h-385l-100 114l34 157l150 124h494v0h-494l-150 -124l-34 -157l100 -114h385l99 -119l-34 -157l-151 -127h-497v0h296l-41 -193h87l77 -109l-116 -110h-160v0z" />
    <glyph glyph-name="Scaron" unicode="&#x160;" horiz-adv-x="1302" 
d="M172 0l-162 206l54 252h283l-25 -114l48 -61h384l74 61l33 154l-48 61h-516l-162 206l91 429l250 206h635l162 -206l-54 -252h-283l25 114l-48 61h-359l-75 -61l-33 -153l49 -61h516l162 -206l-91 -430l-250 -206h-660zM268 142h509l174 138l63 300l-88 119h-521
l-110 146l60 283l165 131h498l98 -131l-12 -56v0l12 56l-98 131h-498l-165 -131l-60 -283l110 -146h521l88 -119l-63 -300l-174 -138h-509l-99 118l15 68v0l-15 -68zM686 1432l-164 284h277l50 -108l96 108h277l-284 -284h-252zM769 1510h114l110 116v0l-110 -116h-114
l-60 116v0z" />
    <glyph glyph-name="scaron" unicode="&#x161;" horiz-adv-x="1203" 
d="M5 0l60 283h630l74 61l-1 -5l-46 60h-436l-162 206l57 269l250 206h757l-60 -283h-620l-74 -61l1 6l48 -61h434l162 -206l-57 -269l-250 -206h-767zM190 145h554l150 124l34 157l-99 119h-462l-89 114l34 157l149 123h543v0h-543l-149 -123l-34 -157l89 -114h462l99 -119
l-34 -157l-150 -124h-554v0zM612 1112l-164 284h277l50 -108l96 108h277l-284 -284h-252zM695 1190h114l110 116v0l-110 -116h-114l-60 116v0z" />
    <glyph glyph-name="uni0162" unicode="&#x162;" horiz-adv-x="1092" 
d="M171 -349l33 157h205l37 32l-23 30h-157l265 1247h-310l60 283h902l-60 -283h-310l-236 -1107l112 -170l-203 -189h-315zM291 -269h165l118 109l-72 108h-80l279 1311h321h-1h-647h1h326l-279 -1311h80l72 -108l-118 -109h-164h-1z" />
    <glyph glyph-name="uni0163" unicode="&#x163;" horiz-adv-x="883" 
d="M112 -349l33 157h205l37 32l-23 30h-134l27 130h-94l170 798h-225l60 282h225l58 274h283l-58 -274h225l-60 -282h-225l-110 -515h218l-60 -283h-139l105 -160l-203 -189h-315zM225 -270h162l113 110l-81 109h-82l41 193h192h-1h-234l170 799h240h-1h-239l65 305v0
l-65 -305h-260h21h239l-170 -799h43l-41 -193h82l81 -109l-113 -110h-161h-1z" />
    <glyph glyph-name="Tcaron" unicode="&#x164;" horiz-adv-x="1126" 
d="M273 0l238 1117h-347l60 283h976l-60 -283h-347l-238 -1117h-282zM445 142h-1l238 1117h357v0h-714v0h358zM598 1432l-164 284h277l50 -108l96 108h277l-284 -284h-252zM681 1510h114l110 116v0l-110 -116h-114l-60 116v0z" />
    <glyph glyph-name="tcaron" unicode="&#x165;" horiz-adv-x="935" 
d="M179 0l170 798h-249l60 282h249l58 274h283l-58 -274h248l-60 -282h-248l-110 -515h241l-60 -283h-524zM351 143h258v-1h-258l170 800h263v-1h-263l61 288v0l-61 -287h-264l1 1h264zM499 1390l-164 284h277l50 -108l96 108h277l-284 -284h-252zM582 1468h114l110 116v0
l-110 -116h-114l-60 116v0z" />
    <glyph glyph-name="Tbar" unicode="&#x166;" horiz-adv-x="1102" 
d="M246 0l150 704h-185l52 246h185l36 167h-310l60 283h902l-60 -283h-310l-36 -167h179l-52 -246h-179l-150 -704h-282zM417 142h-1l146 684h198v-1h-198l92 434h330v-1h-660v1h331l-92 -433h-199v1h199z" />
    <glyph glyph-name="tbar" unicode="&#x167;" horiz-adv-x="898" 
d="M158 0l110 515h-225l52 247h225l10 48h-225l60 282h225l66 308h282l-66 -308h218l-60 -282h-218l-10 -48h218l-52 -247h-218l-110 -515h-282zM331 142h-1l106 497h240v-1h-240l66 311h240v-1h-240l66 311h1l-66 -310h-253v1h253l-66 -312h-247v0h247z" />
    <glyph glyph-name="Utilde" unicode="&#x168;" horiz-adv-x="1328" 
d="M172 0l-162 206l254 1194h283l-225 -1056l48 -61h410l74 61l225 1056h283l-254 -1194l-250 -206h-686zM271 142h548l162 129l210 988v0l-210 -988l-162 -129h-548l-106 131l210 986v0l-210 -986zM544 1432l29 136l135 112h178l44 -56h18l12 56h192l-29 -136l-135 -112
h-178l-44 56h-18l-12 -56h-192zM658 1502h-1l4 20l81 72h82l48 -74h88l82 72l4 20h1l-4 -20l-83 -72h-88l-48 74h-82l-80 -72z" />
    <glyph glyph-name="utilde" unicode="&#x169;" horiz-adv-x="1202" 
d="M201 0l-162 206l186 874h283l-157 -736l48 -61h294l74 61l157 736h283l-186 -874l-250 -206h-570zM311 142h417l171 150l138 648v0l-138 -648l-171 -150h-417l-114 151l138 647v0l-138 -647zM448 1112l29 136l135 112h178l44 -56h18l12 56h192l-29 -136l-135 -112h-178
l-44 56h-18l-12 -56h-192zM562 1182h-1l4 20l81 72h82l48 -74h88l82 72l4 20h1l-4 -20l-83 -72h-88l-48 74h-82l-80 -72z" />
    <glyph glyph-name="Umacron" unicode="&#x16a;" horiz-adv-x="1328" 
d="M172 0l-162 206l254 1194h283l-225 -1056l48 -61h410l74 61l225 1056h283l-254 -1194l-250 -206h-686zM271 142h548l162 129l210 988v0l-210 -988l-162 -129h-548l-106 131l210 986v0l-210 -986zM501 1431l54 256h632l-54 -256h-632zM658 1557h384v0h-384v0z" />
    <glyph glyph-name="umacron" unicode="&#x16b;" horiz-adv-x="1202" 
d="M201 0l-162 206l186 874h283l-157 -736l48 -61h294l74 61l157 736h283l-186 -874l-250 -206h-570zM311 142h417l171 150l138 648v0l-138 -648l-171 -150h-417l-114 151l138 647v0l-138 -647zM405 1111l54 256h632l-54 -256h-632zM562 1237h384v0h-384v0z" />
    <glyph glyph-name="Ubreve" unicode="&#x16c;" horiz-adv-x="1328" 
d="M172 0l-162 206l254 1194h283l-225 -1056l48 -61h410l74 61l225 1056h283l-254 -1194l-250 -206h-686zM271 142h548l162 129l210 988v0l-210 -988l-162 -129h-548l-106 131l210 986v0l-210 -986zM701 1432l-89 112l33 156h192l-16 -76h78l16 76h192l-33 -156l-135 -112
h-238zM771 1520h136l82 72l5 26v0l-5 -26l-82 -72h-136l-50 72l5 26v0l-5 -26z" />
    <glyph glyph-name="ubreve" unicode="&#x16d;" horiz-adv-x="1202" 
d="M201 0l-162 206l186 874h283l-157 -736l48 -61h294l74 61l157 736h283l-186 -874l-250 -206h-570zM311 142h417l171 150l138 648v0l-138 -648l-171 -150h-417l-114 151l138 647v0l-138 -647zM605 1112l-89 112l33 156h192l-16 -76h78l16 76h192l-33 -156l-135 -112h-238z
M675 1200h136l82 72l5 26v0l-5 -26l-82 -72h-136l-50 72l5 26v0l-5 -26z" />
    <glyph glyph-name="Uring" unicode="&#x16e;" horiz-adv-x="1328" 
d="M172 0l-162 206l254 1194h283l-225 -1056l48 -61h410l74 61l225 1056h283l-254 -1194l-250 -206h-686zM271 142h548l162 129l210 988v0l-210 -988l-162 -129h-548l-106 131l210 986v0l-210 -986zM730 1430l-78 97l37 174l119 98h183l77 -98l-37 -174l-118 -97h-183z
M786 1515h108l63 51l21 100l-41 52h-108l-63 -52l-21 -100zM786 1515l-41 51l21 100l63 52h108l41 -52l-21 -100l-63 -51h-108zM848 1597h17l11 10l4 15l-7 9h-17l-11 -9l-4 -15z" />
    <glyph glyph-name="uring" unicode="&#x16f;" horiz-adv-x="1202" 
d="M201 0l-162 206l186 874h283l-157 -736l48 -61h294l74 61l157 736h283l-186 -874l-250 -206h-570zM311 142h417l171 150l138 648v0l-138 -648l-171 -150h-417l-114 151l138 647v0l-138 -647zM634 1110l-78 97l37 174l119 98h183l77 -98l-37 -174l-118 -97h-183zM690 1195
h108l63 51l21 100l-41 52h-108l-63 -52l-21 -100zM690 1195l-41 51l21 100l63 52h108l41 -52l-21 -100l-63 -51h-108zM752 1277h17l11 10l4 15l-7 9h-17l-11 -9l-4 -15z" />
    <glyph glyph-name="Uhungarumlaut" unicode="&#x170;" horiz-adv-x="1328" 
d="M172 0l-162 206l254 1194h283l-225 -1056l48 -61h410l74 61l225 1056h283l-254 -1194l-250 -206h-686zM271 142h548l162 129l210 988v0l-210 -988l-162 -129h-548l-106 131l210 986v0l-210 -986zM881 1432l201 264h287l-251 -264h-237zM696 1494h-1l112 131h1zM529 1432
l201 264h287l-251 -264h-237zM1048 1494h-1l112 131h1z" />
    <glyph glyph-name="uhungarumlaut" unicode="&#x171;" horiz-adv-x="1202" 
d="M201 0l-162 206l186 874h283l-157 -736l48 -61h294l74 61l157 736h283l-186 -874l-250 -206h-570zM311 142h417l171 150l138 648v0l-138 -648l-171 -150h-417l-114 151l138 647v0l-138 -647zM785 1112l201 264h287l-251 -264h-237zM600 1174h-1l112 131h1zM433 1112
l201 264h287l-251 -264h-237zM952 1174h-1l112 131h1z" />
    <glyph glyph-name="Uogonek" unicode="&#x172;" horiz-adv-x="1250" 
d="M324 -369l-123 189l200 180h-190l-162 206l254 1194h283l-224 -1056l48 -61h330l74 61l224 1056h283l-254 -1194l-250 -206h-195l-218 -180l23 -32h235l-33 -157h-305zM377 -290h194h-1h-193l-74 110l368 321h111l157 127l211 991v-1l-211 -990l-157 -127h-474l-105 127
l211 991v-1l-211 -990l105 -127h363l-368 -321z" />
    <glyph glyph-name="uogonek" unicode="&#x173;" horiz-adv-x="1152" 
d="M314 -369l-123 189l200 180h-148l-162 206l186 874h283l-156 -736l48 -61h234l74 61l156 736h283l-186 -874l-250 -206h-141l-218 -180l23 -32h235l-33 -157h-305zM361 -290h192h-1h-191l-69 110l371 322h55l162 142l139 656v-1l-139 -655l-162 -142h-368l-112 142
l139 656v-1l-139 -655l112 -142h313l-371 -322z" />
    <glyph glyph-name="Wcircumflex" unicode="&#x174;" horiz-adv-x="1738" 
d="M274 1400h283l-237 -1116h44l377 996h502l-44 -996h43l237 1116h283l-298 -1400h-551l47 993h-48l-375 -993h-561zM384 1258l-238 -1117h299l383 982h260l-25 -982h288l238 1117h1l-238 -1117h-289l25 982h-260l-383 -982h-300l238 1117h1zM948 1716h252l164 -284h-277
l-50 108l-96 -108h-277zM999 1638l-110 -116v0l110 116h114l60 -116v0l-60 116h-114z" />
    <glyph glyph-name="wcircumflex" unicode="&#x175;" horiz-adv-x="1613" 
d="M225 1080h283l-157 -736l48 -61h150l74 61l144 676h283l-144 -676l48 -61h150l74 61l157 736h283l-186 -874l-250 -206h-387l-81 102l-126 -102h-387l-162 206zM334 938l-141 -660l108 -138h277l175 144l113 -144h277l166 138l141 660h1l-141 -660l-167 -138h-277
l-114 144l126 594h1l-126 -594l-175 -144h-277l-109 138l141 660h1zM858 1396h252l164 -284h-277l-50 108l-96 -108h-277zM909 1318l-110 -116v0l110 116h114l60 -116v0l-60 116h-114z" />
    <glyph glyph-name="Ycircumflex" unicode="&#x176;" horiz-adv-x="1294" 
d="M356 0l94 443l-318 382l122 575h283l-101 -473l214 -253h-19l323 253l101 473h283l-122 -575l-483 -382l-94 -443h-283zM528 142h-1l75 353l482 374l83 390h1l-83 -390l-483 -374v0l-322 374l83 390h1l-83 -390l322 -374zM732 1716h252l164 -284h-277l-50 108l-96 -108
h-277zM783 1638l-110 -116v0l110 116h114l60 -116v0l-60 116h-114z" />
    <glyph glyph-name="ycircumflex" unicode="&#x177;" horiz-adv-x="1251" 
d="M202 0l-162 206l185 874h283l-156 -736l48 -61h245l121 100l148 697h282l-271 -1274l-249 -206h-715l60 282h558l98 81l12 57l-24 -20h-463zM107 -263h509l192 162l222 1041v0l-128 -598l-243 -200h-355l-110 143l140 655v0l-140 -655l110 -143h355l243 200l-94 -443
l-192 -162h-509v0zM644 1396h252l164 -284h-277l-50 108l-96 -108h-277zM695 1318l-110 -116v0l110 116h114l60 -116v0l-60 116h-114z" />
    <glyph glyph-name="Ydieresis" unicode="&#x178;" horiz-adv-x="1294" 
d="M356 0l94 443l-318 382l122 575h283l-101 -473l214 -253h-19l323 253l101 473h283l-122 -575l-483 -382l-94 -443h-283zM528 142h-1l75 353l482 374l83 390h1l-83 -390l-483 -374v0l-322 374l83 390h1l-83 -390l322 -374zM907 1452l44 210h212l-44 -210h-212zM491 1452
l44 210h212l-44 -210h-212zM616 1546h-1l4 20h1zM1034 1546h-1l4 20h1z" />
    <glyph glyph-name="Zacute" unicode="&#x179;" horiz-adv-x="1123" 
d="M145 142h621v0h-621l57 264l737 601l54 252h-611v0h611l-54 -252l-737 -601zM-44 0l96 448l738 605l14 64h-590l60 283h893l-95 -444l-730 -597l-16 -76h603l-60 -283h-913zM601 1432l300 264h287l-340 -264h-247zM805 1500h-1l147 126h1z" />
    <glyph glyph-name="zacute" unicode="&#x17a;" horiz-adv-x="1070" 
d="M196 142h554v0h-554l44 204l591 378l46 216h-533v0h533l-46 -216l-591 -378zM-5 0l85 399l593 368l7 30h-496l60 283h831l-87 -407l-584 -358l-7 -32h508l-60 -283h-850zM538 1112l300 264h287l-340 -264h-247zM742 1180h-1l147 126h1z" />
    <glyph glyph-name="Zdotaccent" unicode="&#x17b;" horiz-adv-x="1123" 
d="M145 142h621v0h-621l57 264l737 601l54 252h-611v0h611l-54 -252l-737 -601zM-44 0l96 448l738 605l14 64h-590l60 283h893l-95 -444l-730 -597l-16 -76h603l-60 -283h-913zM616 1452l44 210h212l-44 -210h-212zM740 1542h-1l6 28h1z" />
    <glyph glyph-name="zdotaccent" unicode="&#x17c;" horiz-adv-x="1070" 
d="M196 142h554v0h-554l44 204l591 378l46 216h-533v0h533l-46 -216l-591 -378zM-5 0l85 399l593 368l7 30h-496l60 283h831l-87 -407l-584 -358l-7 -32h508l-60 -283h-850zM553 1132l44 210h212l-44 -210h-212zM677 1222h-1l6 28h1z" />
    <glyph glyph-name="Zcaron" unicode="&#x17d;" horiz-adv-x="1123" 
d="M145 142h621v0h-621l57 264l737 601l54 252h-611v0h611l-54 -252l-737 -601zM-44 0l96 448l738 605l14 64h-590l60 283h893l-95 -444l-730 -597l-16 -76h603l-60 -283h-913zM597 1432l-164 284h277l50 -108l96 108h277l-284 -284h-252zM680 1510h114l110 116v0l-110 -116
h-114l-60 116v0z" />
    <glyph glyph-name="zcaron" unicode="&#x17e;" horiz-adv-x="1070" 
d="M196 142h554v0h-554l44 204l591 378l46 216h-533v0h533l-46 -216l-591 -378zM-5 0l85 399l593 368l7 30h-496l60 283h831l-87 -407l-584 -358l-7 -32h508l-60 -283h-850zM534 1112l-164 284h277l50 -108l96 108h277l-284 -284h-252zM617 1190h114l110 116v0l-110 -116
h-114l-60 116v0z" />
    <glyph glyph-name="uni018F" unicode="&#x18f;" horiz-adv-x="1273" 
d="M178 0l-162 206l101 475l250 206h540l36 169l-48 61h-671l60 283h809l162 -206l-210 -988l-250 -206h-617zM281 138l-102 126l80 376l129 106h633l-101 -472l-166 -136h-473zM281 138h473l166 136l182 852l-103 128h-621v0h621l103 -128l-81 -380h-633l-129 -106
l-80 -376zM376 283h341l74 61l58 270h-422l-51 -42l-49 -228z" />
    <glyph glyph-name="florin" unicode="&#x192;" horiz-adv-x="1088" 
d="M-217 -400l84 263h212l59 45l282 890h-167l90 282h167l67 214l272 206h333l-84 -263h-212l-59 -45l-34 -112h256l-90 -282h-256l-315 -992l-272 -206h-333zM-54 -271h142l177 134l341 1077h277v0h-277l95 296l174 134h144v0h-144l-174 -134l-95 -296h-181v0h181
l-341 -1077l-177 -134h-142v0z" />
    <glyph glyph-name="Ohorn" unicode="&#x1a0;" horiz-adv-x="1329" 
d="M370 283h204l74 61l152 712l-48 61h-204l-74 -61l-152 -712zM275 142h337l163 134l180 849l-105 134h-337l-163 -134l-180 -849zM275 142l-105 134l180 849l163 134h337l105 -134l-180 -849l-163 -134h-337zM1353 1280l-25 -121l-128 -112h-261v0h261l128 112l25 121v0z
M1255 1355h228l-42 -199l-203 -187h-174l-162 -763l-250 -206h-480l-162 206l210 988l250 206h480l162 -206l-14 -68h64l54 45z" />
    <glyph glyph-name="ohorn" unicode="&#x1a1;" horiz-adv-x="1270" 
d="M306 142h280l161 140l112 524l-103 134h-288l-161 -134l-112 -524zM306 142l-111 140l112 524l161 134h288l103 -134l-112 -524l-161 -140h-280zM394 283h152l74 61l84 392l-48 61h-152l-74 -61l-84 -392zM1257 946l-25 -121l-128 -112h-265v0h265l128 112l25 121v0z
M1159 1021h228l-42 -199l-203 -187h-177l-91 -429l-250 -206h-428l-162 206l142 668l250 206h428l162 -206l-17 -82h67l54 45z" />
    <glyph glyph-name="Uhorn" unicode="&#x1af;" horiz-adv-x="1329" 
d="M271 142h358l162 129l210 988v0l-210 -988l-162 -129h-358l-106 131l210 986v0l-210 -986zM1353 1280l-25 -121l-128 -112h-244v0h244l128 112l25 121v0zM1255 1355h228l-42 -199l-203 -187h-158l-162 -763l-250 -206h-496l-162 206l254 1194h283l-225 -1056l48 -61h220
l74 61l225 1056h283l-58 -274h48l54 45z" />
    <glyph glyph-name="uhorn" unicode="&#x1b0;" horiz-adv-x="1270" 
d="M314 142h267l171 150l138 648v0l-138 -648l-171 -150h-267l-114 151l138 647v0l-138 -647zM1257 946l-25 -121l-128 -112h-262v0h262l128 112l25 121v0zM1159 1021h228l-42 -199l-203 -187h-177l-91 -429l-250 -206h-420l-162 206l186 874h283l-157 -736l48 -61h144
l74 61l157 736h283l-61 -288h67l54 45z" />
    <glyph glyph-name="uni01C4" unicode="&#x1c4;" horiz-adv-x="2412" 
d="M-24 0l298 1400h833l162 -206l-210 -988l-250 -206h-833zM319 283h413l74 61l152 712l-48 61h-413zM152 142h610l175 144l176 829l-113 144h-610zM152 142l238 1117h610l113 -144l-176 -829l-175 -144h-610zM1434 142h621v0h-621l57 264l737 601l54 252h-611v0h611
l-54 -252l-737 -601zM1245 0l96 448l738 605l14 64h-590l60 283h893l-95 -444l-730 -597l-16 -76h603l-60 -283h-913zM1886 1432l-164 284h277l50 -108l96 108h277l-284 -284h-252zM1969 1510h114l110 116v0l-110 -116h-114l-60 116v0z" />
    <glyph glyph-name="uni01C5" unicode="&#x1c5;" horiz-adv-x="2359" 
d="M-24 0l298 1400h833l162 -206l-210 -988l-250 -206h-833zM319 283h413l74 61l152 712l-48 61h-413zM152 142h610l175 144l176 829l-113 144h-610zM152 142l238 1117h610l113 -144l-176 -829l-175 -144h-610zM1485 142h554v0h-554l44 204l591 378l46 216h-533v0h533
l-46 -216l-591 -378zM1284 0l85 399l593 368l7 30h-496l60 283h831l-87 -407l-584 -358l-7 -32h508l-60 -283h-850zM1823 1112l-164 284h277l50 -108l96 108h277l-284 -284h-252zM1906 1190h114l110 116v0l-110 -116h-114l-60 116v0z" />
    <glyph glyph-name="uni01C6" unicode="&#x1c6;" horiz-adv-x="2326" 
d="M765 0h-562l-164 206l142 668l251 206h466l16 -19l93 439h283l-275 -1294zM721 135h-417l-109 136l118 552l142 116h398l140 -176l-105 -492zM688 283l74 61l79 373l-63 81h-269l-74 -62l-83 -392l48 -61h288zM721 135l167 136l233 1095v0l-128 -603l-140 176h-398
l-142 -116l-118 -552l109 -136h417zM1452 142h554v0h-554l44 204l591 378l46 216h-533v0h533l-46 -216l-591 -378zM1251 0l85 399l593 368l7 30h-496l60 283h831l-87 -407l-584 -358l-7 -32h508l-60 -283h-850zM1790 1112l-164 284h277l50 -108l96 108h277l-284 -284h-252z
M1873 1190h114l110 116v0l-110 -116h-114l-60 116v0z" />
    <glyph glyph-name="uni01C7" unicode="&#x1c7;" horiz-adv-x="2306" 
d="M-24 0l298 1400h283l-238 -1117h608l-60 -283h-891zM148 142h613v0h-613l238 1117v0zM1264 0l-163 206l76 357h283l-47 -219l48 -61h298l74 61l165 773h-512l60 283h795l-254 -1194l-251 -206h-572zM1365 147h434l170 139l207 973h-517v0h517l-207 -973l-170 -139h-434
l-107 136l32 149v0l-32 -149z" />
    <glyph glyph-name="uni01C8" unicode="&#x1c8;" horiz-adv-x="1858" 
d="M-24 0l298 1400h283l-238 -1117h608l-60 -283h-891zM148 142h613v0h-613l238 1117v0zM874 -400l60 282h251l97 81l178 835h-331l60 282h614l-271 -1274l-250 -206h-408zM1068 -253h177l163 140l224 1053h-331v1h331l-224 -1054l-163 -141h-177v1zM1553 1236l56 264h283
l-56 -264h-283zM1720 1352h-1l11 48h1z" />
    <glyph glyph-name="uni01C9" unicode="&#x1c9;" horiz-adv-x="1680" 
d="M-69 0l60 283h270l198 934h-270l60 283h552l-258 -1217h270l-60 -283h-822zM87 142h571v0h-291l258 1217h-280v0h280l-258 -1217h-280v0zM696 -400l60 282h251l97 81l178 835h-331l60 282h614l-271 -1274l-250 -206h-408zM890 -253h177l163 140l224 1053h-331v1h331
l-224 -1054l-163 -141h-177v1zM1375 1236l56 264h283l-56 -264h-283zM1542 1352h-1l11 48h1z" />
    <glyph glyph-name="uni01CA" unicode="&#x1ca;" horiz-adv-x="2680" 
d="M147 142h-1l238 1117h294l109 -1117h292l238 1117h1l-238 -1117h-293l-109 1117h-293zM-24 0l298 1400h543l99 -1113h53l237 1113h283l-298 -1400h-543l-101 1116h-51l-237 -1116h-283zM1638 0l-163 206l76 357h283l-47 -219l48 -61h298l74 61l165 773h-512l60 283h795
l-254 -1194l-251 -206h-572zM1739 147h434l170 139l207 973h-517v0h517l-207 -973l-170 -139h-434l-107 136l32 149v0l-32 -149z" />
    <glyph glyph-name="uni01CB" unicode="&#x1cb;" horiz-adv-x="2232" 
d="M147 142h-1l238 1117h294l109 -1117h292l238 1117h1l-238 -1117h-293l-109 1117h-293zM-24 0l298 1400h543l99 -1113h53l237 1113h283l-298 -1400h-543l-101 1116h-51l-237 -1116h-283zM1248 -400l60 282h251l97 81l178 835h-331l60 282h614l-271 -1274l-250 -206h-408z
M1442 -253h177l163 140l224 1053h-331v1h331l-224 -1054l-163 -141h-177v1zM1927 1236l56 264h283l-56 -264h-283zM2094 1352h-1l11 48h1z" />
    <glyph glyph-name="uni01CC" unicode="&#x1cc;" horiz-adv-x="1947" 
d="M-5 0l186 874l250 206h548l162 -206l-186 -874h-282l157 736l-48 61h-274l-74 -61l-157 -736h-282zM168 142h-1l139 650l179 148h387l115 -146l-139 -652h-1l139 652l-114 146h-387l-178 -148zM963 -400l60 282h251l97 81l178 835h-331l60 282h614l-271 -1274l-250 -206
h-408zM1157 -253h177l163 140l224 1053h-331v1h331l-224 -1054l-163 -141h-177v1zM1642 1236l56 264h283l-56 -264h-283zM1809 1352h-1l11 48h1z" />
    <glyph glyph-name="uni01CD" unicode="&#x1cd;" horiz-adv-x="1311" 
d="M-94 0l667 1400h508l76 -1400h-325l-10 296h-456l-134 -296h-326zM123 121v0l141 299h717l15 -299v0l-60 1139h-276zM264 420l396 840h276l45 -840h-717zM477 552h344l-18 564h-77zM715 1432l-164 284h277l50 -108l96 108h277l-284 -284h-252zM798 1510h114l110 116v0
l-110 -116h-114l-60 116v0z" />
    <glyph glyph-name="uni01CE" unicode="&#x1ce;" horiz-adv-x="1253" 
d="M201 0l-162 206l61 285l249 206h544l9 39l-48 61h-675l60 283h813l162 -206l-142 -668l-250 -206h-621zM304 138l-102 126l40 186l128 106h637l-60 -282l-166 -136h-477zM304 138h477l166 136l114 532l-103 128h-625v0h625l103 -128l-54 -250h-637l-128 -106l-40 -186z
M399 283h345l74 61l17 80h-426l-51 -42l-8 -38zM629 1112l-164 284h277l50 -108l96 108h277l-284 -284h-252zM712 1190h114l110 116v0l-110 -116h-114l-60 116v0z" />
    <glyph glyph-name="uni01CF" unicode="&#x1cf;" horiz-adv-x="1059" 
d="M-34 0l60 283h274l178 834h-274l60 283h829l-60 -283h-273l-178 -834h273l-60 -283h-829zM122 142h578v0h-289l238 1117h289v0h-578v0h289l-238 -1117h-289v0zM565 1432l-164 284h277l50 -108l96 108h277l-284 -284h-252zM648 1510h114l110 116v0l-110 -116h-114l-60 116
v0z" />
    <glyph glyph-name="uni01D0" unicode="&#x1d0;" horiz-adv-x="990" 
d="M-1 0l60 283h240l110 514h-240l60 283h522l-170 -797h240l-60 -283h-762zM155 142h511v0h-261l170 797h-250v0h250l-170 -797h-250v0zM496 1112l-164 284h277l50 -108l96 108h277l-284 -284h-252zM579 1190h114l110 116v0l-110 -116h-114l-60 116v0z" />
    <glyph glyph-name="uni01D1" unicode="&#x1d1;" horiz-adv-x="1306" 
d="M172 0l-162 206l210 988l250 206h664l162 -206l-210 -988l-250 -206h-664zM370 283h388l74 61l152 712l-48 61h-388l-74 -61l-152 -712zM275 142h521l163 134l180 849l-105 134h-521l-163 -134l-180 -849zM275 142l-105 134l180 849l163 134h521l105 -134l-180 -849
l-163 -134h-521zM688 1432l-164 284h277l50 -108l96 108h277l-284 -284h-252zM771 1510h114l110 116v0l-110 -116h-114l-60 116v0z" />
    <glyph glyph-name="uni01D2" unicode="&#x1d2;" horiz-adv-x="1257" 
d="M201 0l-162 206l142 668l250 206h625l162 -206l-142 -668l-250 -206h-625zM311 142h477l161 140l112 524l-103 134h-485l-161 -134l-112 -524zM311 142l-111 140l112 524l161 134h485l103 -134l-112 -524l-161 -140h-477zM399 283h349l74 61l84 392l-48 61h-349l-74 -61
l-84 -392zM630 1112l-164 284h277l50 -108l96 108h277l-284 -284h-252zM713 1190h114l110 116v0l-110 -116h-114l-60 116v0z" />
    <glyph glyph-name="uni01D3" unicode="&#x1d3;" horiz-adv-x="1328" 
d="M172 0l-162 206l254 1194h283l-225 -1056l48 -61h410l74 61l225 1056h283l-254 -1194l-250 -206h-686zM271 142h548l162 129l210 988v0l-210 -988l-162 -129h-548l-106 131l210 986v0l-210 -986zM700 1432l-164 284h277l50 -108l96 108h277l-284 -284h-252zM783 1510h114
l110 116v0l-110 -116h-114l-60 116v0z" />
    <glyph glyph-name="uni01D4" unicode="&#x1d4;" horiz-adv-x="1202" 
d="M201 0l-162 206l186 874h283l-157 -736l48 -61h294l74 61l157 736h283l-186 -874l-250 -206h-570zM311 142h417l171 150l138 648v0l-138 -648l-171 -150h-417l-114 151l138 647v0l-138 -647zM604 1112l-164 284h277l50 -108l96 108h277l-284 -284h-252zM687 1190h114
l110 116v0l-110 -116h-114l-60 116v0z" />
    <glyph glyph-name="uni01D5" unicode="&#x1d5;" horiz-adv-x="1328" 
d="M172 0l-162 206l254 1194h283l-225 -1056l48 -61h410l74 61l225 1056h283l-254 -1194l-250 -206h-686zM271 142h548l162 129l210 988v0l-210 -988l-162 -129h-548l-106 131l210 986v0l-210 -986zM925 1452l44 210h212l-44 -210h-212zM509 1452l44 210h212l-44 -210h-212z
M634 1546h-1l4 20h1zM1052 1546h-1l4 20h1zM557 1693l54 256h632l-54 -256h-632zM714 1819h384v0h-384v0z" />
    <glyph glyph-name="uni01D6" unicode="&#x1d6;" horiz-adv-x="1202" 
d="M201 0l-162 206l186 874h283l-157 -736l48 -61h294l74 61l157 736h283l-186 -874l-250 -206h-570zM311 142h417l171 150l138 648v0l-138 -648l-171 -150h-417l-114 151l138 647v0l-138 -647zM829 1132l44 210h212l-44 -210h-212zM413 1132l44 210h212l-44 -210h-212z
M538 1226h-1l4 20h1zM956 1226h-1l4 20h1zM461 1373l54 256h632l-54 -256h-632zM618 1499h384v0h-384v0z" />
    <glyph glyph-name="uni01D7" unicode="&#x1d7;" horiz-adv-x="1328" 
d="M172 0l-162 206l254 1194h283l-225 -1056l48 -61h410l74 61l225 1056h283l-254 -1194l-250 -206h-686zM271 142h548l162 129l210 988v0l-210 -988l-162 -129h-548l-106 131l210 986v0l-210 -986zM925 1452l44 210h212l-44 -210h-212zM509 1452l44 210h212l-44 -210h-212z
M634 1546h-1l4 20h1zM1052 1546h-1l4 20h1zM760 1694l300 264h287l-340 -264h-247zM964 1762h-1l147 126h1z" />
    <glyph glyph-name="uni01D8" unicode="&#x1d8;" horiz-adv-x="1202" 
d="M201 0l-162 206l186 874h283l-157 -736l48 -61h294l74 61l157 736h283l-186 -874l-250 -206h-570zM311 142h417l171 150l138 648v0l-138 -648l-171 -150h-417l-114 151l138 647v0l-138 -647zM829 1132l44 210h212l-44 -210h-212zM413 1132l44 210h212l-44 -210h-212z
M538 1226h-1l4 20h1zM956 1226h-1l4 20h1zM664 1374l300 264h287l-340 -264h-247zM868 1442h-1l147 126h1z" />
    <glyph glyph-name="uni01D9" unicode="&#x1d9;" horiz-adv-x="1328" 
d="M172 0l-162 206l254 1194h283l-225 -1056l48 -61h410l74 61l225 1056h283l-254 -1194l-250 -206h-686zM271 142h548l162 129l210 988v0l-210 -988l-162 -129h-548l-106 131l210 986v0l-210 -986zM925 1452l44 210h212l-44 -210h-212zM509 1452l44 210h212l-44 -210h-212z
M634 1546h-1l4 20h1zM1052 1546h-1l4 20h1zM756 1694l-164 284h277l50 -108l96 108h277l-284 -284h-252zM839 1772h114l110 116v0l-110 -116h-114l-60 116v0z" />
    <glyph glyph-name="uni01DA" unicode="&#x1da;" horiz-adv-x="1202" 
d="M201 0l-162 206l186 874h283l-157 -736l48 -61h294l74 61l157 736h283l-186 -874l-250 -206h-570zM311 142h417l171 150l138 648v0l-138 -648l-171 -150h-417l-114 151l138 647v0l-138 -647zM829 1132l44 210h212l-44 -210h-212zM413 1132l44 210h212l-44 -210h-212z
M538 1226h-1l4 20h1zM956 1226h-1l4 20h1zM660 1374l-164 284h277l50 -108l96 108h277l-284 -284h-252zM743 1452h114l110 116v0l-110 -116h-114l-60 116v0z" />
    <glyph glyph-name="uni01DB" unicode="&#x1db;" horiz-adv-x="1328" 
d="M172 0l-162 206l254 1194h283l-225 -1056l48 -61h410l74 61l225 1056h283l-254 -1194l-250 -206h-686zM271 142h548l162 129l210 988v0l-210 -988l-162 -129h-548l-106 131l210 986v0l-210 -986zM925 1452l44 210h212l-44 -210h-212zM509 1452l44 210h212l-44 -210h-212z
M634 1546h-1l4 20h1zM1052 1546h-1l4 20h1zM999 1694h-247l-228 264h287zM823 1762l-93 126h1l93 -126h-1z" />
    <glyph glyph-name="uni01DC" unicode="&#x1dc;" horiz-adv-x="1202" 
d="M201 0l-162 206l186 874h283l-157 -736l48 -61h294l74 61l157 736h283l-186 -874l-250 -206h-570zM311 142h417l171 150l138 648v0l-138 -648l-171 -150h-417l-114 151l138 647v0l-138 -647zM829 1132l44 210h212l-44 -210h-212zM413 1132l44 210h212l-44 -210h-212z
M538 1226h-1l4 20h1zM956 1226h-1l4 20h1zM903 1374h-247l-228 264h287zM727 1442l-93 126h1l93 -126h-1z" />
    <glyph glyph-name="Gcaron" unicode="&#x1e6;" horiz-adv-x="1278" 
d="M172 0l-162 206l210 988l250 206h636l162 -206l-54 -252h-282l25 114l-48 61h-363l-74 -63l-151 -711l47 -60h363l74 61l30 138h-277l60 282h559l-119 -558l-250 -206h-636zM278 142h485l170 140l72 338h-269v0h269l-72 -338l-170 -140h-485l-110 140l179 843l163 134
h501l101 -134l-11 -53v0l11 53l-101 134h-501l-163 -134l-179 -843zM674 1432l-164 284h277l50 -108l96 108h277l-284 -284h-252zM757 1510h114l110 116v0l-110 -116h-114l-60 116v0z" />
    <glyph glyph-name="gcaron" unicode="&#x1e7;" horiz-adv-x="1255" 
d="M-40 -400l60 282h562l98 81l12 57l-24 -20h-467l-162 206l142 668l249 206h563l163 -206l-228 -1068l-249 -206h-719zM115 -260h509l190 166l189 892l-107 142h-427l-165 -136l-108 -508l120 -154h346l243 192l-91 -428l-190 -166h-509v0zM316 142l-120 154l108 508
l165 136h427l107 -142l-98 -464l-243 -192h-346zM399 283h249l121 100l75 354l-49 61h-287l-74 -61l-83 -393zM593 1112l-164 284h277l50 -108l96 108h277l-284 -284h-252zM676 1190h114l110 116v0l-110 -116h-114l-60 116v0z" />
    <glyph glyph-name="uni01EA" unicode="&#x1ea;" horiz-adv-x="1232" 
d="M410 283h314l74 61l151 712l-48 61h-314l-74 -61l-151 -712zM315 142h447l162 134l181 849l-106 134h-447l-162 -134l-181 -849zM315 142l-106 134l181 849l162 134h447l106 -134l-181 -849l-162 -134h-447zM693 142l-369 -322l71 -110h208v0h-208l-71 110l369 322v0z
M1099 1400l162 -206l-210 -988l-250 -206h-156l-218 -180l23 -32h235l-33 -157h-305l-123 189l197 180h-210l-162 206l210 988l250 206h590z" />
    <glyph glyph-name="uni01EB" unicode="&#x1eb;" horiz-adv-x="1140" 
d="M346 142h370l160 140l112 524l-103 134h-378l-161 -134l-112 -524zM346 142l-112 140l112 524l161 134h378l103 -134l-112 -524l-160 -140h-370zM434 283h242l74 61l83 392l-48 61h-242l-74 -61l-83 -392zM630 142l-369 -322l71 -110h208v0h-208l-71 110l369 322v0z
M983 1080l162 -206l-142 -668l-250 -206h-171l-218 -180l23 -32h235l-33 -157h-305l-123 189l197 180h-123l-162 206l142 668l250 206h518z" />
    <glyph glyph-name="Aringacute" unicode="&#x1fa;" horiz-adv-x="1288" 
d="M-34 0l254 1194l250 206h646l162 -206l-254 -1194h-282l88 412h-494l-88 -412h-282zM137 142h-1l87 407h782l-87 -407h-1l211 993l-98 124h-530l-152 -124zM396 694h494l77 362l-48 61h-372l-74 -61zM223 548l124 587l153 125h530l99 -125l-124 -587h-782zM710 1430
l-78 97l37 174l119 98h183l77 -98l-37 -174l-118 -97h-183zM766 1515h108l63 51l21 100l-41 52h-108l-63 -52l-21 -100zM766 1515l-41 51l21 100l63 52h108l41 -52l-21 -100l-63 -51h-108zM828 1597h17l11 10l4 15l-7 9h-17l-11 -9l-4 -15zM770 1831l300 264h287l-340 -264
h-247zM974 1899h-1l147 126h1z" />
    <glyph glyph-name="aringacute" unicode="&#x1fb;" horiz-adv-x="1253" 
d="M201 0l-162 206l61 285l249 206h544l9 39l-48 61h-675l60 283h813l162 -206l-142 -668l-250 -206h-621zM304 138l-102 126l40 186l128 106h637l-60 -282l-166 -136h-477zM304 138h477l166 136l114 532l-103 128h-625v0h625l103 -128l-54 -250h-637l-128 -106l-40 -186z
M399 283h345l74 61l17 80h-426l-51 -42l-8 -38zM659 1110l-78 97l37 174l119 98h183l77 -98l-37 -174l-118 -97h-183zM715 1195h108l63 51l21 100l-41 52h-108l-63 -52l-21 -100zM715 1195l-41 51l21 100l63 52h108l41 -52l-21 -100l-63 -51h-108zM777 1277h17l11 10l4 15
l-7 9h-17l-11 -9l-4 -15zM719 1511l300 264h287l-340 -264h-247zM923 1579h-1l147 126h1z" />
    <glyph glyph-name="AEacute" unicode="&#x1fc;" horiz-adv-x="1934" 
d="M-119 0l893 1400h1147l-60 -283h-550l-58 -269h512l-60 -283h-512l-60 -282h550l-60 -283h-833l88 412h-429l-261 -412h-307zM79 112h-1l283 435h699l-89 -420h582v-1h-583l125 588h543v-1h-543l119 562h583v-1h-958zM362 546l478 729h375l-155 -729h-698zM625 694h313
l90 423h-133zM1006 1432l300 264h287l-340 -264h-247zM1210 1500h-1l147 126h1z" />
    <glyph glyph-name="aeacute" unicode="&#x1fd;" horiz-adv-x="1790" 
d="M224 0l-162 206l60 280l249 206h342l80 65l-4 -21l-49 61h-207l-157 -128l-187 192l265 219h485l53 -67l81 67h485l162 -206l-62 -292l-247 -194h-342l-80 -65l4 21l49 -61h207l157 128l187 -192l-265 -219h-485l-53 67l-81 -67h-485zM310 140h354l173 143l108 -143h361
l109 90v0l-109 -90h-361l-108 143l10 43l232 196h320l147 119l36 166l-104 131h-360l-172 -143l-108 144h-370l-92 -76v0l92 76h370l108 -144l-10 -48l-244 -193h-313l-144 -116l-33 -158zM310 140l-108 140l33 158l144 116h313l244 193l-99 -464l-173 -143h-354zM847 326
l99 469l172 143h360l104 -131l-36 -166l-147 -119h-320zM423 283h207l75 61l21 96l-23 -19h-270l-51 -42l-8 -35zM1056 640l23 19h270l51 42l8 35l-49 61h-207l-75 -61zM900 1112l300 264h287l-340 -264h-247zM1104 1180h-1l147 126h1z" />
    <glyph glyph-name="Oslashacute" unicode="&#x1fe;" horiz-adv-x="1390" 
d="M143 -53l-167 139l95 102l-16 18l210 988l250 206h644l13 -16l74 81l168 -137l-107 -117l14 -17l-210 -988l-250 -206h-644l-11 15zM452 283h331l74 61l105 493zM306 130l-68 80l907 987l40 -53l-187 -880l-168 -134h-524zM120 82l118 128l68 -80h524l168 134l187 880
l-40 53l111 123v0l-111 -123l-71 85h-524l-169 -138l-187 -880l44 -54l-118 -128v0zM238 210l-44 54l187 880l169 138h524l71 -85zM413 560l513 558h-332l-76 -62zM718 1432l300 264h287l-340 -264h-247zM922 1500h-1l147 126h1z" />
    <glyph glyph-name="oslashacute" unicode="&#x1ff;" horiz-adv-x="1158" 
d="M174 -53l-167 139l75 80l-31 40l142 668l249 206h485h5l52 57l167 -137l-87 -94l25 -32l-142 -668l-249 -206h-475l-5 -5zM483 283h136l75 61l44 207zM152 82l109 119l48 -61h351l151 121l121 566l-46 51l110 121v0l-110 -121l-46 62h-355l-155 -124l-118 -554l49 -61
l-109 -119v0zM309 140l-48 61l625 677l46 -51l-121 -566l-151 -121h-351zM261 201l-49 61l118 554l155 124h355l46 -62zM398 510l274 288h-151l-75 -62zM583 1112l300 264h287l-340 -264h-247zM787 1180h-1l147 126h1z" />
    <glyph glyph-name="uni0200" unicode="&#x200;" horiz-adv-x="1288" 
d="M-34 0l254 1194l250 206h646l162 -206l-254 -1194h-282l88 412h-494l-88 -412h-282zM137 142h-1l87 407h782l-87 -407h-1l211 993l-98 124h-530l-152 -124zM396 694h494l77 362l-48 61h-372l-74 -61zM223 548l124 587l153 125h530l99 -125l-124 -587h-782zM1126 1432
h-247l-228 264h287zM950 1500l-93 126h1l93 -126h-1zM734 1432h-247l-228 264h287zM558 1500l-93 126h1l93 -126h-1z" />
    <glyph glyph-name="uni0201" unicode="&#x201;" horiz-adv-x="1253" 
d="M201 0l-162 206l61 285l249 206h544l9 39l-48 61h-675l60 283h813l162 -206l-142 -668l-250 -206h-621zM304 138l-102 126l40 186l128 106h637l-60 -282l-166 -136h-477zM304 138h477l166 136l114 532l-103 128h-625v0h625l103 -128l-54 -250h-637l-128 -106l-40 -186z
M399 283h345l74 61l17 80h-426l-51 -42l-8 -38zM1075 1112h-247l-228 264h287zM899 1180l-93 126h1l93 -126h-1zM683 1112h-247l-228 264h287zM507 1180l-93 126h1l93 -126h-1z" />
    <glyph glyph-name="uni0202" unicode="&#x202;" horiz-adv-x="1288" 
d="M-34 0l254 1194l250 206h646l162 -206l-254 -1194h-282l88 412h-494l-88 -412h-282zM137 142h-1l87 407h782l-87 -407h-1l211 993l-98 124h-530l-152 -124zM396 694h494l77 362l-48 61h-372l-74 -61zM223 548l124 587l153 125h530l99 -125l-124 -587h-782zM978 1699
l89 -112l-33 -156h-192l16 76h-78l-16 -76h-192l33 156l135 112h238zM908 1611h-136l-82 -72l-5 -26v0l5 26l82 72h136l50 -72l-5 -26v0l5 26z" />
    <glyph glyph-name="uni0203" unicode="&#x203;" horiz-adv-x="1253" 
d="M201 0l-162 206l61 285l249 206h544l9 39l-48 61h-675l60 283h813l162 -206l-142 -668l-250 -206h-621zM304 138l-102 126l40 186l128 106h637l-60 -282l-166 -136h-477zM304 138h477l166 136l114 532l-103 128h-625v0h625l103 -128l-54 -250h-637l-128 -106l-40 -186z
M399 283h345l74 61l17 80h-426l-51 -42l-8 -38zM927 1379l89 -112l-33 -156h-192l16 76h-78l-16 -76h-192l33 156l135 112h238zM857 1291h-136l-82 -72l-5 -26v0l5 26l82 72h136l50 -72l-5 -26v0l5 26z" />
    <glyph glyph-name="uni0204" unicode="&#x204;" horiz-adv-x="1140" 
d="M-34 0l298 1400h910l-60 -283h-627l-58 -269h558l-60 -283h-558l-60 -282h627l-60 -283h-910zM141 142h635v0h-635l120 565h565v0h-565l118 552h635v0h-635zM1043 1432h-247l-228 264h287zM867 1500l-93 126h1l93 -126h-1zM651 1432h-247l-228 264h287zM475 1500l-93 126
h1l93 -126h-1z" />
    <glyph glyph-name="uni0205" unicode="&#x205;" horiz-adv-x="1253" 
d="M1052 1080l162 -206l-61 -285l-249 -206h-544l-9 -39l48 -61h675l-60 -283h-813l-162 206l142 668l250 206h621zM949 942l102 -126l-40 -186l-128 -106h-637l60 282l166 136h477zM949 942h-477l-166 -136l-114 -532l103 -128h625v0h-625l-103 128l54 250h637l128 106
l40 186zM854 797h-345l-74 -61l-17 -80h426l51 42l8 38zM1079 1112h-247l-228 264h287zM903 1180l-93 126h1l93 -126h-1zM687 1112h-247l-228 264h287zM511 1180l-93 126h1l93 -126h-1z" />
    <glyph glyph-name="uni0206" unicode="&#x206;" horiz-adv-x="1140" 
d="M-34 0l298 1400h910l-60 -283h-627l-58 -269h558l-60 -283h-558l-60 -282h627l-60 -283h-910zM141 142h635v0h-635l120 565h565v0h-565l118 552h635v0h-635zM895 1699l89 -112l-33 -156h-192l16 76h-78l-16 -76h-192l33 156l135 112h238zM825 1611h-136l-82 -72l-5 -26v0
l5 26l82 72h136l50 -72l-5 -26v0l5 26z" />
    <glyph glyph-name="uni0207" unicode="&#x207;" horiz-adv-x="1253" 
d="M1052 1080l162 -206l-61 -285l-249 -206h-544l-9 -39l48 -61h675l-60 -283h-813l-162 206l142 668l250 206h621zM949 942l102 -126l-40 -186l-128 -106h-637l60 282l166 136h477zM949 942h-477l-166 -136l-114 -532l103 -128h625v0h-625l-103 128l54 250h637l128 106
l40 186zM854 797h-345l-74 -61l-17 -80h426l51 42l8 38zM931 1379l89 -112l-33 -156h-192l16 76h-78l-16 -76h-192l33 156l135 112h238zM861 1291h-136l-82 -72l-5 -26v0l5 26l82 72h136l50 -72l-5 -26v0l5 26z" />
    <glyph glyph-name="uni0208" unicode="&#x208;" horiz-adv-x="1059" 
d="M-34 0l60 283h274l178 834h-274l60 283h829l-60 -283h-273l-178 -834h273l-60 -283h-829zM122 142h578v0h-289l238 1117h289v0h-578v0h289l-238 -1117h-289v0zM1011 1432h-247l-228 264h287zM835 1500l-93 126h1l93 -126h-1zM619 1432h-247l-228 264h287zM443 1500
l-93 126h1l93 -126h-1z" />
    <glyph glyph-name="uni0209" unicode="&#x209;" horiz-adv-x="990" 
d="M-1 0l60 283h240l110 514h-240l60 283h522l-170 -797h240l-60 -283h-762zM155 142h511v0h-261l170 797h-250v0h250l-170 -797h-250v0zM942 1112h-247l-228 264h287zM766 1180l-93 126h1l93 -126h-1zM550 1112h-247l-228 264h287zM374 1180l-93 126h1l93 -126h-1z" />
    <glyph glyph-name="uni020A" unicode="&#x20a;" horiz-adv-x="1059" 
d="M-34 0l60 283h274l178 834h-274l60 283h829l-60 -283h-273l-178 -834h273l-60 -283h-829zM122 142h578v0h-289l238 1117h289v0h-578v0h289l-238 -1117h-289v0zM863 1699l89 -112l-33 -156h-192l16 76h-78l-16 -76h-192l33 156l135 112h238zM793 1611h-136l-82 -72l-5 -26
v0l5 26l82 72h136l50 -72l-5 -26v0l5 26z" />
    <glyph glyph-name="uni020B" unicode="&#x20b;" horiz-adv-x="990" 
d="M-1 0l60 283h240l110 514h-240l60 283h522l-170 -797h240l-60 -283h-762zM155 142h511v0h-261l170 797h-250v0h250l-170 -797h-250v0zM794 1379l89 -112l-33 -156h-192l16 76h-78l-16 -76h-192l33 156l135 112h238zM724 1291h-136l-82 -72l-5 -26v0l5 26l82 72h136
l50 -72l-5 -26v0l5 26z" />
    <glyph glyph-name="uni020C" unicode="&#x20c;" horiz-adv-x="1306" 
d="M172 0l-162 206l210 988l250 206h664l162 -206l-210 -988l-250 -206h-664zM370 283h388l74 61l152 712l-48 61h-388l-74 -61l-152 -712zM275 142h521l163 134l180 849l-105 134h-521l-163 -134l-180 -849zM275 142l-105 134l180 849l163 134h521l105 -134l-180 -849
l-163 -134h-521zM1134 1432h-247l-228 264h287zM958 1500l-93 126h1l93 -126h-1zM742 1432h-247l-228 264h287zM566 1500l-93 126h1l93 -126h-1z" />
    <glyph glyph-name="uni020D" unicode="&#x20d;" horiz-adv-x="1257" 
d="M201 0l-162 206l142 668l250 206h625l162 -206l-142 -668l-250 -206h-625zM311 142h477l161 140l112 524l-103 134h-485l-161 -134l-112 -524zM311 142l-111 140l112 524l161 134h485l103 -134l-112 -524l-161 -140h-477zM399 283h349l74 61l84 392l-48 61h-349l-74 -61
l-84 -392zM1076 1112h-247l-228 264h287zM900 1180l-93 126h1l93 -126h-1zM684 1112h-247l-228 264h287zM508 1180l-93 126h1l93 -126h-1z" />
    <glyph glyph-name="uni020E" unicode="&#x20e;" horiz-adv-x="1306" 
d="M172 0l-162 206l210 988l250 206h664l162 -206l-210 -988l-250 -206h-664zM370 283h388l74 61l152 712l-48 61h-388l-74 -61l-152 -712zM275 142h521l163 134l180 849l-105 134h-521l-163 -134l-180 -849zM275 142l-105 134l180 849l163 134h521l105 -134l-180 -849
l-163 -134h-521zM986 1699l89 -112l-33 -156h-192l16 76h-78l-16 -76h-192l33 156l135 112h238zM916 1611h-136l-82 -72l-5 -26v0l5 26l82 72h136l50 -72l-5 -26v0l5 26z" />
    <glyph glyph-name="uni020F" unicode="&#x20f;" horiz-adv-x="1257" 
d="M201 0l-162 206l142 668l250 206h625l162 -206l-142 -668l-250 -206h-625zM311 142h477l161 140l112 524l-103 134h-485l-161 -134l-112 -524zM311 142l-111 140l112 524l161 134h485l103 -134l-112 -524l-161 -140h-477zM399 283h349l74 61l84 392l-48 61h-349l-74 -61
l-84 -392zM928 1379l89 -112l-33 -156h-192l16 76h-78l-16 -76h-192l33 156l135 112h238zM858 1291h-136l-82 -72l-5 -26v0l5 26l82 72h136l50 -72l-5 -26v0l5 26z" />
    <glyph glyph-name="uni0210" unicode="&#x210;" horiz-adv-x="1309" 
d="M-24 0l298 1400h863l162 -206l-92 -434l-146 -112l94 -133l-110 -515h-283l88 415l-78 100h-403l-110 -515h-283zM149 142h-1l111 521h613l133 -197l-69 -324h-1l69 324l-132 197l199 152l68 316l-102 128h-650zM429 798h442l74 62l42 196l-48 61h-442zM259 662l127 598
h651l103 -129l-68 -316l-201 -153h-612zM1138 1432h-247l-228 264h287zM962 1500l-93 126h1l93 -126h-1zM746 1432h-247l-228 264h287zM570 1500l-93 126h1l93 -126h-1z" />
    <glyph glyph-name="uni0211" unicode="&#x211;" horiz-adv-x="1148" 
d="M-5 -1l61 283h194l107 501l-12 15h-177l60 282h253l51 -80l94 80h388l172 -219l-263 -212l-106 148h-113l-74 -61l-97 -455h194l-60 -282h-672zM154 142h415v0h-209l144 674l151 124h269l69 -100v0l-69 100h-269l-151 -124l-90 124h-90v0h90l91 -124l-144 -674h-207v0z
M993 1112h-247l-228 264h287zM817 1180l-93 126h1l93 -126h-1zM601 1112h-247l-228 264h287zM425 1180l-93 126h1l93 -126h-1z" />
    <glyph glyph-name="uni0212" unicode="&#x212;" horiz-adv-x="1309" 
d="M-24 0l298 1400h863l162 -206l-92 -434l-146 -112l94 -133l-110 -515h-283l88 415l-78 100h-403l-110 -515h-283zM149 142h-1l111 521h613l133 -197l-69 -324h-1l69 324l-132 197l199 152l68 316l-102 128h-650zM429 798h442l74 62l42 196l-48 61h-442zM259 662l127 598
h651l103 -129l-68 -316l-201 -153h-612zM990 1699l89 -112l-33 -156h-192l16 76h-78l-16 -76h-192l33 156l135 112h238zM920 1611h-136l-82 -72l-5 -26v0l5 26l82 72h136l50 -72l-5 -26v0l5 26z" />
    <glyph glyph-name="uni0213" unicode="&#x213;" horiz-adv-x="1148" 
d="M-5 -1l61 283h194l107 501l-12 15h-177l60 282h253l51 -80l94 80h388l172 -219l-263 -212l-106 148h-113l-74 -61l-97 -455h194l-60 -282h-672zM154 142h415v0h-209l144 674l151 124h269l69 -100v0l-69 100h-269l-151 -124l-90 124h-90v0h90l91 -124l-144 -674h-207v0z
M845 1379l89 -112l-33 -156h-192l16 76h-78l-16 -76h-192l33 156l135 112h238zM775 1291h-136l-82 -72l-5 -26v0l5 26l82 72h136l50 -72l-5 -26v0l5 26z" />
    <glyph glyph-name="uni0214" unicode="&#x214;" horiz-adv-x="1328" 
d="M172 0l-162 206l254 1194h283l-225 -1056l48 -61h410l74 61l225 1056h283l-254 -1194l-250 -206h-686zM271 142h548l162 129l210 988v0l-210 -988l-162 -129h-548l-106 131l210 986v0l-210 -986zM1146 1432h-247l-228 264h287zM970 1500l-93 126h1l93 -126h-1zM754 1432
h-247l-228 264h287zM578 1500l-93 126h1l93 -126h-1z" />
    <glyph glyph-name="uni0215" unicode="&#x215;" horiz-adv-x="1202" 
d="M201 0l-162 206l186 874h283l-157 -736l48 -61h294l74 61l157 736h283l-186 -874l-250 -206h-570zM311 142h417l171 150l138 648v0l-138 -648l-171 -150h-417l-114 151l138 647v0l-138 -647zM1050 1112h-247l-228 264h287zM874 1180l-93 126h1l93 -126h-1zM658 1112h-247
l-228 264h287zM482 1180l-93 126h1l93 -126h-1z" />
    <glyph glyph-name="uni0216" unicode="&#x216;" horiz-adv-x="1328" 
d="M172 0l-162 206l254 1194h283l-225 -1056l48 -61h410l74 61l225 1056h283l-254 -1194l-250 -206h-686zM271 142h548l162 129l210 988v0l-210 -988l-162 -129h-548l-106 131l210 986v0l-210 -986zM998 1699l89 -112l-33 -156h-192l16 76h-78l-16 -76h-192l33 156l135 112
h238zM928 1611h-136l-82 -72l-5 -26v0l5 26l82 72h136l50 -72l-5 -26v0l5 26z" />
    <glyph glyph-name="uni0217" unicode="&#x217;" horiz-adv-x="1202" 
d="M201 0l-162 206l186 874h283l-157 -736l48 -61h294l74 61l157 736h283l-186 -874l-250 -206h-570zM311 142h417l171 150l138 648v0l-138 -648l-171 -150h-417l-114 151l138 647v0l-138 -647zM902 1379l89 -112l-33 -156h-192l16 76h-78l-16 -76h-192l33 156l135 112h238z
M832 1291h-136l-82 -72l-5 -26v0l5 26l82 72h136l50 -72l-5 -26v0l5 26z" />
    <glyph glyph-name="uni0218" unicode="&#x218;" horiz-adv-x="1302" 
d="M172 0l-162 206l54 252h283l-25 -114l48 -61h384l74 61l33 154l-48 61h-516l-162 206l91 429l250 206h635l162 -206l-54 -252h-283l25 114l-48 61h-359l-75 -61l-33 -153l49 -61h516l162 -206l-91 -430l-250 -206h-660zM268 142h509l174 138l63 300l-88 119h-521
l-110 146l60 283l165 131h498l98 -131l-12 -56v0l12 56l-98 131h-498l-165 -131l-60 -283l110 -146h521l88 -119l-63 -300l-174 -138h-509l-99 118l15 68v0l-15 -68zM145 -530l212 458h271l-257 -458h-226zM311 -424h-1l115 220h1z" />
    <glyph glyph-name="uni0219" unicode="&#x219;" horiz-adv-x="1203" 
d="M5 0l60 283h630l74 61l-1 -5l-46 60h-436l-162 206l57 269l250 206h757l-60 -283h-620l-74 -61l1 6l48 -61h434l162 -206l-57 -269l-250 -206h-767zM190 145h554l150 124l34 157l-99 119h-462l-89 114l34 157l149 123h543v0h-543l-149 -123l-34 -157l89 -114h462l99 -119
l-34 -157l-150 -124h-554v0zM139 -530l212 458h271l-257 -458h-226zM305 -424h-1l115 220h1z" />
    <glyph glyph-name="uni021A" unicode="&#x21a;" horiz-adv-x="1126" 
d="M273 0l238 1117h-347l60 283h976l-60 -283h-347l-238 -1117h-282zM445 142h-1l238 1117h357v0h-714v0h358zM57 -530l212 458h271l-257 -458h-226zM223 -424h-1l115 220h1z" />
    <glyph glyph-name="uni021B" unicode="&#x21b;" horiz-adv-x="935" 
d="M179 0l170 798h-249l60 282h249l58 274h283l-58 -274h248l-60 -282h-248l-110 -515h241l-60 -283h-524zM351 143h258v-1h-258l170 800h263v-1h-263l61 288v0l-61 -287h-264l1 1h264zM-2 -533l212 458h271l-257 -458h-226zM164 -427h-1l115 220h1z" />
    <glyph glyph-name="uni022A" unicode="&#x22a;" horiz-adv-x="1306" 
d="M172 0l-162 206l210 988l250 206h664l162 -206l-210 -988l-250 -206h-664zM370 283h388l74 61l152 712l-48 61h-388l-74 -61l-152 -712zM275 142h521l163 134l180 849l-105 134h-521l-163 -134l-180 -849zM275 142l-105 134l180 849l163 134h521l105 -134l-180 -849
l-163 -134h-521zM913 1452l44 210h212l-44 -210h-212zM497 1452l44 210h212l-44 -210h-212zM622 1546h-1l4 20h1zM1040 1546h-1l4 20h1zM545 1693l54 256h632l-54 -256h-632zM702 1819h384v0h-384v0z" />
    <glyph glyph-name="uni022B" unicode="&#x22b;" horiz-adv-x="1257" 
d="M201 0l-162 206l142 668l250 206h625l162 -206l-142 -668l-250 -206h-625zM311 142h477l161 140l112 524l-103 134h-485l-161 -134l-112 -524zM311 142l-111 140l112 524l161 134h485l103 -134l-112 -524l-161 -140h-477zM399 283h349l74 61l84 392l-48 61h-349l-74 -61
l-84 -392zM855 1132l44 210h212l-44 -210h-212zM439 1132l44 210h212l-44 -210h-212zM564 1226h-1l4 20h1zM982 1226h-1l4 20h1zM487 1373l54 256h632l-54 -256h-632zM644 1499h384v0h-384v0z" />
    <glyph glyph-name="uni022C" unicode="&#x22c;" horiz-adv-x="1306" 
d="M172 0l-162 206l210 988l250 206h664l162 -206l-210 -988l-250 -206h-664zM370 283h388l74 61l152 712l-48 61h-388l-74 -61l-152 -712zM275 142h521l163 134l180 849l-105 134h-521l-163 -134l-180 -849zM275 142l-105 134l180 849l163 134h521l105 -134l-180 -849
l-163 -134h-521zM532 1432l29 136l135 112h178l44 -56h18l12 56h192l-29 -136l-135 -112h-178l-44 56h-18l-12 -56h-192zM646 1502h-1l4 20l81 72h82l48 -74h88l82 72l4 20h1l-4 -20l-83 -72h-88l-48 74h-82l-80 -72zM549 1711l54 256h632l-54 -256h-632zM706 1837h384v0
h-384v0z" />
    <glyph glyph-name="uni022D" unicode="&#x22d;" horiz-adv-x="1257" 
d="M201 0l-162 206l142 668l250 206h625l162 -206l-142 -668l-250 -206h-625zM311 142h477l161 140l112 524l-103 134h-485l-161 -134l-112 -524zM311 142l-111 140l112 524l161 134h485l103 -134l-112 -524l-161 -140h-477zM399 283h349l74 61l84 392l-48 61h-349l-74 -61
l-84 -392zM474 1112l29 136l135 112h178l44 -56h18l12 56h192l-29 -136l-135 -112h-178l-44 56h-18l-12 -56h-192zM588 1182h-1l4 20l81 72h82l48 -74h88l82 72l4 20h1l-4 -20l-83 -72h-88l-48 74h-82l-80 -72zM491 1391l54 256h632l-54 -256h-632zM648 1517h384v0h-384v0z
" />
    <glyph glyph-name="uni0230" unicode="&#x230;" horiz-adv-x="1306" 
d="M172 0l-162 206l210 988l250 206h664l162 -206l-210 -988l-250 -206h-664zM370 283h388l74 61l152 712l-48 61h-388l-74 -61l-152 -712zM275 142h521l163 134l180 849l-105 134h-521l-163 -134l-180 -849zM275 142l-105 134l180 849l163 134h521l105 -134l-180 -849
l-163 -134h-521zM707 1452l44 210h212l-44 -210h-212zM831 1542h-1l6 28h1zM543 1693l54 256h632l-54 -256h-632zM700 1819h384v0h-384v0z" />
    <glyph glyph-name="uni0231" unicode="&#x231;" horiz-adv-x="1257" 
d="M201 0l-162 206l142 668l250 206h625l162 -206l-142 -668l-250 -206h-625zM311 142h477l161 140l112 524l-103 134h-485l-161 -134l-112 -524zM311 142l-111 140l112 524l161 134h485l103 -134l-112 -524l-161 -140h-477zM399 283h349l74 61l84 392l-48 61h-349l-74 -61
l-84 -392zM649 1132l44 210h212l-44 -210h-212zM773 1222h-1l6 28h1zM485 1373l54 256h632l-54 -256h-632zM642 1499h384v0h-384v0z" />
    <glyph glyph-name="uni0232" unicode="&#x232;" horiz-adv-x="1294" 
d="M356 0l94 443l-318 382l122 575h283l-101 -473l214 -253h-19l323 253l101 473h283l-122 -575l-483 -382l-94 -443h-283zM528 142h-1l75 353l482 374l83 390h1l-83 -390l-483 -374v0l-322 374l83 390h1l-83 -390l322 -374zM483 1431l54 256h632l-54 -256h-632zM640 1557
h384v0h-384v0z" />
    <glyph glyph-name="uni0233" unicode="&#x233;" horiz-adv-x="1251" 
d="M202 0l-162 206l185 874h283l-156 -736l48 -61h245l121 100l148 697h282l-271 -1274l-249 -206h-715l60 282h558l98 81l12 57l-24 -20h-463zM107 -263h509l192 162l222 1041v0l-128 -598l-243 -200h-355l-110 143l140 655v0l-140 -655l110 -143h355l243 200l-94 -443
l-192 -162h-509v0zM395 1111l54 256h632l-54 -256h-632zM552 1237h384v0h-384v0z" />
    <glyph glyph-name="uni0237" unicode="&#x237;" horiz-adv-x="706" 
d="M-132 -400l60 282h181l97 81l177 835h-261l60 282h544l-271 -1274l-249 -206h-338zM62 -253h107l163 140l224 1053h-261v1h261l-224 -1054l-163 -141h-107v1z" />
    <glyph glyph-name="uni0259" unicode="&#x259;" horiz-adv-x="1253" 
d="M201 0l-162 206l61 285l249 206h544l9 39l-48 61h-675l60 283h813l162 -206l-142 -668l-250 -206h-621zM304 138l-102 126l40 186l128 106h637l-60 -282l-166 -136h-477zM304 138h477l166 136l114 532l-103 128h-625v0h625l103 -128l-54 -250h-637l-128 -106l-40 -186z
M399 283h345l74 61l17 80h-426l-51 -42l-8 -38z" />
    <glyph glyph-name="uni02BC" unicode="&#x2bc;" horiz-adv-x="558" 
d="M165 942l212 458h271l-257 -458h-226zM331 1048h-1l115 220h1z" />
    <glyph glyph-name="circumflex" unicode="&#x2c6;" horiz-adv-x="884" 
d="M346 1396h252l164 -284h-277l-50 108l-96 -108h-277zM397 1318l-110 -116v0l110 116h114l60 -116v0l-60 116h-114z" />
    <glyph glyph-name="caron" unicode="&#x2c7;" horiz-adv-x="884" 
d="M286 1112l-164 284h277l50 -108l96 108h277l-284 -284h-252zM369 1190h114l110 116v0l-110 -116h-114l-60 116v0z" />
    <glyph glyph-name="uni02C9" unicode="&#x2c9;" horiz-adv-x="836" 
d="M75 1119l54 256h632l-54 -256h-632zM232 1245h384v0h-384v0z" />
    <glyph glyph-name="breve" unicode="&#x2d8;" horiz-adv-x="646" 
d="M176 1112l-89 112l33 156h192l-16 -76h78l16 76h192l-33 -156l-135 -112h-238zM246 1200h136l82 72l5 26v0l-5 -26l-82 -72h-136l-50 72l5 26v0l-5 -26z" />
    <glyph glyph-name="dotaccent" unicode="&#x2d9;" horiz-adv-x="528" 
d="M136 1132l44 210h212l-44 -210h-212zM260 1222h-1l6 28h1z" />
    <glyph glyph-name="ring" unicode="&#x2da;" horiz-adv-x="1200" 
d="M470 1110l-78 97l37 174l119 98h183l77 -98l-37 -174l-118 -97h-183zM526 1195h108l63 51l21 100l-41 52h-108l-63 -52l-21 -100zM526 1195l-41 51l21 100l63 52h108l41 -52l-21 -100l-63 -51h-108zM588 1277h17l11 10l4 15l-7 9h-17l-11 -9l-4 -15z" />
    <glyph glyph-name="ogonek" unicode="&#x2db;" horiz-adv-x="638" 
d="M45 -389l-123 189l190 172h211l-198 -172l20 -32h238l-33 -157h-305zM108 -314h174v0h-174l-78 114l96 89v0l-96 -89z" />
    <glyph glyph-name="tilde" unicode="&#x2dc;" horiz-adv-x="780" 
d="M86 1112l29 136l135 112h178l44 -56h18l12 56h192l-29 -136l-135 -112h-178l-44 56h-18l-12 -56h-192zM200 1182h-1l4 20l81 72h82l48 -74h88l82 72l4 20h1l-4 -20l-83 -72h-88l-48 74h-82l-80 -72z" />
    <glyph glyph-name="hungarumlaut" unicode="&#x2dd;" horiz-adv-x="1200" 
d="M531 1112l201 264h287l-251 -264h-237zM346 1174h-1l112 131h1zM179 1112l201 264h287l-251 -264h-237zM698 1174h-1l112 131h1z" />
    <glyph glyph-name="gravecomb" unicode="&#x300;" 
d="M682 1112h-247l-228 264h287zM506 1180l-93 126h1l93 -126h-1z" />
    <glyph glyph-name="acutecomb" unicode="&#x301;" 
d="M174 1112l300 264h287l-340 -264h-247zM378 1180h-1l147 126h1z" />
    <glyph glyph-name="uni0302" unicode="&#x302;" 
d="M486 1396h252l164 -284h-277l-50 108l-96 -108h-277zM537 1318l-110 -116v0l110 116h114l60 -116v0l-60 116h-114z" />
    <glyph glyph-name="tildecomb" unicode="&#x303;" 
d="M226 1112l29 136l135 112h178l44 -56h18l12 56h192l-29 -136l-135 -112h-178l-44 56h-18l-12 -56h-192zM340 1182h-1l4 20l81 72h82l48 -74h88l82 72l4 20h1l-4 -20l-83 -72h-88l-48 74h-82l-80 -72z" />
    <glyph glyph-name="uni0304" unicode="&#x304;" 
d="M226 1111l54 256h632l-54 -256h-632zM383 1237h384v0h-384v0z" />
    <glyph glyph-name="uni0306" unicode="&#x306;" 
d="M316 1112l-89 112l33 156h192l-16 -76h78l16 76h192l-33 -156l-135 -112h-238zM386 1200h136l82 72l5 26v0l-5 -26l-82 -72h-136l-50 72l5 26v0l-5 -26z" />
    <glyph glyph-name="uni0307" unicode="&#x307;" 
d="M256 1132l44 210h212l-44 -210h-212zM380 1222h-1l6 28h1z" />
    <glyph glyph-name="uni0308" unicode="&#x308;" 
d="M672 1132l44 210h212l-44 -210h-212zM256 1132l44 210h212l-44 -210h-212zM381 1226h-1l4 20h1zM799 1226h-1l4 20h1z" />
    <glyph glyph-name="hookabovecomb" unicode="&#x309;" 
d="M270 1482h315l123 -189l-203 -187h-244l33 157h134l37 30l-23 32h-205zM360 1405v0h157l74 -112l-122 -110h-85v0h85l122 110l-74 112h-157z" />
    <glyph glyph-name="uni030A" unicode="&#x30a;" 
d="M610 1110l-78 97l37 174l119 98h183l77 -98l-37 -174l-118 -97h-183zM666 1195h108l63 51l21 100l-41 52h-108l-63 -52l-21 -100zM666 1195l-41 51l21 100l63 52h108l41 -52l-21 -100l-63 -51h-108zM728 1277h17l11 10l4 15l-7 9h-17l-11 -9l-4 -15z" />
    <glyph glyph-name="uni030B" unicode="&#x30b;" 
d="M651 1112l201 264h287l-251 -264h-237zM466 1174h-1l112 131h1zM299 1112l201 264h287l-251 -264h-237zM818 1174h-1l112 131h1z" />
    <glyph glyph-name="uni030C" unicode="&#x30c;" 
d="M426 1112l-164 284h277l50 -108l96 108h277l-284 -284h-252zM509 1190h114l110 116v0l-110 -116h-114l-60 116v0z" />
    <glyph glyph-name="uni030F" unicode="&#x30f;" 
d="M1103 1112h-247l-228 264h287zM927 1180l-93 126h1l93 -126h-1zM711 1112h-247l-228 264h287zM535 1180l-93 126h1l93 -126h-1z" />
    <glyph glyph-name="uni0311" unicode="&#x311;" 
d="M622 1379l89 -112l-33 -156h-192l16 76h-78l-16 -76h-192l33 156l135 112h238zM552 1291h-136l-82 -72l-5 -26v0l5 26l82 72h136l50 -72l-5 -26v0l5 26z" />
    <glyph glyph-name="uni0312" unicode="&#x312;" 
d="M689 1568l-212 -458h-271l257 458h226zM523 1462h1l-115 -220h-1z" />
    <glyph glyph-name="uni031B" unicode="&#x31b;" 
d="M640 1309l-42 -199l-203 -187h-244l33 157h134l55 45l39 184h228zM510 1234l-26 -121l-127 -112h-82v0h82l127 112l26 121v0z" />
    <glyph glyph-name="dotbelowcomb" unicode="&#x323;" 
d="M-23 -271l44 210h212l-44 -210h-212zM101 -181h-1l6 28h1z" />
    <glyph glyph-name="uni0324" unicode="&#x324;" 
d="M255 -269l44 210h212l-44 -210h-212zM-161 -269l44 210h212l-44 -210h-212zM-36 -175h-1l4 20h1zM382 -175h-1l4 20h1z" />
    <glyph glyph-name="uni0326" unicode="&#x326;" 
d="M-138 -530l212 458h271l-257 -458h-226zM28 -424h-1l115 220h1z" />
    <glyph glyph-name="uni0327" unicode="&#x327;" 
d="M-94 -400l33 157h205l37 32l-23 30h-134l33 157h244l123 -187l-203 -189h-315zM28 -323h157l122 112l-74 110h-85v0h85l74 -110l-122 -112h-157v0z" />
    <glyph glyph-name="uni0328" unicode="&#x328;" 
d="M45 -389l-123 189l190 172h211l-198 -172l20 -32h238l-33 -157h-305zM108 -314h174v0h-174l-78 114l96 89v0l-96 -89z" />
    <glyph glyph-name="uni032E" unicode="&#x32e;" 
d="M-133 -340l-89 112l33 156h192l-16 -76h78l16 76h192l-33 -156l-135 -112h-238zM-63 -252h136l82 72l5 26v0l-5 -26l-82 -72h-136l-50 72l5 26v0l-5 -26z" />
    <glyph glyph-name="uni0331" unicode="&#x331;" 
d="M-232 -326l54 256h632l-54 -256h-632zM-75 -200h384v0h-384v0z" />
    <glyph glyph-name="uni1E08" unicode="&#x1e08;" horiz-adv-x="1244" 
d="M162 0l-162 206l210 988l250 206h621l163 -206l-68 -322h-283l39 184l-48 61h-346l-74 -61l-152 -712l48 -61h346l74 61l39 184h283l-68 -322l-251 -206h-621zM265 142h478l163 134l25 120v0l-25 -120l-163 -134h-478l-109 139l180 848l169 139h472l110 -139l-26 -121v0
l26 121l-110 139h-472l-169 -139l-180 -848zM172 -400l33 157h205l37 32l-23 30h-134l33 157h244l123 -187l-203 -189h-315zM294 -323h157l122 112l-74 110h-85v0h85l74 -110l-122 -112h-157v0zM665 1432l300 264h287l-340 -264h-247zM869 1500h-1l147 126h1z" />
    <glyph glyph-name="uni1E09" unicode="&#x1e09;" horiz-adv-x="1148" 
d="M233 -349l33 157h205l37 32l-23 30h-134l27 130h-123l-162 206l142 668l250 206h484l162 -206l-48 -224h-283l19 86l-48 61h-208l-74 -61l-84 -392l48 -61h208l74 61l19 86h283l-48 -224l-250 -206h-93l105 -160l-203 -189h-315zM350 -270h168l119 110l-73 108h-96
l41 193h193l160 132l7 32v0l-7 -32l-160 -132h-338l-113 137l113 531l163 134h346l104 -132l-7 -32v0l7 32l-104 132h-346l-163 -134l-113 -531l113 -137h145l-41 -193h96l73 -108l-119 -110h-168v0zM411 1112l300 264h287l-340 -264h-247zM615 1180h-1l147 126h1z" />
    <glyph glyph-name="uni1E0C" unicode="&#x1e0c;" horiz-adv-x="1289" 
d="M-24 0l298 1400h833l162 -206l-210 -988l-250 -206h-833zM319 283h413l74 61l152 712l-48 61h-413zM152 142h610l175 144l176 829l-113 144h-610zM152 142l238 1117h610l113 -144l-176 -829l-175 -144h-610zM332 -271l44 210h212l-44 -210h-212zM456 -181h-1l6 28h1z" />
    <glyph glyph-name="uni1E0D" unicode="&#x1e0d;" horiz-adv-x="1256" 
d="M765 0h-562l-164 206l142 668l251 206h466l16 -19l93 439h283l-275 -1294zM721 135h-417l-109 136l118 552l142 116h398l140 -176l-105 -492zM688 283l74 61l79 373l-63 81h-269l-74 -62l-83 -392l48 -61h288zM721 135l167 136l233 1095v0l-128 -603l-140 176h-398
l-142 -116l-118 -552l109 -136h417zM330 -271l44 210h212l-44 -210h-212zM454 -181h-1l6 28h1z" />
    <glyph glyph-name="uni1E0E" unicode="&#x1e0e;" horiz-adv-x="1289" 
d="M-24 0l298 1400h833l162 -206l-210 -988l-250 -206h-833zM319 283h413l74 61l152 712l-48 61h-413zM152 142h610l175 144l176 829l-113 144h-610zM152 142l238 1117h610l113 -144l-176 -829l-175 -144h-610zM121 -326l54 256h632l-54 -256h-632zM278 -200h384v0h-384v0z
" />
    <glyph glyph-name="uni1E0F" unicode="&#x1e0f;" horiz-adv-x="1256" 
d="M765 0h-562l-164 206l142 668l251 206h466l16 -19l93 439h283l-275 -1294zM721 135h-417l-109 136l118 552l142 116h398l140 -176l-105 -492zM688 283l74 61l79 373l-63 81h-269l-74 -62l-83 -392l48 -61h288zM721 135l167 136l233 1095v0l-128 -603l-140 176h-398
l-142 -116l-118 -552l109 -136h417zM119 -326l54 256h632l-54 -256h-632zM276 -200h384v0h-384v0z" />
    <glyph glyph-name="uni1E14" unicode="&#x1e14;" horiz-adv-x="1140" 
d="M-34 0l298 1400h910l-60 -283h-627l-58 -269h558l-60 -283h-558l-60 -282h627l-60 -283h-910zM141 142h635v0h-635l120 565h565v0h-565l118 552h635v0h-635zM398 1431l54 256h632l-54 -256h-632zM555 1557h384v0h-384v0zM900 1719h-247l-228 264h287zM724 1787l-93 126h1
l93 -126h-1z" />
    <glyph glyph-name="uni1E15" unicode="&#x1e15;" horiz-adv-x="1253" 
d="M1052 1080l162 -206l-61 -285l-249 -206h-544l-9 -39l48 -61h675l-60 -283h-813l-162 206l142 668l250 206h621zM949 942l102 -126l-40 -186l-128 -106h-637l60 282l166 136h477zM949 942h-477l-166 -136l-114 -532l103 -128h625v0h-625l-103 128l54 250h637l128 106
l40 186zM854 797h-345l-74 -61l-17 -80h426l51 42l8 38zM434 1111l54 256h632l-54 -256h-632zM591 1237h384v0h-384v0zM936 1399h-247l-228 264h287zM760 1467l-93 126h1l93 -126h-1z" />
    <glyph glyph-name="uni1E16" unicode="&#x1e16;" horiz-adv-x="1140" 
d="M-34 0l298 1400h910l-60 -283h-627l-58 -269h558l-60 -283h-558l-60 -282h627l-60 -283h-910zM141 142h635v0h-635l120 565h565v0h-565l118 552h635v0h-635zM398 1431l54 256h632l-54 -256h-632zM555 1557h384v0h-384v0zM661 1719l300 264h287l-340 -264h-247zM865 1787
h-1l147 126h1z" />
    <glyph glyph-name="uni1E17" unicode="&#x1e17;" horiz-adv-x="1253" 
d="M1052 1080l162 -206l-61 -285l-249 -206h-544l-9 -39l48 -61h675l-60 -283h-813l-162 206l142 668l250 206h621zM949 942l102 -126l-40 -186l-128 -106h-637l60 282l166 136h477zM949 942h-477l-166 -136l-114 -532l103 -128h625v0h-625l-103 128l54 250h637l128 106
l40 186zM854 797h-345l-74 -61l-17 -80h426l51 42l8 38zM434 1111l54 256h632l-54 -256h-632zM591 1237h384v0h-384v0zM697 1399l300 264h287l-340 -264h-247zM901 1467h-1l147 126h1z" />
    <glyph glyph-name="uni1E1C" unicode="&#x1e1c;" horiz-adv-x="1140" 
d="M-34 0l298 1400h910l-60 -283h-627l-58 -269h558l-60 -283h-558l-60 -282h627l-60 -283h-910zM141 142h635v0h-635l120 565h565v0h-565l118 552h635v0h-635zM108 -400l33 157h205l37 32l-23 30h-134l33 157h244l123 -187l-203 -189h-315zM230 -323h157l122 112l-74 110
h-85v0h85l74 -110l-122 -112h-157v0zM598 1432l-89 112l33 156h192l-16 -76h78l16 76h192l-33 -156l-135 -112h-238zM668 1520h136l82 72l5 26v0l-5 -26l-82 -72h-136l-50 72l5 26v0l-5 -26z" />
    <glyph glyph-name="uni1E1D" unicode="&#x1e1d;" horiz-adv-x="1253" 
d="M1052 1080l162 -206l-61 -285l-249 -206h-544l-9 -39l48 -61h675l-60 -283h-813l-162 206l142 668l250 206h621zM949 942l102 -126l-40 -186l-128 -106h-637l60 282l166 136h477zM949 942h-477l-166 -136l-114 -532l103 -128h625v0h-625l-103 128l54 250h637l128 106
l40 186zM854 797h-345l-74 -61l-17 -80h426l51 42l8 38zM217 -400l33 157h205l37 32l-23 30h-134l33 157h244l123 -187l-203 -189h-315zM339 -323h157l122 112l-74 110h-85v0h85l74 -110l-122 -112h-157v0zM634 1112l-89 112l33 156h192l-16 -76h78l16 76h192l-33 -156
l-135 -112h-238zM704 1200h136l82 72l5 26v0l-5 -26l-82 -72h-136l-50 72l5 26v0l-5 -26z" />
    <glyph glyph-name="uni1E20" unicode="&#x1e20;" horiz-adv-x="1278" 
d="M172 0l-162 206l210 988l250 206h636l162 -206l-54 -252h-282l25 114l-48 61h-363l-74 -63l-151 -711l47 -60h363l74 61l30 138h-277l60 282h559l-119 -558l-250 -206h-636zM278 142h485l170 140l72 338h-269v0h269l-72 -338l-170 -140h-485l-110 140l179 843l163 134
h501l101 -134l-11 -53v0l11 53l-101 134h-501l-163 -134l-179 -843zM475 1431l54 256h632l-54 -256h-632zM632 1557h384v0h-384v0z" />
    <glyph glyph-name="uni1E21" unicode="&#x1e21;" horiz-adv-x="1255" 
d="M-40 -400l60 282h562l98 81l12 57l-24 -20h-467l-162 206l142 668l249 206h563l163 -206l-228 -1068l-249 -206h-719zM115 -260h509l190 166l189 892l-107 142h-427l-165 -136l-108 -508l120 -154h346l243 192l-91 -428l-190 -166h-509v0zM316 142l-120 154l108 508
l165 136h427l107 -142l-98 -464l-243 -192h-346zM399 283h249l121 100l75 354l-49 61h-287l-74 -61l-83 -393zM394 1111l54 256h632l-54 -256h-632zM551 1237h384v0h-384v0z" />
    <glyph glyph-name="uni1E24" unicode="&#x1e24;" horiz-adv-x="1295" 
d="M-24 0l298 1400h283l-118 -552h480l118 552h282l-298 -1400h-282l120 565h-480l-120 -565h-283zM147 142h-1l120 565h766l-120 -565h-1l238 1117h1l-118 -552h-766l118 552h1zM336 -271l44 210h212l-44 -210h-212zM460 -181h-1l6 28h1z" />
    <glyph glyph-name="uni1E25" unicode="&#x1e25;" horiz-adv-x="1166" 
d="M-34 0l318 1499h283l-93 -438l23 19h467l162 -206l-185 -874h-283l156 736l-48 62h-268l-97 -81l-152 -717h-283zM143 142h-1l133 628l210 171h393l96 -120l-144 -679h-1l144 679l-95 120h-393l-210 -171l123 576h1zM290 -271l44 210h212l-44 -210h-212zM414 -181h-1
l6 28h1z" />
    <glyph glyph-name="uni1E2A" unicode="&#x1e2a;" horiz-adv-x="1295" 
d="M-24 0l298 1400h283l-118 -552h480l118 552h282l-298 -1400h-282l120 565h-480l-120 -565h-283zM147 142h-1l120 565h766l-120 -565h-1l238 1117h1l-118 -552h-766l118 552h1zM296 -340l-89 112l33 156h192l-16 -76h78l16 76h192l-33 -156l-135 -112h-238zM366 -252h136
l82 72l5 26v0l-5 -26l-82 -72h-136l-50 72l5 26v0l-5 -26z" />
    <glyph glyph-name="uni1E2B" unicode="&#x1e2b;" horiz-adv-x="1166" 
d="M-34 0l318 1499h283l-93 -438l23 19h467l162 -206l-185 -874h-283l156 736l-48 62h-268l-97 -81l-152 -717h-283zM143 142h-1l133 628l210 171h393l96 -120l-144 -679h-1l144 679l-95 120h-393l-210 -171l123 576h1zM250 -340l-89 112l33 156h192l-16 -76h78l16 76h192
l-33 -156l-135 -112h-238zM320 -252h136l82 72l5 26v0l-5 -26l-82 -72h-136l-50 72l5 26v0l-5 -26z" />
    <glyph glyph-name="uni1E2E" unicode="&#x1e2e;" horiz-adv-x="1059" 
d="M-34 0l60 283h274l178 834h-274l60 283h829l-60 -283h-273l-178 -834h273l-60 -283h-829zM122 142h578v0h-289l238 1117h289v0h-578v0h289l-238 -1117h-289v0zM790 1452l44 210h212l-44 -210h-212zM374 1452l44 210h212l-44 -210h-212zM499 1546h-1l4 20h1zM917 1546h-1
l4 20h1zM625 1694l300 264h287l-340 -264h-247zM829 1762h-1l147 126h1z" />
    <glyph glyph-name="uni1E2F" unicode="&#x1e2f;" horiz-adv-x="990" 
d="M-1 0l60 283h240l110 514h-240l60 283h522l-170 -797h240l-60 -283h-762zM155 142h511v0h-261l170 797h-250v0h250l-170 -797h-250v0zM721 1132l44 210h212l-44 -210h-212zM305 1132l44 210h212l-44 -210h-212zM430 1226h-1l4 20h1zM848 1226h-1l4 20h1zM556 1374
l300 264h287l-340 -264h-247zM760 1442h-1l147 126h1z" />
    <glyph glyph-name="uni1E36" unicode="&#x1e36;" horiz-adv-x="1091" 
d="M-24 0l298 1400h283l-238 -1117h608l-60 -283h-891zM148 142h613v0h-613l238 1117v0zM222 -271l44 210h212l-44 -210h-212zM346 -181h-1l6 28h1z" />
    <glyph glyph-name="uni1E37" unicode="&#x1e37;" horiz-adv-x="913" 
d="M-69 0l60 283h270l198 934h-270l60 283h552l-258 -1217h270l-60 -283h-822zM87 142h571v0h-291l258 1217h-280v0h280l-258 -1217h-280v0zM175 -271l44 210h212l-44 -210h-212zM299 -181h-1l6 28h1z" />
    <glyph glyph-name="uni1E3A" unicode="&#x1e3a;" horiz-adv-x="1091" 
d="M-24 0l298 1400h283l-238 -1117h608l-60 -283h-891zM148 142h613v0h-613l238 1117v0zM11 -326l54 256h632l-54 -256h-632zM168 -200h384v0h-384v0z" />
    <glyph glyph-name="uni1E3B" unicode="&#x1e3b;" horiz-adv-x="913" 
d="M-69 0l60 283h270l198 934h-270l60 283h552l-258 -1217h270l-60 -283h-822zM87 142h571v0h-291l258 1217h-280v0h280l-258 -1217h-280v0zM-36 -326l54 256h632l-54 -256h-632zM121 -200h384v0h-384v0z" />
    <glyph glyph-name="uni1E42" unicode="&#x1e42;" horiz-adv-x="1741" 
d="M-24 0l298 1400h548l-42 -993h48l380 993h557l-298 -1400h-283l237 1116h-39l-383 -996h-502l40 996h-41l-237 -1116h-283zM146 142h-1l238 1117h292l-28 -982h259l397 982h290l-238 -1117h-1l238 1117h-289l-397 -982h-259l28 982h-291zM544 -271l44 210h212l-44 -210
h-212zM668 -181h-1l6 28h1z" />
    <glyph glyph-name="uni1E43" unicode="&#x1e43;" horiz-adv-x="1613" 
d="M-5 0l186 874l250 206h387l82 -102l125 102h387l162 -206l-186 -874h-283l157 736l-48 61h-150l-74 -61l-144 -676h-283l144 676l-48 61h-150l-74 -61l-157 -736h-283zM164 142h-1l141 660l167 138h277l113 -144l-126 -594h-1l126 594l176 144h277l109 -138l-141 -660h-1
l141 660l-108 138h-277l-175 -144l-113 144h-277l-166 -138zM528 -271l44 210h212l-44 -210h-212zM652 -181h-1l6 28h1z" />
    <glyph glyph-name="uni1E44" unicode="&#x1e44;" horiz-adv-x="1465" 
d="M147 142h-1l238 1117h294l109 -1117h292l238 1117h1l-238 -1117h-293l-109 1117h-293zM-24 0l298 1400h543l99 -1113h53l237 1113h283l-298 -1400h-543l-101 1116h-51l-237 -1116h-283zM817 1452l44 210h212l-44 -210h-212zM941 1542h-1l6 28h1z" />
    <glyph glyph-name="uni1E45" unicode="&#x1e45;" horiz-adv-x="1180" 
d="M-5 0l186 874l250 206h548l162 -206l-186 -874h-282l157 736l-48 61h-274l-74 -61l-157 -736h-282zM168 142h-1l139 650l179 148h387l115 -146l-139 -652h-1l139 652l-114 146h-387l-178 -148zM617 1132l44 210h212l-44 -210h-212zM741 1222h-1l6 28h1z" />
    <glyph glyph-name="uni1E46" unicode="&#x1e46;" horiz-adv-x="1465" 
d="M147 142h-1l238 1117h294l109 -1117h292l238 1117h1l-238 -1117h-293l-109 1117h-293zM-24 0l298 1400h543l99 -1113h53l237 1113h283l-298 -1400h-543l-101 1116h-51l-237 -1116h-283zM450 -271l44 210h212l-44 -210h-212zM574 -181h-1l6 28h1z" />
    <glyph glyph-name="uni1E47" unicode="&#x1e47;" horiz-adv-x="1180" 
d="M-5 0l186 874l250 206h548l162 -206l-186 -874h-282l157 736l-48 61h-274l-74 -61l-157 -736h-282zM168 142h-1l139 650l179 148h387l115 -146l-139 -652h-1l139 652l-114 146h-387l-178 -148zM318 -271l44 210h212l-44 -210h-212zM442 -181h-1l6 28h1z" />
    <glyph glyph-name="uni1E48" unicode="&#x1e48;" horiz-adv-x="1465" 
d="M147 142h-1l238 1117h294l109 -1117h292l238 1117h1l-238 -1117h-293l-109 1117h-293zM-24 0l298 1400h543l99 -1113h53l237 1113h283l-298 -1400h-543l-101 1116h-51l-237 -1116h-283zM239 -326l54 256h632l-54 -256h-632zM396 -200h384v0h-384v0z" />
    <glyph glyph-name="uni1E49" unicode="&#x1e49;" horiz-adv-x="1180" 
d="M-5 0l186 874l250 206h548l162 -206l-186 -874h-282l157 736l-48 61h-274l-74 -61l-157 -736h-282zM168 142h-1l139 650l179 148h387l115 -146l-139 -652h-1l139 652l-114 146h-387l-178 -148zM107 -326l54 256h632l-54 -256h-632zM264 -200h384v0h-384v0z" />
    <glyph glyph-name="uni1E4C" unicode="&#x1e4c;" horiz-adv-x="1306" 
d="M172 0l-162 206l210 988l250 206h664l162 -206l-210 -988l-250 -206h-664zM370 283h388l74 61l152 712l-48 61h-388l-74 -61l-152 -712zM275 142h521l163 134l180 849l-105 134h-521l-163 -134l-180 -849zM275 142l-105 134l180 849l163 134h521l105 -134l-180 -849
l-163 -134h-521zM532 1432l29 136l135 112h178l44 -56h18l12 56h192l-29 -136l-135 -112h-178l-44 56h-18l-12 -56h-192zM646 1502h-1l4 20l81 72h82l48 -74h88l82 72l4 20h1l-4 -20l-83 -72h-88l-48 74h-82l-80 -72zM752 1712l300 264h287l-340 -264h-247zM956 1780h-1
l147 126h1z" />
    <glyph glyph-name="uni1E4D" unicode="&#x1e4d;" horiz-adv-x="1257" 
d="M201 0l-162 206l142 668l250 206h625l162 -206l-142 -668l-250 -206h-625zM311 142h477l161 140l112 524l-103 134h-485l-161 -134l-112 -524zM311 142l-111 140l112 524l161 134h485l103 -134l-112 -524l-161 -140h-477zM399 283h349l74 61l84 392l-48 61h-349l-74 -61
l-84 -392zM474 1112l29 136l135 112h178l44 -56h18l12 56h192l-29 -136l-135 -112h-178l-44 56h-18l-12 -56h-192zM588 1182h-1l4 20l81 72h82l48 -74h88l82 72l4 20h1l-4 -20l-83 -72h-88l-48 74h-82l-80 -72zM694 1392l300 264h287l-340 -264h-247zM898 1460h-1l147 126h1
z" />
    <glyph glyph-name="uni1E4E" unicode="&#x1e4e;" horiz-adv-x="1306" 
d="M172 0l-162 206l210 988l250 206h664l162 -206l-210 -988l-250 -206h-664zM370 283h388l74 61l152 712l-48 61h-388l-74 -61l-152 -712zM275 142h521l163 134l180 849l-105 134h-521l-163 -134l-180 -849zM275 142l-105 134l180 849l163 134h521l105 -134l-180 -849
l-163 -134h-521zM532 1432l29 136l135 112h178l44 -56h18l12 56h192l-29 -136l-135 -112h-178l-44 56h-18l-12 -56h-192zM646 1502h-1l4 20l81 72h82l48 -74h88l82 72l4 20h1l-4 -20l-83 -72h-88l-48 74h-82l-80 -72zM973 1732l44 210h212l-44 -210h-212zM557 1732l44 210
h212l-44 -210h-212zM682 1826h-1l4 20h1zM1100 1826h-1l4 20h1z" />
    <glyph glyph-name="uni1E4F" unicode="&#x1e4f;" horiz-adv-x="1257" 
d="M201 0l-162 206l142 668l250 206h625l162 -206l-142 -668l-250 -206h-625zM311 142h477l161 140l112 524l-103 134h-485l-161 -134l-112 -524zM311 142l-111 140l112 524l161 134h485l103 -134l-112 -524l-161 -140h-477zM399 283h349l74 61l84 392l-48 61h-349l-74 -61
l-84 -392zM474 1112l29 136l135 112h178l44 -56h18l12 56h192l-29 -136l-135 -112h-178l-44 56h-18l-12 -56h-192zM588 1182h-1l4 20l81 72h82l48 -74h88l82 72l4 20h1l-4 -20l-83 -72h-88l-48 74h-82l-80 -72zM915 1412l44 210h212l-44 -210h-212zM499 1412l44 210h212
l-44 -210h-212zM624 1506h-1l4 20h1zM1042 1506h-1l4 20h1z" />
    <glyph glyph-name="uni1E50" unicode="&#x1e50;" horiz-adv-x="1306" 
d="M172 0l-162 206l210 988l250 206h664l162 -206l-210 -988l-250 -206h-664zM370 283h388l74 61l152 712l-48 61h-388l-74 -61l-152 -712zM275 142h521l163 134l180 849l-105 134h-521l-163 -134l-180 -849zM275 142l-105 134l180 849l163 134h521l105 -134l-180 -849
l-163 -134h-521zM489 1431l54 256h632l-54 -256h-632zM646 1557h384v0h-384v0zM991 1719h-247l-228 264h287zM815 1787l-93 126h1l93 -126h-1z" />
    <glyph glyph-name="uni1E51" unicode="&#x1e51;" horiz-adv-x="1257" 
d="M201 0l-162 206l142 668l250 206h625l162 -206l-142 -668l-250 -206h-625zM311 142h477l161 140l112 524l-103 134h-485l-161 -134l-112 -524zM311 142l-111 140l112 524l161 134h485l103 -134l-112 -524l-161 -140h-477zM399 283h349l74 61l84 392l-48 61h-349l-74 -61
l-84 -392zM431 1111l54 256h632l-54 -256h-632zM588 1237h384v0h-384v0zM933 1399h-247l-228 264h287zM757 1467l-93 126h1l93 -126h-1z" />
    <glyph glyph-name="uni1E52" unicode="&#x1e52;" horiz-adv-x="1306" 
d="M172 0l-162 206l210 988l250 206h664l162 -206l-210 -988l-250 -206h-664zM370 283h388l74 61l152 712l-48 61h-388l-74 -61l-152 -712zM275 142h521l163 134l180 849l-105 134h-521l-163 -134l-180 -849zM275 142l-105 134l180 849l163 134h521l105 -134l-180 -849
l-163 -134h-521zM489 1431l54 256h632l-54 -256h-632zM646 1557h384v0h-384v0zM752 1719l300 264h287l-340 -264h-247zM956 1787h-1l147 126h1z" />
    <glyph glyph-name="uni1E53" unicode="&#x1e53;" horiz-adv-x="1257" 
d="M201 0l-162 206l142 668l250 206h625l162 -206l-142 -668l-250 -206h-625zM311 142h477l161 140l112 524l-103 134h-485l-161 -134l-112 -524zM311 142l-111 140l112 524l161 134h485l103 -134l-112 -524l-161 -140h-477zM399 283h349l74 61l84 392l-48 61h-349l-74 -61
l-84 -392zM431 1111l54 256h632l-54 -256h-632zM588 1237h384v0h-384v0zM694 1399l300 264h287l-340 -264h-247zM898 1467h-1l147 126h1z" />
    <glyph glyph-name="uni1E5A" unicode="&#x1e5a;" horiz-adv-x="1309" 
d="M-24 0l298 1400h863l162 -206l-92 -434l-146 -112l94 -133l-110 -515h-283l88 415l-78 100h-403l-110 -515h-283zM149 142h-1l111 521h613l133 -197l-69 -324h-1l69 324l-132 197l199 152l68 316l-102 128h-650zM429 798h442l74 62l42 196l-48 61h-442zM259 662l127 598
h651l103 -129l-68 -316l-201 -153h-612zM344 -271l44 210h212l-44 -210h-212zM468 -181h-1l6 28h1z" />
    <glyph glyph-name="uni1E5B" unicode="&#x1e5b;" horiz-adv-x="1148" 
d="M-5 -1l61 283h194l107 501l-12 15h-177l60 282h253l51 -80l94 80h388l172 -219l-263 -212l-106 148h-113l-74 -61l-97 -455h194l-60 -282h-672zM154 142h415v0h-209l144 674l151 124h269l69 -100v0l-69 100h-269l-151 -124l-90 124h-90v0h90l91 -124l-144 -674h-207v0z
M168 -271l44 210h212l-44 -210h-212zM292 -181h-1l6 28h1z" />
    <glyph glyph-name="uni1E5E" unicode="&#x1e5e;" horiz-adv-x="1309" 
d="M-24 0l298 1400h863l162 -206l-92 -434l-146 -112l94 -133l-110 -515h-283l88 415l-78 100h-403l-110 -515h-283zM149 142h-1l111 521h613l133 -197l-69 -324h-1l69 324l-132 197l199 152l68 316l-102 128h-650zM429 798h442l74 62l42 196l-48 61h-442zM259 662l127 598
h651l103 -129l-68 -316l-201 -153h-612zM133 -326l54 256h632l-54 -256h-632zM290 -200h384v0h-384v0z" />
    <glyph glyph-name="uni1E5F" unicode="&#x1e5f;" horiz-adv-x="1148" 
d="M-5 -1l61 283h194l107 501l-12 15h-177l60 282h253l51 -80l94 80h388l172 -219l-263 -212l-106 148h-113l-74 -61l-97 -455h194l-60 -282h-672zM154 142h415v0h-209l144 674l151 124h269l69 -100v0l-69 100h-269l-151 -124l-90 124h-90v0h90l91 -124l-144 -674h-207v0z
M-43 -326l54 256h632l-54 -256h-632zM114 -200h384v0h-384v0z" />
    <glyph glyph-name="uni1E60" unicode="&#x1e60;" horiz-adv-x="1302" 
d="M172 0l-162 206l54 252h283l-25 -114l48 -61h384l74 61l33 154l-48 61h-516l-162 206l91 429l250 206h635l162 -206l-54 -252h-283l25 114l-48 61h-359l-75 -61l-33 -153l49 -61h516l162 -206l-91 -430l-250 -206h-660zM268 142h509l174 138l63 300l-88 119h-521
l-110 146l60 283l165 131h498l98 -131l-12 -56v0l12 56l-98 131h-498l-165 -131l-60 -283l110 -146h521l88 -119l-63 -300l-174 -138h-509l-99 118l15 68v0l-15 -68zM705 1452l44 210h212l-44 -210h-212zM829 1542h-1l6 28h1z" />
    <glyph glyph-name="uni1E61" unicode="&#x1e61;" horiz-adv-x="1203" 
d="M5 0l60 283h630l74 61l-1 -5l-46 60h-436l-162 206l57 269l250 206h757l-60 -283h-620l-74 -61l1 6l48 -61h434l162 -206l-57 -269l-250 -206h-767zM190 145h554l150 124l34 157l-99 119h-462l-89 114l34 157l149 123h543v0h-543l-149 -123l-34 -157l89 -114h462l99 -119
l-34 -157l-150 -124h-554v0zM631 1132l44 210h212l-44 -210h-212zM755 1222h-1l6 28h1z" />
    <glyph glyph-name="uni1E62" unicode="&#x1e62;" horiz-adv-x="1302" 
d="M172 0l-162 206l54 252h283l-25 -114l48 -61h384l74 61l33 154l-48 61h-516l-162 206l91 429l250 206h635l162 -206l-54 -252h-283l25 114l-48 61h-359l-75 -61l-33 -153l49 -61h516l162 -206l-91 -430l-250 -206h-660zM268 142h509l174 138l63 300l-88 119h-521
l-110 146l60 283l165 131h498l98 -131l-12 -56v0l12 56l-98 131h-498l-165 -131l-60 -283l110 -146h521l88 -119l-63 -300l-174 -138h-509l-99 118l15 68v0l-15 -68zM338 -271l44 210h212l-44 -210h-212zM462 -181h-1l6 28h1z" />
    <glyph glyph-name="uni1E63" unicode="&#x1e63;" horiz-adv-x="1203" 
d="M5 0l60 283h630l74 61l-1 -5l-46 60h-436l-162 206l57 269l250 206h757l-60 -283h-620l-74 -61l1 6l48 -61h434l162 -206l-57 -269l-250 -206h-767zM190 145h554l150 124l34 157l-99 119h-462l-89 114l34 157l149 123h543v0h-543l-149 -123l-34 -157l89 -114h462l99 -119
l-34 -157l-150 -124h-554v0zM332 -271l44 210h212l-44 -210h-212zM456 -181h-1l6 28h1z" />
    <glyph glyph-name="uni1E64" unicode="&#x1e64;" horiz-adv-x="1302" 
d="M172 0l-162 206l54 252h283l-25 -114l48 -61h384l74 61l33 154l-48 61h-516l-162 206l91 429l250 206h635l162 -206l-54 -252h-283l25 114l-48 61h-359l-75 -61l-33 -153l49 -61h516l162 -206l-91 -430l-250 -206h-660zM268 142h509l174 138l63 300l-88 119h-521
l-110 146l60 283l165 131h498l98 -131l-12 -56v0l12 56l-98 131h-498l-165 -131l-60 -283l110 -146h521l88 -119l-63 -300l-174 -138h-509l-99 118l15 68v0l-15 -68zM690 1432l300 264h287l-340 -264h-247zM894 1500h-1l147 126h1zM1009 1748l44 210h212l-44 -210h-212z
M1133 1838h-1l6 28h1z" />
    <glyph glyph-name="uni1E65" unicode="&#x1e65;" horiz-adv-x="1203" 
d="M5 0l60 283h630l74 61l-1 -5l-46 60h-436l-162 206l57 269l250 206h757l-60 -283h-620l-74 -61l1 6l48 -61h434l162 -206l-57 -269l-250 -206h-767zM190 145h554l150 124l34 157l-99 119h-462l-89 114l34 157l149 123h543v0h-543l-149 -123l-34 -157l89 -114h462l99 -119
l-34 -157l-150 -124h-554v0zM616 1112l300 264h287l-340 -264h-247zM820 1180h-1l147 126h1zM935 1428l44 210h212l-44 -210h-212zM1059 1518h-1l6 28h1z" />
    <glyph glyph-name="uni1E66" unicode="&#x1e66;" horiz-adv-x="1302" 
d="M172 0l-162 206l54 252h283l-25 -114l48 -61h384l74 61l33 154l-48 61h-516l-162 206l91 429l250 206h635l162 -206l-54 -252h-283l25 114l-48 61h-359l-75 -61l-33 -153l49 -61h516l162 -206l-91 -430l-250 -206h-660zM268 142h509l174 138l63 300l-88 119h-521
l-110 146l60 283l165 131h498l98 -131l-12 -56v0l12 56l-98 131h-498l-165 -131l-60 -283l110 -146h521l88 -119l-63 -300l-174 -138h-509l-99 118l15 68v0l-15 -68zM686 1432l-164 284h277l50 -108l96 108h277l-284 -284h-252zM769 1510h114l110 116v0l-110 -116h-114
l-60 116v0zM777 1768l44 210h212l-44 -210h-212zM901 1858h-1l6 28h1z" />
    <glyph glyph-name="uni1E67" unicode="&#x1e67;" horiz-adv-x="1203" 
d="M5 0l60 283h630l74 61l-1 -5l-46 60h-436l-162 206l57 269l250 206h757l-60 -283h-620l-74 -61l1 6l48 -61h434l162 -206l-57 -269l-250 -206h-767zM190 145h554l150 124l34 157l-99 119h-462l-89 114l34 157l149 123h543v0h-543l-149 -123l-34 -157l89 -114h462l99 -119
l-34 -157l-150 -124h-554v0zM612 1112l-164 284h277l50 -108l96 108h277l-284 -284h-252zM695 1190h114l110 116v0l-110 -116h-114l-60 116v0zM703 1448l44 210h212l-44 -210h-212zM827 1538h-1l6 28h1z" />
    <glyph glyph-name="uni1E68" unicode="&#x1e68;" horiz-adv-x="1302" 
d="M172 0l-162 206l54 252h283l-25 -114l48 -61h384l74 61l33 154l-48 61h-516l-162 206l91 429l250 206h635l162 -206l-54 -252h-283l25 114l-48 61h-359l-75 -61l-33 -153l49 -61h516l162 -206l-91 -430l-250 -206h-660zM268 142h509l174 138l63 300l-88 119h-521
l-110 146l60 283l165 131h498l98 -131l-12 -56v0l12 56l-98 131h-498l-165 -131l-60 -283l110 -146h521l88 -119l-63 -300l-174 -138h-509l-99 118l15 68v0l-15 -68zM338 -271l44 210h212l-44 -210h-212zM462 -181h-1l6 28h1zM705 1452l44 210h212l-44 -210h-212zM829 1542
h-1l6 28h1z" />
    <glyph glyph-name="uni1E69" unicode="&#x1e69;" horiz-adv-x="1203" 
d="M5 0l60 283h630l74 61l-1 -5l-46 60h-436l-162 206l57 269l250 206h757l-60 -283h-620l-74 -61l1 6l48 -61h434l162 -206l-57 -269l-250 -206h-767zM190 145h554l150 124l34 157l-99 119h-462l-89 114l34 157l149 123h543v0h-543l-149 -123l-34 -157l89 -114h462l99 -119
l-34 -157l-150 -124h-554v0zM332 -271l44 210h212l-44 -210h-212zM456 -181h-1l6 28h1zM631 1132l44 210h212l-44 -210h-212zM755 1222h-1l6 28h1z" />
    <glyph glyph-name="uni1E6C" unicode="&#x1e6c;" horiz-adv-x="1126" 
d="M273 0l238 1117h-347l60 283h976l-60 -283h-347l-238 -1117h-282zM445 142h-1l238 1117h357v0h-714v0h358zM250 -271l44 210h212l-44 -210h-212zM374 -181h-1l6 28h1z" />
    <glyph glyph-name="uni1E6D" unicode="&#x1e6d;" horiz-adv-x="935" 
d="M179 0l170 798h-249l60 282h249l58 274h283l-58 -274h248l-60 -282h-248l-110 -515h241l-60 -283h-524zM351 143h258v-1h-258l170 800h263v-1h-263l61 288v0l-61 -287h-264l1 1h264zM191 -274l44 210h212l-44 -210h-212zM315 -184h-1l6 28h1z" />
    <glyph glyph-name="uni1E6E" unicode="&#x1e6e;" horiz-adv-x="1126" 
d="M273 0l238 1117h-347l60 283h976l-60 -283h-347l-238 -1117h-282zM445 142h-1l238 1117h357v0h-714v0h358zM39 -326l54 256h632l-54 -256h-632zM196 -200h384v0h-384v0z" />
    <glyph glyph-name="uni1E6F" unicode="&#x1e6f;" horiz-adv-x="935" 
d="M179 0l170 798h-249l60 282h249l58 274h283l-58 -274h248l-60 -282h-248l-110 -515h241l-60 -283h-524zM351 143h258v-1h-258l170 800h263v-1h-263l61 288v0l-61 -287h-264l1 1h264zM-20 -329l54 256h632l-54 -256h-632zM137 -203h384v0h-384v0z" />
    <glyph glyph-name="uni1E78" unicode="&#x1e78;" horiz-adv-x="1328" 
d="M172 0l-162 206l254 1194h283l-225 -1056l48 -61h410l74 61l225 1056h283l-254 -1194l-250 -206h-686zM271 142h548l162 129l210 988v0l-210 -988l-162 -129h-548l-106 131l210 986v0l-210 -986zM544 1432l29 136l135 112h178l44 -56h18l12 56h192l-29 -136l-135 -112
h-178l-44 56h-18l-12 -56h-192zM658 1502h-1l4 20l81 72h82l48 -74h88l82 72l4 20h1l-4 -20l-83 -72h-88l-48 74h-82l-80 -72zM764 1712l300 264h287l-340 -264h-247zM968 1780h-1l147 126h1z" />
    <glyph glyph-name="uni1E79" unicode="&#x1e79;" horiz-adv-x="1202" 
d="M201 0l-162 206l186 874h283l-157 -736l48 -61h294l74 61l157 736h283l-186 -874l-250 -206h-570zM311 142h417l171 150l138 648v0l-138 -648l-171 -150h-417l-114 151l138 647v0l-138 -647zM448 1112l29 136l135 112h178l44 -56h18l12 56h192l-29 -136l-135 -112h-178
l-44 56h-18l-12 -56h-192zM562 1182h-1l4 20l81 72h82l48 -74h88l82 72l4 20h1l-4 -20l-83 -72h-88l-48 74h-82l-80 -72zM668 1392l300 264h287l-340 -264h-247zM872 1460h-1l147 126h1z" />
    <glyph glyph-name="uni1E7A" unicode="&#x1e7a;" horiz-adv-x="1328" 
d="M172 0l-162 206l254 1194h283l-225 -1056l48 -61h410l74 61l225 1056h283l-254 -1194l-250 -206h-686zM271 142h548l162 129l210 988v0l-210 -988l-162 -129h-548l-106 131l210 986v0l-210 -986zM501 1431l54 256h632l-54 -256h-632zM658 1557h384v0h-384v0zM985 1739
l44 210h212l-44 -210h-212zM569 1739l44 210h212l-44 -210h-212zM694 1833h-1l4 20h1zM1112 1833h-1l4 20h1z" />
    <glyph glyph-name="uni1E7B" unicode="&#x1e7b;" horiz-adv-x="1202" 
d="M201 0l-162 206l186 874h283l-157 -736l48 -61h294l74 61l157 736h283l-186 -874l-250 -206h-570zM311 142h417l171 150l138 648v0l-138 -648l-171 -150h-417l-114 151l138 647v0l-138 -647zM405 1111l54 256h632l-54 -256h-632zM562 1237h384v0h-384v0zM889 1419l44 210
h212l-44 -210h-212zM473 1419l44 210h212l-44 -210h-212zM598 1513h-1l4 20h1zM1016 1513h-1l4 20h1z" />
    <glyph glyph-name="Wgrave" unicode="&#x1e80;" horiz-adv-x="1738" 
d="M274 1400h283l-237 -1116h44l377 996h502l-44 -996h43l237 1116h283l-298 -1400h-551l47 993h-48l-375 -993h-561zM384 1258l-238 -1117h299l383 982h260l-25 -982h288l238 1117h1l-238 -1117h-289l25 982h-260l-383 -982h-300l238 1117h1zM1141 1432h-247l-228 264h287z
M965 1500l-93 126h1l93 -126h-1z" />
    <glyph glyph-name="wgrave" unicode="&#x1e81;" horiz-adv-x="1613" 
d="M225 1080h283l-157 -736l48 -61h150l74 61l144 676h283l-144 -676l48 -61h150l74 61l157 736h283l-186 -874l-250 -206h-387l-81 102l-126 -102h-387l-162 206zM334 938l-141 -660l108 -138h277l175 144l113 -144h277l166 138l141 660h1l-141 -660l-167 -138h-277
l-114 144l126 594h1l-126 -594l-175 -144h-277l-109 138l141 660h1zM1051 1112h-247l-228 264h287zM875 1180l-93 126h1l93 -126h-1z" />
    <glyph glyph-name="Wacute" unicode="&#x1e82;" horiz-adv-x="1738" 
d="M274 1400h283l-237 -1116h44l377 996h502l-44 -996h43l237 1116h283l-298 -1400h-551l47 993h-48l-375 -993h-561zM384 1258l-238 -1117h299l383 982h260l-25 -982h288l238 1117h1l-238 -1117h-289l25 982h-260l-383 -982h-300l238 1117h1zM902 1432l300 264h287
l-340 -264h-247zM1106 1500h-1l147 126h1z" />
    <glyph glyph-name="wacute" unicode="&#x1e83;" horiz-adv-x="1613" 
d="M225 1080h283l-157 -736l48 -61h150l74 61l144 676h283l-144 -676l48 -61h150l74 61l157 736h283l-186 -874l-250 -206h-387l-81 102l-126 -102h-387l-162 206zM334 938l-141 -660l108 -138h277l175 144l113 -144h277l166 138l141 660h1l-141 -660l-167 -138h-277
l-114 144l126 594h1l-126 -594l-175 -144h-277l-109 138l141 660h1zM812 1112l300 264h287l-340 -264h-247zM1016 1180h-1l147 126h1z" />
    <glyph glyph-name="Wdieresis" unicode="&#x1e84;" horiz-adv-x="1738" 
d="M274 1400h283l-237 -1116h44l377 996h502l-44 -996h43l237 1116h283l-298 -1400h-551l47 993h-48l-375 -993h-561zM384 1258l-238 -1117h299l383 982h260l-25 -982h288l238 1117h1l-238 -1117h-289l25 982h-260l-383 -982h-300l238 1117h1zM1123 1452l44 210h212
l-44 -210h-212zM707 1452l44 210h212l-44 -210h-212zM832 1546h-1l4 20h1zM1250 1546h-1l4 20h1z" />
    <glyph glyph-name="wdieresis" unicode="&#x1e85;" horiz-adv-x="1613" 
d="M225 1080h283l-157 -736l48 -61h150l74 61l144 676h283l-144 -676l48 -61h150l74 61l157 736h283l-186 -874l-250 -206h-387l-81 102l-126 -102h-387l-162 206zM334 938l-141 -660l108 -138h277l175 144l113 -144h277l166 138l141 660h1l-141 -660l-167 -138h-277
l-114 144l126 594h1l-126 -594l-175 -144h-277l-109 138l141 660h1zM1033 1132l44 210h212l-44 -210h-212zM617 1132l44 210h212l-44 -210h-212zM742 1226h-1l4 20h1zM1160 1226h-1l4 20h1z" />
    <glyph glyph-name="uni1E8E" unicode="&#x1e8e;" horiz-adv-x="1294" 
d="M356 0l94 443l-318 382l122 575h283l-101 -473l214 -253h-19l323 253l101 473h283l-122 -575l-483 -382l-94 -443h-283zM528 142h-1l75 353l482 374l83 390h1l-83 -390l-483 -374v0l-322 374l83 390h1l-83 -390l322 -374zM701 1452l44 210h212l-44 -210h-212zM825 1542
h-1l6 28h1z" />
    <glyph glyph-name="uni1E8E" unicode="&#x1e8f;" horiz-adv-x="1294" 
d="M356 0l94 443l-318 382l122 575h283l-101 -473l214 -253h-19l323 253l101 473h283l-122 -575l-483 -382l-94 -443h-283zM528 142h-1l75 353l482 374l83 390h1l-83 -390l-483 -374v0l-322 374l83 390h1l-83 -390l322 -374zM701 1452l44 210h212l-44 -210h-212zM825 1542
h-1l6 28h1z" />
    <glyph glyph-name="uni1E92" unicode="&#x1e92;" horiz-adv-x="1123" 
d="M145 142h621v0h-621l57 264l737 601l54 252h-611v0h611l-54 -252l-737 -601zM-44 0l96 448l738 605l14 64h-590l60 283h893l-95 -444l-730 -597l-16 -76h603l-60 -283h-913zM249 -271l44 210h212l-44 -210h-212zM373 -181h-1l6 28h1z" />
    <glyph glyph-name="uni1E93" unicode="&#x1e93;" horiz-adv-x="1070" 
d="M196 142h554v0h-554l44 204l591 378l46 216h-533v0h533l-46 -216l-591 -378zM-5 0l85 399l593 368l7 30h-496l60 283h831l-87 -407l-584 -358l-7 -32h508l-60 -283h-850zM254 -271l44 210h212l-44 -210h-212zM378 -181h-1l6 28h1z" />
    <glyph glyph-name="uni1E97" unicode="&#x1e97;" horiz-adv-x="935" 
d="M179 0l170 798h-249l60 282h249l58 274h283l-58 -274h248l-60 -282h-248l-110 -515h241l-60 -283h-524zM351 143h258v-1h-258l170 800h263v-1h-263l61 288v0l-61 -287h-264l1 1h264zM724 1410l44 210h212l-44 -210h-212zM308 1410l44 210h212l-44 -210h-212zM433 1504h-1
l4 20h1zM851 1504h-1l4 20h1z" />
    <glyph glyph-name="uni1E9E" unicode="&#x1e9e;" horiz-adv-x="1306" 
d="M-39 0l254 1194l250 206h659l162 -206l-76 -357l-108 -89l121 -155l-78 -367l-274 -226h-375l60 283h237l99 81l21 101l-129 164l48 227l121 99l22 101l-48 61h-384l-74 -61l-225 -1056h-283zM129 142h-1l216 1013l122 104h597l72 -109l-56 -262l-108 -91l-23 -108
l117 -157l-54 -255l-170 -133h-206h1h205l170 133l54 255l-117 157l23 108l108 91l56 262l-72 109h-597l-121 -104z" />
    <glyph glyph-name="uni1EA0" unicode="&#x1ea0;" horiz-adv-x="1288" 
d="M-34 0l254 1194l250 206h646l162 -206l-254 -1194h-282l88 412h-494l-88 -412h-282zM137 142h-1l87 407h782l-87 -407h-1l211 993l-98 124h-530l-152 -124zM396 694h494l77 362l-48 61h-372l-74 -61zM223 548l124 587l153 125h530l99 -125l-124 -587h-782zM332 -271
l44 210h212l-44 -210h-212zM456 -181h-1l6 28h1z" />
    <glyph glyph-name="uni1EA1" unicode="&#x1ea1;" horiz-adv-x="1253" 
d="M201 0l-162 206l61 285l249 206h544l9 39l-48 61h-675l60 283h813l162 -206l-142 -668l-250 -206h-621zM304 138l-102 126l40 186l128 106h637l-60 -282l-166 -136h-477zM304 138h477l166 136l114 532l-103 128h-625v0h625l103 -128l-54 -250h-637l-128 -106l-40 -186z
M399 283h345l74 61l17 80h-426l-51 -42l-8 -38zM349 -271l44 210h212l-44 -210h-212zM473 -181h-1l6 28h1z" />
    <glyph glyph-name="uni1EA2" unicode="&#x1ea2;" horiz-adv-x="1288" 
d="M-34 0l254 1194l250 206h646l162 -206l-254 -1194h-282l88 412h-494l-88 -412h-282zM137 142h-1l87 407h782l-87 -407h-1l211 993l-98 124h-530l-152 -124zM396 694h494l77 362l-48 61h-372l-74 -61zM223 548l124 587l153 125h530l99 -125l-124 -587h-782zM640 1802h315
l123 -189l-203 -187h-244l33 157h134l37 30l-23 32h-205zM730 1725v0h157l74 -112l-122 -110h-85v0h85l122 110l-74 112h-157z" />
    <glyph glyph-name="uni1EA3" unicode="&#x1ea3;" horiz-adv-x="1253" 
d="M201 0l-162 206l61 285l249 206h544l9 39l-48 61h-675l60 283h813l162 -206l-142 -668l-250 -206h-621zM304 138l-102 126l40 186l128 106h637l-60 -282l-166 -136h-477zM304 138h477l166 136l114 532l-103 128h-625v0h625l103 -128l-54 -250h-637l-128 -106l-40 -186z
M399 283h345l74 61l17 80h-426l-51 -42l-8 -38zM589 1482h315l123 -189l-203 -187h-244l33 157h134l37 30l-23 32h-205zM679 1405v0h157l74 -112l-122 -110h-85v0h85l122 110l-74 112h-157z" />
    <glyph glyph-name="uni1EA4" unicode="&#x1ea4;" horiz-adv-x="1288" 
d="M-34 0l254 1194l250 206h646l162 -206l-254 -1194h-282l88 412h-494l-88 -412h-282zM137 142h-1l87 407h782l-87 -407h-1l211 993l-98 124h-530l-152 -124zM396 694h494l77 362l-48 61h-372l-74 -61zM223 548l124 587l153 125h530l99 -125l-124 -587h-782zM736 1716h252
l164 -284h-277l-50 108l-96 -108h-277zM787 1638l-110 -116v0l110 116h114l60 -116v0l-60 116h-114zM1039 1660l300 264h287l-340 -264h-247zM1243 1728h-1l147 126h1z" />
    <glyph glyph-name="uni1EA5" unicode="&#x1ea5;" horiz-adv-x="1253" 
d="M201 0l-162 206l61 285l249 206h544l9 39l-48 61h-675l60 283h813l162 -206l-142 -668l-250 -206h-621zM304 138l-102 126l40 186l128 106h637l-60 -282l-166 -136h-477zM304 138h477l166 136l114 532l-103 128h-625v0h625l103 -128l-54 -250h-637l-128 -106l-40 -186z
M399 283h345l74 61l17 80h-426l-51 -42l-8 -38zM685 1396h252l164 -284h-277l-50 108l-96 -108h-277zM736 1318l-110 -116v0l110 116h114l60 -116v0l-60 116h-114zM988 1340l300 264h287l-340 -264h-247zM1192 1408h-1l147 126h1z" />
    <glyph glyph-name="uni1EA6" unicode="&#x1ea6;" horiz-adv-x="1288" 
d="M-34 0l254 1194l250 206h646l162 -206l-254 -1194h-282l88 412h-494l-88 -412h-282zM137 142h-1l87 407h782l-87 -407h-1l211 993l-98 124h-530l-152 -124zM396 694h494l77 362l-48 61h-372l-74 -61zM223 548l124 587l153 125h530l99 -125l-124 -587h-782zM732 1716h252
l164 -284h-277l-50 108l-96 -108h-277zM783 1638l-110 -116v0l110 116h114l60 -116v0l-60 116h-114zM1310 1660h-247l-228 264h287zM1134 1728l-93 126h1l93 -126h-1z" />
    <glyph glyph-name="uni1EA7" unicode="&#x1ea7;" horiz-adv-x="1253" 
d="M201 0l-162 206l61 285l249 206h544l9 39l-48 61h-675l60 283h813l162 -206l-142 -668l-250 -206h-621zM304 138l-102 126l40 186l128 106h637l-60 -282l-166 -136h-477zM304 138h477l166 136l114 532l-103 128h-625v0h625l103 -128l-54 -250h-637l-128 -106l-40 -186z
M399 283h345l74 61l17 80h-426l-51 -42l-8 -38zM681 1396h252l164 -284h-277l-50 108l-96 -108h-277zM732 1318l-110 -116v0l110 116h114l60 -116v0l-60 116h-114zM1259 1340h-247l-228 264h287zM1083 1408l-93 126h1l93 -126h-1z" />
    <glyph glyph-name="uni1EA8" unicode="&#x1ea8;" horiz-adv-x="1288" 
d="M-34 0l254 1194l250 206h646l162 -206l-254 -1194h-282l88 412h-494l-88 -412h-282zM137 142h-1l87 407h782l-87 -407h-1l211 993l-98 124h-530l-152 -124zM396 694h494l77 362l-48 61h-372l-74 -61zM223 548l124 587l153 125h530l99 -125l-124 -587h-782zM728 1716h252
l164 -284h-277l-50 108l-96 -108h-277zM779 1638l-110 -116v0l110 116h114l60 -116v0l-60 116h-114zM1066 1999h315l123 -189l-203 -187h-244l33 157h134l37 30l-23 32h-205zM1156 1922v0h157l74 -112l-122 -110h-85v0h85l122 110l-74 112h-157z" />
    <glyph glyph-name="uni1EA9" unicode="&#x1ea9;" horiz-adv-x="1253" 
d="M201 0l-162 206l61 285l249 206h544l9 39l-48 61h-675l60 283h813l162 -206l-142 -668l-250 -206h-621zM304 138l-102 126l40 186l128 106h637l-60 -282l-166 -136h-477zM304 138h477l166 136l114 532l-103 128h-625v0h625l103 -128l-54 -250h-637l-128 -106l-40 -186z
M399 283h345l74 61l17 80h-426l-51 -42l-8 -38zM677 1396h252l164 -284h-277l-50 108l-96 -108h-277zM728 1318l-110 -116v0l110 116h114l60 -116v0l-60 116h-114zM1015 1679h315l123 -189l-203 -187h-244l33 157h134l37 30l-23 32h-205zM1105 1602v0h157l74 -112l-122 -110
h-85v0h85l122 110l-74 112h-157z" />
    <glyph glyph-name="uni1EAA" unicode="&#x1eaa;" horiz-adv-x="1288" 
d="M-34 0l254 1194l250 206h646l162 -206l-254 -1194h-282l88 412h-494l-88 -412h-282zM137 142h-1l87 407h782l-87 -407h-1l211 993l-98 124h-530l-152 -124zM396 694h494l77 362l-48 61h-372l-74 -61zM223 548l124 587l153 125h530l99 -125l-124 -587h-782zM730 1716h252
l164 -284h-277l-50 108l-96 -108h-277zM781 1638l-110 -116v0l110 116h114l60 -116v0l-60 116h-114zM588 1748l29 136l135 112h178l44 -56h18l12 56h192l-29 -136l-135 -112h-178l-44 56h-18l-12 -56h-192zM702 1818h-1l4 20l81 72h82l48 -74h88l82 72l4 20h1l-4 -20
l-83 -72h-88l-48 74h-82l-80 -72z" />
    <glyph glyph-name="uni1EAB" unicode="&#x1eab;" horiz-adv-x="1253" 
d="M201 0l-162 206l61 285l249 206h544l9 39l-48 61h-675l60 283h813l162 -206l-142 -668l-250 -206h-621zM304 138l-102 126l40 186l128 106h637l-60 -282l-166 -136h-477zM304 138h477l166 136l114 532l-103 128h-625v0h625l103 -128l-54 -250h-637l-128 -106l-40 -186z
M399 283h345l74 61l17 80h-426l-51 -42l-8 -38zM679 1396h252l164 -284h-277l-50 108l-96 -108h-277zM730 1318l-110 -116v0l110 116h114l60 -116v0l-60 116h-114zM537 1428l29 136l135 112h178l44 -56h18l12 56h192l-29 -136l-135 -112h-178l-44 56h-18l-12 -56h-192z
M651 1498h-1l4 20l81 72h82l48 -74h88l82 72l4 20h1l-4 -20l-83 -72h-88l-48 74h-82l-80 -72z" />
    <glyph glyph-name="uni1EAC" unicode="&#x1eac;" horiz-adv-x="1288" 
d="M-34 0l254 1194l250 206h646l162 -206l-254 -1194h-282l88 412h-494l-88 -412h-282zM137 142h-1l87 407h782l-87 -407h-1l211 993l-98 124h-530l-152 -124zM396 694h494l77 362l-48 61h-372l-74 -61zM223 548l124 587l153 125h530l99 -125l-124 -587h-782zM332 -271
l44 210h212l-44 -210h-212zM456 -181h-1l6 28h1zM730 1716h252l164 -284h-277l-50 108l-96 -108h-277zM781 1638l-110 -116v0l110 116h114l60 -116v0l-60 116h-114z" />
    <glyph glyph-name="uni1EAD" unicode="&#x1ead;" horiz-adv-x="1253" 
d="M201 0l-162 206l61 285l249 206h544l9 39l-48 61h-675l60 283h813l162 -206l-142 -668l-250 -206h-621zM304 138l-102 126l40 186l128 106h637l-60 -282l-166 -136h-477zM304 138h477l166 136l114 532l-103 128h-625v0h625l103 -128l-54 -250h-637l-128 -106l-40 -186z
M399 283h345l74 61l17 80h-426l-51 -42l-8 -38zM349 -271l44 210h212l-44 -210h-212zM473 -181h-1l6 28h1zM679 1396h252l164 -284h-277l-50 108l-96 -108h-277zM730 1318l-110 -116v0l110 116h114l60 -116v0l-60 116h-114z" />
    <glyph glyph-name="uni1EAE" unicode="&#x1eae;" horiz-adv-x="1288" 
d="M-34 0l254 1194l250 206h646l162 -206l-254 -1194h-282l88 412h-494l-88 -412h-282zM137 142h-1l87 407h782l-87 -407h-1l211 993l-98 124h-530l-152 -124zM396 694h494l77 362l-48 61h-372l-74 -61zM223 548l124 587l153 125h530l99 -125l-124 -587h-782zM681 1432
l-89 112l33 156h192l-16 -76h78l16 76h192l-33 -156l-135 -112h-238zM751 1520h136l82 72l5 26v0l-5 -26l-82 -72h-136l-50 72l5 26v0l-5 -26zM748 1732l300 264h287l-340 -264h-247zM952 1800h-1l147 126h1z" />
    <glyph glyph-name="uni1EAF" unicode="&#x1eaf;" horiz-adv-x="1253" 
d="M201 0l-162 206l61 285l249 206h544l9 39l-48 61h-675l60 283h813l162 -206l-142 -668l-250 -206h-621zM304 138l-102 126l40 186l128 106h637l-60 -282l-166 -136h-477zM304 138h477l166 136l114 532l-103 128h-625v0h625l103 -128l-54 -250h-637l-128 -106l-40 -186z
M399 283h345l74 61l17 80h-426l-51 -42l-8 -38zM630 1112l-89 112l33 156h192l-16 -76h78l16 76h192l-33 -156l-135 -112h-238zM700 1200h136l82 72l5 26v0l-5 -26l-82 -72h-136l-50 72l5 26v0l-5 -26zM697 1412l300 264h287l-340 -264h-247zM901 1480h-1l147 126h1z" />
    <glyph glyph-name="uni1EB0" unicode="&#x1eb0;" horiz-adv-x="1288" 
d="M-34 0l254 1194l250 206h646l162 -206l-254 -1194h-282l88 412h-494l-88 -412h-282zM137 142h-1l87 407h782l-87 -407h-1l211 993l-98 124h-530l-152 -124zM396 694h494l77 362l-48 61h-372l-74 -61zM223 548l124 587l153 125h530l99 -125l-124 -587h-782zM681 1432
l-89 112l33 156h192l-16 -76h78l16 76h192l-33 -156l-135 -112h-238zM751 1520h136l82 72l5 26v0l-5 -26l-82 -72h-136l-50 72l5 26v0l-5 -26zM987 1732h-247l-228 264h287zM811 1800l-93 126h1l93 -126h-1z" />
    <glyph glyph-name="uni1EB1" unicode="&#x1eb1;" horiz-adv-x="1253" 
d="M201 0l-162 206l61 285l249 206h544l9 39l-48 61h-675l60 283h813l162 -206l-142 -668l-250 -206h-621zM304 138l-102 126l40 186l128 106h637l-60 -282l-166 -136h-477zM304 138h477l166 136l114 532l-103 128h-625v0h625l103 -128l-54 -250h-637l-128 -106l-40 -186z
M399 283h345l74 61l17 80h-426l-51 -42l-8 -38zM630 1112l-89 112l33 156h192l-16 -76h78l16 76h192l-33 -156l-135 -112h-238zM700 1200h136l82 72l5 26v0l-5 -26l-82 -72h-136l-50 72l5 26v0l-5 -26zM936 1412h-247l-228 264h287zM760 1480l-93 126h1l93 -126h-1z" />
    <glyph glyph-name="uni1EB2" unicode="&#x1eb2;" horiz-adv-x="1288" 
d="M-34 0l254 1194l250 206h646l162 -206l-254 -1194h-282l88 412h-494l-88 -412h-282zM137 142h-1l87 407h782l-87 -407h-1l211 993l-98 124h-530l-152 -124zM396 694h494l77 362l-48 61h-372l-74 -61zM223 548l124 587l153 125h530l99 -125l-124 -587h-782zM681 1432
l-89 112l33 156h192l-16 -76h78l16 76h192l-33 -156l-135 -112h-238zM751 1520h136l82 72l5 26v0l-5 -26l-82 -72h-136l-50 72l5 26v0l-5 -26zM704 2102h315l123 -189l-203 -187h-244l33 157h134l37 30l-23 32h-205zM794 2025v0h157l74 -112l-122 -110h-85v0h85l122 110
l-74 112h-157z" />
    <glyph glyph-name="uni1EB3" unicode="&#x1eb3;" horiz-adv-x="1253" 
d="M201 0l-162 206l61 285l249 206h544l9 39l-48 61h-675l60 283h813l162 -206l-142 -668l-250 -206h-621zM304 138l-102 126l40 186l128 106h637l-60 -282l-166 -136h-477zM304 138h477l166 136l114 532l-103 128h-625v0h625l103 -128l-54 -250h-637l-128 -106l-40 -186z
M399 283h345l74 61l17 80h-426l-51 -42l-8 -38zM630 1112l-89 112l33 156h192l-16 -76h78l16 76h192l-33 -156l-135 -112h-238zM700 1200h136l82 72l5 26v0l-5 -26l-82 -72h-136l-50 72l5 26v0l-5 -26zM653 1782h315l123 -189l-203 -187h-244l33 157h134l37 30l-23 32h-205z
M743 1705v0h157l74 -112l-122 -110h-85v0h85l122 110l-74 112h-157z" />
    <glyph glyph-name="uni1EB4" unicode="&#x1eb4;" horiz-adv-x="1288" 
d="M-34 0l254 1194l250 206h646l162 -206l-254 -1194h-282l88 412h-494l-88 -412h-282zM137 142h-1l87 407h782l-87 -407h-1l211 993l-98 124h-530l-152 -124zM396 694h494l77 362l-48 61h-372l-74 -61zM223 548l124 587l153 125h530l99 -125l-124 -587h-782zM681 1432
l-89 112l33 156h192l-16 -76h78l16 76h192l-33 -156l-135 -112h-238zM751 1520h136l82 72l5 26v0l-5 -26l-82 -72h-136l-50 72l5 26v0l-5 -26zM588 1732l29 136l135 112h178l44 -56h18l12 56h192l-29 -136l-135 -112h-178l-44 56h-18l-12 -56h-192zM702 1802h-1l4 20l81 72
h82l48 -74h88l82 72l4 20h1l-4 -20l-83 -72h-88l-48 74h-82l-80 -72z" />
    </font>
</defs>
</svg>
