<svg width="126" height="126" viewBox="0 0 126 126" fill="none" xmlns="http://www.w3.org/2000/svg">
<path d="M88.702 5.2959C84.922 5.2959 81.644 6.04403 78.622 6.80199C83.9179 9.06606 87.1959 11.842 88.9579 13.102C92.9939 16.6261 95.2579 20.16 99.2938 25.9579C100.042 27.2179 101.302 28.98 102.06 31.7461C102.818 34.2661 102.818 36.284 102.818 38.302C102.818 41.0779 102.562 43.342 102.306 45.6061C102.06 47.3779 102.06 48.1359 101.814 48.6379C101.814 48.8939 101.814 49.14 101.558 49.642C101.558 50.902 101.558 51.4139 101.814 52.4179C101.814 53.422 102.06 54.4359 102.06 56.1979C102.316 59.4759 102.316 61.74 101.814 64.5061V65.52C101.302 67.784 100.8 70.0579 99.5399 72.0661C99.7959 72.5779 100.042 72.824 100.298 73.3261C101.558 71.564 102.562 69.802 103.566 67.7939C106.598 62.242 108.36 57.4579 109.62 53.9339C111.884 47.3779 113.144 42.584 113.902 39.06C115.664 31.5 115.92 27.9759 115.162 23.94C115.162 22.68 114.66 20.4061 113.4 18.142C110.624 13.102 106.342 10.8379 103.32 9.32199C101.302 8.31793 96.006 5.54199 88.702 5.2959ZM34.1085 6.40824C31.2046 6.34918 27.6609 6.67403 23.684 8.56403C22.424 9.0759 18.644 10.8379 15.622 14.864C13.604 17.384 12.0979 21.164 11.3399 25.4461C10.582 29.2261 10.326 33.7739 11.842 42.3379C12.846 48.382 13.8599 52.4179 15.8779 60.7261C16.1338 61.74 17.6399 66.2779 20.9179 76.3579L21.164 76.86C21.6759 78.622 23.182 82.402 26.4599 86.182C28.724 88.702 30.742 90.2179 32.5138 90.2179H33.006C36.284 90.2179 38.5579 87.6979 40.566 85.68C40.566 85.424 45.3599 79.6359 47.122 77.6179C46.866 77.362 46.3739 77.362 46.1179 77.1061C43.0959 75.344 40.822 72.5779 39.0599 69.5461C36.0379 64.004 36.284 58.462 36.786 55.6861L37.042 51.4139C36.0379 44.602 36.2938 38.0559 37.5538 31.5C38.5579 25.9579 39.8179 20.4159 44.346 14.6179C45.862 12.6 47.624 10.8379 49.386 9.57793C45.3599 7.8159 41.0779 6.80199 36.786 6.5559C35.969 6.48699 35.0732 6.42793 34.1085 6.40824ZM65.766 8.56403C64.506 8.56403 63.246 8.56403 61.986 8.81996C56.946 9.82403 52.162 12.6 48.382 17.384C44.602 22.1779 43.5979 26.7061 42.5938 32.002C42.082 34.02 42.082 35.782 41.826 37.8C43.342 36.54 45.3599 35.024 48.382 34.2661C50.144 33.764 54.682 32.2579 58.462 34.522C59.722 35.28 61.484 36.7959 63.246 41.0779C67.026 51.66 63.2559 62.4979 62.7539 63.502C62.4979 64.5061 61.9959 65.264 61.7399 65.7661C61.2379 67.0261 60.7359 68.04 60.2339 70.0579C59.9779 71.82 59.722 73.3359 59.722 75.0979C60.4799 75.0979 61.2379 75.344 61.986 75.8461C63.246 77.1061 63.502 78.8779 63.7579 79.6261C64.2599 83.662 64.2599 88.702 64.2599 93.742C64.2599 97.7779 64.2599 101.558 64.506 104.078C65.0179 109.876 66.7799 113.902 69.2999 115.92C71.062 117.436 73.326 117.426 74.586 117.682H75.0979C78.8779 117.682 84.922 115.162 87.186 111.638C88.446 109.62 88.9579 107.858 89.4599 105.338C89.7159 103.822 89.706 103.074 89.962 101.558C89.962 100.8 90.2179 99.54 90.2179 98.0339C90.2179 96.7739 90.464 95.2579 90.7199 93.4861C90.9759 89.204 91.724 84.1739 91.9799 81.3979C92.2359 78.12 93.742 75.344 95.002 73.582C93.2399 73.326 91.4779 71.82 90.4739 69.3C88.9579 66.524 88.702 65.7661 88.446 64.5061C88.2 63.502 87.6979 62.242 85.926 58.462C82.146 49.8979 81.6539 47.3779 81.6539 45.36C81.3979 42.584 81.142 38.8139 84.1739 36.2939C88.702 32.2579 94.4999 32.5139 97.522 33.5179V33.0061C97.0199 30.9979 96.0159 29.482 95.2579 28.4779C91.4779 22.68 89.4599 19.6579 85.926 16.6359C84.4199 15.3759 80.6399 12.344 75.0979 10.3359C72.5779 9.57793 69.546 8.56403 65.766 8.56403ZM93.6238 38.115C91.7929 37.987 89.4599 38.302 87.442 40.0739C86.4379 41.0779 86.4379 43.0959 86.6939 44.8579C86.6939 46.1179 86.9399 47.88 90.7199 56.4539C92.482 60.48 92.984 61.74 93.2399 62.7539C93.4959 63.7579 93.742 64.26 95.2579 67.0261C95.5138 67.5379 95.7599 68.04 96.262 68.542C96.764 67.784 97.0199 66.524 97.266 64.5061L97.522 63.7579C98.024 61.4939 97.7779 59.722 97.7779 56.7C97.7779 55.184 97.522 54.18 97.522 53.422C97.266 52.162 97.266 51.1579 97.266 49.642C96.764 48.884 96.764 48.6379 97.0199 48.1261C97.0199 47.624 97.266 46.8759 97.522 45.36C97.7779 43.342 98.0339 41.58 98.0339 39.562C97.522 39.3061 97.2759 39.06 96.7738 38.8139C96.7738 38.8139 95.4449 38.2429 93.6238 38.115ZM54.2193 39.1092C52.6148 38.9221 50.774 39.4439 49.642 39.8179C46.866 40.5759 45.1138 42.3379 43.8539 43.342C43.0959 44.1 42.3379 44.8579 41.5799 45.862C41.5799 47.624 41.826 49.3959 42.082 51.1579V51.4139L41.5799 56.4539C41.0779 58.7179 40.822 63 43.342 67.282C44.602 69.802 46.3739 71.82 48.6379 73.08C50.1539 74.084 52.162 74.842 54.426 75.3539C54.426 73.582 54.682 71.564 54.9379 69.802C55.4399 67.282 55.942 66.022 56.6999 64.5061C56.9559 63.7579 57.202 63.2559 57.7139 62.4979C57.9599 61.74 61.484 52.162 58.206 43.342C57.4579 41.324 56.6999 40.064 55.686 39.562C55.2529 39.3061 54.741 39.1682 54.2193 39.1092ZM91.1924 40.5464C91.852 40.507 92.482 40.5661 92.7379 40.822C93.4959 41.324 92.482 42.584 92.226 42.84C91.9799 43.0959 91.4779 43.5979 90.7199 43.8539C89.7159 44.1 88.9579 43.342 88.702 43.342C88.446 43.0861 87.6979 42.3379 87.9538 41.58C88.1999 41.0779 88.4559 41.0779 89.4599 40.822C89.834 40.694 90.5329 40.5759 91.1924 40.5464ZM53.3137 42.6332C54.1603 42.5742 54.869 42.899 55.4399 43.0861C56.1979 43.342 56.946 43.5979 56.946 44.1C57.202 44.8579 56.4539 45.36 56.1979 45.6061C55.4399 46.364 54.1799 46.3739 54.1799 46.3739C52.9199 46.3739 52.162 45.6159 51.6599 44.8579C51.404 44.602 51.1579 44.1 51.4138 43.5979C51.6599 43.0959 52.162 42.84 52.4179 42.84C52.7329 42.712 53.0282 42.6529 53.3137 42.6332ZM99.5399 75.6C98.2799 77.362 96.5179 79.6359 96.262 82.6579C96.262 83.16 96.262 83.4159 96.006 83.9179C98.024 84.42 99.7959 84.42 101.558 84.1739C105.594 83.662 108.36 81.644 108.862 81.142C110.624 79.882 112.898 77.362 112.386 76.3579C112.14 75.8559 111.382 76.102 107.346 76.3579C106.342 76.3579 103.32 77.1159 101.302 76.6139H100.8C100.298 76.3579 99.7959 76.102 99.5399 75.6ZM55.686 80.64C55.184 81.3979 54.4359 81.9 53.9338 82.402C51.9159 83.662 49.386 84.6759 46.866 85.1779C44.602 85.9359 43.342 85.9359 43.342 86.6939C43.086 87.6979 45.606 88.9579 46.866 89.46C51.1579 91.222 55.4399 90.2179 56.1979 89.962C56.6999 89.7061 57.9599 89.204 59.2199 88.4461C59.2199 85.68 58.9739 83.16 58.7179 81.142V80.8861H58.462C57.704 80.8861 56.6999 80.8959 55.686 80.64Z" fill="#326790"/>
</svg>
