<svg width="126" height="126" viewBox="0 0 126 126" fill="none" xmlns="http://www.w3.org/2000/svg">
<path d="M96.9665 74.2824C96.893 71.9811 96.5259 69.754 95.9385 67.6012C94.3965 61.8108 91.3859 56.7628 87.4943 52.3087C84.4103 48.7454 81.1795 45.3306 78.0221 41.7673L59.9588 21.8721C58.7839 20.5359 57.5357 19.2739 56.1405 18.0861C53.644 16.0075 50.7803 15.7106 47.6963 16.6014C46.8152 16.8984 46.0075 17.3438 45.1998 17.7892C44.6858 18.0861 44.1718 18.5315 43.7312 19.0512C42.0424 21.0556 41.7486 23.4311 42.0424 25.8809C42.2626 27.9595 43.2906 29.6669 44.6123 31.1516C47.2557 34.0468 49.8992 36.9419 52.4691 39.8371L54.7454 42.3611L54.5985 42.5096L54.0111 42.8065C48.5774 45.4048 43.5843 48.6712 39.2521 52.9026C36.3884 55.7235 33.8919 58.7672 32.1296 62.4789C29.4128 68.2693 28.6785 74.3566 29.119 80.5924C29.3393 83.2649 29.9267 85.7889 30.8813 88.2387C32.4233 92.3216 34.773 95.8107 37.7101 99.0028C43.8781 105.684 51.5146 109.322 60.5462 109.841C62.3085 109.915 64.0708 109.841 65.833 109.767C68.1827 109.618 70.459 109.247 72.8087 108.653C79.2703 107.02 84.6306 103.531 88.816 98.3347C94.6902 91.4308 97.3336 83.3391 96.9665 74.2824ZM83.8229 77.9942C82.7949 80.7409 81.106 83.1164 78.9766 85.1208C74.6444 89.2779 70.3121 93.4351 65.9064 97.5923C64.9519 98.4831 63.9973 99.374 62.9693 100.116C60.2525 102.046 55.7734 100.71 54.5251 97.1469C54.0845 95.9591 54.3048 94.6971 54.8923 93.5094C55.7 91.802 56.8748 90.3172 58.1965 88.981C60.1791 86.9024 62.2351 84.8981 64.291 82.8195L64.7316 82.3741H57.4622C55.7 82.3741 53.9377 82.4483 52.102 82.4483C49.8257 82.4483 47.476 82.3741 45.1998 82.2256C44.3921 82.2256 43.5109 82.1513 42.7032 82.0029C40.4269 81.4832 39.1052 79.9243 38.7381 77.6972C38.2975 75.3217 38.8115 73.1689 40.5738 71.4614C41.5284 70.5706 42.7032 70.1252 43.9515 70.051C46.0075 69.9767 48.1369 69.9767 50.1929 69.9767H64.7316C63.9973 69.2344 63.263 68.4178 62.5288 67.6012C60.4728 65.5226 58.3434 63.5182 56.2874 61.3654C55.0391 60.0292 54.2314 58.4702 54.0845 56.6143C54.0111 55.7235 54.3048 54.9069 54.7454 54.0903C55.9202 52.1602 57.6825 51.2694 59.8854 51.1209C61.9413 50.9725 63.6302 51.8633 65.0987 53.2737C67.4484 55.5008 69.6513 57.8763 71.9275 60.1776C74.3507 62.6274 76.7004 65.003 79.0501 67.4527C80.592 69.0117 81.9872 70.7191 83.0886 72.6492C83.676 73.6885 84.1166 74.802 84.19 76.064C84.1166 76.8064 84.0432 77.4745 83.8229 77.9942Z" fill="#F9672B"/>
</svg>
