<svg width="126" height="126" viewBox="0 0 126 126" fill="none" xmlns="http://www.w3.org/2000/svg">
<g clip-path="url(#clip0)">
<path d="M124.759 52.1001C124.421 51.8335 121.232 49.4546 114.495 49.4546C112.721 49.4648 110.947 49.6084 109.204 49.9058C107.902 41.0977 100.755 36.9653 100.417 36.7705L98.6119 35.7451L97.4224 37.437C95.9356 39.7031 94.6231 42.0513 93.9874 44.6865C92.7774 49.7109 93.5054 54.4277 96.0997 58.4678C92.9722 60.1904 87.6402 60.334 86.6251 60.375H4.15289C1.98932 60.375 0.225648 62.1079 0.215394 64.2407C0.112855 71.4185 1.13825 78.8218 3.6402 85.5586C6.50104 92.9517 10.7564 98.4067 16.2833 101.739C22.4869 105.482 32.5665 107.625 43.9893 107.625C49.147 107.646 54.2945 107.184 59.3599 106.251C66.4146 104.969 73.2027 102.539 79.4371 99.0527C84.5743 96.1201 89.1988 92.3877 93.1363 87.9888C99.7091 80.647 103.626 72.4746 106.548 65.2046C106.938 65.2046 107.328 65.2046 107.707 65.2046C114.905 65.2046 119.335 62.3643 121.775 59.9751C123.396 58.4575 124.657 56.6118 125.487 54.561L126 53.064L124.759 52.1001Z" fill="#2496ED"/>
<path d="M21 57.75H13.125C11.6792 57.75 10.5 56.5708 10.5 55.125V47.25C10.5 45.8042 11.6792 44.625 13.125 44.625H21C22.4458 44.625 23.625 45.8042 23.625 47.25V55.125C23.625 56.5708 22.4458 57.75 21 57.75Z" fill="#2496ED"/>
<path d="M36.75 57.75H28.875C27.4292 57.75 26.25 56.5708 26.25 55.125V47.25C26.25 45.8042 27.4292 44.625 28.875 44.625H36.75C38.1958 44.625 39.375 45.8042 39.375 47.25V55.125C39.375 56.5708 38.1958 57.75 36.75 57.75Z" fill="#2496ED"/>
<path d="M52.5 57.75H44.625C43.1792 57.75 42 56.5708 42 55.125V47.25C42 45.8042 43.1792 44.625 44.625 44.625H52.5C53.9458 44.625 55.125 45.8042 55.125 47.25V55.125C55.125 56.5708 53.9458 57.75 52.5 57.75Z" fill="#2496ED"/>
<path d="M68.25 57.75H60.375C58.9292 57.75 57.75 56.5708 57.75 55.125V47.25C57.75 45.8042 58.9292 44.625 60.375 44.625H68.25C69.6958 44.625 70.875 45.8042 70.875 47.25V55.125C70.875 56.5708 69.6958 57.75 68.25 57.75Z" fill="#2496ED"/>
<path d="M36.75 42H28.875C27.4292 42 26.25 40.8208 26.25 39.375V31.5C26.25 30.0542 27.4292 28.875 28.875 28.875H36.75C38.1958 28.875 39.375 30.0542 39.375 31.5V39.375C39.375 40.8208 38.1958 42 36.75 42Z" fill="#2496ED"/>
<path d="M52.5 42H44.625C43.1792 42 42 40.8208 42 39.375V31.5C42 30.0542 43.1792 28.875 44.625 28.875H52.5C53.9458 28.875 55.125 30.0542 55.125 31.5V39.375C55.125 40.8208 53.9458 42 52.5 42Z" fill="#2496ED"/>
<path d="M68.25 42H60.375C58.9292 42 57.75 40.8208 57.75 39.375V31.5C57.75 30.0542 58.9292 28.875 60.375 28.875H68.25C69.6958 28.875 70.875 30.0542 70.875 31.5V39.375C70.875 40.8208 69.6958 42 68.25 42Z" fill="#2496ED"/>
<path d="M68.25 26.25H60.375C58.9292 26.25 57.75 25.0708 57.75 23.625V15.75C57.75 14.3042 58.9292 13.125 60.375 13.125H68.25C69.6958 13.125 70.875 14.3042 70.875 15.75V23.625C70.875 25.0708 69.6958 26.25 68.25 26.25Z" fill="#2496ED"/>
<path d="M84 57.75H76.125C74.6792 57.75 73.5 56.5708 73.5 55.125V47.25C73.5 45.8042 74.6792 44.625 76.125 44.625H84C85.4458 44.625 86.625 45.8042 86.625 47.25V55.125C86.625 56.5708 85.4458 57.75 84 57.75Z" fill="#2496ED"/>
</g>
<defs>
<clipPath id="clip0">
<rect width="126" height="126" fill="white"/>
</clipPath>
</defs>
</svg>
