<svg width="672" height="126" viewBox="0 0 672 126" fill="none" xmlns="http://www.w3.org/2000/svg">
<path d="M515.289 70.0131C515.289 92.3171 502.452 102.098 482.628 102.098C462.804 102.098 450.329 92.1264 450.329 70.5139V62.6183C450.329 40.314 463.189 30.5576 483.013 30.5576C502.837 30.5576 515.289 40.5288 515.289 62.141V70.0131ZM495.683 62.5227C495.683 52.5515 490.6 47.8282 482.821 47.8282C475.041 47.8282 469.958 52.3608 469.958 62.141V70.2041C469.958 80.1753 475.041 84.9223 482.821 84.9223C490.6 84.9223 495.683 80.366 495.683 70.6096V62.5227Z" fill="black"/>
<path d="M593.161 70.0131C593.161 92.3171 580.324 102.098 560.477 102.098C540.627 102.098 528.126 92.1264 528.126 70.5139V62.6183C528.126 40.314 540.989 30.5576 560.813 30.5576C580.637 30.5576 593.161 40.5288 593.161 62.141V70.0131ZM573.532 62.5227C573.532 52.5515 568.449 47.8282 560.692 47.8282C552.935 47.8282 547.829 52.3608 547.829 62.141V70.2041C547.829 80.1753 552.912 84.9223 560.692 84.9223C568.472 84.9223 573.532 80.366 573.532 70.6096V62.5227Z" fill="black"/>
<path d="M64.962 31.7266H45.3313V70.6096C45.3313 80.1515 40.2491 84.9223 32.4932 84.9223C24.7372 84.9223 19.6308 80.1515 19.6308 70.2041V31.7266H0V70.5142C0 92.1264 12.4529 102.098 32.2764 102.098C52.0998 102.098 64.962 92.3174 64.962 70.0131V60.0181V31.7266Z" fill="black"/>
<path d="M144.52 100.905V62.1409C144.52 40.5288 132.067 30.5576 112.244 30.5576C92.4202 30.5576 79.5577 40.314 79.5577 62.6183V100.905H99.1884V62.0456C99.1884 52.3608 104.271 47.7328 112.051 47.7328C119.831 47.7328 124.889 52.5039 124.889 62.4273V100.809L144.52 100.905Z" fill="black"/>
<path d="M203.196 0V32.2514C199.086 31.0813 194.826 30.5109 190.55 30.5579C170.703 30.5579 157.865 40.3143 157.865 62.6183V70.5142C157.865 92.1263 170.318 102.098 190.141 102.098C209.964 102.098 222.827 92.3173 222.827 70.0133V62.0221V0H203.196ZM203.196 70.6095C203.196 80.1515 198.114 84.9223 190.334 84.9223C182.554 84.9223 177.495 80.1515 177.495 70.204V62.1412C177.495 52.4564 182.578 47.8285 190.334 47.8285C198.09 47.8285 203.196 52.5993 203.196 62.5229V70.6095Z" fill="black"/>
<path d="M345.885 30.5578C326.038 30.5578 313.201 40.3142 313.201 62.6182V100.905H332.83V62.0457C332.83 52.3609 338.105 47.733 345.885 47.733H358.891V30.4624L345.885 30.5578Z" fill="black"/>
<path d="M404.538 30.5579C400.121 30.4972 395.722 31.0922 391.483 32.323V0H371.851V100.905H391.483V62.0458C391.483 52.3607 396.566 47.7331 404.346 47.7331C412.126 47.7331 417.183 52.5039 417.183 62.4276V100.809H436.814V62.1412C436.814 40.529 424.362 30.5579 404.538 30.5579Z" fill="black"/>
<path d="M651.185 0V32.2514C647.067 31.0813 642.8 30.5109 638.518 30.5579C618.694 30.5579 605.831 40.3143 605.831 62.6183V70.5142C605.831 92.1263 618.283 102.098 638.13 102.098C657.98 102.098 670.817 92.3173 670.817 70.0133V62.0221V0H651.185ZM651.185 70.6095C651.185 80.1515 646.105 84.9223 638.322 84.9223C630.543 84.9223 625.463 80.1515 625.463 70.204V62.1412C625.463 52.4564 630.543 47.8285 638.322 47.8285C646.105 47.8285 651.185 52.5993 651.185 62.5229V70.6095Z" fill="black"/>
<path d="M267.991 30.5576C248.167 30.5576 235.305 40.314 235.305 62.6183V70.5139C235.305 92.1264 247.782 102.098 267.605 102.098H285.381V84.827H267.798C261.27 84.827 256.67 81.4155 255.369 73.4958H300.051C300.246 72.3455 300.327 71.1792 300.292 70.0131V62.141C300.172 40.5288 287.717 30.5576 267.991 30.5576ZM267.798 47.8282C274.326 47.8282 280.227 50.9533 280.227 59.1593H255.152C255.658 50.9533 261.03 47.8282 267.677 47.8282H267.798Z" fill="black"/>
<path d="M64.962 114.263H0V126H64.962V114.263Z" fill="url(#paint0_linear)"/>
<defs>
<linearGradient id="paint0_linear" x1="1.95103" y1="120.131" x2="66.1664" y2="120.131" gradientUnits="userSpaceOnUse">
<stop stop-color="#3366CC"/>
<stop offset="0.465276" stop-color="#CC3333"/>
<stop offset="1" stop-color="#FFFF00"/>
</linearGradient>
</defs>
</svg>
