<svg width="126" height="126" viewBox="0 0 126 126" fill="none" xmlns="http://www.w3.org/2000/svg">
<path d="M113.925 34.2813C113.977 34.3863 113.977 34.5438 113.977 34.7013V57.2238C113.977 57.7488 113.662 58.3788 113.19 58.6413L94.2374 69.5613V91.1388C94.2374 91.7163 93.9749 92.2413 93.4499 92.5563L53.9699 115.289C53.8649 115.341 53.7599 115.499 53.6549 115.499H53.5499C53.2874 115.499 52.9724 115.499 52.7099 115.499C52.6574 115.499 52.4999 115.499 52.4999 115.499C52.4999 115.499 52.4999 115.341 52.2899 115.289L12.8099 92.5563C12.3374 92.2938 12.0224 91.7163 12.0224 91.1388V23.6238C12.0224 23.3613 12.0224 23.2038 12.0749 23.0988C12.0749 23.0463 12.1274 22.9938 12.1274 22.9413C12.1274 22.8363 12.1799 22.7838 12.2324 22.6788C12.2324 22.6263 12.2849 22.5738 12.3374 22.5213C12.3899 22.4688 12.4424 22.4163 12.4949 22.3638C12.5474 22.3113 12.5999 22.2588 12.6524 22.2063C12.7049 22.1538 12.7574 22.1013 12.8099 22.1013L32.5499 10.7088C33.0749 10.4988 33.7049 10.4988 34.1249 10.7088L53.9699 22.1013C54.0224 22.1538 54.0749 22.1538 54.1274 22.2063C54.1799 22.2588 54.2324 22.3113 54.2849 22.3638C54.3374 22.4163 54.3899 22.4688 54.4424 22.5213C54.4949 22.5738 54.5474 22.6263 54.5474 22.6788C54.5999 22.7838 54.6524 22.8363 54.6524 22.9413C54.6524 22.9938 54.7049 23.0463 54.7049 23.0988C54.7574 23.2563 54.7574 23.3613 54.7574 23.6238V65.6238L71.2424 56.2788V34.7013C71.2424 34.5438 71.2424 34.3863 71.2949 34.2813L71.3474 34.1238C71.3474 34.1238 71.3999 33.9663 71.4524 33.8613C71.4524 33.8088 71.5049 33.7563 71.5574 33.7038C71.6099 33.6513 71.6624 33.5988 71.7149 33.5463C71.7674 33.4938 71.8199 33.4413 71.8724 33.3888C71.9249 33.3363 71.9774 33.2838 72.0299 33.2838L91.8749 21.8913C92.2949 21.5763 92.9249 21.5763 93.4499 21.8913L113.19 33.2838C113.242 33.2838 113.295 33.3363 113.347 33.3888L113.505 33.5463C113.557 33.5988 113.61 33.6513 113.662 33.7038C113.715 33.7563 113.715 33.8088 113.767 33.8613C113.82 33.9663 113.82 34.1238 113.872 34.1238C113.925 34.1238 113.925 34.1238 113.925 34.2813ZM110.722 56.2788V37.5363L94.2374 46.9863V65.6238L110.722 56.2788ZM90.9824 90.1938V71.3988L54.7574 92.0838V111.036L90.9824 90.1938ZM15.2774 26.2488V90.1938L51.5024 111.036V92.0838L32.6024 81.3738H32.5499C32.4974 81.3738 32.4449 81.3738 32.3924 81.2163C32.3399 81.2163 32.2874 81.1638 32.2349 81.1113C32.1824 81.0588 32.1299 81.0063 32.0774 80.9538C32.0249 80.9013 32.0249 80.8488 31.9724 80.7963C31.9199 80.6913 31.9199 80.6388 31.8674 80.5863C31.8674 80.4813 31.8149 80.4288 31.8149 80.3763C31.7624 80.3238 31.7624 80.2188 31.7624 80.1663C31.7624 80.0613 31.7624 80.0088 31.7624 79.9563V35.8038L15.2774 26.2488ZM33.3899 14.0688L16.9574 23.6238L33.3899 32.9688L49.8749 23.6238L33.3899 14.0688ZM51.5024 67.6188V26.2488L35.0174 35.8038V77.1213L51.5024 67.6188ZM92.6099 25.1988L76.1249 34.7013L92.6099 44.1513L109.042 34.7013L92.6099 25.1988ZM90.9824 46.9863L74.4974 37.5363V56.2788L90.9824 65.6238V46.9863ZM53.1299 89.2488L89.2499 68.5638L72.8699 59.1138L36.7499 79.9563L53.1299 89.2488Z" fill="#FF2E20"/>
</svg>
