<svg width="105" height="116" viewBox="0 0 105 116" fill="none" xmlns="http://www.w3.org/2000/svg">
<path d="M85.136 47C83.5972 47 82.5519 47.1428 82 47.3052V57.1935C82.6558 57.3364 83.4479 57.3883 84.5386 57.3883C88.5706 57.3883 91.0573 55.3561 91.0573 51.9215C91.0508 48.8439 88.9147 47 85.136 47Z" fill="#627BBE"/>
<path d="M98.2995 6H6.70696C3.00612 6 0 8.99981 0 12.7009V104.306C0 107.994 2.99963 111 6.70696 111H98.2995C102 111 105 107.994 105 104.306V12.7009C105 8.99981 102 6 98.2995 6ZM31.8402 60.0226C29.2561 62.4575 25.4254 63.5484 20.952 63.5484C19.9586 63.5484 19.0626 63.4964 18.3679 63.399V75.3853H10.8623V42.3224C13.1997 41.9263 16.4785 41.6277 21.1078 41.6277C25.776 41.6277 29.1133 42.5302 31.3468 44.3158C33.4894 46.0105 34.9307 48.7896 34.9307 52.0686C34.9307 55.3476 33.8335 58.1331 31.8402 60.0226ZM67.4072 75.3853H59.8497V61.3602H47.3773V75.3853H39.7678V41.8809H47.3773V54.7567H59.8497V41.8809H67.4072V75.3853ZM95.0207 60.0226C92.4431 62.4575 88.6124 63.5484 84.1324 63.5484C83.1456 63.5484 82.2431 63.4964 81.5484 63.399V75.3853H74.0493V42.3224C76.3802 41.9263 79.659 41.6277 84.2883 41.6277C88.963 41.6277 92.2873 42.5302 94.5273 44.3158C96.6699 46.0105 98.1112 48.7896 98.1112 52.0686C98.1047 55.3476 97.014 58.1331 95.0207 60.0226Z" fill="#627BBE"/>
<path d="M21.136 47C19.5907 47 18.5519 47.1428 18 47.3052V57.1935C18.6493 57.3364 19.4414 57.3883 20.5386 57.3883C24.5641 57.3883 27.0508 55.3561 27.0508 51.9215C27.0508 48.8439 24.9147 47 21.136 47Z" fill="#627BBE"/>
</svg>
