<svg width="126" height="126" viewBox="0 0 126 126" fill="none" xmlns="http://www.w3.org/2000/svg">
<path d="M64.8979 12.6001C63.9563 12.6001 62.9805 13.1308 62.3641 14.1922C39.441 51.9409 60.7207 82.8246 74.7245 111.774C75.221 112.732 76.1968 113.4 77.2924 113.4H110.556C112.679 113.4 114.065 111.089 113.072 109.12C113.072 109.12 68.3389 16.452 67.2432 14.158C66.7296 13.1308 65.8223 12.6001 64.8979 12.6001ZM64.6753 29.0178C73.9712 48.2602 92.8542 87.3784 101.174 104.635H80.9903C79.7234 102.084 78.4223 99.5332 77.087 96.9482C65.7025 74.7784 54.8829 53.687 64.6753 29.0006V29.0178ZM40.2798 56.4262C39.2869 56.4262 38.3453 56.974 37.7804 58.121L12.9056 109.035C11.9298 111.072 13.4192 113.4 15.5591 113.4H50.2777C51.3734 113.4 52.3492 112.715 52.7943 111.705C60.3098 95.921 55.7902 71.9365 42.6766 57.5732C41.9918 56.8199 41.1187 56.4262 40.2798 56.4262ZM41.3926 70.7039C47.2646 81.1126 49.2676 94.5343 46.1519 104.635H24.8208L41.3926 70.7039Z" fill="#2381FE"/>
</svg>
