<svg width="45" height="60" viewBox="0 0 45 60" fill="none" xmlns="http://www.w3.org/2000/svg">
<g clip-path="url(#clip0)">
<path d="M22.465 0C15.1663 0 9.22852 5.82781 9.22852 12.9913V31.1753C9.22852 38.3389 15.1663 44.1667 22.465 44.1667C29.7637 44.1667 35.7015 38.3389 35.7015 31.1753V12.9913C35.7015 5.82781 29.7637 0 22.465 0ZM33.0016 31.1753C33.0016 36.8774 28.2747 41.5168 22.465 41.5168C16.6553 41.5168 11.9284 36.8774 11.9284 31.1753V12.9913C11.9284 7.28923 16.6553 2.64989 22.465 2.64989C28.2747 2.64989 33.0016 7.28923 33.0016 12.9913V31.1753Z" fill="white"/>
<path d="M22.4654 8.78601C21.7197 8.78601 21.1154 9.37907 21.1154 10.111V16.2093C21.1154 16.9409 21.7197 17.5343 22.4654 17.5343C23.2107 17.5343 23.8153 16.9409 23.8153 16.2093V10.111C23.8153 9.37907 23.2111 8.78601 22.4654 8.78601Z" fill="white"/>
</g>
<g clip-path="url(#clip1)">
<path d="M31.2076 49.8851C30.931 49.6679 30.4838 49.6679 30.2072 49.8851L22.9245 55.6033L15.6419 49.8851C15.3652 49.6679 14.9181 49.6679 14.6414 49.8851C14.3648 50.1023 14.3648 50.4535 14.6414 50.6707L22.4243 56.7817C22.5623 56.89 22.7434 56.9444 22.9245 56.9444C23.1057 56.9444 23.2868 56.89 23.4248 56.7817L31.2076 50.6707C31.4842 50.4535 31.4842 50.1023 31.2076 49.8851Z" fill="white"/>
</g>
<defs>
<clipPath id="clip0">
<rect width="45" height="44.1667" fill="white"/>
</clipPath>
<clipPath id="clip1">
<rect width="16.9811" height="13.3333" fill="white" transform="translate(14.434 46.6666)"/>
</clipPath>
</defs>
</svg>
