<?xml version="1.0" standalone="no"?>
<!DOCTYPE svg PUBLIC "-//W3C//DTD SVG 1.1//EN" "http://www.w3.org/Graphics/SVG/1.1/DTD/svg11.dtd" >
<svg xmlns="http://www.w3.org/2000/svg" xmlns:xlink="http://www.w3.org/1999/xlink" version="1.1">
<metadata>
Created by FontForge 20170731 at Wed Apr 28 16:42:51 2021
 By Aleksey,,,
Copyright 2020 The Tourney Project Authors (https://github.com/Etcetera-Type-Co/Tourney)
</metadata>
<defs>
<font id="Tourney-Medium" horiz-adv-x="0" >
  <font-face 
    font-family="Tourney Medium"
    font-weight="500"
    font-stretch="normal"
    units-per-em="2000"
    panose-1="0 0 0 0 0 0 0 0 0 0"
    ascent="1600"
    descent="-400"
    x-height="1080"
    cap-height="1400"
    bbox="-405 -533 2891 2121"
    underline-thickness="50"
    underline-position="-175"
    unicode-range="U+000D-FB02"
  />
<missing-glyph horiz-adv-x="662" 
d="M80 73v1344h509v-1344h-509zM230 176l-30 26l109 98l-109 98l30 26l109 -98l109 98l30 -26l-109 -98l109 -98l-30 -26l-109 98zM230 612l-30 26l109 98l-109 98l30 26l109 -98l109 98l30 -26l-109 -98l109 -98l-30 -26l-109 98zM119 107h431v1276h-431v-1276zM230 1048
l-30 26l110 98l-110 98l30 25l109 -97l109 97l30 -25l-110 -98l110 -98l-30 -26l-109 98z" />
    <glyph glyph-name="fi" unicode="fi" horiz-adv-x="1953" 
d="M277 0v798h-202v282h202v214l206 206h450v-263h-329l-44 -45v-112h1081v-797h267v-283h-815v283h266v515h-799v-798h-283zM371 90h95v802h980v-704h-260v-95h630v95h-275v799h-1075v236l102 102h276v89h-316l-157 -157v-270h-202v-95h202v-802zM1319 1237v263h322v-263
h-322zM1426 1323h108v101h-108v-101z" />
    <glyph glyph-name="fl" unicode="fl" horiz-adv-x="1895" 
d="M277 0v798h-202v282h202v214l206 206h1097v-1217h270v-283h-822v283h270v954h-694l-44 -45v-112h313v-282h-313v-798h-283zM371 90h95v802h318v95h-318v236l102 102h820v-1137h-267v-95h637v95h-275v1226h-955l-157 -157v-270h-202v-95h202v-802z" />
    <glyph glyph-name="f_f" unicode="ff" horiz-adv-x="1965" 
d="M277 0v798h-202v282h202v214l206 206h390v-263h-269l-44 -45v-112h313v-282h-313v-798h-283zM371 90h95v802h318v95h-318v236l102 102h216v89h-256l-157 -157v-270h-202v-95h202v-802zM1260 0v798h-202v282h202v214l206 206h390v-263h-269l-44 -45v-112h313v-282h-313
v-798h-283zM1354 90h95v802h318v95h-318v236l102 102h216v89h-256l-157 -157v-270h-202v-95h202v-802z" />
    <glyph glyph-name="f_f_i" unicode="ffi" horiz-adv-x="2936" 
d="M277 0v798h-202v282h202v214l206 206h390v-263h-269l-44 -45v-112h313v-282h-313v-798h-283zM371 90h95v802h318v95h-318v236l102 102h216v89h-256l-157 -157v-270h-202v-95h202v-802zM1260 0v798h-202v282h202v214l206 206h390v-263h-269l-44 -45v-112h313v-282h-313
v-798h-283zM1354 90h95v802h318v95h-318v236l102 102h216v89h-256l-157 -157v-270h-202v-95h202v-802zM2302 1237v263h322v-263h-322zM2409 1323h108v101h-108v-101zM2075 0v283h267v514h-267v283h549v-797h267v-283h-816zM2168 93h631v95h-275v800h-356v-95h261v-705h-261
v-95z" />
    <glyph glyph-name="f_f_l" unicode="ffl" horiz-adv-x="2877" 
d="M277 0v798h-202v282h202v214l206 206h390v-263h-269l-44 -45v-112h313v-282h-313v-798h-283zM371 90h95v802h318v95h-318v236l102 102h216v89h-256l-157 -157v-270h-202v-95h202v-802zM1260 0v798h-202v282h202v214l206 206h390v-263h-269l-44 -45v-112h313v-282h-313
v-798h-283zM1354 90h95v802h318v95h-318v236l102 102h216v89h-256l-157 -157v-270h-202v-95h202v-802zM2010 0v283h270v934h-270v283h552v-1217h270v-283h-822zM2103 93h637v95h-275v1220h-362v-95h267v-1125h-267v-95z" />
    <glyph glyph-name=".notdef" horiz-adv-x="662" 
d="M80 73v1344h509v-1344h-509zM230 176l-30 26l109 98l-109 98l30 26l109 -98l109 98l30 -26l-109 -98l109 -98l-30 -26l-109 98zM230 612l-30 26l109 98l-109 98l30 26l109 -98l109 98l30 -26l-109 -98l109 -98l-30 -26l-109 98zM119 107h431v1276h-431v-1276zM230 1048
l-30 26l110 98l-110 98l30 25l109 -97l109 97l30 -25l-110 -98l110 -98l-30 -26l-109 98z" />
    <glyph glyph-name=".null" 
 />
    <glyph glyph-name="nonmarkingreturn" horiz-adv-x="666" 
 />
    <glyph glyph-name="CR" unicode="&#xd;" horiz-adv-x="1200" 
 />
    <glyph glyph-name="space" unicode=" " horiz-adv-x="550" 
 />
    <glyph glyph-name="exclam" unicode="!" horiz-adv-x="558" 
d="M196 388l-62 691v349h286v-349l-62 -691h-162zM257 501h44l26 559v263h-96v-263zM122 0v294h314v-294h-314zM221 97h118v100h-118v-100z" />
    <glyph glyph-name="quotedbl" unicode="&#x22;" horiz-adv-x="860" 
d="M162 946l-46 172v282h302v-282l-48 -172h-208zM235 1027h66l18 101v181h-100v-181zM492 946l-46 172v282h302v-282l-48 -172h-208zM565 1027h66l18 101v181h-100v-181z" />
    <glyph glyph-name="numbersign" unicode="#" horiz-adv-x="1344" 
d="M231 0l31 298h-162v246h188l31 302h-163v246h188l33 308h285l-33 -308h163l33 308h285l-33 -308h167v-246h-192l-31 -302h167v-246h-194l-31 -298h-284l31 298h-164l-31 -298h-284zM461 461l52 471h366l-52 -471h-366zM573 544h164l30 302h-163zM326 84h94l32 294h366
l-32 -294h94l32 294h203v83h-194l52 471h199v83h-190l34 307h-94l-34 -307h-366l34 307h-94l-34 -307h-190v-83h181l-53 -471h-186v-83h178z" />
    <glyph glyph-name="dollar" unicode="$" horiz-adv-x="1282" 
d="M488 -96v96h-150l-206 206v252h283v-114l61 -61h310l61 61v170l-61 61h-442l-206 206v413l206 206h144v96h281v-96h136l206 -206v-252h-283v114l-61 61h-285l-62 -61v-137l62 -61h442l206 -206v-446l-206 -206h-155v-96h-281zM580 -34h94v127h204l159 159v355l-159 159
h-444l-112 111v228l109 108h379l110 -108v-74h95v118l-160 159h-181v127h-94v-127h-194l-159 -159v-316l155 -162h450l110 -108v-267l-110 -108h-396l-109 108v80h-95v-124l159 -159h189v-127z" />
    <glyph glyph-name="percent" unicode="%" horiz-adv-x="1555" 
d="M183 0l1006 1400h223l-1006 -1400h-223zM318 85h72l884 1225h-73zM247 709l-132 132v427l132 132h357l132 -132v-427l-132 -132h-357zM284 771h287l102 102v363l-102 103h-290l-103 -103v-359zM311 827l-76 75v309l72 71h238l72 -71v-313l-72 -71h-234zM335 890h180
l39 39v251l-39 39h-180l-39 -39v-251zM951 -79l-132 132v427l132 132h357l132 -132v-427l-132 -132h-357zM988 -17h287l102 102v363l-102 103h-290l-103 -103v-359zM1015 39l-76 75v309l72 71h238l72 -71v-313l-72 -71h-234zM1039 102h180l39 39v251l-39 39h-180l-39 -39
v-251z" />
    <glyph glyph-name="ampersand" unicode="&#x26;" horiz-adv-x="1282" 
d="M348 -1l-206 206v362l245 247l-149 156v223l206 206h234l206 -206v-223l-150 -161l162 -175v74h244v-381l-227 -328h-565zM447 282h283l70 89l-241 257l-154 -158v-146zM426 192l-108 103v201l239 259l359 -387l-125 -176h-365zM394 97h458l204 296v233h-81v-148l-19 -32
l-341 367l173 183v170l-146 145h-164l-146 -145v-171l168 -179l-271 -288v-273zM558 877l-136 150v104l89 87h99l89 -87v-104zM561 1002l58 66v15l-35 41h-45l-35 -41v-15z" />
    <glyph glyph-name="quotesingle" unicode="'" horiz-adv-x="534" 
d="M162 946l-46 172v282h302v-282l-48 -172h-208zM235 1027h66l18 101v181h-100v-181z" />
    <glyph glyph-name="parenleft" unicode="(" horiz-adv-x="784" 
d="M364 -400l-214 214v1472l214 214h387l-307 -298v-1304l307 -298h-387zM400 -301h125l-182 178v1356l182 178h-125l-155 -154v-1404z" />
    <glyph glyph-name="parenright" unicode=")" horiz-adv-x="784" 
d="M428 -400h-387l307 298v1304l-307 298h387l214 -214v-1472zM392 -301l155 154v1404l-155 154h-125l182 -178v-1356l-182 -178h125z" />
    <glyph glyph-name="asterisk" unicode="*" horiz-adv-x="804" 
d="M294 896v113l-104 -70l-117 177l141 92l-143 96l115 175l108 -72v121h218v-120l106 71l115 -175l-143 -96l141 -92l-117 -177l-102 68v-111h-218zM369 983h70v162l148 -100l38 57l-162 109l159 107l-37 56l-146 -98v168h-70v-170l-144 97l-38 -56l155 -104l-158 -106
l38 -57l147 99v-164z" />
    <glyph glyph-name="plus" unicode="+" horiz-adv-x="836" 
d="M290 288v188h-188v256h188v188h256v-188h188v-256h-188v-188h-256zM375 379h86v180h185v85h-185v183h-86v-183h-177v-85h177v-180z" />
    <glyph glyph-name="comma" unicode="," horiz-adv-x="558" 
d="M120 -160l62 160h-48v294h302v-275l-125 -179h-191zM221 -85h54l78 129v149h-134v-98h56v-51z" />
    <glyph glyph-name="hyphen" unicode="-" horiz-adv-x="836" 
d="M102 476v256h632v-256h-632zM198 559h448v85h-448v-85z" />
    <glyph glyph-name="period" unicode="." horiz-adv-x="558" 
d="M122 0v294h314v-294h-314zM221 97h118v100h-118v-100z" />
    <glyph glyph-name="slash" unicode="/" horiz-adv-x="624" 
d="M38 -201l250 1701h283l-250 -1701h-283zM144 -109h95l228 1521h-95z" />
    <glyph glyph-name="zero" unicode="0" horiz-adv-x="1125" 
d="M281 0l-206 206v988l206 206h563l206 -206v-988l-206 -206h-563zM459 283h267l61 61v481zM373 192l-38 47l493 856l43 -34v-761l-110 -108h-388zM321 97h479l159 159v893l-159 159h-479l-160 -159v-893zM250 351v754l109 108h384l37 -45l-490 -849zM338 597l315 520h-253
l-62 -61v-459z" />
    <glyph glyph-name="one" unicode="1" horiz-adv-x="968" 
d="M75 0v283h266v786l-266 -75v311l360 95h188v-1117h270v-283h-818zM178 90h611v95h-259v1121h-71l-290 -82v-104l266 79v-1014h-257v-95z" />
    <glyph glyph-name="two" unicode="2" horiz-adv-x="1080" 
d="M75 0v577l206 206h381l61 61v212l-61 61h-244l-61 -61v-143h-282v281l206 206h518l206 -206v-488l-206 -206h-381l-61 -61v-156h648v-283h-930zM173 93h729v95h-634v302l110 108h372l162 162v392l-159 160h-420l-160 -160v-147h95v103l110 109h330l109 -109v-304
l-112 -111h-372l-160 -159v-441z" />
    <glyph glyph-name="three" unicode="3" horiz-adv-x="1073" 
d="M281 0l-206 206v271h282v-133l61 -61h237l61 61v153l-61 61h-216v282h215l62 67v149l-61 61h-237l-61 -61v-133h-282v271l206 206h511l206 -206v-431l-63 -63l63 -65v-429l-206 -206h-511zM327 97h419l159 159v329l-115 114l115 115v335l-159 159h-419l-159 -159v-144h95
v100l109 108h329l109 -108v-245l-112 -113h-182v-95h182l112 -111v-241l-109 -108h-329l-109 108v97h-95v-141z" />
    <glyph glyph-name="four" unicode="4" horiz-adv-x="1088" 
d="M589 0v321h-539v327l391 752h431v-796h166v-283h-166v-321h-283zM687 84h95v323h179v95h-179v806h-277l-358 -666v-235h540v-323zM251 502v144l303 559h133v-703h-436zM361 604h228v487h-9l-219 -442v-45z" />
    <glyph glyph-name="five" unicode="5" horiz-adv-x="1086" 
d="M281 0l-206 206v252h282v-114l61 -61h250l61 61v299l-61 61h-240l-86 -96h-267v792h931v-283h-649v-160l30 30h418l206 -207v-574l-206 -206h-524zM335 92h422l161 160v484l-161 161h-362l-90 -90h-40v406h647v95h-741v-606h138l99 100h304l111 -110v-396l-111 -109h-332
l-118 116v82h-95v-126z" />
    <glyph glyph-name="six" unicode="6" horiz-adv-x="1082" 
d="M281 0l-206 206v988l206 206h514l207 -206v-213h-283v75l-61 61h-240l-61 -61v-138l30 30h414l206 -206v-536l-206 -206h-520zM378 190l-115 113v304l157 153h288l111 -110v-350l-111 -110h-330zM418 283h246l61 61v260l-61 61h-226l-81 -80v-241zM333 95h420l161 161
v438l-161 161h-350l-140 -138v388l111 108h328l109 -108v-54h95v98l-159 159h-418l-160 -159v-890z" />
    <glyph glyph-name="seven" unicode="7" horiz-adv-x="984" 
d="M84 0l558 965v152h-602v283h884v-495l-501 -905h-339zM250 84h110l470 839v383h-699v-95h605v-268z" />
    <glyph glyph-name="eight" unicode="8" horiz-adv-x="1080" 
d="M281 0l-206 206v427l90 86l-90 89v386l206 206h518l206 -206v-386l-90 -91l90 -84v-427l-206 -206h-518zM375 191l-110 108v262l113 111h327l112 -111v-262l-109 -108h-333zM330 96h423l159 159v344l-122 120l122 122v305l-159 159h-423l-160 -159v-305l123 -121
l-123 -121v-344zM378 767l-113 113v222l110 108h333l109 -108v-222l-112 -113h-327zM418 283h244l61 61v172l-61 61h-244l-61 -61v-172zM419 860h242l62 66v130l-61 61h-244l-61 -61v-130z" />
    <glyph glyph-name="nine" unicode="9" horiz-adv-x="1082" 
d="M801 1400l206 -206v-988l-206 -206h-514l-207 206v213h283v-75l61 -61h240l61 61v138l-30 -30h-414l-206 206v536l206 206h520zM704 1210l115 -113v-304l-157 -153h-288l-111 110v350l111 110h330zM664 1117h-246l-61 -61v-260l61 -61h226l81 80v241zM749 1305h-420
l-161 -161v-438l161 -161h350l140 138v-388l-111 -108h-328l-109 108v54h-95v-98l159 -159h418l160 159v890z" />
    <glyph glyph-name="colon" unicode=":" horiz-adv-x="558" 
d="M122 787v294h314v-294h-314zM221 884h118v100h-118v-100zM122 0v294h314v-294h-314zM221 97h118v100h-118v-100z" />
    <glyph glyph-name="semicolon" unicode=";" horiz-adv-x="558" 
d="M120 -160l62 160h-48v294h302v-275l-125 -179h-191zM221 -85h54l78 129v149h-134v-98h56v-51zM122 787v294h314v-294h-314zM221 884h118v100h-118v-100z" />
    <glyph glyph-name="less" unicode="&#x3c;" horiz-adv-x="826" 
d="M714 -2l-602 419v346l602 423v-359l-362 -237v0l362 -232v-360zM621 183v115l-358 233v114l358 237v115l-437 -298v-222z" />
    <glyph glyph-name="equal" unicode="=" horiz-adv-x="836" 
d="M102 276v256h632v-256h-632zM198 359h448v85h-448v-85zM102 676v256h632v-256h-632zM198 759h448v85h-448v-85z" />
    <glyph glyph-name="greater" unicode="&#x3e;" horiz-adv-x="826" 
d="M112 -2v360l362 232v0l-362 237v359l602 -423v-346zM205 183l437 294v222l-437 298v-115l358 -237v-114l-358 -233v-115z" />
    <glyph glyph-name="question" unicode="?" horiz-adv-x="1100" 
d="M431 379v208l268 267v202l-62 61h-150l-62 -61v-114h-282v252l206 206h426l206 -206v-459l-267 -268v-88h-283zM518 94h115v95h-115v-95zM424 0v283h301v-283h-301zM527 458h95v46l265 270v373l-159 159h-327l-159 -159v-116h95v72l109 108h237l109 -108v-292l-265 -270
v-83z" />
    <glyph glyph-name="at" unicode="@" horiz-adv-x="1834" 
d="M316 -68l-214 214v1128l214 214h1192l214 -214v-772l-214 -214h-254l-76 78l-78 -78h-404l-214 214v426l214 214h424l214 -214v-302l44 -44h6l44 44v504l-64 64h-904l-64 -64v-840l64 -64h1050v-294h-1194zM367 29h1054v98h-1008l-114 114v937l114 113h992l115 -113v-589
l-108 -108h-69l-108 108v286l-163 176h-325l-164 -163v-339l166 -166h314l120 120l120 -120h149l166 166v674l-166 166h-1085l-166 -166v-1028zM789 481l-108 108v260l106 104h245l105 -117v-247l-108 -108h-240zM820 582h176l44 44v178l-44 44h-176l-44 -44v-178z" />
    <glyph glyph-name="A" unicode="A" horiz-adv-x="1288" 
d="M115 0v1194l206 206h646l206 -206v-1194h-282v412h-494v-412h-282zM212 101h95v402h678v-402h95v1051l-160 160h-549l-159 -160v-1051zM397 694h494v362l-61 61h-372l-61 -61v-362zM307 598v510l109 109h459l110 -109v-510h-678z" />
    <glyph glyph-name="B" unicode="B" horiz-adv-x="1273" 
d="M125 0v1400h782l206 -206v-357l-89 -89l134 -135v-407l-206 -206h-827zM223 92h679l162 162v324l-158 159h-24l136 136v279l-160 159h-635v-1219zM318 187v482h518l133 -132v-239l-112 -111h-539zM318 764v452h495l110 -108v-197l-148 -147h-457zM408 283h406l61 61v141
l-88 88h-379v-290zM408 856h323l100 99v101l-61 61h-362v-261z" />
    <glyph glyph-name="C" unicode="C" horiz-adv-x="1244" 
d="M311 0l-206 206v988l206 206h621l207 -206v-322h-283v184l-61 61h-346l-61 -61v-712l61 -61h346l61 61v184h283v-322l-207 -206h-621zM357 94h529l159 160v190h-95v-146l-109 -109h-438l-110 109v807l110 108h438l109 -108v-147h95v191l-159 159h-529l-159 -159v-895z
" />
    <glyph glyph-name="D" unicode="D" horiz-adv-x="1289" 
d="M125 0v1400h833l206 -206v-988l-206 -206h-833zM408 283h413l61 61v712l-61 61h-413v-834zM220 94h689l159 159v893l-159 159h-689v-1211zM315 189v1021h549l110 -108v-805l-110 -108h-549z" />
    <glyph glyph-name="E" unicode="E" horiz-adv-x="1140" 
d="M115 0v1400h910v-283h-627v-269h558v-283h-558v-282h627v-283h-910zM211 97h732v95h-637v467h567v95h-567v459h637v95h-732v-1211z" />
    <glyph glyph-name="F" unicode="F" horiz-adv-x="1080" 
d="M115 0v1400h890v-283h-607v-269h569v-283h-569v-565h-283zM209 90h95v571h569v95h-569v457h609v95h-704v-1218z" />
    <glyph glyph-name="G" unicode="G" horiz-adv-x="1278" 
d="M321 0l-206 206v988l206 206h636l206 -206v-252h-282v114l-61 61h-363l-60 -63v-711l60 -60h363l61 61v138h-277v282h559v-558l-206 -206h-636zM369 97h541l160 159v412h-372v-95h277v-273l-110 -108h-450l-110 107v806l109 108h451l110 -108v-74h95v118l-160 159h-541
l-159 -159v-893z" />
    <glyph glyph-name="H" unicode="H" horiz-adv-x="1295" 
d="M125 0v1400h283v-552h480v552h282v-1400h-282v565h-480v-565h-283zM219 92h95v569h668v-569h95v1216h-95v-552h-668v552h-95v-1216z" />
    <glyph glyph-name="I" unicode="I" horiz-adv-x="1059" 
d="M115 0v283h274v834h-274v283h829v-283h-273v-834h273v-283h-829zM208 93h644v95h-281v1025h281v95h-644v-95h268v-1025h-268v-95z" />
    <glyph glyph-name="J" unicode="J" horiz-adv-x="1216" 
d="M322 0l-207 206v357h283v-219l61 -61h298l61 61v773h-512v283h795v-1194l-207 -206h-572zM369 98h482l160 160v1050h-615v-95h520v-911l-110 -109h-392l-110 109v169h-95v-213z" />
    <glyph glyph-name="K" unicode="K" horiz-adv-x="1298" 
d="M125 0v1400h283v-552h349l119 119v433h283v-552l-141 -140l141 -143v-565h-283v447l-119 118h-349v-565h-283zM219 94h95v573h491l165 -169v-404h95v441l-172 178l172 172v423h-95v-385l-162 -161h-494v546h-95v-1214z" />
    <glyph glyph-name="L" unicode="L" horiz-adv-x="1091" 
d="M125 0v1400h283v-1117h608v-283h-891zM219 92h704v95h-609v1121h-95v-1216z" />
    <glyph glyph-name="M" unicode="M" horiz-adv-x="1741" 
d="M125 0v1400h553l169 -993h48l169 993h552v-1400h-283v1116h-39l-172 -996h-502l-171 996h-41v-1116h-283zM218 93h95v1117h204l183 -986h340l183 986h204v-1117h95v1214h-377l-182 -986h-185l-182 986h-378v-1214z" />
    <glyph glyph-name="N" unicode="N" horiz-adv-x="1465" 
d="M218 90h95v1118h202l362 -1114h371v1214h-95v-1117h-203l-360 1114h-372v-1215zM125 0v1400h543l346 -1113h43v1113h283v-1400h-543l-348 1116h-41v-1116h-283z" />
    <glyph glyph-name="O" unicode="O" horiz-adv-x="1306" 
d="M321 0l-206 206v988l206 206h664l206 -206v-988l-206 -206h-664zM459 283h388l61 61v712l-61 61h-388l-61 -61v-712zM370 97h567l160 159v893l-160 159h-567l-159 -159v-893zM415 192l-109 108v805l109 108h477l110 -108v-805l-110 -108h-477z" />
    <glyph glyph-name="P" unicode="P" horiz-adv-x="1258" 
d="M125 0v1400h831l206 -206v-551l-225 -225h-529v-418h-283zM217 81h95v434h583l177 178v456l-159 159h-696v-1227zM408 701h391l81 80v275l-61 61h-411v-416zM312 610v603h556l110 -108v-368l-129 -127h-537z" />
    <glyph glyph-name="Q" unicode="Q" horiz-adv-x="1343" 
d="M1036 -242l-241 242h-474l-206 206v988l206 206h690l206 -206v-988l-121 -121l132 -135zM1051 -128l65 65l-175 179h42l141 140v893l-159 159h-595l-159 -159v-893l159 -159h460zM459 283h414l62 61v712l-62 61h-414l-61 -61v-712zM415 192l-109 108v805l109 108h505
l109 -108v-805l-109 -108h-505z" />
    <glyph glyph-name="R" unicode="R" horiz-adv-x="1309" 
d="M125 0v1400h863l206 -206v-434l-122 -112l122 -133v-515h-283v415l-100 100h-403v-515h-283zM219 92h95v522h537l156 -166v-356h95v387l-164 180l159 137v352l-159 160h-719v-1216zM408 798h442l61 62v196l-61 61h-442v-319zM314 709v504h578l110 -109v-276l-138 -119
h-550z" />
    <glyph glyph-name="S" unicode="S" horiz-adv-x="1302" 
d="M321 0l-206 206v252h283v-114l61 -61h384l61 61v154l-61 61h-516l-206 206v429l206 206h635l206 -206v-252h-283v114l-61 61h-359l-62 -61v-153l62 -61h516l206 -206v-430l-206 -206h-660zM365 93h564l160 159v350l-146 147h-523l-110 110v243l109 109h456l103 -102v-81
h95v125l-153 153h-546l-159 -160v-331l162 -162h520l97 -93v-264l-110 -108h-473l-103 102v82h-95v-126z" />
    <glyph glyph-name="T" unicode="T" horiz-adv-x="1126" 
d="M422 0v1117h-347v283h976v-283h-347v-1117h-282zM515 90h95v1123h351v95h-796v-95h350v-1123z" />
    <glyph glyph-name="U" unicode="U" horiz-adv-x="1328" 
d="M321 0l-206 206v1194h283v-1056l61 -61h410l61 61v1056h283v-1194l-206 -206h-686zM369 94h591l159 157v1057h-95v-1013l-109 -106h-500l-111 106v1013h-95v-1057z" />
    <glyph glyph-name="V" unicode="V" horiz-adv-x="1338" 
d="M501 0l-376 376v1024h283v-886l204 -203h115l203 203v886h283v-1024l-376 -376h-336zM549 94h241l329 327v887h-95v-843l-272 -269h-165l-273 269v843h-95v-887z" />
    <glyph glyph-name="W" unicode="W" horiz-adv-x="1738" 
d="M125 1400h283v-1116h44l166 996h502l167 -996h43v1116h283v-1400h-556l-164 993h-48l-164 -993h-556v1400zM218 1307v-1214h378l179 986h187l178 -986h379v1214h-95v-1117h-206l-179 986h-341l-179 -986h-206v1117h-95z" />
    <glyph glyph-name="X" unicode="X" horiz-adv-x="1353" 
d="M125 0v515l193 193l-193 190v502h283v-383l169 -169h199l169 169v383h283v-502l-191 -190l191 -193v-515h-283v397l-169 168h-199l-169 -168v-397h-283zM219 94h95v335l229 232h267l229 -232v-335h95v373l-236 241l236 235v365h-95v-327l-226 -225h-273l-226 225v327h-95
v-365l236 -235l-236 -241v-373z" />
    <glyph glyph-name="Y" unicode="Y" horiz-adv-x="1294" 
d="M505 0v443l-400 382v575h283v-473l268 -253h-19l269 253v473h283v-575l-401 -382v-443h-283zM599 90h95v389l401 379v450h-95v-418l-351 -331h-5l-351 331v418h-95v-450l401 -379v-389z" />
    <glyph glyph-name="Z" unicode="Z" horiz-adv-x="1123" 
d="M208 94h719v95h-614v201l610 601v317h-705v-95h602v-191l-612 -605v-323zM105 0v448l610 605v64h-591v283h894v-444l-604 -597v-76h604v-283h-913z" />
    <glyph glyph-name="bracketleft" unicode="[" horiz-adv-x="656" 
d="M102 -400v1900h492v-294h-198v-1312h198v-294h-492zM199 -296h295v98h-197v1501h197v98h-295v-1697z" />
    <glyph glyph-name="backslash" unicode="\" horiz-adv-x="624" 
d="M573 -201h-283l-250 1701h283zM467 -109l-229 1521h-95l229 -1521h95z" />
    <glyph glyph-name="bracketright" unicode="]" horiz-adv-x="656" 
d="M560 -400h-492v294h198v1312h-198v294h492v-1900zM463 -296v1697h-295v-98h197v-1501h-197v-98h295z" />
    <glyph glyph-name="asciicircum" unicode="^" horiz-adv-x="912" 
d="M62 980l250 448h293l244 -448h-293l-98 219v0l-102 -219h-294zM206 1055h96l117 234h79l116 -234h96l-157 297h-189z" />
    <glyph glyph-name="underscore" unicode="_" horiz-adv-x="1156" 
d="M102 -256v256h952v-256h-952zM198 -169h768v86h-768v-86z" />
    <glyph glyph-name="grave" unicode="`" horiz-adv-x="688" 
d="M590 1112h-247l-284 264h287zM449 1167l-144 153h-89l156 -153h77z" />
    <glyph glyph-name="a" unicode="a" horiz-adv-x="1253" 
d="M316 0l-206 206v285l206 206h544v39l-61 61h-675v283h813l206 -206v-668l-206 -206h-621zM411 188l-111 110v121l96 96h566v-211l-118 -116h-433zM366 93h523l168 167v565l-162 162h-672v-95h626l113 -111v-174h-603l-154 -153v-200zM454 283h345l61 61v80h-426l-42 -42
v-38z" />
    <glyph glyph-name="b" unicode="b" horiz-adv-x="1211" 
d="M332 0l-207 206v1294h283v-439l20 19h466l207 -206v-668l-207 -206h-562zM431 185l-118 117v447l148 147h344l105 -103v-491l-118 -117h-361zM469 283h288l61 61v392l-61 62h-269l-80 -81v-373zM386 90h451l168 168v579l-155 154h-408l-129 -128v545h-95v-1150z" />
    <glyph glyph-name="c" unicode="c" horiz-adv-x="1205" 
d="M316 0l-206 206v668l206 206h764v-283h-626l-61 -61v-392l61 -61h626v-283h-764zM372 94h614v95h-568l-118 116v478l112 111h574v95h-619l-162 -162v-569z" />
    <glyph glyph-name="d" unicode="d" horiz-adv-x="1211" 
d="M879 0h-562l-207 206v668l207 206h466l20 -19v439h283v-1294zM780 185h-361l-118 117v491l105 103h344l148 -147v-447zM742 283l61 61v373l-80 81h-269l-61 -62v-392l61 -61h288zM825 90l168 168v1150h-95v-545l-129 128h-408l-155 -154v-579l168 -168h451z" />
    <glyph glyph-name="e" unicode="e" horiz-adv-x="1253" 
d="M937 1080l206 -206v-285l-206 -206h-544v-39l61 -61h675v-283h-813l-206 206v668l206 206h621zM842 892l111 -110v-121l-96 -96h-566v211l118 116h433zM887 987h-523l-168 -167v-565l162 -162h672v95h-626l-113 111v174h603l154 153v200zM799 797h-345l-61 -61v-80h426
l42 42v38z" />
    <glyph glyph-name="f" unicode="f" horiz-adv-x="983" 
d="M277 0v798h-202v282h202v214l206 206h390v-263h-269l-44 -45v-112h313v-282h-313v-798h-283zM371 90h95v802h318v95h-318v236l102 102h216v89h-256l-157 -157v-270h-202v-95h202v-802z" />
    <glyph glyph-name="g" unicode="g" horiz-adv-x="1210" 
d="M160 -400v282h562l81 81v57l-20 -20h-467l-206 206v668l206 206h563l206 -206v-1068l-206 -206h-719zM254 -309h563l178 183v948l-167 168h-464l-160 -161v-565l168 -169h388l141 141v-312l-135 -138h-512v-95zM418 190l-119 118v477l111 110h373l118 -116v-424
l-167 -165h-316zM454 283h249l100 100v354l-62 61h-287l-61 -61v-393z" />
    <glyph glyph-name="h" unicode="h" horiz-adv-x="1210" 
d="M125 0v1499h283v-438l19 19h467l206 -206v-874h-283v736l-61 62h-268l-80 -81v-717h-283zM221 93h95v660l141 140h351l104 -102v-698h95v741l-154 154h-416l-121 -120v540h-95v-1315z" />
    <glyph glyph-name="i" unicode="i" horiz-adv-x="971" 
d="M337 1237v263h322v-263h-322zM444 1323h108v101h-108v-101zM110 0v283h267v514h-267v283h549v-797h267v-283h-816zM203 93h631v95h-275v800h-356v-95h261v-705h-261v-95z" />
    <glyph glyph-name="j" unicode="j" horiz-adv-x="724" 
d="M-15 -400v282h251l80 81v835h-331v282h614v-1274l-206 -206h-408zM83 -302h264l158 162v1127h-430v-95h335v-981l-114 -118h-213v-95zM316 1236v264h283v-264h-283zM410 1322h95v102h-95v-102z" />
    <glyph glyph-name="k" unicode="k" horiz-adv-x="1139" 
d="M125 0v1400h283v-722h204l119 119v283h283v-402l-141 -140l141 -143v-395h-283v277l-119 118h-204v-395h-283zM219 94h95v398h345l165 -169v-229h95v267l-172 178l172 172v279h-95v-242l-162 -161h-348v721h-95v-1214z" />
    <glyph glyph-name="l" unicode="l" horiz-adv-x="912" 
d="M45 0v283h270v934h-270v283h552v-1217h270v-283h-822zM138 93h637v95h-275v1220h-362v-95h267v-1125h-267v-95z" />
    <glyph glyph-name="m" unicode="m" horiz-adv-x="1613" 
d="M110 0v874l206 206h387l104 -102l103 102h387l206 -206v-874h-283v736l-61 61h-150l-61 -61v-676h-283v676l-61 61h-150l-61 -61v-736h-283zM204 93h95v691l113 111h228l119 -118v-631h95v631l119 118h229l112 -111v-691h95v735l-162 162h-306l-134 -134l-134 134h-307
l-162 -162v-735z" />
    <glyph glyph-name="n" unicode="n" horiz-adv-x="1180" 
d="M110 0v874l206 206h548l206 -206v-874h-282v736l-61 61h-274l-61 -61v-736h-282zM205 93h95v688l112 111h359l111 -110v-689h94v733l-160 161h-449l-162 -162v-732z" />
    <glyph glyph-name="o" unicode="o" horiz-adv-x="1257" 
d="M316 0l-206 206v668l206 206h625l206 -206v-668l-206 -206h-625zM373 93h519l161 161v572l-161 161h-524l-162 -162v-565zM418 188l-117 116v477l112 111h434l111 -110v-484l-111 -110h-429zM454 283h349l61 61v392l-61 61h-349l-61 -61v-392z" />
    <glyph glyph-name="p" unicode="p" horiz-adv-x="1233" 
d="M125 -378v1252l206 206h586l206 -206v-668l-206 -206h-490l-19 20v-398h-283zM218 -285h95v515l128 -129h433l161 161v564l-161 161h-489l-167 -167v-1105zM488 283h291l61 61v392l-61 62h-310l-61 -62v-373zM461 196l-148 147v433l118 116h398l111 -109v-477l-111 -110
h-368z" />
    <glyph glyph-name="q" unicode="q" horiz-adv-x="1233" 
d="M1108 -378h-283v398l-19 -20h-490l-206 206v668l206 206h586l206 -206v-1252zM1015 -285v1105l-167 167h-489l-161 -161v-564l161 -161h433l128 129v-515h95zM745 283l80 80v373l-61 62h-310l-61 -62v-392l61 -61h291zM772 196h-368l-111 110v477l111 109h398l118 -116
v-433z" />
    <glyph glyph-name="r" unicode="r" horiz-adv-x="1148" 
d="M110 0v282h194v501l-15 15h-177v282h253l68 -80l77 80h389l219 -219l-218 -212l-138 148h-114l-61 -61v-455h194v-281h-671zM198 94h495v94h-200v602l98 99h226l97 -106l72 70l-124 131h-316l-106 -108l-99 108h-143v-95h120l80 -87v-614h-200v-94z" />
    <glyph glyph-name="s" unicode="s" horiz-adv-x="1203" 
d="M120 0v283h630l61 61v-5l-59 60h-436l-206 206v269l206 206h757v-283h-620l-61 -61v6l61 -61h434l206 -206v-269l-206 -206h-767zM212 96h632l155 156v187l-155 152h-446l-97 96v101l104 104h576v95h-621l-156 -155v-187l149 -149h446l104 -100v-101l-104 -104h-587v-95z
" />
    <glyph glyph-name="t" unicode="t" horiz-adv-x="935" 
d="M294 0v798h-249v282h249v274h283v-274h248v-282h-248v-515h241v-283h-524zM388 93h338v95h-243v706h250v94h-250v273h-95v-273h-251v-94h251v-801z" />
    <glyph glyph-name="u" unicode="u" horiz-adv-x="1202" 
d="M316 0l-206 206v874h283v-736l61 -61h294l61 61v736h283v-874l-206 -206h-570zM370 94h468l161 168v725h-95v-681l-111 -117h-377l-118 117v681h-95v-725z" />
    <glyph glyph-name="v" unicode="v" horiz-adv-x="1200" 
d="M283 0l-238 1080h309l159 -796h177l156 796h309l-234 -1080h-638zM365 94h475l195 893h-101l-171 -796h-321l-170 796h-101z" />
    <glyph glyph-name="w" unicode="w" horiz-adv-x="1613" 
d="M110 1080h283v-736l61 -61h150l61 61v676h283v-676l61 -61h150l61 61v736h283v-874l-206 -206h-387l-103 102l-104 -102h-387l-206 206v874zM204 987v-735l162 -162h307l134 134l134 -134h306l162 162v735h-95v-691l-112 -111h-229l-119 118v631h-95v-631l-119 -118h-228
l-113 111v691h-95z" />
    <glyph glyph-name="x" unicode="x" horiz-adv-x="1252" 
d="M110 0v365l182 183l-182 180v352h283v-233l158 -159h150l158 159v233h283v-352l-181 -180l181 -183v-365h-283v247l-158 158h-150l-158 -158v-247h-283zM205 93h95v186l217 221h218l217 -221v-186h95v224l-224 230l224 224v216h-95v-179l-214 -213h-224l-214 213v179h-95
v-216l225 -224l-225 -230v-224z" />
    <glyph glyph-name="y" unicode="y" horiz-adv-x="1206" 
d="M316 0l-206 206v874h283v-736l61 -61h245l100 100v697h282v-1274l-206 -206h-715v282h558l81 81v57l-20 -20h-463zM267 -309h550l172 176v1120h-95v-632l-167 -165h-319l-109 109v688h-95v-732l158 -160h391l141 141v-319l-128 -131h-499v-95z" />
    <glyph glyph-name="z" unicode="z" horiz-adv-x="1070" 
d="M222 96h649v95h-530v152l511 363v281h-634v-95h517v-158l-513 -367v-271zM110 0v399l515 368v30h-496v283h831v-407l-508 -358v-32h508v-283h-850z" />
    <glyph glyph-name="braceleft" unicode="{" horiz-adv-x="822" 
d="M345 362v-667h296v98h-198v569l-160 189l160 189v567h198v98h-296v-665l-161 -189zM544 362v-468h198v-294h-492v751l-170 200l170 200v749h492v-294h-198v-466l-161 -189z" />
    <glyph glyph-name="bar" unicode="|" horiz-adv-x="618" 
d="M162 -428v1928h294v-1928h-294zM261 -337h98v1746h-98v-1746z" />
    <glyph glyph-name="braceright" unicode="}" horiz-adv-x="822" 
d="M477 362l161 189l-161 189v665h-296v-98h198v-567l160 -189l-160 -189v-569h-198v-98h296v667zM278 362l161 189l-161 189v466h-198v294h492v-749l170 -200l-170 -200v-751h-492v294h198v468z" />
    <glyph glyph-name="asciitilde" unicode="~" horiz-adv-x="780" 
d="M112 509v136l112 112h178l56 -56h18v56h192v-136l-112 -112h-178l-56 56h-18v-56h-192zM180 565h64v24l41 45h61l65 -64h110l83 87v45h-64v-24l-41 -44h-66l-64 63h-106l-83 -87v-45z" />
    <glyph glyph-name="uni00A0" unicode="&#xa0;" horiz-adv-x="550" 
 />
    <glyph glyph-name="exclamdown" unicode="&#xa1;" horiz-adv-x="558" 
d="M196 1012h162l62 -691v-349h-286v349zM257 899l-26 -559v-263h96v263l-26 559h-44zM122 1400h314v-294h-314v294zM221 1303v-100h118v100h-118z" />
    <glyph glyph-name="cent" unicode="&#xa2;" horiz-adv-x="1178" 
d="M440 0v154h-92l-206 206v680l206 206h92v154h304v-154h88l206 -206v-230h-283v92l-61 61h-208l-61 -61v-404l61 -61h208l61 61v92h283v-230l-206 -206h-88v-154h-304zM540 73h102v175h138l160 161v92h-95v-48l-111 -110h-284l-118 117v490l112 111h290l111 -110v-48h95
v92l-160 161h-138v175h-102v-175h-141l-162 -162v-578l167 -168h136v-175z" />
    <glyph glyph-name="sterling" unicode="&#xa3;" horiz-adv-x="1204" 
d="M75 0v283h120l61 61v202h-159v256h159v392l206 206h627v-283h-489l-61 -61v-254h190v-256h-190v-263h546v-283h-1010zM149 94h848v95h-630l77 78v362h197v85h-197v391l110 108h450v95h-496l-159 -159v-435h-156v-85h156v-331l-110 -109h-90v-95z" />
    <glyph glyph-name="currency" unicode="&#xa4;" horiz-adv-x="1240" 
d="M177 8l-181 181l148 148l-14 14v523l14 14l-152 152l181 181l152 -152l11 11h558l13 -13l154 154l181 -181l-154 -154l12 -12v-523l-8 -8l154 -154l-181 -181l-154 154l-17 -17h-558l-11 11zM474 428h282l61 61v247l-61 61h-282l-61 -61v-247zM178 133l159 160l56 -55
h452l57 56l164 -162l60 61l-163 162l43 43v427l-47 48l164 164l-62 61l-164 -164l-54 53h-456l-51 -51l-163 161l-60 -60l162 -163l-49 -50v-417l52 -53l-160 -161zM439 333l-118 116v332l112 111h367l111 -110v-339l-111 -110h-361z" />
    <glyph glyph-name="yen" unicode="&#xa5;" horiz-adv-x="1220" 
d="M468 0v70h-173v246h173v31h-173v222l-190 181v650h283v-548l222 -208l222 208v548h283v-650l-188 -179v-224h-176v-31h176v-246h-176v-70h-283zM562 90h95v62h178v83h-178v186h178v89h-105l291 273v525h-95v-493l-314 -295h-5l-314 295v493h-95v-525l290 -273h-102v-89
h176v-186h-176v-83h176v-62z" />
    <glyph glyph-name="brokenbar" unicode="&#xa6;" horiz-adv-x="618" 
d="M162 665v835h294v-835h-294zM260 755h99v654h-99v-654zM162 -400v835h294v-835h-294zM260 -310h99v654h-99v-654z" />
    <glyph glyph-name="section" unicode="&#xa7;" horiz-adv-x="1166" 
d="M135 -189v283h563l59 59l-57 57h-369l-206 206v269l64 64l-64 63v269l206 206h690v-283h-553l-58 -58l58 -58h367l206 -206v-269l-63 -63l63 -64v-269l-206 -206h-700zM227 -93h565l155 156v187l-106 102l106 107v187l-155 152h-379l-97 96v101l104 104h509v95h-554
l-156 -155v-187l105 -105l-105 -104v-187l149 -149h379l104 -100v-101l-104 -104h-520v-95zM468 492h232l57 57l-57 57h-234l-56 -56zM413 402l-97 96v101l104 104h327l104 -100v-101l-101 -100h-337z" />
    <glyph glyph-name="dieresis" unicode="&#xa8;" horiz-adv-x="944" 
d="M574 1132v210h212v-210h-212zM158 1132v210h212v-210h-212zM230 1201h65v70h-65v-70zM647 1201h66v70h-66v-70z" />
    <glyph glyph-name="copyright" unicode="&#xa9;" horiz-adv-x="1618" 
d="M364 -28l-214 214v1028l214 214h910l214 -214v-1028l-214 -214h-910zM404 75h831l162 162v932l-162 162h-831l-162 -162v-932zM444 173l-111 109v841l111 110h751l111 -110v-841l-111 -109h-751zM678 376h293l122 128v71h-77v-35l-82 -87h-218l-95 94v302l90 88h223
l82 -86v-34h77v70l-122 128h-298l-129 -129v-375zM488 266h662l64 64v740l-64 64h-662l-64 -64v-740zM630 300l-162 164v470l162 162h380l162 -162v-188h-232v74l-42 44h-154l-44 -44v-244l44 -44h154l42 44v76h232v-188l-162 -164h-380z" />
    <glyph glyph-name="ordfeminine" unicode="&#xaa;" horiz-adv-x="885" 
d="M243.479 717l-132.647 132.647v183.518l132.647 132.647h350.293v25.1133l-39.2783 39.2793h-434.647v182.229h523.508l132.648 -132.647v-430.14l-132.648 -132.647h-399.875zM304.651 838.057l-71.4756 70.832v77.9141l61.8164 61.8164h364.46v-135.867
l-75.9834 -74.6953h-278.817zM275.675 776.885h336.771l108.179 107.535v363.814l-104.314 104.315h-432.715v-61.1729h403.094l72.7637 -71.4746v-112.042h-388.284l-99.1641 -98.5205v-128.784zM332.34 899.229h222.153l39.2783 39.2793v51.5137h-274.31
l-27.0449 -27.0449v-24.4688z" />
    <glyph glyph-name="guillemotleft" unicode="&#xab;" horiz-adv-x="1200" 
d="M1063 216l-448 250v293l448 244v-293l-219 -98v0l219 -102v-294zM988 360v96l-234 117v79l234 116v96l-297 -157v-189zM565 216l-448 250v293l448 244v-293l-219 -98v0l219 -102v-294zM490 360v96l-234 117v79l234 116v96l-297 -157v-189z" />
    <glyph glyph-name="logicalnot" unicode="&#xac;" horiz-adv-x="1128" 
d="M1026 883v-548h-283v265h-641v283h924zM934 789h-740v-95h645v-266h95v361z" />
    <glyph glyph-name="uni00AD" unicode="&#xad;" horiz-adv-x="836" 
d="M102 476v256h632v-256h-632zM198 559h448v85h-448v-85z" />
    <glyph glyph-name="registered" unicode="&#xae;" horiz-adv-x="1382" 
d="M336 262l-214 214v738l214 214h710l214 -214v-738l-214 -214h-710zM376 331h631l162 162v676l-162 162h-631l-162 -162v-676zM416 426l-111 109v592l111 109h551l111 -109v-592l-111 -109h-551zM460 546h462l64 64v470l-64 64h-462l-64 -64v-470zM442 602v344l162 162
h210l165 -166l-187 -158l-92 92h18l-44 -44v-230h-232zM519 671h78v200l73 72h79l54 -54l62 52l-79 79h-153l-114 -114v-235z" />
    <glyph glyph-name="macron" unicode="&#xaf;" horiz-adv-x="836" 
d="M102 1119v256h632v-256h-632zM198 1202h448v85h-448v-85z" />
    <glyph glyph-name="degree" unicode="&#xb0;" horiz-adv-x="884" 
d="M242.244 709l-131.843 131.843v427.53l131.843 131.843h400.01l131.843 -131.843v-427.53l-131.843 -131.843h-400.01zM278.726 768.521h332.167l103.043 103.042v366.089l-103.043 103.042h-335.367l-103.683 -103.683v-361.607zM307.526 829.322l-74.8818 74.2422
v305.287l71.6816 71.041h277.767l71.041 -70.4014v-309.767l-71.041 -70.4023h-274.566zM330.566 890.124h223.365l39.041 39.041v250.886l-39.041 39.041h-223.365l-39.041 -39.041v-250.886z" />
    <glyph glyph-name="plusminus" unicode="&#xb1;" horiz-adv-x="836" 
d="M290 538v188h-188v256h188v188h256v-188h188v-256h-188v-188h-256zM375 629h86v180h185v85h-185v183h-86v-183h-177v-85h177v-180zM102 235v256h632v-256h-632zM198 318h448v85h-448v-85z" />
    <glyph glyph-name="uni00B2" unicode="&#xb2;" horiz-adv-x="512" 
d="M75 830v238l88 85h131l20 20v84l-20 20h-75l-20 -20v-62h-124v120l88 85h186l88 -84v-199l-88 -87h-130l-20 -21v-56h237v-123h-361zM118 871h272v41h-231v118l43 43h126l67 67v156l-66 65h-145l-66 -65v-59h41v41l43 42h109l43 -42v-121l-44 -43h-126l-66 -66v-177z" />
    <glyph glyph-name="uni00B3" unicode="&#xb3;" horiz-adv-x="511" 
d="M163 830l-87 87v114h123v-58l19 -20h76l20 20v61l-20 19h-80v123h80l20 22v59l-20 20h-76l-19 -20v-58h-124v114l88 87h186l87 -87v-173l-25 -25l25 -26v-172l-87 -87h-186zM182 873h147l65 65v130l-45 47l46 47v132l-66 65h-147l-66 -65v-57h41v40l43 42h111l43 -42v-97
l-44 -45h-62v-41h62l44 -42v-96l-43 -43h-111l-43 43v38h-41v-56z" />
    <glyph glyph-name="acute" unicode="&#xb4;" horiz-adv-x="688" 
d="M82 1112l244 264h287l-284 -264h-247zM223 1167h77l156 153h-89z" />
    <glyph glyph-name="uni00B5" unicode="&#xb5;" horiz-adv-x="1142" 
d="M110 -428v1508h283v-736l61 -61h234l61 61v736h283v-874l-206 -206h-433v-428h-283zM203 -337h95v517l98 -86h382l161 168v725h-95v-681l-111 -117h-317l-118 117v681h-95v-1324z" />
    <glyph glyph-name="paragraph" unicode="&#xb6;" horiz-adv-x="1335" 
d="M546 -234v652h-221l-225 225v551l206 206h889v-1634h-283v1352h-82v-1352h-284zM641 -144h94v1358h271v-1358h94v1452h-723l-159 -159v-456l177 -178l82 14l-101 118v466l83 101h182v-1358z" />
    <glyph glyph-name="periodcentered" unicode="&#xb7;" horiz-adv-x="558" 
d="M122 588v294h314v-294h-314zM221 685h118v100h-118v-100z" />
    <glyph glyph-name="cedilla" unicode="&#xb8;" horiz-adv-x="638" 
d="M80 -349v157h205l30 32l-30 30h-134v157h244l163 -187l-163 -189h-315zM146 -297h212l121 137l-121 135h-140v-53h104l75 -82l-75 -84h-176v-53z" />
    <glyph glyph-name="uni00B9" unicode="&#xb9;" horiz-adv-x="466" 
d="M75 830v123h95v301l-95 -28v136l138 38h81v-447h97v-123h-316zM121 870h223v40h-91v450h-30l-105 -32v-44l94 30v-404h-91v-40z" />
    <glyph glyph-name="ordmasculine" unicode="&#xba;" horiz-adv-x="884" 
d="M242.244 709l-131.843 131.843v427.53l131.843 131.843h400.01l131.843 -131.843v-427.53l-131.843 -131.843h-400.01zM278.726 768.521h332.167l103.043 103.042v366.089l-103.043 103.042h-335.367l-103.683 -103.683v-361.607zM307.526 829.322l-74.8818 74.2422
v305.287l71.6816 71.041h277.767l71.041 -70.4014v-309.767l-71.041 -70.4023h-274.566zM330.566 890.124h223.365l39.041 39.041v250.886l-39.041 39.041h-223.365l-39.041 -39.041v-250.886z" />
    <glyph glyph-name="guillemotright" unicode="&#xbb;" horiz-adv-x="1200" 
d="M137 216v294l219 102v0l-219 98v293l448 -244v-293zM212 360l297 158v189l-297 157v-96l234 -116v-79l-234 -117v-96zM635 216v294l219 102v0l-219 98v293l448 -244v-293zM710 360l297 158v189l-297 157v-96l234 -116v-79l-234 -117v-96z" />
    <glyph glyph-name="onequarter" unicode="&#xbc;" horiz-adv-x="1021" 
d="M75 830v123h95v301l-95 -28v136l138 38h81v-447h97v-123h-316zM121 870h223v40h-91v450h-30l-105 -32v-44l94 30v-404h-91v-40zM61 0l742 1400h154l-741 -1400h-155zM135 41h53l700 1323h-53zM790 0v128h-188v136l115 306h196v-318h58v-124h-58v-128h-123zM736 252h54
v184h3l-57 -171v-13zM834 36h39v130h63v41h-63v322h-128l-100 -269v-93h189v-131zM689 207v56l80 223h63v-279h-143z" />
    <glyph glyph-name="onehalf" unicode="&#xbd;" horiz-adv-x="1064" 
d="M75 830v123h95v301l-95 -28v136l138 38h81v-447h97v-123h-316zM121 870h223v40h-91v450h-30l-105 -32v-44l94 30v-404h-91v-40zM61 0l742 1400h154l-741 -1400h-155zM135 41h53l700 1323h-53zM627 0v238l88 85h131l20 20v84l-20 20h-75l-20 -20v-62h-124v120l88 85h186
l88 -84v-199l-88 -87h-130l-20 -21v-56h237v-123h-361zM670 41h272v41h-231v118l43 43h126l67 67v156l-66 65h-145l-66 -65v-59h41v41l43 42h109l43 -42v-121l-44 -43h-126l-66 -66v-177z" />
    <glyph glyph-name="threequarters" unicode="&#xbe;" horiz-adv-x="1066" 
d="M163 830l-87 87v114h123v-58l19 -20h76l20 20v61l-20 19h-80v123h80l20 22v59l-20 20h-76l-19 -20v-58h-124v114l88 87h186l87 -87v-173l-25 -25l25 -26v-172l-87 -87h-186zM182 873h147l65 65v130l-45 47l46 47v132l-66 65h-147l-66 -65v-57h41v40l43 42h111l43 -42v-97
l-44 -45h-62v-41h62l44 -42v-96l-43 -43h-111l-43 43v38h-41v-56zM106 0l742 1400h154l-741 -1400h-155zM180 41h53l700 1323h-53zM835 0v128h-188v136l115 306h196v-318h58v-124h-58v-128h-123zM781 252h54v184h3l-57 -171v-13zM879 36h39v130h63v41h-63v322h-128
l-100 -269v-93h189v-131zM734 207v56l80 223h63v-279h-143z" />
    <glyph glyph-name="questiondown" unicode="&#xbf;" horiz-adv-x="1100" 
d="M687 1021v-208l-268 -267v-202l62 -61h150l62 61v114h282v-252l-206 -206h-426l-206 206v459l267 268v88h283zM600 1306h-115v-95h115v95zM694 1400v-283h-301v283h301zM591 942h-95v-46l-265 -270v-373l159 -159h327l159 159v116h-95v-72l-109 -108h-237l-109 108v292
l265 270v83z" />
    <glyph glyph-name="Agrave" unicode="&#xc0;" horiz-adv-x="1288" 
d="M115 0v1194l206 206h646l206 -206v-1194h-282v412h-494v-412h-282zM212 101h95v402h678v-402h95v1051l-160 160h-549l-159 -160v-1051zM397 694h494v362l-61 61h-372l-61 -61v-362zM307 598v510l109 109h459l110 -109v-510h-678zM790 1432h-247l-284 264h287zM649 1487
l-144 153h-89l156 -153h77z" />
    <glyph glyph-name="Aacute" unicode="&#xc1;" horiz-adv-x="1311" 
d="M30 0l369 1400h508l374 -1400h-325l-73 296h-456l-71 -296h-326zM161 90h108l74 293h627l76 -293h107l-321 1216h-356zM362 468l184 744h214l191 -744h-589zM483 552h344l-137 564h-77zM529 1432l244 264h287l-284 -264h-247zM670 1487h77l156 153h-89z" />
    <glyph glyph-name="Acircumflex" unicode="&#xc2;" horiz-adv-x="1311" 
d="M30 0l369 1400h508l374 -1400h-325l-73 296h-456l-71 -296h-326zM161 90h108l74 293h627l76 -293h107l-321 1216h-356zM362 468l184 744h214l191 -744h-589zM483 552h344l-137 564h-77zM526 1716h252l224 -284h-277l-73 108l-73 -108h-277zM572 1655l-117 -154h89l75 106
h64l74 -106h89l-117 154h-157z" />
    <glyph glyph-name="Atilde" unicode="&#xc3;" horiz-adv-x="1288" 
d="M115 0v1194l206 206h646l206 -206v-1194h-282v412h-494v-412h-282zM212 101h95v402h678v-402h95v1051l-160 160h-549l-159 -160v-1051zM397 694h494v362l-61 61h-372l-61 -61v-362zM307 598v510l109 109h459l110 -109v-510h-678zM366 1432v136l112 112h178l56 -56h18v56
h192v-136l-112 -112h-178l-56 56h-18v-56h-192zM434 1488h64v24l41 45h61l65 -64h110l83 87v45h-64v-24l-41 -44h-66l-64 63h-106l-83 -87v-45z" />
    <glyph glyph-name="Adieresis" unicode="&#xc4;" horiz-adv-x="1288" 
d="M115 0v1194l206 206h646l206 -206v-1194h-282v412h-494v-412h-282zM212 101h95v402h678v-402h95v1051l-160 160h-549l-159 -160v-1051zM397 694h494v362l-61 61h-372l-61 -61v-362zM307 598v510l109 109h459l110 -109v-510h-678zM748 1452v210h212v-210h-212zM332 1452
v210h212v-210h-212zM404 1521h65v70h-65v-70zM821 1521h66v70h-66v-70z" />
    <glyph glyph-name="Aring" unicode="&#xc5;" horiz-adv-x="1288" 
d="M115 0v1194l206 206h646l206 -206v-1194h-282v412h-494v-412h-282zM212 101h95v402h678v-402h95v1051l-160 160h-549l-159 -160v-1051zM397 694h494v362l-61 61h-372l-61 -61v-362zM307 598v510l109 109h459l110 -109v-510h-678zM553 1430l-98 97v174l98 98h183l98 -98
v-174l-98 -97h-183zM583 1489h124l69 69v116l-69 68h-124l-69 -68v-116zM609 1548l-35 35v66l35 34h72l35 -34v-66l-35 -35h-72zM636 1598h17l8 9v15l-8 9h-17l-8 -9v-15z" />
    <glyph glyph-name="AE" unicode="&#xc6;" horiz-adv-x="1934" 
d="M30 0l595 1400h1147v-283h-550v-269h512v-283h-512v-282h550v-283h-833v412h-429l-173 -412h-307zM149 84h103l181 417h601v-417h664v95h-569v482h530v95h-530v471h569v95h-1010zM473 596l276 631h285v-631h-561zM626 694h313v423h-133z" />
    <glyph glyph-name="Ccedilla" unicode="&#xc7;" horiz-adv-x="1211" 
d="M417 -349v157h205l30 32l-30 30h-134v130h-157l-206 206v988l206 206h547l207 -206v-322h-283v184l-61 61h-272l-61 -61v-712l61 -61h272l61 61v184h283v-322l-207 -206h-122l139 -160l-163 -189h-315zM483 -297h212l121 137l-121 135h-55v119h192l159 160v190h-95v-146
l-109 -109h-364l-110 109v807l110 108h364l109 -108v-147h95v191l-159 159h-455l-159 -159v-895l159 -160h178v-172h104l75 -82l-75 -84h-176v-53z" />
    <glyph glyph-name="Egrave" unicode="&#xc8;" horiz-adv-x="1140" 
d="M115 0v1400h910v-283h-627v-269h558v-283h-558v-282h627v-283h-910zM211 97h732v95h-637v467h567v95h-567v459h637v95h-732v-1211zM707 1432h-247l-284 264h287zM566 1487l-144 153h-89l156 -153h77z" />
    <glyph glyph-name="Eacute" unicode="&#xc9;" horiz-adv-x="1140" 
d="M115 0v1400h910v-283h-627v-269h558v-283h-558v-282h627v-283h-910zM211 97h732v95h-637v467h567v95h-567v459h637v95h-732v-1211zM439 1432l244 264h287l-284 -264h-247zM580 1487h77l156 153h-89z" />
    <glyph glyph-name="Ecircumflex" unicode="&#xca;" horiz-adv-x="1140" 
d="M115 0v1400h910v-283h-627v-269h558v-283h-558v-282h627v-283h-910zM211 97h732v95h-637v467h567v95h-567v459h637v95h-732v-1211zM436 1716h252l224 -284h-277l-73 108l-73 -108h-277zM482 1655l-117 -154h89l75 106h64l74 -106h89l-117 154h-157z" />
    <glyph glyph-name="Edieresis" unicode="&#xcb;" horiz-adv-x="1140" 
d="M115 0v1400h910v-283h-627v-269h558v-283h-558v-282h627v-283h-910zM211 97h732v95h-637v467h567v95h-567v459h637v95h-732v-1211zM665 1452v210h212v-210h-212zM249 1452v210h212v-210h-212zM321 1521h65v70h-65v-70zM738 1521h66v70h-66v-70z" />
    <glyph glyph-name="Igrave" unicode="&#xcc;" horiz-adv-x="1059" 
d="M115 0v283h274v834h-274v283h829v-283h-273v-834h273v-283h-829zM208 93h644v95h-281v1025h281v95h-644v-95h268v-1025h-268v-95zM675 1432h-247l-284 264h287zM534 1487l-144 153h-89l156 -153h77z" />
    <glyph glyph-name="Iacute" unicode="&#xcd;" horiz-adv-x="1059" 
d="M115 0v283h274v834h-274v283h829v-283h-273v-834h273v-283h-829zM208 93h644v95h-281v1025h281v95h-644v-95h268v-1025h-268v-95zM407 1432l244 264h287l-284 -264h-247zM548 1487h77l156 153h-89z" />
    <glyph glyph-name="Icircumflex" unicode="&#xce;" horiz-adv-x="1059" 
d="M115 0v283h274v834h-274v283h829v-283h-273v-834h273v-283h-829zM208 93h644v95h-281v1025h281v95h-644v-95h268v-1025h-268v-95zM404 1716h252l224 -284h-277l-73 108l-73 -108h-277zM450 1655l-117 -154h89l75 106h64l74 -106h89l-117 154h-157z" />
    <glyph glyph-name="Idieresis" unicode="&#xcf;" horiz-adv-x="1059" 
d="M115 0v283h274v834h-274v283h829v-283h-273v-834h273v-283h-829zM208 93h644v95h-281v1025h281v95h-644v-95h268v-1025h-268v-95zM633 1452v210h212v-210h-212zM217 1452v210h212v-210h-212zM289 1521h65v70h-65v-70zM706 1521h66v70h-66v-70z" />
    <glyph glyph-name="Eth" unicode="&#xd0;" horiz-adv-x="1223" 
d="M178 0v562h-173v256h173v582h759l206 -206v-988l-206 -206h-759zM273 94h615l159 159v893l-159 159h-615v-575h-172v-86h172v-550zM368 189v455h261v86h-261v480h475l110 -108v-805l-110 -108h-475zM461 283h339l61 61v712l-61 61h-339v-299h256v-256h-256v-279z" />
    <glyph glyph-name="Ntilde" unicode="&#xd1;" horiz-adv-x="1465" 
d="M218 90h95v1118h202l362 -1114h371v1214h-95v-1117h-203l-360 1114h-372v-1215zM125 0v1400h543l346 -1113h43v1113h283v-1400h-543l-348 1116h-41v-1116h-283zM457 1432v136l112 112h178l56 -56h18v56h192v-136l-112 -112h-178l-56 56h-18v-56h-192zM525 1488h64v24
l41 45h61l65 -64h110l83 87v45h-64v-24l-41 -44h-66l-64 63h-106l-83 -87v-45z" />
    <glyph glyph-name="Ograve" unicode="&#xd2;" horiz-adv-x="1306" 
d="M321 0l-206 206v988l206 206h664l206 -206v-988l-206 -206h-664zM459 283h388l61 61v712l-61 61h-388l-61 -61v-712zM370 97h567l160 159v893l-160 159h-567l-159 -159v-893zM415 192l-109 108v805l109 108h477l110 -108v-805l-110 -108h-477zM798 1432h-247l-284 264
h287zM657 1487l-144 153h-89l156 -153h77z" />
    <glyph glyph-name="Oacute" unicode="&#xd3;" horiz-adv-x="1306" 
d="M321 0l-206 206v988l206 206h664l206 -206v-988l-206 -206h-664zM459 283h388l61 61v712l-61 61h-388l-61 -61v-712zM370 97h567l160 159v893l-160 159h-567l-159 -159v-893zM415 192l-109 108v805l109 108h477l110 -108v-805l-110 -108h-477zM530 1432l244 264h287
l-284 -264h-247zM671 1487h77l156 153h-89z" />
    <glyph glyph-name="Ocircumflex" unicode="&#xd4;" horiz-adv-x="1306" 
d="M321 0l-206 206v988l206 206h664l206 -206v-988l-206 -206h-664zM459 283h388l61 61v712l-61 61h-388l-61 -61v-712zM370 97h567l160 159v893l-160 159h-567l-159 -159v-893zM415 192l-109 108v805l109 108h477l110 -108v-805l-110 -108h-477zM527 1716h252l224 -284
h-277l-73 108l-73 -108h-277zM573 1655l-117 -154h89l75 106h64l74 -106h89l-117 154h-157z" />
    <glyph glyph-name="Otilde" unicode="&#xd5;" horiz-adv-x="1306" 
d="M321 0l-206 206v988l206 206h664l206 -206v-988l-206 -206h-664zM459 283h388l61 61v712l-61 61h-388l-61 -61v-712zM370 97h567l160 159v893l-160 159h-567l-159 -159v-893zM415 192l-109 108v805l109 108h477l110 -108v-805l-110 -108h-477zM374 1432v136l112 112h178
l56 -56h18v56h192v-136l-112 -112h-178l-56 56h-18v-56h-192zM442 1488h64v24l41 45h61l65 -64h110l83 87v45h-64v-24l-41 -44h-66l-64 63h-106l-83 -87v-45z" />
    <glyph glyph-name="Odieresis" unicode="&#xd6;" horiz-adv-x="1306" 
d="M321 0l-206 206v988l206 206h664l206 -206v-988l-206 -206h-664zM459 283h388l61 61v712l-61 61h-388l-61 -61v-712zM370 97h567l160 159v893l-160 159h-567l-159 -159v-893zM415 192l-109 108v805l109 108h477l110 -108v-805l-110 -108h-477zM756 1452v210h212v-210
h-212zM340 1452v210h212v-210h-212zM412 1521h65v70h-65v-70zM829 1521h66v70h-66v-70z" />
    <glyph glyph-name="multiply" unicode="&#xd7;" horiz-adv-x="836" 
d="M552 278l-133 133l-132 -133l-181 181l133 133l-133 132l181 181l132 -132l133 132l181 -181l-133 -132l133 -133zM549 402l60 60l-127 128l131 131l-61 60l-131 -131l-129 129l-60 -60l129 -129l-125 -126l60 -60l125 125z" />
    <glyph glyph-name="Oslash" unicode="&#xd8;" horiz-adv-x="1390" 
d="M304 -53l-196 139l73 102l-20 18v988l206 206h644l17 -16l57 81l197 -137l-82 -117l17 -17v-988l-206 -206h-644l-14 15zM542 283h331l61 61v493zM464 179l-63 46l614 870l24 -39v-769l-110 -108h-465zM271 39l74 105l60 -60h570l159 159v919l-42 41l85 120l-64 45
l-76 -109l-62 63h-570l-160 -160v-919l43 -42l-82 -115zM365 308l-25 41v770l110 108h467l64 -48zM444 560l394 558h-332l-62 -62v-496z" />
    <glyph glyph-name="Ugrave" unicode="&#xd9;" horiz-adv-x="1328" 
d="M321 0l-206 206v1194h283v-1056l61 -61h410l61 61v1056h283v-1194l-206 -206h-686zM369 94h591l159 157v1057h-95v-1013l-109 -106h-500l-111 106v1013h-95v-1057zM810 1432h-247l-284 264h287zM669 1487l-144 153h-89l156 -153h77z" />
    <glyph glyph-name="Uacute" unicode="&#xda;" horiz-adv-x="1328" 
d="M321 0l-206 206v1194h283v-1056l61 -61h410l61 61v1056h283v-1194l-206 -206h-686zM369 94h591l159 157v1057h-95v-1013l-109 -106h-500l-111 106v1013h-95v-1057zM542 1432l244 264h287l-284 -264h-247zM683 1487h77l156 153h-89z" />
    <glyph glyph-name="Ucircumflex" unicode="&#xdb;" horiz-adv-x="1328" 
d="M321 0l-206 206v1194h283v-1056l61 -61h410l61 61v1056h283v-1194l-206 -206h-686zM369 94h591l159 157v1057h-95v-1013l-109 -106h-500l-111 106v1013h-95v-1057zM539 1716h252l224 -284h-277l-73 108l-73 -108h-277zM585 1655l-117 -154h89l75 106h64l74 -106h89
l-117 154h-157z" />
    <glyph glyph-name="Udieresis" unicode="&#xdc;" horiz-adv-x="1328" 
d="M321 0l-206 206v1194h283v-1056l61 -61h410l61 61v1056h283v-1194l-206 -206h-686zM369 94h591l159 157v1057h-95v-1013l-109 -106h-500l-111 106v1013h-95v-1057zM768 1452v210h212v-210h-212zM352 1452v210h212v-210h-212zM424 1521h65v70h-65v-70zM841 1521h66v70h-66
v-70z" />
    <glyph glyph-name="Yacute" unicode="&#xdd;" horiz-adv-x="1294" 
d="M505 0v443l-400 382v575h283v-473l268 -253h-19l269 253v473h283v-575l-401 -382v-443h-283zM599 90h95v389l401 379v450h-95v-418l-351 -331h-5l-351 331v418h-95v-450l401 -379v-389zM524 1432l244 264h287l-284 -264h-247zM665 1487h77l156 153h-89z" />
    <glyph glyph-name="Thorn" unicode="&#xde;" horiz-adv-x="1132" 
d="M105 0v1400h283v-320h432l207 -206v-348l-207 -206h-432v-320h-283zM198 91h95v325h470l168 167v254l-155 154h-483v321h-95v-1221zM293 511v385h438l105 -103v-166l-118 -116h-425zM388 603h295l61 61v72l-61 62h-295v-195z" />
    <glyph glyph-name="germandbls" unicode="&#xdf;" horiz-adv-x="1306" 
d="M85 0v1194l206 206h659l206 -206v-357l-89 -89l154 -155v-367l-226 -226h-375v283h237l81 81v101l-164 164v227l100 99v101l-61 61h-384l-61 -61v-1056h-283zM176 95h95v1021l92 94h515l89 -95v-203l-92 -93v-154l155 -156v-198l-126 -121h-203v-94h250l174 168v285
l-156 160v72l93 94v286l-136 143h-611l-139 -140v-1069z" />
    <glyph glyph-name="agrave" unicode="&#xe0;" horiz-adv-x="1253" 
d="M316 0l-206 206v285l206 206h544v39l-61 61h-675v283h813l206 -206v-668l-206 -206h-621zM411 188l-111 110v121l96 96h566v-211l-118 -116h-433zM366 93h523l168 167v565l-162 162h-672v-95h626l113 -111v-174h-603l-154 -153v-200zM454 283h345l61 61v80h-426l-42 -42
v-38zM773 1112h-247l-284 264h287zM632 1167l-144 153h-89l156 -153h77z" />
    <glyph glyph-name="aacute" unicode="&#xe1;" horiz-adv-x="1253" 
d="M316 0l-206 206v285l206 206h544v39l-61 61h-675v283h813l206 -206v-668l-206 -206h-621zM411 188l-111 110v121l96 96h566v-211l-118 -116h-433zM366 93h523l168 167v565l-162 162h-672v-95h626l113 -111v-174h-603l-154 -153v-200zM454 283h345l61 61v80h-426l-42 -42
v-38zM505 1112l244 264h287l-284 -264h-247zM646 1167h77l156 153h-89z" />
    <glyph glyph-name="acircumflex" unicode="&#xe2;" horiz-adv-x="1253" 
d="M316 0l-206 206v285l206 206h544v39l-61 61h-675v283h813l206 -206v-668l-206 -206h-621zM411 188l-111 110v121l96 96h566v-211l-118 -116h-433zM366 93h523l168 167v565l-162 162h-672v-95h626l113 -111v-174h-603l-154 -153v-200zM454 283h345l61 61v80h-426l-42 -42
v-38zM502 1396h252l224 -284h-277l-73 108l-73 -108h-277zM548 1335l-117 -154h89l75 106h64l74 -106h89l-117 154h-157z" />
    <glyph glyph-name="atilde" unicode="&#xe3;" horiz-adv-x="1253" 
d="M316 0l-206 206v285l206 206h544v39l-61 61h-675v283h813l206 -206v-668l-206 -206h-621zM411 188l-111 110v121l96 96h566v-211l-118 -116h-433zM366 93h523l168 167v565l-162 162h-672v-95h626l113 -111v-174h-603l-154 -153v-200zM454 283h345l61 61v80h-426l-42 -42
v-38zM349 1112v136l112 112h178l56 -56h18v56h192v-136l-112 -112h-178l-56 56h-18v-56h-192zM417 1168h64v24l41 45h61l65 -64h110l83 87v45h-64v-24l-41 -44h-66l-64 63h-106l-83 -87v-45z" />
    <glyph glyph-name="adieresis" unicode="&#xe4;" horiz-adv-x="1253" 
d="M316 0l-206 206v285l206 206h544v39l-61 61h-675v283h813l206 -206v-668l-206 -206h-621zM411 188l-111 110v121l96 96h566v-211l-118 -116h-433zM366 93h523l168 167v565l-162 162h-672v-95h626l113 -111v-174h-603l-154 -153v-200zM454 283h345l61 61v80h-426l-42 -42
v-38zM731 1132v210h212v-210h-212zM315 1132v210h212v-210h-212zM387 1201h65v70h-65v-70zM804 1201h66v70h-66v-70z" />
    <glyph glyph-name="aring" unicode="&#xe5;" horiz-adv-x="1253" 
d="M316 0l-206 206v285l206 206h544v39l-61 61h-675v283h813l206 -206v-668l-206 -206h-621zM411 188l-111 110v121l96 96h566v-211l-118 -116h-433zM366 93h523l168 167v565l-162 162h-672v-95h626l113 -111v-174h-603l-154 -153v-200zM454 283h345l61 61v80h-426l-42 -42
v-38zM536 1110l-98 97v174l98 98h183l98 -98v-174l-98 -97h-183zM566 1169h124l69 69v116l-69 68h-124l-69 -68v-116zM592 1228l-35 35v66l35 34h72l35 -34v-66l-35 -35h-72zM619 1278h17l8 9v15l-8 9h-17l-8 -9v-15z" />
    <glyph glyph-name="ae" unicode="&#xe6;" horiz-adv-x="1790" 
d="M339 0l-206 206v280l206 206h342l66 65v-21l-62 61h-207l-129 -128l-228 192l218 219h485l67 -67l67 67h485l206 -206v-292l-206 -194h-342l-66 -65v21l62 -61h207l129 128l228 -192l-218 -219h-485l-67 67l-67 -67h-485zM376 97h394l118 118l119 -118h407l123 123
l-75 65l-93 -93h-317l-113 111v26l153 151h327l148 142v198l-161 164h-394l-118 -119l-119 119h-407l-123 -124l75 -64l93 93h317l113 -111v-27l-153 -151h-327l-148 -146v-196zM421 192l-111 110v117l90 90h305l138 138v-339l-118 -116h-304zM939 433v339l118 117h304
l111 -110v-118l-90 -90h-305zM478 283h207l62 61v96l-19 -19h-270l-42 -42v-35zM1035 640l19 19h270l42 42v35l-62 61h-207l-62 -61v-96z" />
    <glyph glyph-name="ccedilla" unicode="&#xe7;" horiz-adv-x="1148" 
d="M385 -349v157h205l30 32l-30 30h-134v130h-123l-206 206v668l206 206h484l206 -206v-224h-283v86l-61 61h-208l-61 -61v-392l61 -61h208l61 61v86h283v-224l-206 -206h-93l139 -160l-163 -189h-315zM451 -297h212l121 137l-121 135h-55v119h161l160 160v97h-95v-53
l-111 -109h-288l-118 116v478l112 111h294l111 -110v-52h95v96l-160 161h-385l-162 -162v-569l167 -164h134v-172h104l75 -82l-75 -84h-176v-53z" />
    <glyph glyph-name="egrave" unicode="&#xe8;" horiz-adv-x="1253" 
d="M937 1080l206 -206v-285l-206 -206h-544v-39l61 -61h675v-283h-813l-206 206v668l206 206h621zM842 892l111 -110v-121l-96 -96h-566v211l118 116h433zM887 987h-523l-168 -167v-565l162 -162h672v95h-626l-113 111v174h603l154 153v200zM799 797h-345l-61 -61v-80h426
l42 42v38zM774 1112h-247l-284 264h287zM633 1167l-144 153h-89l156 -153h77z" />
    <glyph glyph-name="eacute" unicode="&#xe9;" horiz-adv-x="1253" 
d="M937 1080l206 -206v-285l-206 -206h-544v-39l61 -61h675v-283h-813l-206 206v668l206 206h621zM842 892l111 -110v-121l-96 -96h-566v211l118 116h433zM887 987h-523l-168 -167v-565l162 -162h672v95h-626l-113 111v174h603l154 153v200zM799 797h-345l-61 -61v-80h426
l42 42v38zM506 1112l244 264h287l-284 -264h-247zM647 1167h77l156 153h-89z" />
    <glyph glyph-name="ecircumflex" unicode="&#xea;" horiz-adv-x="1253" 
d="M937 1080l206 -206v-285l-206 -206h-544v-39l61 -61h675v-283h-813l-206 206v668l206 206h621zM842 892l111 -110v-121l-96 -96h-566v211l118 116h433zM887 987h-523l-168 -167v-565l162 -162h672v95h-626l-113 111v174h603l154 153v200zM799 797h-345l-61 -61v-80h426
l42 42v38zM503 1396h252l224 -284h-277l-73 108l-73 -108h-277zM549 1335l-117 -154h89l75 106h64l74 -106h89l-117 154h-157z" />
    <glyph glyph-name="edieresis" unicode="&#xeb;" horiz-adv-x="1253" 
d="M937 1080l206 -206v-285l-206 -206h-544v-39l61 -61h675v-283h-813l-206 206v668l206 206h621zM842 892l111 -110v-121l-96 -96h-566v211l118 116h433zM887 987h-523l-168 -167v-565l162 -162h672v95h-626l-113 111v174h603l154 153v200zM799 797h-345l-61 -61v-80h426
l42 42v38zM732 1132v210h212v-210h-212zM316 1132v210h212v-210h-212zM388 1201h65v70h-65v-70zM805 1201h66v70h-66v-70z" />
    <glyph glyph-name="igrave" unicode="&#xec;" horiz-adv-x="990" 
d="M114 0v283h240v514h-240v283h522v-797h240v-283h-762zM200 93h590v95h-254v800h-336v-95h241v-705h-241v-95zM640 1112h-247l-284 264h287zM499 1167l-144 153h-89l156 -153h77z" />
    <glyph glyph-name="iacute" unicode="&#xed;" horiz-adv-x="990" 
d="M114 0v283h240v514h-240v283h522v-797h240v-283h-762zM200 93h590v95h-254v800h-336v-95h241v-705h-241v-95zM372 1112l244 264h287l-284 -264h-247zM513 1167h77l156 153h-89z" />
    <glyph glyph-name="icircumflex" unicode="&#xee;" horiz-adv-x="990" 
d="M114 0v283h240v514h-240v283h522v-797h240v-283h-762zM200 93h590v95h-254v800h-336v-95h241v-705h-241v-95zM369 1396h252l224 -284h-277l-73 108l-73 -108h-277zM415 1335l-117 -154h89l75 106h64l74 -106h89l-117 154h-157z" />
    <glyph glyph-name="idieresis" unicode="&#xef;" horiz-adv-x="990" 
d="M114 0v283h240v514h-240v283h522v-797h240v-283h-762zM200 93h590v95h-254v800h-336v-95h241v-705h-241v-95zM598 1132v210h212v-210h-212zM182 1132v210h212v-210h-212zM254 1201h65v70h-65v-70zM671 1201h66v70h-66v-70z" />
    <glyph glyph-name="eth" unicode="&#xf0;" horiz-adv-x="1120" 
d="M325 0l-206 206v536l206 206h187l-120 111l101 100l-242 241h394l45 -45l65 65l128 -118l-73 -72l191 -196v-828l-206 -206h-470zM420 190l-111 110v350l111 110h239l156 -153v-304l-115 -113h-280zM462 283h196l61 61v241l-81 80h-176l-61 -61v-260zM375 95h370l165 164
v731l-206 215l80 79l-45 42l-77 -76l-73 75h-132l140 -141l-96 -96l44 -41l95 94l175 -182v-245l-143 141h-297l-160 -161v-438zM719 908v28l-103 101l-89 -89h152z" />
    <glyph glyph-name="ntilde" unicode="&#xf1;" horiz-adv-x="1180" 
d="M110 0v874l206 206h548l206 -206v-874h-282v736l-61 61h-274l-61 -61v-736h-282zM205 93h95v688l112 111h359l111 -110v-689h94v733l-160 161h-449l-162 -162v-732zM318 1112v136l112 112h178l56 -56h18v56h192v-136l-112 -112h-178l-56 56h-18v-56h-192zM386 1168h64v24
l41 45h61l65 -64h110l83 87v45h-64v-24l-41 -44h-66l-64 63h-106l-83 -87v-45z" />
    <glyph glyph-name="ograve" unicode="&#xf2;" horiz-adv-x="1257" 
d="M316 0l-206 206v668l206 206h625l206 -206v-668l-206 -206h-625zM373 93h519l161 161v572l-161 161h-524l-162 -162v-565zM418 188l-117 116v477l112 111h434l111 -110v-484l-111 -110h-429zM454 283h349l61 61v392l-61 61h-349l-61 -61v-392zM773 1112h-247l-284 264
h287zM632 1167l-144 153h-89l156 -153h77z" />
    <glyph glyph-name="oacute" unicode="&#xf3;" horiz-adv-x="1257" 
d="M316 0l-206 206v668l206 206h625l206 -206v-668l-206 -206h-625zM373 93h519l161 161v572l-161 161h-524l-162 -162v-565zM418 188l-117 116v477l112 111h434l111 -110v-484l-111 -110h-429zM454 283h349l61 61v392l-61 61h-349l-61 -61v-392zM505 1112l244 264h287
l-284 -264h-247zM646 1167h77l156 153h-89z" />
    <glyph glyph-name="ocircumflex" unicode="&#xf4;" horiz-adv-x="1257" 
d="M316 0l-206 206v668l206 206h625l206 -206v-668l-206 -206h-625zM373 93h519l161 161v572l-161 161h-524l-162 -162v-565zM418 188l-117 116v477l112 111h434l111 -110v-484l-111 -110h-429zM454 283h349l61 61v392l-61 61h-349l-61 -61v-392zM502 1396h252l224 -284
h-277l-73 108l-73 -108h-277zM548 1335l-117 -154h89l75 106h64l74 -106h89l-117 154h-157z" />
    <glyph glyph-name="otilde" unicode="&#xf5;" horiz-adv-x="1257" 
d="M316 0l-206 206v668l206 206h625l206 -206v-668l-206 -206h-625zM373 93h519l161 161v572l-161 161h-524l-162 -162v-565zM418 188l-117 116v477l112 111h434l111 -110v-484l-111 -110h-429zM454 283h349l61 61v392l-61 61h-349l-61 -61v-392zM349 1112v136l112 112h178
l56 -56h18v56h192v-136l-112 -112h-178l-56 56h-18v-56h-192zM417 1168h64v24l41 45h61l65 -64h110l83 87v45h-64v-24l-41 -44h-66l-64 63h-106l-83 -87v-45z" />
    <glyph glyph-name="odieresis" unicode="&#xf6;" horiz-adv-x="1257" 
d="M316 0l-206 206v668l206 206h625l206 -206v-668l-206 -206h-625zM373 93h519l161 161v572l-161 161h-524l-162 -162v-565zM418 188l-117 116v477l112 111h434l111 -110v-484l-111 -110h-429zM454 283h349l61 61v392l-61 61h-349l-61 -61v-392zM731 1132v210h212v-210
h-212zM315 1132v210h212v-210h-212zM387 1201h65v70h-65v-70zM804 1201h66v70h-66v-70z" />
    <glyph glyph-name="divide" unicode="&#xf7;" horiz-adv-x="836" 
d="M102 476v256h632v-256h-632zM198 559h448v85h-448v-85zM309 159v210h212v-210h-212zM381 228h65v70h-65v-70zM309 839v210h212v-210h-212zM381 908h65v70h-65v-70z" />
    <glyph glyph-name="oslash" unicode="&#xf8;" horiz-adv-x="1158" 
d="M300 -53l-196 139l58 80l-40 40v668l206 206h485h5l40 57l196 -137l-67 -94l31 -32v-668l-205 -206h-475l-4 -5zM538 283h136l62 61v207zM270 39l65 91l41 -40h396l151 150v600l-51 50l78 109l-64 45l-70 -98l-44 44h-391l-163 -152v-591l59 -59l-72 -103zM445 185
l-48 33l403 569l28 -49v-454l-101 -99h-282zM348 287l-35 58v450l113 100h280l51 -34zM405 510l213 288h-151l-62 -62v-226z" />
    <glyph glyph-name="ugrave" unicode="&#xf9;" horiz-adv-x="1202" 
d="M316 0l-206 206v874h283v-736l61 -61h294l61 61v736h283v-874l-206 -206h-570zM370 94h468l161 168v725h-95v-681l-111 -117h-377l-118 117v681h-95v-725zM748 1112h-247l-284 264h287zM607 1167l-144 153h-89l156 -153h77z" />
    <glyph glyph-name="uacute" unicode="&#xfa;" horiz-adv-x="1202" 
d="M316 0l-206 206v874h283v-736l61 -61h294l61 61v736h283v-874l-206 -206h-570zM370 94h468l161 168v725h-95v-681l-111 -117h-377l-118 117v681h-95v-725zM480 1112l244 264h287l-284 -264h-247zM621 1167h77l156 153h-89z" />
    <glyph glyph-name="ucircumflex" unicode="&#xfb;" horiz-adv-x="1202" 
d="M316 0l-206 206v874h283v-736l61 -61h294l61 61v736h283v-874l-206 -206h-570zM370 94h468l161 168v725h-95v-681l-111 -117h-377l-118 117v681h-95v-725zM477 1396h252l224 -284h-277l-73 108l-73 -108h-277zM523 1335l-117 -154h89l75 106h64l74 -106h89l-117 154h-157
z" />
    <glyph glyph-name="udieresis" unicode="&#xfc;" horiz-adv-x="1202" 
d="M316 0l-206 206v874h283v-736l61 -61h294l61 61v736h283v-874l-206 -206h-570zM370 94h468l161 168v725h-95v-681l-111 -117h-377l-118 117v681h-95v-725zM706 1132v210h212v-210h-212zM290 1132v210h212v-210h-212zM362 1201h65v70h-65v-70zM779 1201h66v70h-66v-70z
" />
    <glyph glyph-name="yacute" unicode="&#xfd;" horiz-adv-x="1206" 
d="M316 0l-206 206v874h283v-736l61 -61h245l100 100v697h282v-1274l-206 -206h-715v282h558l81 81v57l-20 -20h-463zM267 -309h550l172 176v1120h-95v-632l-167 -165h-319l-109 109v688h-95v-732l158 -160h391l141 141v-319l-128 -131h-499v-95zM470 1112l244 264h287
l-284 -264h-247zM611 1167h77l156 153h-89z" />
    <glyph glyph-name="thorn" unicode="&#xfe;" horiz-adv-x="1132" 
d="M105 -400v1900h283v-439l20 19h412l207 -206v-668l-207 -206h-412l-20 19v-419h-283zM468 282h215l61 62v392l-61 62h-215l-80 -81v-354zM201 -300h95v526l128 -128h355l154 154v585l-154 154h-355l-128 -128v545h-95v-1708zM444 193l-148 146v410l148 147h290l104 -103
v-498l-104 -102h-290z" />
    <glyph glyph-name="ydieresis" unicode="&#xff;" horiz-adv-x="1206" 
d="M316 0l-206 206v874h283v-736l61 -61h245l100 100v697h282v-1274l-206 -206h-715v282h558l81 81v57l-20 -20h-463zM267 -309h550l172 176v1120h-95v-632l-167 -165h-319l-109 109v688h-95v-732l158 -160h391l141 141v-319l-128 -131h-499v-95zM696 1132v210h212v-210
h-212zM280 1132v210h212v-210h-212zM352 1201h65v70h-65v-70zM769 1201h66v70h-66v-70z" />
    <glyph glyph-name="Amacron" unicode="&#x100;" horiz-adv-x="1288" 
d="M115 0v1194l206 206h646l206 -206v-1194h-282v412h-494v-412h-282zM212 101h95v402h678v-402h95v1051l-160 160h-549l-159 -160v-1051zM397 694h494v362l-61 61h-372l-61 -61v-362zM307 598v510l109 109h459l110 -109v-510h-678zM329 1431v256h632v-256h-632zM425 1514
h448v85h-448v-85z" />
    <glyph glyph-name="amacron" unicode="&#x101;" horiz-adv-x="1253" 
d="M316 0l-206 206v285l206 206h544v39l-61 61h-675v283h813l206 -206v-668l-206 -206h-621zM411 188l-111 110v121l96 96h566v-211l-118 -116h-433zM366 93h523l168 167v565l-162 162h-672v-95h626l113 -111v-174h-603l-154 -153v-200zM454 283h345l61 61v80h-426l-42 -42
v-38zM312 1111v256h632v-256h-632zM408 1194h448v85h-448v-85z" />
    <glyph glyph-name="Abreve" unicode="&#x102;" horiz-adv-x="1311" 
d="M30 0l369 1400h508l374 -1400h-325l-73 296h-456l-71 -296h-326zM161 90h108l74 293h627l76 -293h107l-321 1216h-356zM362 468l184 744h214l191 -744h-589zM483 552h344l-137 564h-77zM533 1432l-112 112v156h192v-76h78v76h192v-156l-112 -112h-238zM572 1493h162
l82 87v56h-64v-35l-41 -44h-117l-41 44v35h-64v-56z" />
    <glyph glyph-name="abreve" unicode="&#x103;" horiz-adv-x="1253" 
d="M316 0l-206 206v285l206 206h544v39l-61 61h-675v283h813l206 -206v-668l-206 -206h-621zM411 188l-111 110v121l96 96h566v-211l-118 -116h-433zM366 93h523l168 167v565l-162 162h-672v-95h626l113 -111v-174h-603l-154 -153v-200zM454 283h345l61 61v80h-426l-42 -42
v-38zM509 1112l-112 112v156h192v-76h78v76h192v-156l-112 -112h-238zM548 1173h162l82 87v56h-64v-35l-41 -44h-117l-41 44v35h-64v-56z" />
    <glyph glyph-name="Aogonek" unicode="&#x104;" horiz-adv-x="1164" 
d="M854 -369l-163 189l162 180h-26l-60 296h-389l-59 -296h-299l304 1400h498l304 -1400h-52l-180 -180l30 -32h235v-157h-305zM881 -317h229v53h-206l-77 84l191 198h9l-276 1296h-353l-261 -1224h99l60 293h556l75 -363h21l-187 -200zM313 468l156 756h209l157 -756h-522z
M429 552h286l-114 564h-60z" />
    <glyph glyph-name="aogonek" unicode="&#x105;" horiz-adv-x="1140" 
d="M591 -369l-183 189l180 180h-261l-206 206v270l206 206h407v54l-61 61h-538v283h676l206 -206v-668l-386 -386l30 -32h235v-157h-305zM610 -317h229v53h-206l-77 84l371 388v614l-162 162h-531v-95h485l113 -111v-188h-462l-154 -153v-183l161 -161h367l-261 -273z
M465 283h269v126h-289l-42 -42v-23zM422 188l-111 110v104l96 97h425v-272l-36 -39h-374z" />
    <glyph glyph-name="Cacute" unicode="&#x106;" horiz-adv-x="1244" 
d="M311 0l-206 206v988l206 206h621l207 -206v-322h-283v184l-61 61h-346l-61 -61v-712l61 -61h346l61 61v184h283v-322l-207 -206h-621zM357 94h529l159 160v190h-95v-146l-109 -109h-438l-110 109v807l110 108h438l109 -108v-147h95v191l-159 159h-529l-159 -159v-895z
M503 1432l244 264h287l-284 -264h-247zM644 1487h77l156 153h-89z" />
    <glyph glyph-name="cacute" unicode="&#x107;" horiz-adv-x="1205" 
d="M316 0l-206 206v668l206 206h764v-283h-626l-61 -61v-392l61 -61h626v-283h-764zM372 94h614v95h-568l-118 116v478l112 111h574v95h-619l-162 -162v-569zM468 1112l244 264h287l-284 -264h-247zM609 1167h77l156 153h-89z" />
    <glyph glyph-name="Ccircumflex" unicode="&#x108;" horiz-adv-x="1244" 
d="M311 0l-206 206v988l206 206h621l207 -206v-322h-283v184l-61 61h-346l-61 -61v-712l61 -61h346l61 61v184h283v-322l-207 -206h-621zM357 94h529l159 160v190h-95v-146l-109 -109h-438l-110 109v807l110 108h438l109 -108v-147h95v191l-159 159h-529l-159 -159v-895z
M500 1716h252l224 -284h-277l-73 108l-73 -108h-277zM546 1655l-117 -154h89l75 106h64l74 -106h89l-117 154h-157z" />
    <glyph glyph-name="ccircumflex" unicode="&#x109;" horiz-adv-x="1205" 
d="M316 0l-206 206v668l206 206h764v-283h-626l-61 -61v-392l61 -61h626v-283h-764zM372 94h614v95h-568l-118 116v478l112 111h574v95h-619l-162 -162v-569zM465 1396h252l224 -284h-277l-73 108l-73 -108h-277zM511 1335l-117 -154h89l75 106h64l74 -106h89l-117 154h-157
z" />
    <glyph glyph-name="Cdotaccent" unicode="&#x10a;" horiz-adv-x="1244" 
d="M311 0l-206 206v988l206 206h621l207 -206v-322h-283v184l-61 61h-346l-61 -61v-712l61 -61h346l61 61v184h283v-322l-207 -206h-621zM357 94h529l159 160v190h-95v-146l-109 -109h-438l-110 109v807l110 108h438l109 -108v-147h95v191l-159 159h-529l-159 -159v-895z
M521 1452v210h212v-210h-212zM593 1521h65v70h-65v-70z" />
    <glyph glyph-name="cdotaccent" unicode="&#x10b;" horiz-adv-x="1205" 
d="M316 0l-206 206v668l206 206h764v-283h-626l-61 -61v-392l61 -61h626v-283h-764zM372 94h614v95h-568l-118 116v478l112 111h574v95h-619l-162 -162v-569zM486 1132v210h212v-210h-212zM558 1201h65v70h-65v-70z" />
    <glyph glyph-name="Ccaron" unicode="&#x10c;" horiz-adv-x="1244" 
d="M311 0l-206 206v988l206 206h621l207 -206v-322h-283v184l-61 61h-346l-61 -61v-712l61 -61h346l61 61v184h283v-322l-207 -206h-621zM357 94h529l159 160v190h-95v-146l-109 -109h-438l-110 109v807l110 108h438l109 -108v-147h95v191l-159 159h-529l-159 -159v-895z
M500 1432l-224 284h277l73 -108l73 108h277l-224 -284h-252zM546 1493h157l117 154h-89l-74 -106h-64l-75 106h-89z" />
    <glyph glyph-name="ccaron" unicode="&#x10d;" horiz-adv-x="1205" 
d="M316 0l-206 206v668l206 206h764v-283h-626l-61 -61v-392l61 -61h626v-283h-764zM372 94h614v95h-568l-118 116v478l112 111h574v95h-619l-162 -162v-569zM465 1112l-224 284h277l73 -108l73 108h277l-224 -284h-252zM511 1173h157l117 154h-89l-74 -106h-64l-75 106h-89
z" />
    <glyph glyph-name="Dcaron" unicode="&#x10e;" horiz-adv-x="1289" 
d="M125 0v1400h833l206 -206v-988l-206 -206h-833zM408 283h413l61 61v712l-61 61h-413v-834zM220 94h689l159 159v893l-159 159h-689v-1211zM315 189v1021h549l110 -108v-805l-110 -108h-549zM519 1432l-224 284h277l73 -108l73 108h277l-224 -284h-252zM565 1493h157
l117 154h-89l-74 -106h-64l-75 106h-89z" />
    <glyph glyph-name="dcaron" unicode="&#x10f;" horiz-adv-x="1492" 
d="M879 0h-562l-207 206v668l207 206h466l20 -19v439h283v-1294zM780 185h-361l-118 117v491l105 103h344l148 -147v-447zM742 283l61 61v373l-80 81h-269l-61 -62v-392l61 -61h288zM825 90l168 168v1150h-95v-545l-129 128h-408l-155 -154v-579l168 -168h451zM1236 1046
l-46 172v282h302v-282l-48 -172h-208zM1310 1127h64l19 92v184h-100v-184z" />
    <glyph glyph-name="Dcroat" unicode="&#x110;" horiz-adv-x="1223" 
d="M178 0v562h-173v256h173v582h759l206 -206v-988l-206 -206h-759zM273 94h615l159 159v893l-159 159h-615v-575h-172v-86h172v-550zM368 189v455h261v86h-261v480h475l110 -108v-805l-110 -108h-475zM461 283h339l61 61v712l-61 61h-339v-299h256v-256h-256v-279z" />
    <glyph glyph-name="dcroat" unicode="&#x111;" horiz-adv-x="1170" 
d="M312 0l-207 206v668l207 206h412l20 -19v113h-229v247h229v79h283v-79h120v-247h-120v-968l-207 -206h-508zM411 185l-118 117v491l104 103h291l148 -147v-447l-118 -117h-307zM449 283h234l61 61v373l-80 81h-215l-61 -62v-392zM366 90h397l168 168v999h137v83h-137v68
h-95v-68h-226v-83h226v-394l-129 128h-355l-154 -154v-579z" />
    <glyph glyph-name="Emacron" unicode="&#x112;" horiz-adv-x="1140" 
d="M115 0v1400h910v-283h-627v-269h558v-283h-558v-282h627v-283h-910zM211 97h732v95h-637v467h567v95h-567v459h637v95h-732v-1211zM246 1431v256h632v-256h-632zM342 1514h448v85h-448v-85z" />
    <glyph glyph-name="emacron" unicode="&#x113;" horiz-adv-x="1253" 
d="M937 1080l206 -206v-285l-206 -206h-544v-39l61 -61h675v-283h-813l-206 206v668l206 206h621zM842 892l111 -110v-121l-96 -96h-566v211l118 116h433zM887 987h-523l-168 -167v-565l162 -162h672v95h-626l-113 111v174h603l154 153v200zM799 797h-345l-61 -61v-80h426
l42 42v38zM313 1111v256h632v-256h-632zM409 1194h448v85h-448v-85z" />
    <glyph glyph-name="Ebreve" unicode="&#x114;" horiz-adv-x="1140" 
d="M115 0v1400h910v-283h-627v-269h558v-283h-558v-282h627v-283h-910zM211 97h732v95h-637v467h567v95h-567v459h637v95h-732v-1211zM443 1432l-112 112v156h192v-76h78v76h192v-156l-112 -112h-238zM482 1493h162l82 87v56h-64v-35l-41 -44h-117l-41 44v35h-64v-56z" />
    <glyph glyph-name="ebreve" unicode="&#x115;" horiz-adv-x="1253" 
d="M937 1080l206 -206v-285l-206 -206h-544v-39l61 -61h675v-283h-813l-206 206v668l206 206h621zM842 892l111 -110v-121l-96 -96h-566v211l118 116h433zM887 987h-523l-168 -167v-565l162 -162h672v95h-626l-113 111v174h603l154 153v200zM799 797h-345l-61 -61v-80h426
l42 42v38zM510 1112l-112 112v156h192v-76h78v76h192v-156l-112 -112h-238zM549 1173h162l82 87v56h-64v-35l-41 -44h-117l-41 44v35h-64v-56z" />
    <glyph glyph-name="Edotaccent" unicode="&#x116;" horiz-adv-x="1140" 
d="M115 0v1400h910v-283h-627v-269h558v-283h-558v-282h627v-283h-910zM211 97h732v95h-637v467h567v95h-567v459h637v95h-732v-1211zM457 1452v210h212v-210h-212zM529 1521h65v70h-65v-70z" />
    <glyph glyph-name="edotaccent" unicode="&#x117;" horiz-adv-x="1253" 
d="M937 1080l206 -206v-285l-206 -206h-544v-39l61 -61h675v-283h-813l-206 206v668l206 206h621zM842 892l111 -110v-121l-96 -96h-566v211l118 116h433zM887 987h-523l-168 -167v-565l162 -162h672v95h-626l-113 111v174h603l154 153v200zM799 797h-345l-61 -61v-80h426
l42 42v38zM524 1132v210h212v-210h-212zM596 1201h65v70h-65v-70z" />
    <glyph glyph-name="Eogonek" unicode="&#x118;" horiz-adv-x="1063" 
d="M595 -369l-163 189l162 180h-479v1400h833v-283h-550v-269h481v-283h-481v-282h550v-283h-133l-180 -180l30 -32h235v-157h-305zM618 -317h229v53h-207l-77 84l263 277h40v95h-560v467h490v95h-490v459h560v95h-655v-1211h537v-9l-251 -268z" />
    <glyph glyph-name="eogonek" unicode="&#x119;" horiz-adv-x="1140" 
d="M617 -367l-163 189l160 178h-285l-206 206v668l206 206h484l206 -206v-270l-206 -206h-407v-54l61 -61h538v-283h-170l-178 -178l30 -32h235v-157h-305zM641 -315h229v53h-207l-77 84l262 274h52v95h-479l-113 111v188h462l154 153v183l-161 161h-382l-168 -167v-562
l162 -162h402l-257 -274zM308 581v195l118 116h292l111 -110v-104l-96 -97h-425zM406 671h289l42 42v23l-62 61h-208l-61 -61v-65z" />
    <glyph glyph-name="Ecaron" unicode="&#x11a;" horiz-adv-x="1140" 
d="M115 0v1400h910v-283h-627v-269h558v-283h-558v-282h627v-283h-910zM211 97h732v95h-637v467h567v95h-567v459h637v95h-732v-1211zM436 1432l-224 284h277l73 -108l73 108h277l-224 -284h-252zM482 1493h157l117 154h-89l-74 -106h-64l-75 106h-89z" />
    <glyph glyph-name="ecaron" unicode="&#x11b;" horiz-adv-x="1253" 
d="M937 1080l206 -206v-285l-206 -206h-544v-39l61 -61h675v-283h-813l-206 206v668l206 206h621zM842 892l111 -110v-121l-96 -96h-566v211l118 116h433zM887 987h-523l-168 -167v-565l162 -162h672v95h-626l-113 111v174h603l154 153v200zM799 797h-345l-61 -61v-80h426
l42 42v38zM503 1112l-224 284h277l73 -108l73 108h277l-224 -284h-252zM549 1173h157l117 154h-89l-74 -106h-64l-75 106h-89z" />
    <glyph glyph-name="Gcircumflex" unicode="&#x11c;" horiz-adv-x="1278" 
d="M321 0l-206 206v988l206 206h636l206 -206v-252h-282v114l-61 61h-363l-60 -63v-711l60 -60h363l61 61v138h-277v282h559v-558l-206 -206h-636zM369 97h541l160 159v412h-372v-95h277v-273l-110 -108h-450l-110 107v806l109 108h451l110 -108v-74h95v118l-160 159h-541
l-159 -159v-893zM513 1716h252l224 -284h-277l-73 108l-73 -108h-277zM559 1655l-117 -154h89l75 106h64l74 -106h89l-117 154h-157z" />
    <glyph glyph-name="gcircumflex" unicode="&#x11d;" horiz-adv-x="1210" 
d="M160 -400v282h562l81 81v57l-20 -20h-467l-206 206v668l206 206h563l206 -206v-1068l-206 -206h-719zM254 -309h563l178 183v948l-167 168h-464l-160 -161v-565l168 -169h388l141 141v-312l-135 -138h-512v-95zM418 190l-119 118v477l111 110h373l118 -116v-424
l-167 -165h-316zM454 283h249l100 100v354l-62 61h-287l-61 -61v-393zM467 1396h252l224 -284h-277l-73 108l-73 -108h-277zM513 1335l-117 -154h89l75 106h64l74 -106h89l-117 154h-157z" />
    <glyph glyph-name="Gbreve" unicode="&#x11e;" horiz-adv-x="1278" 
d="M321 0l-206 206v988l206 206h636l206 -206v-252h-282v114l-61 61h-363l-60 -63v-711l60 -60h363l61 61v138h-277v282h559v-558l-206 -206h-636zM369 97h541l160 159v412h-372v-95h277v-273l-110 -108h-450l-110 107v806l109 108h451l110 -108v-74h95v118l-160 159h-541
l-159 -159v-893zM520 1432l-112 112v156h192v-76h78v76h192v-156l-112 -112h-238zM559 1493h162l82 87v56h-64v-35l-41 -44h-117l-41 44v35h-64v-56z" />
    <glyph glyph-name="gbreve" unicode="&#x11f;" horiz-adv-x="1210" 
d="M160 -400v282h562l81 81v57l-20 -20h-467l-206 206v668l206 206h563l206 -206v-1068l-206 -206h-719zM254 -309h563l178 183v948l-167 168h-464l-160 -161v-565l168 -169h388l141 141v-312l-135 -138h-512v-95zM418 190l-119 118v477l111 110h373l118 -116v-424
l-167 -165h-316zM454 283h249l100 100v354l-62 61h-287l-61 -61v-393zM474 1112l-112 112v156h192v-76h78v76h192v-156l-112 -112h-238zM513 1173h162l82 87v56h-64v-35l-41 -44h-117l-41 44v35h-64v-56z" />
    <glyph glyph-name="Gdotaccent" unicode="&#x120;" horiz-adv-x="1278" 
d="M321 0l-206 206v988l206 206h636l206 -206v-252h-282v114l-61 61h-363l-60 -63v-711l60 -60h363l61 61v138h-277v282h559v-558l-206 -206h-636zM369 97h541l160 159v412h-372v-95h277v-273l-110 -108h-450l-110 107v806l109 108h451l110 -108v-74h95v118l-160 159h-541
l-159 -159v-893zM534 1452v210h212v-210h-212zM606 1521h65v70h-65v-70z" />
    <glyph glyph-name="gdotaccent" unicode="&#x121;" horiz-adv-x="1210" 
d="M160 -400v282h562l81 81v57l-20 -20h-467l-206 206v668l206 206h563l206 -206v-1068l-206 -206h-719zM254 -309h563l178 183v948l-167 168h-464l-160 -161v-565l168 -169h388l141 141v-312l-135 -138h-512v-95zM418 190l-119 118v477l111 110h373l118 -116v-424
l-167 -165h-316zM454 283h249l100 100v354l-62 61h-287l-61 -61v-393zM488 1132v210h212v-210h-212zM560 1201h65v70h-65v-70z" />
    <glyph glyph-name="uni0122" unicode="&#x122;" horiz-adv-x="1278" 
d="M321 0l-206 206v988l206 206h636l206 -206v-252h-282v114l-61 61h-363l-60 -63v-711l60 -60h363l61 61v138h-277v282h559v-558l-206 -206h-636zM369 97h541l160 159v412h-372v-95h277v-273l-110 -108h-450l-110 107v806l109 108h451l110 -108v-74h95v118l-160 159h-541
l-159 -159v-893zM391 -530l114 458h271l-159 -458h-226zM492 -450h66l102 281h-96z" />
    <glyph glyph-name="uni0123" unicode="&#x123;" horiz-adv-x="1210" 
d="M160 -400v282h562l81 81v57l-20 -20h-467l-206 206v668l206 206h563l206 -206v-1068l-206 -206h-719zM254 -309h563l178 183v948l-167 168h-464l-160 -161v-565l168 -169h388l141 141v-312l-135 -138h-512v-95zM418 190l-119 118v477l111 110h373l118 -116v-424
l-167 -165h-316zM454 283h249l100 100v354l-62 61h-287l-61 -61v-393zM813 1568l-114 -458h-271l159 458h226zM712 1488h-66l-102 -281h96z" />
    <glyph glyph-name="Hcircumflex" unicode="&#x124;" horiz-adv-x="1295" 
d="M125 0v1400h283v-552h480v552h282v-1400h-282v565h-480v-565h-283zM219 92h95v569h668v-569h95v1216h-95v-552h-668v552h-95v-1216zM522 1716h252l224 -284h-277l-73 108l-73 -108h-277zM568 1655l-117 -154h89l75 106h64l74 -106h89l-117 154h-157z" />
    <glyph glyph-name="hcircumflex" unicode="&#x125;" horiz-adv-x="1210" 
d="M125 0v1499h283v-438l19 19h467l206 -206v-874h-283v736l-61 62h-268l-80 -81v-717h-283zM221 93h95v660l141 140h351l104 -102v-698h95v741l-154 154h-416l-121 -120v540h-95v-1315zM487 1816h252l224 -284h-277l-73 108l-73 -108h-277zM533 1755l-117 -154h89l75 106
h64l74 -106h89l-117 154h-157z" />
    <glyph glyph-name="Hbar" unicode="&#x126;" horiz-adv-x="1270" 
d="M142 0v979h-109v246h109v175h283v-175h400v175h283v-175h100v-246h-100v-979h-283v565h-400v-565h-283zM236 90h95v571h588v-571h95v979h119v83h-119v163h-95v-163h-588v163h-95v-163h-122v-83h122v-979zM331 756v313h588v-313h-588zM425 848h400v131h-400v-131z" />
    <glyph glyph-name="hbar" unicode="&#x127;" horiz-adv-x="1192" 
d="M143 0v1175h-111v246h111v79h283v-79h271v-246h-271v-114l19 19h414l205 -206v-874h-282v736l-62 62h-213l-81 -81v-717h-283zM235 80h95v665l146 150h294l104 -106v-709h95v753l-154 157h-359l-126 -131v399h278v83h-278v81h-95v-81h-131v-83h131v-1178z" />
    <glyph glyph-name="Itilde" unicode="&#x128;" horiz-adv-x="1059" 
d="M115 0v283h274v834h-274v283h829v-283h-273v-834h273v-283h-829zM208 93h644v95h-281v1025h281v95h-644v-95h268v-1025h-268v-95zM251 1432v136l112 112h178l56 -56h18v56h192v-136l-112 -112h-178l-56 56h-18v-56h-192zM319 1488h64v24l41 45h61l65 -64h110l83 87v45
h-64v-24l-41 -44h-66l-64 63h-106l-83 -87v-45z" />
    <glyph glyph-name="itilde" unicode="&#x129;" horiz-adv-x="990" 
d="M114 0v283h240v514h-240v283h522v-797h240v-283h-762zM200 93h590v95h-254v800h-336v-95h241v-705h-241v-95zM216 1112v136l112 112h178l56 -56h18v56h192v-136l-112 -112h-178l-56 56h-18v-56h-192zM284 1168h64v24l41 45h61l65 -64h110l83 87v45h-64v-24l-41 -44h-66
l-64 63h-106l-83 -87v-45z" />
    <glyph glyph-name="Imacron" unicode="&#x12a;" horiz-adv-x="1059" 
d="M115 0v283h274v834h-274v283h829v-283h-273v-834h273v-283h-829zM208 93h644v95h-281v1025h281v95h-644v-95h268v-1025h-268v-95zM214 1431v256h632v-256h-632zM310 1514h448v85h-448v-85z" />
    <glyph glyph-name="imacron" unicode="&#x12b;" horiz-adv-x="990" 
d="M114 0v283h240v514h-240v283h522v-797h240v-283h-762zM200 93h590v95h-254v800h-336v-95h241v-705h-241v-95zM179 1111v256h632v-256h-632zM275 1194h448v85h-448v-85z" />
    <glyph glyph-name="Ibreve" unicode="&#x12c;" horiz-adv-x="1059" 
d="M115 0v283h274v834h-274v283h829v-283h-273v-834h273v-283h-829zM208 93h644v95h-281v1025h281v95h-644v-95h268v-1025h-268v-95zM411 1432l-112 112v156h192v-76h78v76h192v-156l-112 -112h-238zM450 1493h162l82 87v56h-64v-35l-41 -44h-117l-41 44v35h-64v-56z" />
    <glyph glyph-name="ibreve" unicode="&#x12d;" horiz-adv-x="990" 
d="M114 0v283h240v514h-240v283h522v-797h240v-283h-762zM200 93h590v95h-254v800h-336v-95h241v-705h-241v-95zM376 1112l-112 112v156h192v-76h78v76h192v-156l-112 -112h-238zM415 1173h162l82 87v56h-64v-35l-41 -44h-117l-41 44v35h-64v-56z" />
    <glyph glyph-name="Iogonek" unicode="&#x12e;" horiz-adv-x="990" 
d="M382 -368l-163 189l161 179h-266v283h240v834h-240v283h762v-283h-240v-834h240v-283h-275l-179 -179l30 -32h235v-157h-305zM410 -316h229v52h-207l-77 84l260 273h175v95h-254v1025h254v95h-590v-95h241v-1025h-241v-95h343l-254 -273z" />
    <glyph glyph-name="iogonek" unicode="&#x12f;" horiz-adv-x="990" 
d="M360 -369l-163 189l162 180h-245v283h240v514h-240v283h522v-797h240v-283h-296l-180 -180l30 -32h235v-157h-305zM381 -317h229v53h-206l-77 84l261 273h202v95h-254v800h-336v-95h241v-705h-241v-95h316l-255 -273zM314 1237v263h322v-263h-322zM421 1323h108v101h-108
v-101z" />
    <glyph glyph-name="Idotaccent" unicode="&#x130;" horiz-adv-x="1059" 
d="M115 0v283h274v834h-274v283h829v-283h-273v-834h273v-283h-829zM208 93h644v95h-281v1025h281v95h-644v-95h268v-1025h-268v-95zM425 1452v210h212v-210h-212zM497 1521h65v70h-65v-70z" />
    <glyph glyph-name="dotlessi" unicode="&#x131;" horiz-adv-x="990" 
d="M114 0v283h240v514h-240v283h522v-797h240v-283h-762zM200 93h590v95h-254v800h-336v-95h241v-705h-241v-95z" />
    <glyph glyph-name="Jcircumflex" unicode="&#x134;" horiz-adv-x="1216" 
d="M322 0l-207 206v357h283v-219l61 -61h298l61 61v773h-512v283h795v-1194l-207 -206h-572zM369 98h482l160 160v1050h-615v-95h520v-911l-110 -109h-392l-110 109v169h-95v-213zM582 1716h252l224 -284h-277l-73 108l-73 -108h-277zM628 1655l-117 -154h89l75 106h64
l74 -106h89l-117 154h-157z" />
    <glyph glyph-name="jcircumflex" unicode="&#x135;" horiz-adv-x="706" 
d="M25 -400v282h181l80 81v835h-261v282h544v-1274l-206 -206h-338zM123 -302h194l158 162v1127h-360v-95h265v-981l-114 -118h-143v-95zM227 1396h252l224 -284h-277l-73 108l-73 -108h-277zM273 1335l-117 -154h89l75 106h64l74 -106h89l-117 154h-157z" />
    <glyph glyph-name="uni0136" unicode="&#x136;" horiz-adv-x="1298" 
d="M125 0v1400h283v-552h349l119 119v433h283v-552l-141 -140l141 -143v-565h-283v447l-119 118h-349v-565h-283zM219 94h95v573h491l165 -169v-404h95v441l-172 178l172 172v423h-95v-385l-162 -161h-494v546h-95v-1214zM395 -530l114 458h271l-159 -458h-226zM496 -450h66
l102 281h-96z" />
    <glyph glyph-name="uni0137" unicode="&#x137;" horiz-adv-x="1139" 
d="M125 0v1400h283v-722h204l119 119v283h283v-402l-141 -140l141 -143v-395h-283v277l-119 118h-204v-395h-283zM219 94h95v398h345l165 -169v-229h95v267l-172 178l172 172v279h-95v-242l-162 -161h-348v721h-95v-1214zM325 -530l114 458h271l-159 -458h-226zM426 -450h66
l102 281h-96z" />
    <glyph glyph-name="kgreenlandic" unicode="&#x138;" horiz-adv-x="1092" 
d="M125 0v1080h283v-402h157l119 119v283h283v-402l-141 -140l141 -143v-395h-283v277l-119 118h-157v-395h-283zM219 94h95v398h298l165 -169v-229h95v267l-172 178l172 172v279h-95v-242l-162 -161h-301v401h-95v-894z" />
    <glyph glyph-name="Lacute" unicode="&#x139;" horiz-adv-x="1091" 
d="M125 0v1400h283v-1117h608v-283h-891zM219 92h704v95h-609v1121h-95v-1216zM140 1432l244 264h287l-284 -264h-247zM281 1487h77l156 153h-89z" />
    <glyph glyph-name="lacute" unicode="&#x13a;" horiz-adv-x="912" 
d="M45 0v283h270v934h-270v283h552v-1217h270v-283h-822zM138 93h637v95h-275v1220h-362v-95h267v-1125h-267v-95zM289 1532l244 264h287l-284 -264h-247zM430 1587h77l156 153h-89z" />
    <glyph glyph-name="uni013B" unicode="&#x13b;" horiz-adv-x="1091" 
d="M125 0v1400h283v-1117h608v-283h-891zM219 92h704v95h-609v1121h-95v-1216zM308 -530l114 458h271l-159 -458h-226zM409 -450h66l102 281h-96z" />
    <glyph glyph-name="uni013C" unicode="&#x13c;" horiz-adv-x="912" 
d="M45 0v283h270v934h-270v283h552v-1217h270v-283h-822zM138 93h637v95h-275v1220h-362v-95h267v-1125h-267v-95zM188 -530l114 458h271l-159 -458h-226zM289 -450h66l102 281h-96z" />
    <glyph glyph-name="Lcaron" unicode="&#x13d;" horiz-adv-x="1091" 
d="M125 0v1400h283v-1117h608v-283h-891zM219 92h704v95h-609v1121h-95v-1216zM872 946l-46 172v282h302v-282l-48 -172h-208zM946 1027h64l19 92v184h-100v-184z" />
    <glyph glyph-name="lcaron" unicode="&#x13e;" horiz-adv-x="1065" 
d="M45 0v283h270v934h-270v283h552v-1217h270v-283h-822zM138 93h637v95h-275v1220h-362v-95h267v-1125h-267v-95zM809 1046l-46 172v282h302v-282l-48 -172h-208zM883 1127h64l19 92v184h-100v-184z" />
    <glyph glyph-name="Ldot" unicode="&#x13f;" horiz-adv-x="1070" 
d="M125 0v1400h283v-1117h608v-283h-891zM219 92h704v95h-609v1121h-95v-1216zM633 588v294h314v-294h-314zM732 685h118v100h-118v-100z" />
    <glyph glyph-name="ldot" unicode="&#x140;" horiz-adv-x="1032" 
d="M45 0v283h270v934h-270v283h552v-1217h270v-283h-822zM138 93h637v95h-275v1220h-362v-95h267v-1125h-267v-95zM718 588v294h314v-294h-314zM817 685h118v100h-118v-100z" />
    <glyph glyph-name="Lslash" unicode="&#x141;" horiz-adv-x="1100" 
d="M181 0v488l-117 -47v250l117 47v662h283v-553l342 135v-250l-342 -135v-314h530v-283h-813zM273 93h650v95h-555v454l344 136v83l-344 -136v597h-95v-634l-130 -50v-83l130 50v-512z" />
    <glyph glyph-name="lslash" unicode="&#x142;" horiz-adv-x="588" 
d="M153 0v452l-164 -52v248l164 52v800h282v-712l162 50v-249l-162 -50v-539h-282zM247 86h95v501l173 54v82l-173 -53v745h-95v-774l-173 -54v-83l173 54v-472z" />
    <glyph glyph-name="Nacute" unicode="&#x143;" horiz-adv-x="1465" 
d="M218 90h95v1118h202l362 -1114h371v1214h-95v-1117h-203l-360 1114h-372v-1215zM125 0v1400h543l346 -1113h43v1113h283v-1400h-543l-348 1116h-41v-1116h-283zM613 1432l244 264h287l-284 -264h-247zM754 1487h77l156 153h-89z" />
    <glyph glyph-name="nacute" unicode="&#x144;" horiz-adv-x="1180" 
d="M110 0v874l206 206h548l206 -206v-874h-282v736l-61 61h-274l-61 -61v-736h-282zM205 93h95v688l112 111h359l111 -110v-689h94v733l-160 161h-449l-162 -162v-732zM474 1112l244 264h287l-284 -264h-247zM615 1167h77l156 153h-89z" />
    <glyph glyph-name="uni0145" unicode="&#x145;" horiz-adv-x="1465" 
d="M218 90h95v1118h202l362 -1114h371v1214h-95v-1117h-203l-360 1114h-372v-1215zM125 0v1400h543l346 -1113h43v1113h283v-1400h-543l-348 1116h-41v-1116h-283zM488 -530l114 458h271l-159 -458h-226zM589 -450h66l102 281h-96z" />
    <glyph glyph-name="uni0146" unicode="&#x146;" horiz-adv-x="1180" 
d="M110 0v874l206 206h548l206 -206v-874h-282v736l-61 61h-274l-61 -61v-736h-282zM205 93h95v688l112 111h359l111 -110v-689h94v733l-160 161h-449l-162 -162v-732zM349 -530l114 458h271l-159 -458h-226zM450 -450h66l102 281h-96z" />
    <glyph glyph-name="Ncaron" unicode="&#x147;" horiz-adv-x="1465" 
d="M218 90h95v1118h202l362 -1114h371v1214h-95v-1117h-203l-360 1114h-372v-1215zM125 0v1400h543l346 -1113h43v1113h283v-1400h-543l-348 1116h-41v-1116h-283zM610 1432l-224 284h277l73 -108l73 108h277l-224 -284h-252zM656 1493h157l117 154h-89l-74 -106h-64
l-75 106h-89z" />
    <glyph glyph-name="ncaron" unicode="&#x148;" horiz-adv-x="1180" 
d="M110 0v874l206 206h548l206 -206v-874h-282v736l-61 61h-274l-61 -61v-736h-282zM205 93h95v688l112 111h359l111 -110v-689h94v733l-160 161h-449l-162 -162v-732zM471 1112l-224 284h277l73 -108l73 108h277l-224 -284h-252zM517 1173h157l117 154h-89l-74 -106h-64
l-75 106h-89z" />
    <glyph glyph-name="Eng" unicode="&#x14a;" horiz-adv-x="1249" 
d="M596 -400v282h181l80 81v47l-465 800v-810h-283v1400h277l471 -810v810h283v-1594l-206 -206h-338zM715 -302h174l159 162v1462h-95v-1082l-633 1082h-118v-1238h95v1063h11l645 -1100v-136l-115 -118h-123v-95z" />
    <glyph glyph-name="eng" unicode="&#x14b;" horiz-adv-x="1130" 
d="M495 -400v282h161l80 81v773l-61 61h-220l-61 -61v-736h-282v874l206 206h494l206 -206v-1068l-205 -206h-318zM599 -302h167l158 162v966l-160 161h-395l-162 -162v-732h95v688l112 111h305l111 -110v-871l-115 -118h-116v-95z" />
    <glyph glyph-name="Omacron" unicode="&#x14c;" horiz-adv-x="1306" 
d="M321 0l-206 206v988l206 206h664l206 -206v-988l-206 -206h-664zM459 283h388l61 61v712l-61 61h-388l-61 -61v-712zM370 97h567l160 159v893l-160 159h-567l-159 -159v-893zM415 192l-109 108v805l109 108h477l110 -108v-805l-110 -108h-477zM337 1431v256h632v-256
h-632zM433 1514h448v85h-448v-85z" />
    <glyph glyph-name="omacron" unicode="&#x14d;" horiz-adv-x="1257" 
d="M316 0l-206 206v668l206 206h625l206 -206v-668l-206 -206h-625zM373 93h519l161 161v572l-161 161h-524l-162 -162v-565zM418 188l-117 116v477l112 111h434l111 -110v-484l-111 -110h-429zM454 283h349l61 61v392l-61 61h-349l-61 -61v-392zM312 1111v256h632v-256
h-632zM408 1194h448v85h-448v-85z" />
    <glyph glyph-name="Obreve" unicode="&#x14e;" horiz-adv-x="1306" 
d="M321 0l-206 206v988l206 206h664l206 -206v-988l-206 -206h-664zM459 283h388l61 61v712l-61 61h-388l-61 -61v-712zM370 97h567l160 159v893l-160 159h-567l-159 -159v-893zM415 192l-109 108v805l109 108h477l110 -108v-805l-110 -108h-477zM534 1432l-112 112v156h192
v-76h78v76h192v-156l-112 -112h-238zM573 1493h162l82 87v56h-64v-35l-41 -44h-117l-41 44v35h-64v-56z" />
    <glyph glyph-name="obreve" unicode="&#x14f;" horiz-adv-x="1257" 
d="M316 0l-206 206v668l206 206h625l206 -206v-668l-206 -206h-625zM373 93h519l161 161v572l-161 161h-524l-162 -162v-565zM418 188l-117 116v477l112 111h434l111 -110v-484l-111 -110h-429zM454 283h349l61 61v392l-61 61h-349l-61 -61v-392zM509 1112l-112 112v156h192
v-76h78v76h192v-156l-112 -112h-238zM548 1173h162l82 87v56h-64v-35l-41 -44h-117l-41 44v35h-64v-56z" />
    <glyph glyph-name="Ohungarumlaut" unicode="&#x150;" horiz-adv-x="1306" 
d="M321 0l-206 206v988l206 206h664l206 -206v-988l-206 -206h-664zM459 283h388l61 61v712l-61 61h-388l-61 -61v-712zM370 97h567l160 159v893l-160 159h-567l-159 -159v-893zM415 192l-109 108v805l109 108h477l110 -108v-805l-110 -108h-477zM694 1432l145 264h287
l-195 -264h-237zM455 1483h76l106 156h-91zM342 1432l145 264h287l-195 -264h-237zM807 1483h76l106 156h-91z" />
    <glyph glyph-name="ohungarumlaut" unicode="&#x151;" horiz-adv-x="1257" 
d="M316 0l-206 206v668l206 206h625l206 -206v-668l-206 -206h-625zM373 93h519l161 161v572l-161 161h-524l-162 -162v-565zM418 188l-117 116v477l112 111h434l111 -110v-484l-111 -110h-429zM454 283h349l61 61v392l-61 61h-349l-61 -61v-392zM669 1112l145 264h287
l-195 -264h-237zM430 1163h76l106 156h-91zM317 1112l145 264h287l-195 -264h-237zM782 1163h76l106 156h-91z" />
    <glyph glyph-name="OE" unicode="&#x152;" horiz-adv-x="1922" 
d="M363 0l-206 206v988l206 206h1400v-283h-550v-269h511v-283h-511v-282h550v-283h-1400zM455 179l-109 108v831l109 109h463l110 -109v-831l-110 -108h-463zM501 283h368l61 61v712l-61 61h-368l-61 -61v-712zM410 84h556l80 77l4 -77h635v95h-562v482h522v95h-522v471
h562v95h-635l-4 -78l-80 78h-556l-159 -160v-919z" />
    <glyph glyph-name="oe" unicode="&#x153;" horiz-adv-x="1766" 
d="M325 0l-206 206v668l206 206h484l66 -64l64 64h484l206 -206v-280l-206 -206h-342l-65 -65v21l61 -61h208l129 128l228 -192l-219 -219h-484l-64 65l-65 -65h-485zM421 188l-118 116v477l112 111h299l111 -110v-484l-111 -110h-293zM464 283h207l62 61v392l-62 61h-207
l-62 -61v-392zM376 93h383l114 114l114 -114h407l123 123l-75 65l-93 -93h-317l-112 111v30l152 151h314l147 146v200l-160 161h-381l-116 -116l-117 116h-389l-162 -162v-565zM920 433v343l117 116h290l111 -110v-121l-89 -90h-292zM1016 640l19 19h269l42 42v35l-61 61
h-208l-61 -61v-96z" />
    <glyph glyph-name="Racute" unicode="&#x154;" horiz-adv-x="1309" 
d="M125 0v1400h863l206 -206v-434l-122 -112l122 -133v-515h-283v415l-100 100h-403v-515h-283zM219 92h95v522h537l156 -166v-356h95v387l-164 180l159 137v352l-159 160h-719v-1216zM408 798h442l61 62v196l-61 61h-442v-319zM314 709v504h578l110 -109v-276l-138 -119
h-550zM534 1432l244 264h287l-284 -264h-247zM675 1487h77l156 153h-89z" />
    <glyph glyph-name="racute" unicode="&#x155;" horiz-adv-x="1148" 
d="M110 0v282h194v501l-15 15h-177v282h253l68 -80l77 80h389l219 -219l-218 -212l-138 148h-114l-61 -61v-455h194v-281h-671zM198 94h495v94h-200v602l98 99h226l97 -106l72 70l-124 131h-316l-106 -108l-99 108h-143v-95h120l80 -87v-614h-200v-94zM423 1112l244 264h287
l-284 -264h-247zM564 1167h77l156 153h-89z" />
    <glyph glyph-name="uni0156" unicode="&#x156;" horiz-adv-x="1309" 
d="M125 0v1400h863l206 -206v-434l-122 -112l122 -133v-515h-283v415l-100 100h-403v-515h-283zM219 92h95v522h537l156 -166v-356h95v387l-164 180l159 137v352l-159 160h-719v-1216zM408 798h442l61 62v196l-61 61h-442v-319zM314 709v504h578l110 -109v-276l-138 -119
h-550zM409 -530l114 458h271l-159 -458h-226zM510 -450h66l102 281h-96z" />
    <glyph glyph-name="uni0157" unicode="&#x157;" horiz-adv-x="1148" 
d="M110 0v282h194v501l-15 15h-177v282h253l68 -80l77 80h389l219 -219l-218 -212l-138 148h-114l-61 -61v-455h194v-281h-671zM198 94h495v94h-200v602l98 99h226l97 -106l72 70l-124 131h-316l-106 -108l-99 108h-143v-95h120l80 -87v-614h-200v-94zM198 -530l114 458h271
l-159 -458h-226zM299 -450h66l102 281h-96z" />
    <glyph glyph-name="Rcaron" unicode="&#x158;" horiz-adv-x="1309" 
d="M125 0v1400h863l206 -206v-434l-122 -112l122 -133v-515h-283v415l-100 100h-403v-515h-283zM219 92h95v522h537l156 -166v-356h95v387l-164 180l159 137v352l-159 160h-719v-1216zM408 798h442l61 62v196l-61 61h-442v-319zM314 709v504h578l110 -109v-276l-138 -119
h-550zM531 1432l-224 284h277l73 -108l73 108h277l-224 -284h-252zM577 1493h157l117 154h-89l-74 -106h-64l-75 106h-89z" />
    <glyph glyph-name="rcaron" unicode="&#x159;" horiz-adv-x="1148" 
d="M110 0v282h194v501l-15 15h-177v282h253l68 -80l77 80h389l219 -219l-218 -212l-138 148h-114l-61 -61v-455h194v-281h-671zM198 94h495v94h-200v602l98 99h226l97 -106l72 70l-124 131h-316l-106 -108l-99 108h-143v-95h120l80 -87v-614h-200v-94zM420 1112l-224 284
h277l73 -108l73 108h277l-224 -284h-252zM466 1173h157l117 154h-89l-74 -106h-64l-75 106h-89z" />
    <glyph glyph-name="Sacute" unicode="&#x15a;" horiz-adv-x="1302" 
d="M321 0l-206 206v252h283v-114l61 -61h384l61 61v154l-61 61h-516l-206 206v429l206 206h635l206 -206v-252h-283v114l-61 61h-359l-62 -61v-153l62 -61h516l206 -206v-430l-206 -206h-660zM365 93h564l160 159v350l-146 147h-523l-110 110v243l109 109h456l103 -102v-81
h95v125l-153 153h-546l-159 -160v-331l162 -162h520l97 -93v-264l-110 -108h-473l-103 102v82h-95v-126zM528 1432l244 264h287l-284 -264h-247zM669 1487h77l156 153h-89z" />
    <glyph glyph-name="sacute" unicode="&#x15b;" horiz-adv-x="1203" 
d="M120 0v283h630l61 61v-5l-59 60h-436l-206 206v269l206 206h757v-283h-620l-61 -61v6l61 -61h434l206 -206v-269l-206 -206h-767zM212 96h632l155 156v187l-155 152h-446l-97 96v101l104 104h576v95h-621l-156 -155v-187l149 -149h446l104 -100v-101l-104 -104h-587v-95z
M488 1112l244 264h287l-284 -264h-247zM629 1167h77l156 153h-89z" />
    <glyph glyph-name="Scircumflex" unicode="&#x15c;" horiz-adv-x="1302" 
d="M321 0l-206 206v252h283v-114l61 -61h384l61 61v154l-61 61h-516l-206 206v429l206 206h635l206 -206v-252h-283v114l-61 61h-359l-62 -61v-153l62 -61h516l206 -206v-430l-206 -206h-660zM365 93h564l160 159v350l-146 147h-523l-110 110v243l109 109h456l103 -102v-81
h95v125l-153 153h-546l-159 -160v-331l162 -162h520l97 -93v-264l-110 -108h-473l-103 102v82h-95v-126zM525 1716h252l224 -284h-277l-73 108l-73 -108h-277zM571 1655l-117 -154h89l75 106h64l74 -106h89l-117 154h-157z" />
    <glyph glyph-name="scircumflex" unicode="&#x15d;" horiz-adv-x="1203" 
d="M120 0v283h630l61 61v-5l-59 60h-436l-206 206v269l206 206h757v-283h-620l-61 -61v6l61 -61h434l206 -206v-269l-206 -206h-767zM212 96h632l155 156v187l-155 152h-446l-97 96v101l104 104h576v95h-621l-156 -155v-187l149 -149h446l104 -100v-101l-104 -104h-587v-95z
M485 1396h252l224 -284h-277l-73 108l-73 -108h-277zM531 1335l-117 -154h89l75 106h64l74 -106h89l-117 154h-157z" />
    <glyph glyph-name="Scedilla" unicode="&#x15e;" horiz-adv-x="1232" 
d="M427 -349v157h205l30 32l-30 30h-134v130h-175l-206 206v252h283v-114l61 -61h310l61 61v114l-61 61l-442 90l-206 206v379l206 206h561l206 -206v-252h-283v114l-61 61h-285l-62 -61v-103l62 -61l442 -90l206 -206v-390l-206 -206h-143l139 -160l-163 -189h-315z
M493 -297h212l121 137l-121 135h-55v118h207l160 159v310l-146 147l-449 90l-110 110v193l109 109h382l103 -102v-81h95v125l-153 153h-472l-159 -160v-281l162 -162l446 -90l97 -93v-224l-110 -108h-399l-103 102v89h-95v-133l152 -153h198v-171h104l75 -82l-75 -84h-176
v-53z" />
    <glyph glyph-name="scedilla" unicode="&#x15f;" horiz-adv-x="1152" 
d="M396 -349v157h205l30 32l-30 30h-134v130h-339v283h563l59 59l-57 57h-369l-206 206v269l206 206h690v-283h-553l-58 -58l58 -58h367l206 -206v-269l-206 -206h-93l139 -160l-163 -189h-315zM462 -297h212l121 137l-121 135h-55v121h166l155 156v187l-155 152h-379
l-97 96v101l104 104h509v95h-554l-156 -155v-187l149 -149h379l104 -100v-101l-104 -104h-520v-95h314v-174h104l75 -82l-75 -84h-176v-53z" />
    <glyph glyph-name="Scaron" unicode="&#x160;" horiz-adv-x="1302" 
d="M321 0l-206 206v252h283v-114l61 -61h384l61 61v154l-61 61h-516l-206 206v429l206 206h635l206 -206v-252h-283v114l-61 61h-359l-62 -61v-153l62 -61h516l206 -206v-430l-206 -206h-660zM365 93h564l160 159v350l-146 147h-523l-110 110v243l109 109h456l103 -102v-81
h95v125l-153 153h-546l-159 -160v-331l162 -162h520l97 -93v-264l-110 -108h-473l-103 102v82h-95v-126zM525 1432l-224 284h277l73 -108l73 108h277l-224 -284h-252zM571 1493h157l117 154h-89l-74 -106h-64l-75 106h-89z" />
    <glyph glyph-name="scaron" unicode="&#x161;" horiz-adv-x="1203" 
d="M120 0v283h630l61 61v-5l-59 60h-436l-206 206v269l206 206h757v-283h-620l-61 -61v6l61 -61h434l206 -206v-269l-206 -206h-767zM212 96h632l155 156v187l-155 152h-446l-97 96v101l104 104h576v95h-621l-156 -155v-187l149 -149h446l104 -100v-101l-104 -104h-587v-95z
M485 1112l-224 284h277l73 -108l73 108h277l-224 -284h-252zM531 1173h157l117 154h-89l-74 -106h-64l-75 106h-89z" />
    <glyph glyph-name="uni0162" unicode="&#x162;" horiz-adv-x="1092" 
d="M357 -349v157h205l30 32l-30 30h-157v1247h-310v283h902v-283h-310v-1107l148 -170l-163 -189h-315zM423 -297h212l121 137l-119 133h-44v1240h321v95h-736v-95h320v-1291h101l75 -82l-75 -84h-176v-53z" />
    <glyph glyph-name="uni0163" unicode="&#x163;" horiz-adv-x="883" 
d="M293 -349v157h205l30 32l-30 30h-134v130h-94v798h-225v282h225v274h283v-274h225v-282h-225v-515h218v-283h-139l139 -160l-163 -189h-315zM352 -297h212l121 137l-121 135l-62 9v109h177v95h-220v706h239v94h-239v285h-95v-285h-239v-94h239v-801h60v-171h104l76 -82
l-76 -84h-176v-53z" />
    <glyph glyph-name="Tcaron" unicode="&#x164;" horiz-adv-x="1126" 
d="M422 0v1117h-347v283h976v-283h-347v-1117h-282zM515 90h95v1123h351v95h-796v-95h350v-1123zM437 1432l-224 284h277l73 -108l73 108h277l-224 -284h-252zM483 1493h157l117 154h-89l-74 -106h-64l-75 106h-89z" />
    <glyph glyph-name="tcaron" unicode="&#x165;" horiz-adv-x="935" 
d="M294 0v798h-249v282h249v274h283v-274h248v-282h-248v-515h241v-283h-524zM388 93h338v95h-243v706h250v94h-250v273h-95v-273h-251v-94h251v-801zM313 1390l-224 284h277l73 -108l73 108h277l-224 -284h-252zM359 1451h157l117 154h-89l-74 -106h-64l-75 106h-89z" />
    <glyph glyph-name="Tbar" unicode="&#x166;" horiz-adv-x="1103" 
d="M395 0v704h-185v246h185v167h-310v283h902v-283h-310v-167h179v-246h-179v-704h-282zM488 90h95v695h191v83h-191v345h320v95h-736v-95h321v-345h-194v-83h194v-695z" />
    <glyph glyph-name="tbar" unicode="&#x167;" horiz-adv-x="898" 
d="M307 0v515h-225v247h225v48h-225v282h225v308h282v-308h218v-282h-218v-48h218v-247h-218v-515h-282zM401 86h95v511h230v83h-230v223h230v95h-230v317h-95v-317h-240v-95h240v-223h-236v-83h236v-511z" />
    <glyph glyph-name="Utilde" unicode="&#x168;" horiz-adv-x="1328" 
d="M321 0l-206 206v1194h283v-1056l61 -61h410l61 61v1056h283v-1194l-206 -206h-686zM369 94h591l159 157v1057h-95v-1013l-109 -106h-500l-111 106v1013h-95v-1057zM386 1432v136l112 112h178l56 -56h18v56h192v-136l-112 -112h-178l-56 56h-18v-56h-192zM454 1488h64v24
l41 45h61l65 -64h110l83 87v45h-64v-24l-41 -44h-66l-64 63h-106l-83 -87v-45z" />
    <glyph glyph-name="utilde" unicode="&#x169;" horiz-adv-x="1202" 
d="M316 0l-206 206v874h283v-736l61 -61h294l61 61v736h283v-874l-206 -206h-570zM370 94h468l161 168v725h-95v-681l-111 -117h-377l-118 117v681h-95v-725zM324 1112v136l112 112h178l56 -56h18v56h192v-136l-112 -112h-178l-56 56h-18v-56h-192zM392 1168h64v24l41 45h61
l65 -64h110l83 87v45h-64v-24l-41 -44h-66l-64 63h-106l-83 -87v-45z" />
    <glyph glyph-name="Umacron" unicode="&#x16a;" horiz-adv-x="1328" 
d="M321 0l-206 206v1194h283v-1056l61 -61h410l61 61v1056h283v-1194l-206 -206h-686zM369 94h591l159 157v1057h-95v-1013l-109 -106h-500l-111 106v1013h-95v-1057zM349 1431v256h632v-256h-632zM445 1514h448v85h-448v-85z" />
    <glyph glyph-name="umacron" unicode="&#x16b;" horiz-adv-x="1202" 
d="M316 0l-206 206v874h283v-736l61 -61h294l61 61v736h283v-874l-206 -206h-570zM370 94h468l161 168v725h-95v-681l-111 -117h-377l-118 117v681h-95v-725zM287 1111v256h632v-256h-632zM383 1194h448v85h-448v-85z" />
    <glyph glyph-name="Ubreve" unicode="&#x16c;" horiz-adv-x="1328" 
d="M321 0l-206 206v1194h283v-1056l61 -61h410l61 61v1056h283v-1194l-206 -206h-686zM369 94h591l159 157v1057h-95v-1013l-109 -106h-500l-111 106v1013h-95v-1057zM546 1432l-112 112v156h192v-76h78v76h192v-156l-112 -112h-238zM585 1493h162l82 87v56h-64v-35l-41 -44
h-117l-41 44v35h-64v-56z" />
    <glyph glyph-name="ubreve" unicode="&#x16d;" horiz-adv-x="1202" 
d="M316 0l-206 206v874h283v-736l61 -61h294l61 61v736h283v-874l-206 -206h-570zM370 94h468l161 168v725h-95v-681l-111 -117h-377l-118 117v681h-95v-725zM484 1112l-112 112v156h192v-76h78v76h192v-156l-112 -112h-238zM523 1173h162l82 87v56h-64v-35l-41 -44h-117
l-41 44v35h-64v-56z" />
    <glyph glyph-name="Uring" unicode="&#x16e;" horiz-adv-x="1328" 
d="M321 0l-206 206v1194h283v-1056l61 -61h410l61 61v1056h283v-1194l-206 -206h-686zM369 94h591l159 157v1057h-95v-1013l-109 -106h-500l-111 106v1013h-95v-1057zM573 1430l-98 97v174l98 98h183l98 -98v-174l-98 -97h-183zM603 1489h124l69 69v116l-69 68h-124l-69 -68
v-116zM629 1548l-35 35v66l35 34h72l35 -34v-66l-35 -35h-72zM656 1598h17l8 9v15l-8 9h-17l-8 -9v-15z" />
    <glyph glyph-name="uring" unicode="&#x16f;" horiz-adv-x="1202" 
d="M316 0l-206 206v874h283v-736l61 -61h294l61 61v736h283v-874l-206 -206h-570zM370 94h468l161 168v725h-95v-681l-111 -117h-377l-118 117v681h-95v-725zM511 1110l-98 97v174l98 98h183l98 -98v-174l-98 -97h-183zM541 1169h124l69 69v116l-69 68h-124l-69 -68v-116z
M567 1228l-35 35v66l35 34h72l35 -34v-66l-35 -35h-72zM594 1278h17l8 9v15l-8 9h-17l-8 -9v-15z" />
    <glyph glyph-name="Uhungarumlaut" unicode="&#x170;" horiz-adv-x="1328" 
d="M321 0l-206 206v1194h283v-1056l61 -61h410l61 61v1056h283v-1194l-206 -206h-686zM369 94h591l159 157v1057h-95v-1013l-109 -106h-500l-111 106v1013h-95v-1057zM706 1432l145 264h287l-195 -264h-237zM467 1483h76l106 156h-91zM354 1432l145 264h287l-195 -264h-237z
M819 1483h76l106 156h-91z" />
    <glyph glyph-name="uhungarumlaut" unicode="&#x171;" horiz-adv-x="1202" 
d="M316 0l-206 206v874h283v-736l61 -61h294l61 61v736h283v-874l-206 -206h-570zM370 94h468l161 168v725h-95v-681l-111 -117h-377l-118 117v681h-95v-725zM644 1112l145 264h287l-195 -264h-237zM405 1163h76l106 156h-91zM292 1112l145 264h287l-195 -264h-237z
M757 1163h76l106 156h-91z" />
    <glyph glyph-name="Uogonek" unicode="&#x172;" horiz-adv-x="1250" 
d="M512 -369l-163 189l162 180h-190l-206 206v1194h283v-1056l61 -61h330l61 61v1056h283v-1194l-206 -206h-195l-180 -180l30 -32h235v-157h-305zM537 -317h229v53h-207l-77 84l261 274h137l159 157v1057h-95v-1013l-109 -106h-420l-111 106v1013h-95v-1057l160 -157h303
l-256 -274z" />
    <glyph glyph-name="uogonek" unicode="&#x173;" horiz-adv-x="1152" 
d="M468 -369l-163 189l162 180h-148l-206 206v874h283v-736l61 -61h234l61 61v736h283v-874l-206 -206h-141l-180 -180l30 -32h235v-157h-305zM493 -317h229v53h-206l-77 84l262 274h80l161 168v725h-95v-681l-111 -117h-317l-118 117v681h-95v-725l167 -168h255l-255 -274z
" />
    <glyph glyph-name="Wcircumflex" unicode="&#x174;" horiz-adv-x="1738" 
d="M125 1400h283v-1116h44l166 996h502l167 -996h43v1116h283v-1400h-556l-164 993h-48l-164 -993h-556v1400zM218 1307v-1214h378l179 986h187l178 -986h379v1214h-95v-1117h-206l-179 986h-341l-179 -986h-206v1117h-95zM745 1716h252l224 -284h-277l-73 108l-73 -108
h-277zM791 1655l-117 -154h89l75 106h64l74 -106h89l-117 154h-157z" />
    <glyph glyph-name="wcircumflex" unicode="&#x175;" horiz-adv-x="1613" 
d="M110 1080h283v-736l61 -61h150l61 61v676h283v-676l61 -61h150l61 61v736h283v-874l-206 -206h-387l-103 102l-104 -102h-387l-206 206v874zM204 987v-735l162 -162h307l134 134l134 -134h306l162 162v735h-95v-691l-112 -111h-229l-119 118v631h-95v-631l-119 -118h-228
l-113 111v691h-95zM681 1396h252l224 -284h-277l-73 108l-73 -108h-277zM727 1335l-117 -154h89l75 106h64l74 -106h89l-117 154h-157z" />
    <glyph glyph-name="Ycircumflex" unicode="&#x176;" horiz-adv-x="1294" 
d="M505 0v443l-400 382v575h283v-473l268 -253h-19l269 253v473h283v-575l-401 -382v-443h-283zM599 90h95v389l401 379v450h-95v-418l-351 -331h-5l-351 331v418h-95v-450l401 -379v-389zM521 1716h252l224 -284h-277l-73 108l-73 -108h-277zM567 1655l-117 -154h89l75 106
h64l74 -106h89l-117 154h-157z" />
    <glyph glyph-name="ycircumflex" unicode="&#x177;" horiz-adv-x="1206" 
d="M316 0l-206 206v874h283v-736l61 -61h245l100 100v697h282v-1274l-206 -206h-715v282h558l81 81v57l-20 -20h-463zM267 -309h550l172 176v1120h-95v-632l-167 -165h-319l-109 109v688h-95v-732l158 -160h391l141 141v-319l-128 -131h-499v-95zM467 1396h252l224 -284
h-277l-73 108l-73 -108h-277zM513 1335l-117 -154h89l75 106h64l74 -106h89l-117 154h-157z" />
    <glyph glyph-name="Ydieresis" unicode="&#x178;" horiz-adv-x="1294" 
d="M505 0v443l-400 382v575h283v-473l268 -253h-19l269 253v473h283v-575l-401 -382v-443h-283zM599 90h95v389l401 379v450h-95v-418l-351 -331h-5l-351 331v418h-95v-450l401 -379v-389zM750 1452v210h212v-210h-212zM334 1452v210h212v-210h-212zM406 1521h65v70h-65v-70
zM823 1521h66v70h-66v-70z" />
    <glyph glyph-name="Zacute" unicode="&#x179;" horiz-adv-x="1123" 
d="M208 94h719v95h-614v201l610 601v317h-705v-95h602v-191l-612 -605v-323zM105 0v448l610 605v64h-591v283h894v-444l-604 -597v-76h604v-283h-913zM439 1432l244 264h287l-284 -264h-247zM580 1487h77l156 153h-89z" />
    <glyph glyph-name="zacute" unicode="&#x17a;" horiz-adv-x="1070" 
d="M222 96h649v95h-530v152l511 363v281h-634v-95h517v-158l-513 -367v-271zM110 0v399l515 368v30h-496v283h831v-407l-508 -358v-32h508v-283h-850zM412 1112l244 264h287l-284 -264h-247zM553 1167h77l156 153h-89z" />
    <glyph glyph-name="Zdotaccent" unicode="&#x17b;" horiz-adv-x="1123" 
d="M208 94h719v95h-614v201l610 601v317h-705v-95h602v-191l-612 -605v-323zM105 0v448l610 605v64h-591v283h894v-444l-604 -597v-76h604v-283h-913zM457 1452v210h212v-210h-212zM529 1521h65v70h-65v-70z" />
    <glyph glyph-name="zdotaccent" unicode="&#x17c;" horiz-adv-x="1070" 
d="M222 96h649v95h-530v152l511 363v281h-634v-95h517v-158l-513 -367v-271zM110 0v399l515 368v30h-496v283h831v-407l-508 -358v-32h508v-283h-850zM430 1132v210h212v-210h-212zM502 1201h65v70h-65v-70z" />
    <glyph glyph-name="Zcaron" unicode="&#x17d;" horiz-adv-x="1123" 
d="M208 94h719v95h-614v201l610 601v317h-705v-95h602v-191l-612 -605v-323zM105 0v448l610 605v64h-591v283h894v-444l-604 -597v-76h604v-283h-913zM436 1432l-224 284h277l73 -108l73 108h277l-224 -284h-252zM482 1493h157l117 154h-89l-74 -106h-64l-75 106h-89z" />
    <glyph glyph-name="zcaron" unicode="&#x17e;" horiz-adv-x="1070" 
d="M222 96h649v95h-530v152l511 363v281h-634v-95h517v-158l-513 -367v-271zM110 0v399l515 368v30h-496v283h831v-407l-508 -358v-32h508v-283h-850zM409 1112l-224 284h277l73 -108l73 108h277l-224 -284h-252zM455 1173h157l117 154h-89l-74 -106h-64l-75 106h-89z" />
    <glyph glyph-name="uni018F" unicode="&#x18f;" horiz-adv-x="1273" 
d="M327 0l-206 206v475l206 206h540v169l-61 61h-671v283h809l206 -206v-988l-206 -206h-617zM422 188l-111 110v311l96 96h562v-401l-118 -116h-429zM377 93h519l168 167v885l-162 162h-668v-95h622l113 -111v-304h-599l-154 -153v-390zM465 283h341l61 61v270h-422
l-42 -42v-228z" />
    <glyph glyph-name="florin" unicode="&#x192;" horiz-adv-x="1090" 
d="M-15 -400l28 263h212l49 45l93 890h-167l30 282h167l22 214l228 206h333l-28 -263h-212l-49 -45l-11 -112h256l-30 -282h-256l-104 -992l-228 -206h-333zM83 -314h199l174 157l109 1049h262l10 95h-262l26 236l113 102h159l9 89h-199l-174 -157l-29 -270h-166l-10 -95
h166l-106 -1015l-113 -102h-159z" />
    <glyph glyph-name="Ohorn" unicode="&#x1a0;" horiz-adv-x="1329" 
d="M459 283h204l61 61v712l-61 61h-204l-61 -61v-712zM370 97h383l160 159v893l-160 159h-383l-159 -159v-893zM415 192l-109 108v805l109 108h293l110 -108v-805l-110 -108h-293zM1192 1296v-132l-83 -90h-196v-53h233l122 138v137h-76zM1116 1355h228v-199l-163 -187h-174
v-763l-206 -206h-480l-206 206v988l206 206h480l206 -206v-68h64l45 45v184z" />
    <glyph glyph-name="ohorn" unicode="&#x1a1;" horiz-adv-x="1270" 
d="M368 93h322l161 161v572l-161 161h-327l-162 -162v-565zM413 188l-117 116v477l112 111h237l111 -110v-484l-111 -110h-232zM449 283h152l61 61v392l-61 61h-152l-61 -61v-392zM1133 962v-132l-83 -90h-199v-53h236l122 138v137h-76zM1057 1021h228v-199l-163 -187h-177
v-429l-206 -206h-428l-206 206v668l206 206h428l206 -206v-82h67l45 45v184z" />
    <glyph glyph-name="Uhorn" unicode="&#x1af;" horiz-adv-x="1329" 
d="M369 94h401l159 157v1057h-95v-1013l-109 -106h-310l-111 106v1013h-95v-1057zM1192 1296v-132l-83 -90h-180v-53h217l122 138v137h-76zM1116 1355h228v-199l-163 -187h-158v-763l-206 -206h-496l-206 206v1194h283v-1056l61 -61h220l61 61v1056h283v-274h48l45 45v184z
" />
    <glyph glyph-name="uhorn" unicode="&#x1b0;" horiz-adv-x="1270" 
d="M373 94h318l161 168v725h-95v-681l-111 -117h-227l-118 117v681h-95v-725zM1133 962v-132l-83 -90h-198v-53h235l122 138v137h-76zM1057 1021h228v-199l-163 -187h-177v-429l-206 -206h-420l-206 206v874h283v-736l61 -61h144l61 61v736h283v-288h67l45 45v184z" />
    <glyph glyph-name="uni01C4" unicode="&#x1c4;" horiz-adv-x="2411" 
d="M125 0v1400h833l206 -206v-988l-206 -206h-833zM408 283h413l61 61v712l-61 61h-413v-834zM220 94h689l159 159v893l-159 159h-689v-1211zM315 189v1021h549l110 -108v-805l-110 -108h-549zM1497 94h719v95h-614v201l610 601v317h-705v-95h602v-191l-612 -605v-323z
M1394 0v448l610 605v64h-591v283h894v-444l-604 -597v-76h604v-283h-913zM1725 1432l-224 284h277l73 -108l73 108h277l-224 -284h-252zM1771 1493h157l117 154h-89l-74 -106h-64l-75 106h-89z" />
    <glyph glyph-name="uni01C5" unicode="&#x1c5;" horiz-adv-x="2359" 
d="M125 0v1400h833l206 -206v-988l-206 -206h-833zM408 283h413l61 61v712l-61 61h-413v-834zM220 94h689l159 159v893l-159 159h-689v-1211zM315 189v1021h549l110 -108v-805l-110 -108h-549zM1511 96h649v95h-530v152l511 363v281h-634v-95h517v-158l-513 -367v-271z
M1399 0v399l515 368v30h-496v283h831v-407l-508 -358v-32h508v-283h-850zM1698 1112l-224 284h277l73 -108l73 108h277l-224 -284h-252zM1744 1173h157l117 154h-89l-74 -106h-64l-75 106h-89z" />
    <glyph glyph-name="uni01C6" unicode="&#x1c6;" horiz-adv-x="2281" 
d="M879 0h-562l-207 206v668l207 206h466l20 -19v439h283v-1294zM780 185h-361l-118 117v491l105 103h344l148 -147v-447zM742 283l61 61v373l-80 81h-269l-61 -62v-392l61 -61h288zM825 90l168 168v1150h-95v-545l-129 128h-408l-155 -154v-579l168 -168h451zM1433 96h649
v95h-530v152l511 363v281h-634v-95h517v-158l-513 -367v-271zM1321 0v399l515 368v30h-496v283h831v-407l-508 -358v-32h508v-283h-850zM1620 1112l-224 284h277l73 -108l73 108h277l-224 -284h-252zM1666 1173h157l117 154h-89l-74 -106h-64l-75 106h-89z" />
    <glyph glyph-name="uni01C7" unicode="&#x1c7;" horiz-adv-x="2306" 
d="M125 0v1400h283v-1117h608v-283h-891zM219 92h704v95h-609v1121h-95v-1216zM1413 0l-207 206v357h283v-219l61 -61h298l61 61v773h-512v283h795v-1194l-207 -206h-572zM1460 98h482l160 160v1050h-615v-95h520v-911l-110 -109h-392l-110 109v169h-95v-213z" />
    <glyph glyph-name="uni01C8" unicode="&#x1c8;" horiz-adv-x="1815" 
d="M125 0v1400h283v-1117h608v-283h-891zM219 92h704v95h-609v1121h-95v-1216zM1076 -400v282h251l80 81v835h-331v282h614v-1274l-206 -206h-408zM1174 -302h264l158 162v1127h-430v-95h335v-981l-114 -118h-213v-95zM1407 1236v264h283v-264h-283zM1501 1322h95v102h-95
v-102z" />
    <glyph glyph-name="uni01C9" unicode="&#x1c9;" horiz-adv-x="1636" 
d="M45 0v283h270v934h-270v283h552v-1217h270v-283h-822zM138 93h637v95h-275v1220h-362v-95h267v-1125h-267v-95zM897 -400v282h251l80 81v835h-331v282h614v-1274l-206 -206h-408zM995 -302h264l158 162v1127h-430v-95h335v-981l-114 -118h-213v-95zM1228 1236v264h283
v-264h-283zM1322 1322h95v102h-95v-102z" />
    <glyph glyph-name="uni01CA" unicode="&#x1ca;" horiz-adv-x="2680" 
d="M218 90h95v1118h202l362 -1114h371v1214h-95v-1117h-203l-360 1114h-372v-1215zM125 0v1400h543l346 -1113h43v1113h283v-1400h-543l-348 1116h-41v-1116h-283zM1787 0l-207 206v357h283v-219l61 -61h298l61 61v773h-512v283h795v-1194l-207 -206h-572zM1834 98h482
l160 160v1050h-615v-95h520v-911l-110 -109h-392l-110 109v169h-95v-213z" />
    <glyph glyph-name="uni01CB" unicode="&#x1cb;" horiz-adv-x="2189" 
d="M218 90h95v1118h202l362 -1114h371v1214h-95v-1117h-203l-360 1114h-372v-1215zM125 0v1400h543l346 -1113h43v1113h283v-1400h-543l-348 1116h-41v-1116h-283zM1450 -400v282h251l80 81v835h-331v282h614v-1274l-206 -206h-408zM1548 -302h264l158 162v1127h-430v-95
h335v-981l-114 -118h-213v-95zM1781 1236v264h283v-264h-283zM1875 1322h95v102h-95v-102z" />
    <glyph glyph-name="uni01CC" unicode="&#x1cc;" horiz-adv-x="1904" 
d="M110 0v874l206 206h548l206 -206v-874h-282v736l-61 61h-274l-61 -61v-736h-282zM205 93h95v688l112 111h359l111 -110v-689h94v733l-160 161h-449l-162 -162v-732zM1165 -400v282h251l80 81v835h-331v282h614v-1274l-206 -206h-408zM1263 -302h264l158 162v1127h-430
v-95h335v-981l-114 -118h-213v-95zM1496 1236v264h283v-264h-283zM1590 1322h95v102h-95v-102z" />
    <glyph glyph-name="uni01CD" unicode="&#x1cd;" horiz-adv-x="1311" 
d="M30 0l369 1400h508l374 -1400h-325l-73 296h-456l-71 -296h-326zM161 90h108l74 293h627l76 -293h107l-321 1216h-356zM362 468l184 744h214l191 -744h-589zM483 552h344l-137 564h-77zM526 1432l-224 284h277l73 -108l73 108h277l-224 -284h-252zM572 1493h157l117 154
h-89l-74 -106h-64l-75 106h-89z" />
    <glyph glyph-name="uni01CE" unicode="&#x1ce;" horiz-adv-x="1253" 
d="M316 0l-206 206v285l206 206h544v39l-61 61h-675v283h813l206 -206v-668l-206 -206h-621zM411 188l-111 110v121l96 96h566v-211l-118 -116h-433zM366 93h523l168 167v565l-162 162h-672v-95h626l113 -111v-174h-603l-154 -153v-200zM454 283h345l61 61v80h-426l-42 -42
v-38zM502 1112l-224 284h277l73 -108l73 108h277l-224 -284h-252zM548 1173h157l117 154h-89l-74 -106h-64l-75 106h-89z" />
    <glyph glyph-name="uni01CF" unicode="&#x1cf;" horiz-adv-x="1059" 
d="M115 0v283h274v834h-274v283h829v-283h-273v-834h273v-283h-829zM208 93h644v95h-281v1025h281v95h-644v-95h268v-1025h-268v-95zM404 1432l-224 284h277l73 -108l73 108h277l-224 -284h-252zM450 1493h157l117 154h-89l-74 -106h-64l-75 106h-89z" />
    <glyph glyph-name="uni01D0" unicode="&#x1d0;" horiz-adv-x="990" 
d="M114 0v283h240v514h-240v283h522v-797h240v-283h-762zM200 93h590v95h-254v800h-336v-95h241v-705h-241v-95zM369 1112l-224 284h277l73 -108l73 108h277l-224 -284h-252zM415 1173h157l117 154h-89l-74 -106h-64l-75 106h-89z" />
    <glyph glyph-name="uni01D1" unicode="&#x1d1;" horiz-adv-x="1306" 
d="M321 0l-206 206v988l206 206h664l206 -206v-988l-206 -206h-664zM459 283h388l61 61v712l-61 61h-388l-61 -61v-712zM370 97h567l160 159v893l-160 159h-567l-159 -159v-893zM415 192l-109 108v805l109 108h477l110 -108v-805l-110 -108h-477zM527 1432l-224 284h277
l73 -108l73 108h277l-224 -284h-252zM573 1493h157l117 154h-89l-74 -106h-64l-75 106h-89z" />
    <glyph glyph-name="uni01D2" unicode="&#x1d2;" horiz-adv-x="1257" 
d="M316 0l-206 206v668l206 206h625l206 -206v-668l-206 -206h-625zM373 93h519l161 161v572l-161 161h-524l-162 -162v-565zM418 188l-117 116v477l112 111h434l111 -110v-484l-111 -110h-429zM454 283h349l61 61v392l-61 61h-349l-61 -61v-392zM502 1112l-224 284h277
l73 -108l73 108h277l-224 -284h-252zM548 1173h157l117 154h-89l-74 -106h-64l-75 106h-89z" />
    <glyph glyph-name="uni01D3" unicode="&#x1d3;" horiz-adv-x="1328" 
d="M321 0l-206 206v1194h283v-1056l61 -61h410l61 61v1056h283v-1194l-206 -206h-686zM369 94h591l159 157v1057h-95v-1013l-109 -106h-500l-111 106v1013h-95v-1057zM539 1432l-224 284h277l73 -108l73 108h277l-224 -284h-252zM585 1493h157l117 154h-89l-74 -106h-64
l-75 106h-89z" />
    <glyph glyph-name="uni01D4" unicode="&#x1d4;" horiz-adv-x="1202" 
d="M316 0l-206 206v874h283v-736l61 -61h294l61 61v736h283v-874l-206 -206h-570zM370 94h468l161 168v725h-95v-681l-111 -117h-377l-118 117v681h-95v-725zM477 1112l-224 284h277l73 -108l73 108h277l-224 -284h-252zM523 1173h157l117 154h-89l-74 -106h-64l-75 106h-89
z" />
    <glyph glyph-name="uni01D5" unicode="&#x1d5;" horiz-adv-x="1328" 
d="M321 0l-206 206v1194h283v-1056l61 -61h410l61 61v1056h283v-1194l-206 -206h-686zM369 94h591l159 157v1057h-95v-1013l-109 -106h-500l-111 106v1013h-95v-1057zM768 1452v210h212v-210h-212zM352 1452v210h212v-210h-212zM424 1521h65v70h-65v-70zM841 1521h66v70h-66
v-70zM349 1693v256h632v-256h-632zM445 1776h448v85h-448v-85z" />
    <glyph glyph-name="uni01D6" unicode="&#x1d6;" horiz-adv-x="1202" 
d="M316 0l-206 206v874h283v-736l61 -61h294l61 61v736h283v-874l-206 -206h-570zM370 94h468l161 168v725h-95v-681l-111 -117h-377l-118 117v681h-95v-725zM706 1132v210h212v-210h-212zM290 1132v210h212v-210h-212zM362 1201h65v70h-65v-70zM779 1201h66v70h-66v-70z
M287 1373v256h632v-256h-632zM383 1456h448v85h-448v-85z" />
    <glyph glyph-name="uni01D7" unicode="&#x1d7;" horiz-adv-x="1328" 
d="M321 0l-206 206v1194h283v-1056l61 -61h410l61 61v1056h283v-1194l-206 -206h-686zM369 94h591l159 157v1057h-95v-1013l-109 -106h-500l-111 106v1013h-95v-1057zM768 1452v210h212v-210h-212zM352 1452v210h212v-210h-212zM424 1521h65v70h-65v-70zM841 1521h66v70h-66
v-70zM542 1694l244 264h287l-284 -264h-247zM683 1749h77l156 153h-89z" />
    <glyph glyph-name="uni01D8" unicode="&#x1d8;" horiz-adv-x="1202" 
d="M316 0l-206 206v874h283v-736l61 -61h294l61 61v736h283v-874l-206 -206h-570zM370 94h468l161 168v725h-95v-681l-111 -117h-377l-118 117v681h-95v-725zM706 1132v210h212v-210h-212zM290 1132v210h212v-210h-212zM362 1201h65v70h-65v-70zM779 1201h66v70h-66v-70z
M480 1374l244 264h287l-284 -264h-247zM621 1429h77l156 153h-89z" />
    <glyph glyph-name="uni01D9" unicode="&#x1d9;" horiz-adv-x="1328" 
d="M321 0l-206 206v1194h283v-1056l61 -61h410l61 61v1056h283v-1194l-206 -206h-686zM369 94h591l159 157v1057h-95v-1013l-109 -106h-500l-111 106v1013h-95v-1057zM768 1452v210h212v-210h-212zM352 1452v210h212v-210h-212zM424 1521h65v70h-65v-70zM841 1521h66v70h-66
v-70zM539 1694l-224 284h277l73 -108l73 108h277l-224 -284h-252zM585 1755h157l117 154h-89l-74 -106h-64l-75 106h-89z" />
    <glyph glyph-name="uni01DA" unicode="&#x1da;" horiz-adv-x="1202" 
d="M316 0l-206 206v874h283v-736l61 -61h294l61 61v736h283v-874l-206 -206h-570zM370 94h468l161 168v725h-95v-681l-111 -117h-377l-118 117v681h-95v-725zM706 1132v210h212v-210h-212zM290 1132v210h212v-210h-212zM362 1201h65v70h-65v-70zM779 1201h66v70h-66v-70z
M477 1374l-224 284h277l73 -108l73 108h277l-224 -284h-252zM523 1435h157l117 154h-89l-74 -106h-64l-75 106h-89z" />
    <glyph glyph-name="uni01DB" unicode="&#x1db;" horiz-adv-x="1328" 
d="M321 0l-206 206v1194h283v-1056l61 -61h410l61 61v1056h283v-1194l-206 -206h-686zM369 94h591l159 157v1057h-95v-1013l-109 -106h-500l-111 106v1013h-95v-1057zM768 1452v210h212v-210h-212zM352 1452v210h212v-210h-212zM424 1521h65v70h-65v-70zM841 1521h66v70h-66
v-70zM810 1694h-247l-284 264h287zM669 1749l-144 153h-89l156 -153h77z" />
    <glyph glyph-name="uni01DC" unicode="&#x1dc;" horiz-adv-x="1202" 
d="M316 0l-206 206v874h283v-736l61 -61h294l61 61v736h283v-874l-206 -206h-570zM370 94h468l161 168v725h-95v-681l-111 -117h-377l-118 117v681h-95v-725zM706 1132v210h212v-210h-212zM290 1132v210h212v-210h-212zM362 1201h65v70h-65v-70zM779 1201h66v70h-66v-70z
M748 1374h-247l-284 264h287zM607 1429l-144 153h-89l156 -153h77z" />
    <glyph glyph-name="Gcaron" unicode="&#x1e6;" horiz-adv-x="1278" 
d="M321 0l-206 206v988l206 206h636l206 -206v-252h-282v114l-61 61h-363l-60 -63v-711l60 -60h363l61 61v138h-277v282h559v-558l-206 -206h-636zM369 97h541l160 159v412h-372v-95h277v-273l-110 -108h-450l-110 107v806l109 108h451l110 -108v-74h95v118l-160 159h-541
l-159 -159v-893zM513 1432l-224 284h277l73 -108l73 108h277l-224 -284h-252zM559 1493h157l117 154h-89l-74 -106h-64l-75 106h-89z" />
    <glyph glyph-name="gcaron" unicode="&#x1e7;" horiz-adv-x="1210" 
d="M160 -400v282h562l81 81v57l-20 -20h-467l-206 206v668l206 206h563l206 -206v-1068l-206 -206h-719zM254 -309h563l178 183v948l-167 168h-464l-160 -161v-565l168 -169h388l141 141v-312l-135 -138h-512v-95zM418 190l-119 118v477l111 110h373l118 -116v-424
l-167 -165h-316zM454 283h249l100 100v354l-62 61h-287l-61 -61v-393zM467 1112l-224 284h277l73 -108l73 108h277l-224 -284h-252zM513 1173h157l117 154h-89l-74 -106h-64l-75 106h-89z" />
    <glyph glyph-name="uni01EA" unicode="&#x1ea;" horiz-adv-x="1232" 
d="M459 283h314l61 61v712l-61 61h-314l-61 -61v-712zM370 97h493l160 159v893l-160 159h-493l-159 -159v-893zM415 192l-109 108v805l109 108h403l110 -108v-805l-110 -108h-403zM699 97l-261 -277l120 -137h229v53h-206l-77 84l265 277h-70zM911 1400l206 -206v-988
l-206 -206h-156l-180 -180l30 -32h235v-157h-305l-163 189l160 180h-211l-206 206v988l206 206h590z" />
    <glyph glyph-name="uni01EB" unicode="&#x1eb;" horiz-adv-x="1140" 
d="M368 93h412l161 161v572l-161 161h-417l-162 -162v-565zM413 188l-117 116v477l112 111h327l111 -110v-484l-111 -110h-322zM449 283h242l61 61v392l-61 61h-242l-61 -61v-392zM592 93l-251 -273l120 -137h229v53h-206l-77 84l255 273h-70zM829 1080l206 -206v-668
l-206 -206h-171l-180 -180l30 -32h235v-157h-305l-163 189l160 180h-124l-206 206v668l206 206h518z" />
    <glyph glyph-name="Aringacute" unicode="&#x1fa;" horiz-adv-x="1288" 
d="M115 0v1194l206 206h646l206 -206v-1194h-282v412h-494v-412h-282zM212 101h95v402h678v-402h95v1051l-160 160h-549l-159 -160v-1051zM397 694h494v362l-61 61h-372l-61 -61v-362zM307 598v510l109 109h459l110 -109v-510h-678zM553 1430l-98 97v174l98 98h183l98 -98
v-174l-98 -97h-183zM583 1489h124l69 69v116l-69 68h-124l-69 -68v-116zM609 1548l-35 35v66l35 34h72l35 -34v-66l-35 -35h-72zM636 1598h17l8 9v15l-8 9h-17l-8 -9v-15zM523 1831l244 264h287l-284 -264h-247zM664 1886h77l156 153h-89z" />
    <glyph glyph-name="aringacute" unicode="&#x1fb;" horiz-adv-x="1253" 
d="M316 0l-206 206v285l206 206h544v39l-61 61h-675v283h813l206 -206v-668l-206 -206h-621zM411 188l-111 110v121l96 96h566v-211l-118 -116h-433zM366 93h523l168 167v565l-162 162h-672v-95h626l113 -111v-174h-603l-154 -153v-200zM454 283h345l61 61v80h-426l-42 -42
v-38zM536 1110l-98 97v174l98 98h183l98 -98v-174l-98 -97h-183zM566 1169h124l69 69v116l-69 68h-124l-69 -68v-116zM592 1228l-35 35v66l35 34h72l35 -34v-66l-35 -35h-72zM619 1278h17l8 9v15l-8 9h-17l-8 -9v-15zM506 1511l244 264h287l-284 -264h-247zM647 1566h77
l156 153h-89z" />
    <glyph glyph-name="AEacute" unicode="&#x1fc;" horiz-adv-x="1934" 
d="M30 0l595 1400h1147v-283h-550v-269h512v-283h-512v-282h550v-283h-833v412h-429l-173 -412h-307zM149 84h103l181 417h601v-417h664v95h-569v482h530v95h-530v471h569v95h-1010zM473 596l276 631h285v-631h-561zM626 694h313v423h-133zM844 1432l244 264h287l-284 -264
h-247zM985 1487h77l156 153h-89z" />
    <glyph glyph-name="aeacute" unicode="&#x1fd;" horiz-adv-x="1790" 
d="M339 0l-206 206v280l206 206h342l66 65v-21l-62 61h-207l-129 -128l-228 192l218 219h485l67 -67l67 67h485l206 -206v-292l-206 -194h-342l-66 -65v21l62 -61h207l129 128l228 -192l-218 -219h-485l-67 67l-67 -67h-485zM376 97h394l118 118l119 -118h407l123 123
l-75 65l-93 -93h-317l-113 111v26l153 151h327l148 142v198l-161 164h-394l-118 -119l-119 119h-407l-123 -124l75 -64l93 93h317l113 -111v-27l-153 -151h-327l-148 -146v-196zM421 192l-111 110v117l90 90h305l138 138v-339l-118 -116h-304zM939 433v339l118 117h304
l111 -110v-118l-90 -90h-305zM478 283h207l62 61v96l-19 -19h-270l-42 -42v-35zM1035 640l19 19h270l42 42v35l-62 61h-207l-62 -61v-96zM772 1112l244 264h287l-284 -264h-247zM913 1167h77l156 153h-89z" />
    <glyph glyph-name="Oslashacute" unicode="&#x1fe;" horiz-adv-x="1390" 
d="M304 -53l-196 139l73 102l-20 18v988l206 206h644l17 -16l57 81l197 -137l-82 -117l17 -17v-988l-206 -206h-644l-14 15zM542 283h331l61 61v493zM464 179l-63 46l614 870l24 -39v-769l-110 -108h-465zM271 39l74 105l60 -60h570l159 159v919l-42 41l85 120l-64 45
l-76 -109l-62 63h-570l-160 -160v-919l43 -42l-82 -115zM365 308l-25 41v770l110 108h467l64 -48zM444 560l394 558h-332l-62 -62v-496zM557 1432l244 264h287l-284 -264h-247zM698 1487h77l156 153h-89z" />
    <glyph glyph-name="oslashacute" unicode="&#x1ff;" horiz-adv-x="1158" 
d="M300 -53l-196 139l58 80l-40 40v668l206 206h485h5l40 57l196 -137l-67 -94l31 -32v-668l-205 -206h-475l-4 -5zM538 283h136l62 61v207zM270 39l65 91l41 -40h396l151 150v600l-51 50l78 109l-64 45l-70 -98l-44 44h-391l-163 -152v-591l59 -59l-72 -103zM445 185
l-48 33l403 569l28 -49v-454l-101 -99h-282zM348 287l-35 58v450l113 100h280l51 -34zM405 510l213 288h-151l-62 -62v-226zM456 1112l244 264h287l-284 -264h-247zM597 1167h77l156 153h-89z" />
    <glyph glyph-name="uni0200" unicode="&#x200;" horiz-adv-x="1288" 
d="M115 0v1194l206 206h646l206 -206v-1194h-282v412h-494v-412h-282zM212 101h95v402h678v-402h95v1051l-160 160h-549l-159 -160v-1051zM397 694h494v362l-61 61h-372l-61 -61v-362zM307 598v510l109 109h459l110 -109v-510h-678zM973 1432h-247l-284 264h287zM832 1487
l-144 153h-89l156 -153h77zM581 1432h-247l-284 264h287zM440 1487l-144 153h-89l156 -153h77z" />
    <glyph glyph-name="uni0201" unicode="&#x201;" horiz-adv-x="1253" 
d="M316 0l-206 206v285l206 206h544v39l-61 61h-675v283h813l206 -206v-668l-206 -206h-621zM411 188l-111 110v121l96 96h566v-211l-118 -116h-433zM366 93h523l168 167v565l-162 162h-672v-95h626l113 -111v-174h-603l-154 -153v-200zM454 283h345l61 61v80h-426l-42 -42
v-38zM956 1112h-247l-284 264h287zM815 1167l-144 153h-89l156 -153h77zM564 1112h-247l-284 264h287zM423 1167l-144 153h-89l156 -153h77z" />
    <glyph glyph-name="uni0202" unicode="&#x202;" horiz-adv-x="1288" 
d="M115 0v1194l206 206h646l206 -206v-1194h-282v412h-494v-412h-282zM212 101h95v402h678v-402h95v1051l-160 160h-549l-159 -160v-1051zM397 694h494v362l-61 61h-372l-61 -61v-362zM307 598v510l109 109h459l110 -109v-510h-678zM764 1699l112 -112v-156h-192v76h-78v-76
h-192v156l112 112h238zM725 1638h-162l-82 -87v-56h64v35l41 44h117l41 -44v-35h64v56z" />
    <glyph glyph-name="uni0203" unicode="&#x203;" horiz-adv-x="1253" 
d="M316 0l-206 206v285l206 206h544v39l-61 61h-675v283h813l206 -206v-668l-206 -206h-621zM411 188l-111 110v121l96 96h566v-211l-118 -116h-433zM366 93h523l168 167v565l-162 162h-672v-95h626l113 -111v-174h-603l-154 -153v-200zM454 283h345l61 61v80h-426l-42 -42
v-38zM747 1379l112 -112v-156h-192v76h-78v-76h-192v156l112 112h238zM708 1318h-162l-82 -87v-56h64v35l41 44h117l41 -44v-35h64v56z" />
    <glyph glyph-name="uni0204" unicode="&#x204;" horiz-adv-x="1140" 
d="M115 0v1400h910v-283h-627v-269h558v-283h-558v-282h627v-283h-910zM211 97h732v95h-637v467h567v95h-567v459h637v95h-732v-1211zM890 1432h-247l-284 264h287zM749 1487l-144 153h-89l156 -153h77zM498 1432h-247l-284 264h287zM357 1487l-144 153h-89l156 -153h77z
" />
    <glyph glyph-name="uni0205" unicode="&#x205;" horiz-adv-x="1253" 
d="M937 1080l206 -206v-285l-206 -206h-544v-39l61 -61h675v-283h-813l-206 206v668l206 206h621zM842 892l111 -110v-121l-96 -96h-566v211l118 116h433zM887 987h-523l-168 -167v-565l162 -162h672v95h-626l-113 111v174h603l154 153v200zM799 797h-345l-61 -61v-80h426
l42 42v38zM957 1112h-247l-284 264h287zM816 1167l-144 153h-89l156 -153h77zM565 1112h-247l-284 264h287zM424 1167l-144 153h-89l156 -153h77z" />
    <glyph glyph-name="uni0206" unicode="&#x206;" horiz-adv-x="1140" 
d="M115 0v1400h910v-283h-627v-269h558v-283h-558v-282h627v-283h-910zM211 97h732v95h-637v467h567v95h-567v459h637v95h-732v-1211zM681 1699l112 -112v-156h-192v76h-78v-76h-192v156l112 112h238zM642 1638h-162l-82 -87v-56h64v35l41 44h117l41 -44v-35h64v56z" />
    <glyph glyph-name="uni0207" unicode="&#x207;" horiz-adv-x="1253" 
d="M937 1080l206 -206v-285l-206 -206h-544v-39l61 -61h675v-283h-813l-206 206v668l206 206h621zM842 892l111 -110v-121l-96 -96h-566v211l118 116h433zM887 987h-523l-168 -167v-565l162 -162h672v95h-626l-113 111v174h603l154 153v200zM799 797h-345l-61 -61v-80h426
l42 42v38zM748 1379l112 -112v-156h-192v76h-78v-76h-192v156l112 112h238zM709 1318h-162l-82 -87v-56h64v35l41 44h117l41 -44v-35h64v56z" />
    <glyph glyph-name="uni0208" unicode="&#x208;" horiz-adv-x="1059" 
d="M115 0v283h274v834h-274v283h829v-283h-273v-834h273v-283h-829zM208 93h644v95h-281v1025h281v95h-644v-95h268v-1025h-268v-95zM858 1432h-247l-284 264h287zM717 1487l-144 153h-89l156 -153h77zM466 1432h-247l-284 264h287zM325 1487l-144 153h-89l156 -153h77z" />
    <glyph glyph-name="uni0209" unicode="&#x209;" horiz-adv-x="990" 
d="M114 0v283h240v514h-240v283h522v-797h240v-283h-762zM200 93h590v95h-254v800h-336v-95h241v-705h-241v-95zM823 1112h-247l-284 264h287zM682 1167l-144 153h-89l156 -153h77zM431 1112h-247l-284 264h287zM290 1167l-144 153h-89l156 -153h77z" />
    <glyph glyph-name="uni020A" unicode="&#x20a;" horiz-adv-x="1059" 
d="M115 0v283h274v834h-274v283h829v-283h-273v-834h273v-283h-829zM208 93h644v95h-281v1025h281v95h-644v-95h268v-1025h-268v-95zM649 1699l112 -112v-156h-192v76h-78v-76h-192v156l112 112h238zM610 1638h-162l-82 -87v-56h64v35l41 44h117l41 -44v-35h64v56z" />
    <glyph glyph-name="uni020B" unicode="&#x20b;" horiz-adv-x="990" 
d="M114 0v283h240v514h-240v283h522v-797h240v-283h-762zM200 93h590v95h-254v800h-336v-95h241v-705h-241v-95zM614 1379l112 -112v-156h-192v76h-78v-76h-192v156l112 112h238zM575 1318h-162l-82 -87v-56h64v35l41 44h117l41 -44v-35h64v56z" />
    <glyph glyph-name="uni020C" unicode="&#x20c;" horiz-adv-x="1306" 
d="M321 0l-206 206v988l206 206h664l206 -206v-988l-206 -206h-664zM459 283h388l61 61v712l-61 61h-388l-61 -61v-712zM370 97h567l160 159v893l-160 159h-567l-159 -159v-893zM415 192l-109 108v805l109 108h477l110 -108v-805l-110 -108h-477zM981 1432h-247l-284 264
h287zM840 1487l-144 153h-89l156 -153h77zM589 1432h-247l-284 264h287zM448 1487l-144 153h-89l156 -153h77z" />
    <glyph glyph-name="uni020D" unicode="&#x20d;" horiz-adv-x="1257" 
d="M316 0l-206 206v668l206 206h625l206 -206v-668l-206 -206h-625zM373 93h519l161 161v572l-161 161h-524l-162 -162v-565zM418 188l-117 116v477l112 111h434l111 -110v-484l-111 -110h-429zM454 283h349l61 61v392l-61 61h-349l-61 -61v-392zM956 1112h-247l-284 264
h287zM815 1167l-144 153h-89l156 -153h77zM564 1112h-247l-284 264h287zM423 1167l-144 153h-89l156 -153h77z" />
    <glyph glyph-name="uni020E" unicode="&#x20e;" horiz-adv-x="1306" 
d="M321 0l-206 206v988l206 206h664l206 -206v-988l-206 -206h-664zM459 283h388l61 61v712l-61 61h-388l-61 -61v-712zM370 97h567l160 159v893l-160 159h-567l-159 -159v-893zM415 192l-109 108v805l109 108h477l110 -108v-805l-110 -108h-477zM772 1699l112 -112v-156
h-192v76h-78v-76h-192v156l112 112h238zM733 1638h-162l-82 -87v-56h64v35l41 44h117l41 -44v-35h64v56z" />
    <glyph glyph-name="uni020F" unicode="&#x20f;" horiz-adv-x="1257" 
d="M316 0l-206 206v668l206 206h625l206 -206v-668l-206 -206h-625zM373 93h519l161 161v572l-161 161h-524l-162 -162v-565zM418 188l-117 116v477l112 111h434l111 -110v-484l-111 -110h-429zM454 283h349l61 61v392l-61 61h-349l-61 -61v-392zM747 1379l112 -112v-156
h-192v76h-78v-76h-192v156l112 112h238zM708 1318h-162l-82 -87v-56h64v35l41 44h117l41 -44v-35h64v56z" />
    <glyph glyph-name="uni0210" unicode="&#x210;" horiz-adv-x="1309" 
d="M125 0v1400h863l206 -206v-434l-122 -112l122 -133v-515h-283v415l-100 100h-403v-515h-283zM219 92h95v522h537l156 -166v-356h95v387l-164 180l159 137v352l-159 160h-719v-1216zM408 798h442l61 62v196l-61 61h-442v-319zM314 709v504h578l110 -109v-276l-138 -119
h-550zM985 1432h-247l-284 264h287zM844 1487l-144 153h-89l156 -153h77zM593 1432h-247l-284 264h287zM452 1487l-144 153h-89l156 -153h77z" />
    <glyph glyph-name="uni0211" unicode="&#x211;" horiz-adv-x="1148" 
d="M110 0v282h194v501l-15 15h-177v282h253l68 -80l77 80h389l219 -219l-218 -212l-138 148h-114l-61 -61v-455h194v-281h-671zM198 94h495v94h-200v602l98 99h226l97 -106l72 70l-124 131h-316l-106 -108l-99 108h-143v-95h120l80 -87v-614h-200v-94zM874 1112h-247
l-284 264h287zM733 1167l-144 153h-89l156 -153h77zM482 1112h-247l-284 264h287zM341 1167l-144 153h-89l156 -153h77z" />
    <glyph glyph-name="uni0212" unicode="&#x212;" horiz-adv-x="1309" 
d="M125 0v1400h863l206 -206v-434l-122 -112l122 -133v-515h-283v415l-100 100h-403v-515h-283zM219 92h95v522h537l156 -166v-356h95v387l-164 180l159 137v352l-159 160h-719v-1216zM408 798h442l61 62v196l-61 61h-442v-319zM314 709v504h578l110 -109v-276l-138 -119
h-550zM776 1699l112 -112v-156h-192v76h-78v-76h-192v156l112 112h238zM737 1638h-162l-82 -87v-56h64v35l41 44h117l41 -44v-35h64v56z" />
    <glyph glyph-name="uni0213" unicode="&#x213;" horiz-adv-x="1148" 
d="M110 0v282h194v501l-15 15h-177v282h253l68 -80l77 80h389l219 -219l-218 -212l-138 148h-114l-61 -61v-455h194v-281h-671zM198 94h495v94h-200v602l98 99h226l97 -106l72 70l-124 131h-316l-106 -108l-99 108h-143v-95h120l80 -87v-614h-200v-94zM665 1379l112 -112
v-156h-192v76h-78v-76h-192v156l112 112h238zM626 1318h-162l-82 -87v-56h64v35l41 44h117l41 -44v-35h64v56z" />
    <glyph glyph-name="uni0214" unicode="&#x214;" horiz-adv-x="1328" 
d="M321 0l-206 206v1194h283v-1056l61 -61h410l61 61v1056h283v-1194l-206 -206h-686zM369 94h591l159 157v1057h-95v-1013l-109 -106h-500l-111 106v1013h-95v-1057zM993 1432h-247l-284 264h287zM852 1487l-144 153h-89l156 -153h77zM601 1432h-247l-284 264h287z
M460 1487l-144 153h-89l156 -153h77z" />
    <glyph glyph-name="uni0215" unicode="&#x215;" horiz-adv-x="1202" 
d="M316 0l-206 206v874h283v-736l61 -61h294l61 61v736h283v-874l-206 -206h-570zM370 94h468l161 168v725h-95v-681l-111 -117h-377l-118 117v681h-95v-725zM931 1112h-247l-284 264h287zM790 1167l-144 153h-89l156 -153h77zM539 1112h-247l-284 264h287zM398 1167
l-144 153h-89l156 -153h77z" />
    <glyph glyph-name="uni0216" unicode="&#x216;" horiz-adv-x="1328" 
d="M321 0l-206 206v1194h283v-1056l61 -61h410l61 61v1056h283v-1194l-206 -206h-686zM369 94h591l159 157v1057h-95v-1013l-109 -106h-500l-111 106v1013h-95v-1057zM784 1699l112 -112v-156h-192v76h-78v-76h-192v156l112 112h238zM745 1638h-162l-82 -87v-56h64v35l41 44
h117l41 -44v-35h64v56z" />
    <glyph glyph-name="uni0217" unicode="&#x217;" horiz-adv-x="1202" 
d="M316 0l-206 206v874h283v-736l61 -61h294l61 61v736h283v-874l-206 -206h-570zM370 94h468l161 168v725h-95v-681l-111 -117h-377l-118 117v681h-95v-725zM722 1379l112 -112v-156h-192v76h-78v-76h-192v156l112 112h238zM683 1318h-162l-82 -87v-56h64v35l41 44h117
l41 -44v-35h64v56z" />
    <glyph glyph-name="uni0218" unicode="&#x218;" horiz-adv-x="1302" 
d="M321 0l-206 206v252h283v-114l61 -61h384l61 61v154l-61 61h-516l-206 206v429l206 206h635l206 -206v-252h-283v114l-61 61h-359l-62 -61v-153l62 -61h516l206 -206v-430l-206 -206h-660zM365 93h564l160 159v350l-146 147h-523l-110 110v243l109 109h456l103 -102v-81
h95v125l-153 153h-546l-159 -160v-331l162 -162h520l97 -93v-264l-110 -108h-473l-103 102v82h-95v-126zM403 -530l114 458h271l-159 -458h-226zM504 -450h66l102 281h-96z" />
    <glyph glyph-name="uni0219" unicode="&#x219;" horiz-adv-x="1203" 
d="M120 0v283h630l61 61v-5l-59 60h-436l-206 206v269l206 206h757v-283h-620l-61 -61v6l61 -61h434l206 -206v-269l-206 -206h-767zM212 96h632l155 156v187l-155 152h-446l-97 96v101l104 104h576v95h-621l-156 -155v-187l149 -149h446l104 -100v-101l-104 -104h-587v-95z
M363 -530l114 458h271l-159 -458h-226zM464 -450h66l102 281h-96z" />
    <glyph glyph-name="uni021A" unicode="&#x21a;" horiz-adv-x="1126" 
d="M422 0v1117h-347v283h976v-283h-347v-1117h-282zM515 90h95v1123h351v95h-796v-95h350v-1123zM315 -530l114 458h271l-159 -458h-226zM416 -450h66l102 281h-96z" />
    <glyph glyph-name="uni021B" unicode="&#x21b;" horiz-adv-x="935" 
d="M294 0v798h-249v282h249v274h283v-274h248v-282h-248v-515h241v-283h-524zM388 93h338v95h-243v706h250v94h-250v273h-95v-273h-251v-94h251v-801zM215 -533l114 458h271l-159 -458h-226zM316 -453h66l102 281h-96z" />
    <glyph glyph-name="uni022A" unicode="&#x22a;" horiz-adv-x="1306" 
d="M321 0l-206 206v988l206 206h664l206 -206v-988l-206 -206h-664zM459 283h388l61 61v712l-61 61h-388l-61 -61v-712zM370 97h567l160 159v893l-160 159h-567l-159 -159v-893zM415 192l-109 108v805l109 108h477l110 -108v-805l-110 -108h-477zM756 1452v210h212v-210
h-212zM340 1452v210h212v-210h-212zM412 1521h65v70h-65v-70zM829 1521h66v70h-66v-70zM337 1693v256h632v-256h-632zM433 1776h448v85h-448v-85z" />
    <glyph glyph-name="uni022B" unicode="&#x22b;" horiz-adv-x="1257" 
d="M316 0l-206 206v668l206 206h625l206 -206v-668l-206 -206h-625zM373 93h519l161 161v572l-161 161h-524l-162 -162v-565zM418 188l-117 116v477l112 111h434l111 -110v-484l-111 -110h-429zM454 283h349l61 61v392l-61 61h-349l-61 -61v-392zM731 1132v210h212v-210
h-212zM315 1132v210h212v-210h-212zM387 1201h65v70h-65v-70zM804 1201h66v70h-66v-70zM312 1373v256h632v-256h-632zM408 1456h448v85h-448v-85z" />
    <glyph glyph-name="uni022C" unicode="&#x22c;" horiz-adv-x="1306" 
d="M321 0l-206 206v988l206 206h664l206 -206v-988l-206 -206h-664zM459 283h388l61 61v712l-61 61h-388l-61 -61v-712zM370 97h567l160 159v893l-160 159h-567l-159 -159v-893zM415 192l-109 108v805l109 108h477l110 -108v-805l-110 -108h-477zM374 1432v136l112 112h178
l56 -56h18v56h192v-136l-112 -112h-178l-56 56h-18v-56h-192zM442 1488h64v24l41 45h61l65 -64h110l83 87v45h-64v-24l-41 -44h-66l-64 63h-106l-83 -87v-45zM337 1711v256h632v-256h-632zM433 1794h448v85h-448v-85z" />
    <glyph glyph-name="uni022D" unicode="&#x22d;" horiz-adv-x="1257" 
d="M316 0l-206 206v668l206 206h625l206 -206v-668l-206 -206h-625zM373 93h519l161 161v572l-161 161h-524l-162 -162v-565zM418 188l-117 116v477l112 111h434l111 -110v-484l-111 -110h-429zM454 283h349l61 61v392l-61 61h-349l-61 -61v-392zM349 1112v136l112 112h178
l56 -56h18v56h192v-136l-112 -112h-178l-56 56h-18v-56h-192zM417 1168h64v24l41 45h61l65 -64h110l83 87v45h-64v-24l-41 -44h-66l-64 63h-106l-83 -87v-45zM312 1391v256h632v-256h-632zM408 1474h448v85h-448v-85z" />
    <glyph glyph-name="uni0230" unicode="&#x230;" horiz-adv-x="1306" 
d="M321 0l-206 206v988l206 206h664l206 -206v-988l-206 -206h-664zM459 283h388l61 61v712l-61 61h-388l-61 -61v-712zM370 97h567l160 159v893l-160 159h-567l-159 -159v-893zM415 192l-109 108v805l109 108h477l110 -108v-805l-110 -108h-477zM548 1452v210h212v-210
h-212zM620 1521h65v70h-65v-70zM337 1693v256h632v-256h-632zM433 1776h448v85h-448v-85z" />
    <glyph glyph-name="uni0231" unicode="&#x231;" horiz-adv-x="1257" 
d="M316 0l-206 206v668l206 206h625l206 -206v-668l-206 -206h-625zM373 93h519l161 161v572l-161 161h-524l-162 -162v-565zM418 188l-117 116v477l112 111h434l111 -110v-484l-111 -110h-429zM454 283h349l61 61v392l-61 61h-349l-61 -61v-392zM523 1132v210h212v-210
h-212zM595 1201h65v70h-65v-70zM312 1373v256h632v-256h-632zM408 1456h448v85h-448v-85z" />
    <glyph glyph-name="uni0232" unicode="&#x232;" horiz-adv-x="1294" 
d="M505 0v443l-400 382v575h283v-473l268 -253h-19l269 253v473h283v-575l-401 -382v-443h-283zM599 90h95v389l401 379v450h-95v-418l-351 -331h-5l-351 331v418h-95v-450l401 -379v-389zM331 1431v256h632v-256h-632zM427 1514h448v85h-448v-85z" />
    <glyph glyph-name="uni0233" unicode="&#x233;" horiz-adv-x="1206" 
d="M316 0l-206 206v874h283v-736l61 -61h245l100 100v697h282v-1274l-206 -206h-715v282h558l81 81v57l-20 -20h-463zM267 -309h550l172 176v1120h-95v-632l-167 -165h-319l-109 109v688h-95v-732l158 -160h391l141 141v-319l-128 -131h-499v-95zM277 1111v256h632v-256
h-632zM373 1194h448v85h-448v-85z" />
    <glyph glyph-name="uni0237" unicode="&#x237;" horiz-adv-x="706" 
d="M25 -400v282h181l80 81v835h-261v282h544v-1274l-206 -206h-338zM123 -302h194l158 162v1127h-360v-95h265v-981l-114 -118h-143v-95z" />
    <glyph glyph-name="uni0259" unicode="&#x259;" horiz-adv-x="1253" 
d="M316 0l-206 206v285l206 206h544v39l-61 61h-675v283h813l206 -206v-668l-206 -206h-621zM411 188l-111 110v121l96 96h566v-211l-118 -116h-433zM366 93h523l168 167v565l-162 162h-672v-95h626l113 -111v-174h-603l-154 -153v-200zM454 283h345l61 61v80h-426l-42 -42
v-38z" />
    <glyph glyph-name="uni02BC" unicode="&#x2bc;" horiz-adv-x="558" 
d="M82 942l114 458h271l-159 -458h-226zM183 1022h66l102 281h-96z" />
    <glyph glyph-name="circumflex" unicode="&#x2c6;" horiz-adv-x="884" 
d="M316 1396h252l224 -284h-277l-73 108l-73 -108h-277zM362 1335l-117 -154h89l75 106h64l74 -106h89l-117 154h-157z" />
    <glyph glyph-name="caron" unicode="&#x2c7;" horiz-adv-x="884" 
d="M316 1112l-224 284h277l73 -108l73 108h277l-224 -284h-252zM362 1173h157l117 154h-89l-74 -106h-64l-75 106h-89z" />
    <glyph glyph-name="uni02C9" unicode="&#x2c9;" horiz-adv-x="836" 
d="M102 1119v256h632v-256h-632zM198 1202h448v85h-448v-85z" />
    <glyph glyph-name="breve" unicode="&#x2d8;" horiz-adv-x="646" 
d="M204 1112l-112 112v156h192v-76h78v76h192v-156l-112 -112h-238zM243 1173h162l82 87v56h-64v-35l-41 -44h-117l-41 44v35h-64v-56z" />
    <glyph glyph-name="dotaccent" unicode="&#x2d9;" horiz-adv-x="528" 
d="M158 1132v210h212v-210h-212zM230 1201h65v70h-65v-70z" />
    <glyph glyph-name="ring" unicode="&#x2da;" horiz-adv-x="1200" 
d="M509 1110l-98 97v174l98 98h183l98 -98v-174l-98 -97h-183zM539 1169h124l69 69v116l-69 68h-124l-69 -68v-116zM565 1228l-35 35v66l35 34h72l35 -34v-66l-35 -35h-72zM592 1278h17l8 9v15l-8 9h-17l-8 -9v-15z" />
    <glyph glyph-name="ogonek" unicode="&#x2db;" horiz-adv-x="638" 
d="M223 -389l-163 189l154 172h211l-162 -172l27 -32h238v-157h-305zM249 -337h226v53h-203l-74 84l109 117h-71l-106 -117z" />
    <glyph glyph-name="tilde" unicode="&#x2dc;" horiz-adv-x="780" 
d="M112 1112v136l112 112h178l56 -56h18v56h192v-136l-112 -112h-178l-56 56h-18v-56h-192zM180 1168h64v24l41 45h61l65 -64h110l83 87v45h-64v-24l-41 -44h-66l-64 63h-106l-83 -87v-45z" />
    <glyph glyph-name="hungarumlaut" unicode="&#x2dd;" horiz-adv-x="1200" 
d="M559 1112l145 264h287l-195 -264h-237zM320 1163h76l106 156h-91zM207 1112l145 264h287l-195 -264h-237zM672 1163h76l106 156h-91z" />
    <glyph glyph-name="gravecomb" unicode="&#x300;" 
d="M590 1112h-247l-284 264h287zM449 1167l-144 153h-89l156 -153h77z" />
    <glyph glyph-name="acutecomb" unicode="&#x301;" 
d="M82 1112l244 264h287l-284 -264h-247zM223 1167h77l156 153h-89z" />
    <glyph glyph-name="uni0302" unicode="&#x302;" 
d="M316 1396h252l224 -284h-277l-73 108l-73 -108h-277zM362 1335l-117 -154h89l75 106h64l74 -106h89l-117 154h-157z" />
    <glyph glyph-name="tildecomb" unicode="&#x303;" 
d="M112 1112v136l112 112h178l56 -56h18v56h192v-136l-112 -112h-178l-56 56h-18v-56h-192zM180 1168h64v24l41 45h61l65 -64h110l83 87v45h-64v-24l-41 -44h-66l-64 63h-106l-83 -87v-45z" />
    <glyph glyph-name="uni0304" unicode="&#x304;" 
d="M102 1111v256h632v-256h-632zM198 1194h448v85h-448v-85z" />
    <glyph glyph-name="uni0306" unicode="&#x306;" 
d="M204 1112l-112 112v156h192v-76h78v76h192v-156l-112 -112h-238zM243 1173h162l82 87v56h-64v-35l-41 -44h-117l-41 44v35h-64v-56z" />
    <glyph glyph-name="uni0307" unicode="&#x307;" 
d="M158 1132v210h212v-210h-212zM230 1201h65v70h-65v-70z" />
    <glyph glyph-name="uni0308" unicode="&#x308;" 
d="M574 1132v210h212v-210h-212zM158 1132v210h212v-210h-212zM230 1201h65v70h-65v-70zM647 1201h66v70h-66v-70z" />
    <glyph glyph-name="hookabovecomb" unicode="&#x309;" 
d="M80 1482h315l163 -189l-163 -187h-244v157h134l30 30l-30 32h-205v157zM146 1430v-53h176l75 -84l-75 -82h-104v-53h140l121 135l-121 137h-212z" />
    <glyph glyph-name="uni030A" unicode="&#x30a;" 
d="M509 1110l-98 97v174l98 98h183l98 -98v-174l-98 -97h-183zM539 1169h124l69 69v116l-69 68h-124l-69 -68v-116zM565 1228l-35 35v66l35 34h72l35 -34v-66l-35 -35h-72zM592 1278h17l8 9v15l-8 9h-17l-8 -9v-15z" />
    <glyph glyph-name="uni030B" unicode="&#x30b;" 
d="M559 1112l145 264h287l-195 -264h-237zM320 1163h76l106 156h-91zM207 1112l145 264h287l-195 -264h-237zM672 1163h76l106 156h-91z" />
    <glyph glyph-name="uni030C" unicode="&#x30c;" 
d="M316 1112l-224 284h277l73 -108l73 108h277l-224 -284h-252zM362 1173h157l117 154h-89l-74 -106h-64l-75 106h-89z" />
    <glyph glyph-name="uni030F" unicode="&#x30f;" 
d="M982 1112h-247l-284 264h287zM841 1167l-144 153h-89l156 -153h77zM590 1112h-247l-284 264h287zM449 1167l-144 153h-89l156 -153h77z" />
    <glyph glyph-name="uni0311" unicode="&#x311;" 
d="M442 1379l112 -112v-156h-192v76h-78v-76h-192v156l112 112h238zM403 1318h-162l-82 -87v-56h64v35l41 44h117l41 -44v-35h64v56z" />
    <glyph glyph-name="uni0312" unicode="&#x312;" 
d="M505 1568l-114 -458h-271l159 458h226zM404 1488h-66l-102 -281h96z" />
    <glyph glyph-name="uni031B" unicode="&#x31b;" 
d="M487 1309v-199l-163 -187h-244v157h134l45 45v184h228zM335 1250v-132l-83 -90h-105v-53h142l122 138v137h-76z" />
    <glyph glyph-name="dotbelowcomb" unicode="&#x323;" 
d="M162 -271v210h212v-210h-212zM234 -202h65v70h-65v-70z" />
    <glyph glyph-name="uni0324" unicode="&#x324;" 
d="M574 -269v210h212v-210h-212zM158 -269v210h212v-210h-212zM230 -200h65v70h-65v-70zM647 -200h66v70h-66v-70z" />
    <glyph glyph-name="uni0326" unicode="&#x326;" 
d="M21 -530l114 458h271l-159 -458h-226zM122 -450h66l102 281h-96z" />
    <glyph glyph-name="uni0327" unicode="&#x327;" 
d="M100 -400v157h205l30 32l-30 30h-134v157h244l163 -187l-163 -189h-315zM166 -348h212l121 137l-121 135h-140v-53h104l75 -82l-75 -84h-176v-53z" />
    <glyph glyph-name="uni0328" unicode="&#x328;" 
d="M223 -389l-163 189l154 172h211l-162 -172l27 -32h238v-157h-305zM249 -337h226v53h-203l-74 84l109 117h-71l-106 -117z" />
    <glyph glyph-name="uni032E" unicode="&#x32e;" 
d="M204 -340l-112 112v156h192v-76h78v76h192v-156l-112 -112h-238zM243 -279h162l82 87v56h-64v-35l-41 -44h-117l-41 44v35h-64v-56z" />
    <glyph glyph-name="uni0331" unicode="&#x331;" 
d="M102 -326v256h632v-256h-632zM198 -243h448v85h-448v-85z" />
    <glyph glyph-name="uni1E08" unicode="&#x1e08;" horiz-adv-x="1244" 
d="M311 0l-206 206v988l206 206h621l207 -206v-322h-283v184l-61 61h-346l-61 -61v-712l61 -61h346l61 61v184h283v-322l-207 -206h-621zM357 94h529l159 160v190h-95v-146l-109 -109h-438l-110 109v807l110 108h438l109 -108v-147h95v191l-159 159h-529l-159 -159v-895z
M414 -400v157h205l30 32l-30 30h-134v157h244l163 -187l-163 -189h-315zM480 -348h212l121 137l-121 135h-140v-53h104l75 -82l-75 -84h-176v-53zM503 1432l244 264h287l-284 -264h-247zM644 1487h77l156 153h-89z" />
    <glyph glyph-name="uni1E09" unicode="&#x1e09;" horiz-adv-x="1148" 
d="M385 -349v157h205l30 32l-30 30h-134v130h-123l-206 206v668l206 206h484l206 -206v-224h-283v86l-61 61h-208l-61 -61v-392l61 -61h208l61 61v86h283v-224l-206 -206h-93l139 -160l-163 -189h-315zM451 -297h212l121 137l-121 135h-55v119h161l160 160v97h-95v-53
l-111 -109h-288l-118 116v478l112 111h294l111 -110v-52h95v96l-160 161h-385l-162 -162v-569l167 -164h134v-172h104l75 -82l-75 -84h-176v-53zM319 1112l244 264h287l-284 -264h-247zM460 1167h77l156 153h-89z" />
    <glyph glyph-name="uni1E0C" unicode="&#x1e0c;" horiz-adv-x="1289" 
d="M125 0v1400h833l206 -206v-988l-206 -206h-833zM408 283h413l61 61v712l-61 61h-413v-834zM220 94h689l159 159v893l-159 159h-689v-1211zM315 189v1021h549l110 -108v-805l-110 -108h-549zM539 -271v210h212v-210h-212zM611 -202h65v70h-65v-70z" />
    <glyph glyph-name="uni1E0D" unicode="&#x1e0d;" horiz-adv-x="1211" 
d="M879 0h-562l-207 206v668l207 206h466l20 -19v439h283v-1294zM780 185h-361l-118 117v491l105 103h344l148 -147v-447zM742 283l61 61v373l-80 81h-269l-61 -62v-392l61 -61h288zM825 90l168 168v1150h-95v-545l-129 128h-408l-155 -154v-579l168 -168h451zM500 -271v210
h212v-210h-212zM572 -202h65v70h-65v-70z" />
    <glyph glyph-name="uni1E0E" unicode="&#x1e0e;" horiz-adv-x="1289" 
d="M125 0v1400h833l206 -206v-988l-206 -206h-833zM408 283h413l61 61v712l-61 61h-413v-834zM220 94h689l159 159v893l-159 159h-689v-1211zM315 189v1021h549l110 -108v-805l-110 -108h-549zM329 -326v256h632v-256h-632zM425 -243h448v85h-448v-85z" />
    <glyph glyph-name="uni1E0F" unicode="&#x1e0f;" horiz-adv-x="1211" 
d="M879 0h-562l-207 206v668l207 206h466l20 -19v439h283v-1294zM780 185h-361l-118 117v491l105 103h344l148 -147v-447zM742 283l61 61v373l-80 81h-269l-61 -62v-392l61 -61h288zM825 90l168 168v1150h-95v-545l-129 128h-408l-155 -154v-579l168 -168h451zM290 -326v256
h632v-256h-632zM386 -243h448v85h-448v-85z" />
    <glyph glyph-name="uni1E14" unicode="&#x1e14;" horiz-adv-x="1140" 
d="M115 0v1400h910v-283h-627v-269h558v-283h-558v-282h627v-283h-910zM211 97h732v95h-637v467h567v95h-567v459h637v95h-732v-1211zM246 1431v256h632v-256h-632zM342 1514h448v85h-448v-85zM707 1719h-247l-284 264h287zM566 1774l-144 153h-89l156 -153h77z" />
    <glyph glyph-name="uni1E15" unicode="&#x1e15;" horiz-adv-x="1253" 
d="M937 1080l206 -206v-285l-206 -206h-544v-39l61 -61h675v-283h-813l-206 206v668l206 206h621zM842 892l111 -110v-121l-96 -96h-566v211l118 116h433zM887 987h-523l-168 -167v-565l162 -162h672v95h-626l-113 111v174h603l154 153v200zM799 797h-345l-61 -61v-80h426
l42 42v38zM313 1111v256h632v-256h-632zM409 1194h448v85h-448v-85zM774 1399h-247l-284 264h287zM633 1454l-144 153h-89l156 -153h77z" />
    <glyph glyph-name="uni1E16" unicode="&#x1e16;" horiz-adv-x="1140" 
d="M115 0v1400h910v-283h-627v-269h558v-283h-558v-282h627v-283h-910zM211 97h732v95h-637v467h567v95h-567v459h637v95h-732v-1211zM246 1431v256h632v-256h-632zM342 1514h448v85h-448v-85zM439 1719l244 264h287l-284 -264h-247zM580 1774h77l156 153h-89z" />
    <glyph glyph-name="uni1E17" unicode="&#x1e17;" horiz-adv-x="1253" 
d="M937 1080l206 -206v-285l-206 -206h-544v-39l61 -61h675v-283h-813l-206 206v668l206 206h621zM842 892l111 -110v-121l-96 -96h-566v211l118 116h433zM887 987h-523l-168 -167v-565l162 -162h672v95h-626l-113 111v174h603l154 153v200zM799 797h-345l-61 -61v-80h426
l42 42v38zM313 1111v256h632v-256h-632zM409 1194h448v85h-448v-85zM506 1399l244 264h287l-284 -264h-247zM647 1454h77l156 153h-89z" />
    <glyph glyph-name="uni1E1C" unicode="&#x1e1c;" horiz-adv-x="1140" 
d="M115 0v1400h910v-283h-627v-269h558v-283h-558v-282h627v-283h-910zM211 97h732v95h-637v467h567v95h-567v459h637v95h-732v-1211zM350 -400v157h205l30 32l-30 30h-134v157h244l163 -187l-163 -189h-315zM416 -348h212l121 137l-121 135h-140v-53h104l75 -82l-75 -84
h-176v-53zM443 1432l-112 112v156h192v-76h78v76h192v-156l-112 -112h-238zM482 1493h162l82 87v56h-64v-35l-41 -44h-117l-41 44v35h-64v-56z" />
    <glyph glyph-name="uni1E1D" unicode="&#x1e1d;" horiz-adv-x="1253" 
d="M937 1080l206 -206v-285l-206 -206h-544v-39l61 -61h675v-283h-813l-206 206v668l206 206h621zM842 892l111 -110v-121l-96 -96h-566v211l118 116h433zM887 987h-523l-168 -167v-565l162 -162h672v95h-626l-113 111v174h603l154 153v200zM799 797h-345l-61 -61v-80h426
l42 42v38zM418 -400v157h205l30 32l-30 30h-134v157h244l163 -187l-163 -189h-315zM484 -348h212l121 137l-121 135h-140v-53h104l75 -82l-75 -84h-176v-53zM510 1112l-112 112v156h192v-76h78v76h192v-156l-112 -112h-238zM549 1173h162l82 87v56h-64v-35l-41 -44h-117
l-41 44v35h-64v-56z" />
    <glyph glyph-name="uni1E20" unicode="&#x1e20;" horiz-adv-x="1278" 
d="M321 0l-206 206v988l206 206h636l206 -206v-252h-282v114l-61 61h-363l-60 -63v-711l60 -60h363l61 61v138h-277v282h559v-558l-206 -206h-636zM369 97h541l160 159v412h-372v-95h277v-273l-110 -108h-450l-110 107v806l109 108h451l110 -108v-74h95v118l-160 159h-541
l-159 -159v-893zM323 1431v256h632v-256h-632zM419 1514h448v85h-448v-85z" />
    <glyph glyph-name="uni1E21" unicode="&#x1e21;" horiz-adv-x="1210" 
d="M160 -400v282h562l81 81v57l-20 -20h-467l-206 206v668l206 206h563l206 -206v-1068l-206 -206h-719zM254 -309h563l178 183v948l-167 168h-464l-160 -161v-565l168 -169h388l141 141v-312l-135 -138h-512v-95zM418 190l-119 118v477l111 110h373l118 -116v-424
l-167 -165h-316zM454 283h249l100 100v354l-62 61h-287l-61 -61v-393zM277 1111v256h632v-256h-632zM373 1194h448v85h-448v-85z" />
    <glyph glyph-name="uni1E24" unicode="&#x1e24;" horiz-adv-x="1295" 
d="M125 0v1400h283v-552h480v552h282v-1400h-282v565h-480v-565h-283zM219 92h95v569h668v-569h95v1216h-95v-552h-668v552h-95v-1216zM534 -271v210h212v-210h-212zM606 -202h65v70h-65v-70z" />
    <glyph glyph-name="uni1E25" unicode="&#x1e25;" horiz-adv-x="1210" 
d="M125 0v1499h283v-438l19 19h467l206 -206v-874h-283v736l-61 62h-268l-80 -81v-717h-283zM221 93h95v660l141 140h351l104 -102v-698h95v741l-154 154h-416l-121 -120v540h-95v-1315zM507 -271v210h212v-210h-212zM579 -202h65v70h-65v-70z" />
    <glyph glyph-name="uni1E2A" unicode="&#x1e2a;" horiz-adv-x="1295" 
d="M125 0v1400h283v-552h480v552h282v-1400h-282v565h-480v-565h-283zM219 92h95v569h668v-569h95v1216h-95v-552h-668v552h-95v-1216zM521 -340l-112 112v156h192v-76h78v76h192v-156l-112 -112h-238zM560 -279h162l82 87v56h-64v-35l-41 -44h-117l-41 44v35h-64v-56z" />
    <glyph glyph-name="uni1E2B" unicode="&#x1e2b;" horiz-adv-x="1210" 
d="M125 0v1499h283v-438l19 19h467l206 -206v-874h-283v736l-61 62h-268l-80 -81v-717h-283zM221 93h95v660l141 140h351l104 -102v-698h95v741l-154 154h-416l-121 -120v540h-95v-1315zM494 -340l-112 112v156h192v-76h78v76h192v-156l-112 -112h-238zM533 -279h162l82 87
v56h-64v-35l-41 -44h-117l-41 44v35h-64v-56z" />
    <glyph glyph-name="uni1E2E" unicode="&#x1e2e;" horiz-adv-x="1059" 
d="M115 0v283h274v834h-274v283h829v-283h-273v-834h273v-283h-829zM208 93h644v95h-281v1025h281v95h-644v-95h268v-1025h-268v-95zM633 1452v210h212v-210h-212zM217 1452v210h212v-210h-212zM289 1521h65v70h-65v-70zM706 1521h66v70h-66v-70zM407 1694l244 264h287
l-284 -264h-247zM548 1749h77l156 153h-89z" />
    <glyph glyph-name="uni1E2F" unicode="&#x1e2f;" horiz-adv-x="990" 
d="M114 0v283h240v514h-240v283h522v-797h240v-283h-762zM200 93h590v95h-254v800h-336v-95h241v-705h-241v-95zM598 1132v210h212v-210h-212zM182 1132v210h212v-210h-212zM254 1201h65v70h-65v-70zM671 1201h66v70h-66v-70zM372 1374l244 264h287l-284 -264h-247z
M513 1429h77l156 153h-89z" />
    <glyph glyph-name="uni1E36" unicode="&#x1e36;" horiz-adv-x="1091" 
d="M125 0v1400h283v-1117h608v-283h-891zM219 92h704v95h-609v1121h-95v-1216zM450 -271v210h212v-210h-212zM522 -202h65v70h-65v-70z" />
    <glyph glyph-name="uni1E37" unicode="&#x1e37;" horiz-adv-x="912" 
d="M45 0v283h270v934h-270v283h552v-1217h270v-283h-822zM138 93h637v95h-275v1220h-362v-95h267v-1125h-267v-95zM330 -271v210h212v-210h-212zM402 -202h65v70h-65v-70z" />
    <glyph glyph-name="uni1E3A" unicode="&#x1e3a;" horiz-adv-x="1091" 
d="M125 0v1400h283v-1117h608v-283h-891zM219 92h704v95h-609v1121h-95v-1216zM240 -326v256h632v-256h-632zM336 -243h448v85h-448v-85z" />
    <glyph glyph-name="uni1E3B" unicode="&#x1e3b;" horiz-adv-x="912" 
d="M45 0v283h270v934h-270v283h552v-1217h270v-283h-822zM138 93h637v95h-275v1220h-362v-95h267v-1125h-267v-95zM120 -326v256h632v-256h-632zM216 -243h448v85h-448v-85z" />
    <glyph glyph-name="uni1E42" unicode="&#x1e42;" horiz-adv-x="1741" 
d="M125 0v1400h553l169 -993h48l169 993h552v-1400h-283v1116h-39l-172 -996h-502l-171 996h-41v-1116h-283zM218 93h95v1117h204l183 -986h340l183 986h204v-1117h95v1214h-377l-182 -986h-185l-182 986h-378v-1214zM766 -271v210h212v-210h-212zM838 -202h65v70h-65v-70z
" />
    <glyph glyph-name="uni1E43" unicode="&#x1e43;" horiz-adv-x="1613" 
d="M110 0v874l206 206h387l104 -102l103 102h387l206 -206v-874h-283v736l-61 61h-150l-61 -61v-676h-283v676l-61 61h-150l-61 -61v-736h-283zM204 93h95v691l113 111h228l119 -118v-631h95v631l119 118h229l112 -111v-691h95v735l-162 162h-306l-134 -134l-134 134h-307
l-162 -162v-735zM701 -271v210h212v-210h-212zM773 -202h65v70h-65v-70z" />
    <glyph glyph-name="uni1E44" unicode="&#x1e44;" horiz-adv-x="1465" 
d="M218 90h95v1118h202l362 -1114h371v1214h-95v-1117h-203l-360 1114h-372v-1215zM125 0v1400h543l346 -1113h43v1113h283v-1400h-543l-348 1116h-41v-1116h-283zM631 1452v210h212v-210h-212zM703 1521h65v70h-65v-70z" />
    <glyph glyph-name="uni1E45" unicode="&#x1e45;" horiz-adv-x="1180" 
d="M110 0v874l206 206h548l206 -206v-874h-282v736l-61 61h-274l-61 -61v-736h-282zM205 93h95v688l112 111h359l111 -110v-689h94v733l-160 161h-449l-162 -162v-732zM492 1132v210h212v-210h-212zM564 1201h65v70h-65v-70z" />
    <glyph glyph-name="uni1E46" unicode="&#x1e46;" horiz-adv-x="1465" 
d="M218 90h95v1118h202l362 -1114h371v1214h-95v-1117h-203l-360 1114h-372v-1215zM125 0v1400h543l346 -1113h43v1113h283v-1400h-543l-348 1116h-41v-1116h-283zM630 -271v210h212v-210h-212zM702 -202h65v70h-65v-70z" />
    <glyph glyph-name="uni1E47" unicode="&#x1e47;" horiz-adv-x="1180" 
d="M110 0v874l206 206h548l206 -206v-874h-282v736l-61 61h-274l-61 -61v-736h-282zM205 93h95v688l112 111h359l111 -110v-689h94v733l-160 161h-449l-162 -162v-732zM491 -271v210h212v-210h-212zM563 -202h65v70h-65v-70z" />
    <glyph glyph-name="uni1E48" unicode="&#x1e48;" horiz-adv-x="1465" 
d="M218 90h95v1118h202l362 -1114h371v1214h-95v-1117h-203l-360 1114h-372v-1215zM125 0v1400h543l346 -1113h43v1113h283v-1400h-543l-348 1116h-41v-1116h-283zM420 -326v256h632v-256h-632zM516 -243h448v85h-448v-85z" />
    <glyph glyph-name="uni1E49" unicode="&#x1e49;" horiz-adv-x="1180" 
d="M110 0v874l206 206h548l206 -206v-874h-282v736l-61 61h-274l-61 -61v-736h-282zM205 93h95v688l112 111h359l111 -110v-689h94v733l-160 161h-449l-162 -162v-732zM281 -326v256h632v-256h-632zM377 -243h448v85h-448v-85z" />
    <glyph glyph-name="uni1E4C" unicode="&#x1e4c;" horiz-adv-x="1306" 
d="M321 0l-206 206v988l206 206h664l206 -206v-988l-206 -206h-664zM459 283h388l61 61v712l-61 61h-388l-61 -61v-712zM370 97h567l160 159v893l-160 159h-567l-159 -159v-893zM415 192l-109 108v805l109 108h477l110 -108v-805l-110 -108h-477zM374 1432v136l112 112h178
l56 -56h18v56h192v-136l-112 -112h-178l-56 56h-18v-56h-192zM442 1488h64v24l41 45h61l65 -64h110l83 87v45h-64v-24l-41 -44h-66l-64 63h-106l-83 -87v-45zM530 1712l244 264h287l-284 -264h-247zM671 1767h77l156 153h-89z" />
    <glyph glyph-name="uni1E4D" unicode="&#x1e4d;" horiz-adv-x="1257" 
d="M316 0l-206 206v668l206 206h625l206 -206v-668l-206 -206h-625zM373 93h519l161 161v572l-161 161h-524l-162 -162v-565zM418 188l-117 116v477l112 111h434l111 -110v-484l-111 -110h-429zM454 283h349l61 61v392l-61 61h-349l-61 -61v-392zM349 1112v136l112 112h178
l56 -56h18v56h192v-136l-112 -112h-178l-56 56h-18v-56h-192zM417 1168h64v24l41 45h61l65 -64h110l83 87v45h-64v-24l-41 -44h-66l-64 63h-106l-83 -87v-45zM505 1392l244 264h287l-284 -264h-247zM646 1447h77l156 153h-89z" />
    <glyph glyph-name="uni1E4E" unicode="&#x1e4e;" horiz-adv-x="1306" 
d="M321 0l-206 206v988l206 206h664l206 -206v-988l-206 -206h-664zM459 283h388l61 61v712l-61 61h-388l-61 -61v-712zM370 97h567l160 159v893l-160 159h-567l-159 -159v-893zM415 192l-109 108v805l109 108h477l110 -108v-805l-110 -108h-477zM374 1432v136l112 112h178
l56 -56h18v56h192v-136l-112 -112h-178l-56 56h-18v-56h-192zM442 1488h64v24l41 45h61l65 -64h110l83 87v45h-64v-24l-41 -44h-66l-64 63h-106l-83 -87v-45zM756 1732v210h212v-210h-212zM340 1732v210h212v-210h-212zM412 1801h65v70h-65v-70zM829 1801h66v70h-66v-70z
" />
    <glyph glyph-name="uni1E4F" unicode="&#x1e4f;" horiz-adv-x="1257" 
d="M316 0l-206 206v668l206 206h625l206 -206v-668l-206 -206h-625zM373 93h519l161 161v572l-161 161h-524l-162 -162v-565zM418 188l-117 116v477l112 111h434l111 -110v-484l-111 -110h-429zM454 283h349l61 61v392l-61 61h-349l-61 -61v-392zM349 1112v136l112 112h178
l56 -56h18v56h192v-136l-112 -112h-178l-56 56h-18v-56h-192zM417 1168h64v24l41 45h61l65 -64h110l83 87v45h-64v-24l-41 -44h-66l-64 63h-106l-83 -87v-45zM731 1412v210h212v-210h-212zM315 1412v210h212v-210h-212zM387 1481h65v70h-65v-70zM804 1481h66v70h-66v-70z
" />
    <glyph glyph-name="uni1E50" unicode="&#x1e50;" horiz-adv-x="1306" 
d="M321 0l-206 206v988l206 206h664l206 -206v-988l-206 -206h-664zM459 283h388l61 61v712l-61 61h-388l-61 -61v-712zM370 97h567l160 159v893l-160 159h-567l-159 -159v-893zM415 192l-109 108v805l109 108h477l110 -108v-805l-110 -108h-477zM337 1431v256h632v-256
h-632zM433 1514h448v85h-448v-85zM798 1719h-247l-284 264h287zM657 1774l-144 153h-89l156 -153h77z" />
    <glyph glyph-name="uni1E51" unicode="&#x1e51;" horiz-adv-x="1257" 
d="M316 0l-206 206v668l206 206h625l206 -206v-668l-206 -206h-625zM373 93h519l161 161v572l-161 161h-524l-162 -162v-565zM418 188l-117 116v477l112 111h434l111 -110v-484l-111 -110h-429zM454 283h349l61 61v392l-61 61h-349l-61 -61v-392zM312 1111v256h632v-256
h-632zM408 1194h448v85h-448v-85zM773 1399h-247l-284 264h287zM632 1454l-144 153h-89l156 -153h77z" />
    <glyph glyph-name="uni1E52" unicode="&#x1e52;" horiz-adv-x="1306" 
d="M321 0l-206 206v988l206 206h664l206 -206v-988l-206 -206h-664zM459 283h388l61 61v712l-61 61h-388l-61 -61v-712zM370 97h567l160 159v893l-160 159h-567l-159 -159v-893zM415 192l-109 108v805l109 108h477l110 -108v-805l-110 -108h-477zM337 1431v256h632v-256
h-632zM433 1514h448v85h-448v-85zM530 1719l244 264h287l-284 -264h-247zM671 1774h77l156 153h-89z" />
    <glyph glyph-name="uni1E53" unicode="&#x1e53;" horiz-adv-x="1257" 
d="M316 0l-206 206v668l206 206h625l206 -206v-668l-206 -206h-625zM373 93h519l161 161v572l-161 161h-524l-162 -162v-565zM418 188l-117 116v477l112 111h434l111 -110v-484l-111 -110h-429zM454 283h349l61 61v392l-61 61h-349l-61 -61v-392zM312 1111v256h632v-256
h-632zM408 1194h448v85h-448v-85zM505 1399l244 264h287l-284 -264h-247zM646 1454h77l156 153h-89z" />
    <glyph glyph-name="uni1E5A" unicode="&#x1e5a;" horiz-adv-x="1309" 
d="M125 0v1400h863l206 -206v-434l-122 -112l122 -133v-515h-283v415l-100 100h-403v-515h-283zM219 92h95v522h537l156 -166v-356h95v387l-164 180l159 137v352l-159 160h-719v-1216zM408 798h442l61 62v196l-61 61h-442v-319zM314 709v504h578l110 -109v-276l-138 -119
h-550zM551 -271v210h212v-210h-212zM623 -202h65v70h-65v-70z" />
    <glyph glyph-name="uni1E5B" unicode="&#x1e5b;" horiz-adv-x="1148" 
d="M110 0v282h194v501l-15 15h-177v282h253l68 -80l77 80h389l219 -219l-218 -212l-138 148h-114l-61 -61v-455h194v-281h-671zM198 94h495v94h-200v602l98 99h226l97 -106l72 70l-124 131h-316l-106 -108l-99 108h-143v-95h120l80 -87v-614h-200v-94zM340 -271v210h212
v-210h-212zM412 -202h65v70h-65v-70z" />
    <glyph glyph-name="uni1E5E" unicode="&#x1e5e;" horiz-adv-x="1309" 
d="M125 0v1400h863l206 -206v-434l-122 -112l122 -133v-515h-283v415l-100 100h-403v-515h-283zM219 92h95v522h537l156 -166v-356h95v387l-164 180l159 137v352l-159 160h-719v-1216zM408 798h442l61 62v196l-61 61h-442v-319zM314 709v504h578l110 -109v-276l-138 -119
h-550zM341 -326v256h632v-256h-632zM437 -243h448v85h-448v-85z" />
    <glyph glyph-name="uni1E5F" unicode="&#x1e5f;" horiz-adv-x="1148" 
d="M110 0v282h194v501l-15 15h-177v282h253l68 -80l77 80h389l219 -219l-218 -212l-138 148h-114l-61 -61v-455h194v-281h-671zM198 94h495v94h-200v602l98 99h226l97 -106l72 70l-124 131h-316l-106 -108l-99 108h-143v-95h120l80 -87v-614h-200v-94zM130 -326v256h632
v-256h-632zM226 -243h448v85h-448v-85z" />
    <glyph glyph-name="uni1E60" unicode="&#x1e60;" horiz-adv-x="1302" 
d="M321 0l-206 206v252h283v-114l61 -61h384l61 61v154l-61 61h-516l-206 206v429l206 206h635l206 -206v-252h-283v114l-61 61h-359l-62 -61v-153l62 -61h516l206 -206v-430l-206 -206h-660zM365 93h564l160 159v350l-146 147h-523l-110 110v243l109 109h456l103 -102v-81
h95v125l-153 153h-546l-159 -160v-331l162 -162h520l97 -93v-264l-110 -108h-473l-103 102v82h-95v-126zM546 1452v210h212v-210h-212zM618 1521h65v70h-65v-70z" />
    <glyph glyph-name="uni1E61" unicode="&#x1e61;" horiz-adv-x="1203" 
d="M120 0v283h630l61 61v-5l-59 60h-436l-206 206v269l206 206h757v-283h-620l-61 -61v6l61 -61h434l206 -206v-269l-206 -206h-767zM212 96h632l155 156v187l-155 152h-446l-97 96v101l104 104h576v95h-621l-156 -155v-187l149 -149h446l104 -100v-101l-104 -104h-587v-95z
M506 1132v210h212v-210h-212zM578 1201h65v70h-65v-70z" />
    <glyph glyph-name="uni1E62" unicode="&#x1e62;" horiz-adv-x="1302" 
d="M321 0l-206 206v252h283v-114l61 -61h384l61 61v154l-61 61h-516l-206 206v429l206 206h635l206 -206v-252h-283v114l-61 61h-359l-62 -61v-153l62 -61h516l206 -206v-430l-206 -206h-660zM365 93h564l160 159v350l-146 147h-523l-110 110v243l109 109h456l103 -102v-81
h95v125l-153 153h-546l-159 -160v-331l162 -162h520l97 -93v-264l-110 -108h-473l-103 102v82h-95v-126zM545 -271v210h212v-210h-212zM617 -202h65v70h-65v-70z" />
    <glyph glyph-name="uni1E63" unicode="&#x1e63;" horiz-adv-x="1203" 
d="M120 0v283h630l61 61v-5l-59 60h-436l-206 206v269l206 206h757v-283h-620l-61 -61v6l61 -61h434l206 -206v-269l-206 -206h-767zM212 96h632l155 156v187l-155 152h-446l-97 96v101l104 104h576v95h-621l-156 -155v-187l149 -149h446l104 -100v-101l-104 -104h-587v-95z
M505 -271v210h212v-210h-212zM577 -202h65v70h-65v-70z" />
    <glyph glyph-name="uni1E64" unicode="&#x1e64;" horiz-adv-x="1302" 
d="M321 0l-206 206v252h283v-114l61 -61h384l61 61v154l-61 61h-516l-206 206v429l206 206h635l206 -206v-252h-283v114l-61 61h-359l-62 -61v-153l62 -61h516l206 -206v-430l-206 -206h-660zM365 93h564l160 159v350l-146 147h-523l-110 110v243l109 109h456l103 -102v-81
h95v125l-153 153h-546l-159 -160v-331l162 -162h520l97 -93v-264l-110 -108h-473l-103 102v82h-95v-126zM528 1432l244 264h287l-284 -264h-247zM669 1487h77l156 153h-89zM693 1748v210h212v-210h-212zM765 1817h65v70h-65v-70z" />
    <glyph glyph-name="uni1E65" unicode="&#x1e65;" horiz-adv-x="1203" 
d="M120 0v283h630l61 61v-5l-59 60h-436l-206 206v269l206 206h757v-283h-620l-61 -61v6l61 -61h434l206 -206v-269l-206 -206h-767zM212 96h632l155 156v187l-155 152h-446l-97 96v101l104 104h576v95h-621l-156 -155v-187l149 -149h446l104 -100v-101l-104 -104h-587v-95z
M488 1112l244 264h287l-284 -264h-247zM629 1167h77l156 153h-89zM653 1428v210h212v-210h-212zM725 1497h65v70h-65v-70z" />
    <glyph glyph-name="uni1E66" unicode="&#x1e66;" horiz-adv-x="1302" 
d="M321 0l-206 206v252h283v-114l61 -61h384l61 61v154l-61 61h-516l-206 206v429l206 206h635l206 -206v-252h-283v114l-61 61h-359l-62 -61v-153l62 -61h516l206 -206v-430l-206 -206h-660zM365 93h564l160 159v350l-146 147h-523l-110 110v243l109 109h456l103 -102v-81
h95v125l-153 153h-546l-159 -160v-331l162 -162h520l97 -93v-264l-110 -108h-473l-103 102v82h-95v-126zM525 1432l-224 284h277l73 -108l73 108h277l-224 -284h-252zM571 1493h157l117 154h-89l-74 -106h-64l-75 106h-89zM546 1768v210h212v-210h-212zM618 1837h65v70h-65
v-70z" />
    <glyph glyph-name="uni1E67" unicode="&#x1e67;" horiz-adv-x="1203" 
d="M120 0v283h630l61 61v-5l-59 60h-436l-206 206v269l206 206h757v-283h-620l-61 -61v6l61 -61h434l206 -206v-269l-206 -206h-767zM212 96h632l155 156v187l-155 152h-446l-97 96v101l104 104h576v95h-621l-156 -155v-187l149 -149h446l104 -100v-101l-104 -104h-587v-95z
M485 1112l-224 284h277l73 -108l73 108h277l-224 -284h-252zM531 1173h157l117 154h-89l-74 -106h-64l-75 106h-89zM506 1448v210h212v-210h-212zM578 1517h65v70h-65v-70z" />
    <glyph glyph-name="uni1E68" unicode="&#x1e68;" horiz-adv-x="1302" 
d="M321 0l-206 206v252h283v-114l61 -61h384l61 61v154l-61 61h-516l-206 206v429l206 206h635l206 -206v-252h-283v114l-61 61h-359l-62 -61v-153l62 -61h516l206 -206v-430l-206 -206h-660zM365 93h564l160 159v350l-146 147h-523l-110 110v243l109 109h456l103 -102v-81
h95v125l-153 153h-546l-159 -160v-331l162 -162h520l97 -93v-264l-110 -108h-473l-103 102v82h-95v-126zM545 -271v210h212v-210h-212zM617 -202h65v70h-65v-70zM546 1452v210h212v-210h-212zM618 1521h65v70h-65v-70z" />
    <glyph glyph-name="uni1E69" unicode="&#x1e69;" horiz-adv-x="1203" 
d="M120 0v283h630l61 61v-5l-59 60h-436l-206 206v269l206 206h757v-283h-620l-61 -61v6l61 -61h434l206 -206v-269l-206 -206h-767zM212 96h632l155 156v187l-155 152h-446l-97 96v101l104 104h576v95h-621l-156 -155v-187l149 -149h446l104 -100v-101l-104 -104h-587v-95z
M505 -271v210h212v-210h-212zM577 -202h65v70h-65v-70zM506 1132v210h212v-210h-212zM578 1201h65v70h-65v-70z" />
    <glyph glyph-name="uni1E6C" unicode="&#x1e6c;" horiz-adv-x="1126" 
d="M422 0v1117h-347v283h976v-283h-347v-1117h-282zM515 90h95v1123h351v95h-796v-95h350v-1123zM457 -271v210h212v-210h-212zM529 -202h65v70h-65v-70z" />
    <glyph glyph-name="uni1E6D" unicode="&#x1e6d;" horiz-adv-x="935" 
d="M294 0v798h-249v282h249v274h283v-274h248v-282h-248v-515h241v-283h-524zM388 93h338v95h-243v706h250v94h-250v273h-95v-273h-251v-94h251v-801zM357 -274v210h212v-210h-212zM429 -205h65v70h-65v-70z" />
    <glyph glyph-name="uni1E6E" unicode="&#x1e6e;" horiz-adv-x="1126" 
d="M422 0v1117h-347v283h976v-283h-347v-1117h-282zM515 90h95v1123h351v95h-796v-95h350v-1123zM247 -326v256h632v-256h-632zM343 -243h448v85h-448v-85z" />
    <glyph glyph-name="uni1E6F" unicode="&#x1e6f;" horiz-adv-x="935" 
d="M294 0v798h-249v282h249v274h283v-274h248v-282h-248v-515h241v-283h-524zM388 93h338v95h-243v706h250v94h-250v273h-95v-273h-251v-94h251v-801zM147 -329v256h632v-256h-632zM243 -246h448v85h-448v-85z" />
    <glyph glyph-name="uni1E78" unicode="&#x1e78;" horiz-adv-x="1328" 
d="M321 0l-206 206v1194h283v-1056l61 -61h410l61 61v1056h283v-1194l-206 -206h-686zM369 94h591l159 157v1057h-95v-1013l-109 -106h-500l-111 106v1013h-95v-1057zM386 1432v136l112 112h178l56 -56h18v56h192v-136l-112 -112h-178l-56 56h-18v-56h-192zM454 1488h64v24
l41 45h61l65 -64h110l83 87v45h-64v-24l-41 -44h-66l-64 63h-106l-83 -87v-45zM542 1712l244 264h287l-284 -264h-247zM683 1767h77l156 153h-89z" />
    <glyph glyph-name="uni1E79" unicode="&#x1e79;" horiz-adv-x="1202" 
d="M316 0l-206 206v874h283v-736l61 -61h294l61 61v736h283v-874l-206 -206h-570zM370 94h468l161 168v725h-95v-681l-111 -117h-377l-118 117v681h-95v-725zM324 1112v136l112 112h178l56 -56h18v56h192v-136l-112 -112h-178l-56 56h-18v-56h-192zM392 1168h64v24l41 45h61
l65 -64h110l83 87v45h-64v-24l-41 -44h-66l-64 63h-106l-83 -87v-45zM480 1392l244 264h287l-284 -264h-247zM621 1447h77l156 153h-89z" />
    <glyph glyph-name="uni1E7A" unicode="&#x1e7a;" horiz-adv-x="1328" 
d="M321 0l-206 206v1194h283v-1056l61 -61h410l61 61v1056h283v-1194l-206 -206h-686zM369 94h591l159 157v1057h-95v-1013l-109 -106h-500l-111 106v1013h-95v-1057zM349 1431v256h632v-256h-632zM445 1514h448v85h-448v-85zM768 1739v210h212v-210h-212zM352 1739v210h212
v-210h-212zM424 1808h65v70h-65v-70zM841 1808h66v70h-66v-70z" />
    <glyph glyph-name="uni1E7B" unicode="&#x1e7b;" horiz-adv-x="1202" 
d="M316 0l-206 206v874h283v-736l61 -61h294l61 61v736h283v-874l-206 -206h-570zM370 94h468l161 168v725h-95v-681l-111 -117h-377l-118 117v681h-95v-725zM287 1111v256h632v-256h-632zM383 1194h448v85h-448v-85zM706 1419v210h212v-210h-212zM290 1419v210h212v-210
h-212zM362 1488h65v70h-65v-70zM779 1488h66v70h-66v-70z" />
    <glyph glyph-name="Wgrave" unicode="&#x1e80;" horiz-adv-x="1738" 
d="M125 1400h283v-1116h44l166 996h502l167 -996h43v1116h283v-1400h-556l-164 993h-48l-164 -993h-556v1400zM218 1307v-1214h378l179 986h187l178 -986h379v1214h-95v-1117h-206l-179 986h-341l-179 -986h-206v1117h-95zM1016 1432h-247l-284 264h287zM875 1487l-144 153
h-89l156 -153h77z" />
    <glyph glyph-name="wgrave" unicode="&#x1e81;" horiz-adv-x="1613" 
d="M110 1080h283v-736l61 -61h150l61 61v676h283v-676l61 -61h150l61 61v736h283v-874l-206 -206h-387l-103 102l-104 -102h-387l-206 206v874zM204 987v-735l162 -162h307l134 134l134 -134h306l162 162v735h-95v-691l-112 -111h-229l-119 118v631h-95v-631l-119 -118h-228
l-113 111v691h-95zM952 1112h-247l-284 264h287zM811 1167l-144 153h-89l156 -153h77z" />
    <glyph glyph-name="Wacute" unicode="&#x1e82;" horiz-adv-x="1738" 
d="M125 1400h283v-1116h44l166 996h502l167 -996h43v1116h283v-1400h-556l-164 993h-48l-164 -993h-556v1400zM218 1307v-1214h378l179 986h187l178 -986h379v1214h-95v-1117h-206l-179 986h-341l-179 -986h-206v1117h-95zM748 1432l244 264h287l-284 -264h-247zM889 1487
h77l156 153h-89z" />
    <glyph glyph-name="wacute" unicode="&#x1e83;" horiz-adv-x="1613" 
d="M110 1080h283v-736l61 -61h150l61 61v676h283v-676l61 -61h150l61 61v736h283v-874l-206 -206h-387l-103 102l-104 -102h-387l-206 206v874zM204 987v-735l162 -162h307l134 134l134 -134h306l162 162v735h-95v-691l-112 -111h-229l-119 118v631h-95v-631l-119 -118h-228
l-113 111v691h-95zM684 1112l244 264h287l-284 -264h-247zM825 1167h77l156 153h-89z" />
    <glyph glyph-name="Wdieresis" unicode="&#x1e84;" horiz-adv-x="1738" 
d="M125 1400h283v-1116h44l166 996h502l167 -996h43v1116h283v-1400h-556l-164 993h-48l-164 -993h-556v1400zM218 1307v-1214h378l179 986h187l178 -986h379v1214h-95v-1117h-206l-179 986h-341l-179 -986h-206v1117h-95zM974 1452v210h212v-210h-212zM558 1452v210h212
v-210h-212zM630 1521h65v70h-65v-70zM1047 1521h66v70h-66v-70z" />
    <glyph glyph-name="wdieresis" unicode="&#x1e85;" horiz-adv-x="1613" 
d="M110 1080h283v-736l61 -61h150l61 61v676h283v-676l61 -61h150l61 61v736h283v-874l-206 -206h-387l-103 102l-104 -102h-387l-206 206v874zM204 987v-735l162 -162h307l134 134l134 -134h306l162 162v735h-95v-691l-112 -111h-229l-119 118v631h-95v-631l-119 -118h-228
l-113 111v691h-95zM910 1132v210h212v-210h-212zM494 1132v210h212v-210h-212zM566 1201h65v70h-65v-70zM983 1201h66v70h-66v-70z" />
    <glyph glyph-name="uni1E8E" unicode="&#x1e8e;" horiz-adv-x="1294" 
d="M505 0v443l-400 382v575h283v-473l268 -253h-19l269 253v473h283v-575l-401 -382v-443h-283zM599 90h95v389l401 379v450h-95v-418l-351 -331h-5l-351 331v418h-95v-450l401 -379v-389zM542 1452v210h212v-210h-212zM614 1521h65v70h-65v-70z" />
    <glyph glyph-name="uni1E8E" unicode="&#x1e8f;" horiz-adv-x="1294" 
d="M505 0v443l-400 382v575h283v-473l268 -253h-19l269 253v473h283v-575l-401 -382v-443h-283zM599 90h95v389l401 379v450h-95v-418l-351 -331h-5l-351 331v418h-95v-450l401 -379v-389zM542 1452v210h212v-210h-212zM614 1521h65v70h-65v-70z" />
    <glyph glyph-name="uni1E92" unicode="&#x1e92;" horiz-adv-x="1123" 
d="M208 94h719v95h-614v201l610 601v317h-705v-95h602v-191l-612 -605v-323zM105 0v448l610 605v64h-591v283h894v-444l-604 -597v-76h604v-283h-913zM456 -271v210h212v-210h-212zM528 -202h65v70h-65v-70z" />
    <glyph glyph-name="uni1E93" unicode="&#x1e93;" horiz-adv-x="1070" 
d="M222 96h649v95h-530v152l511 363v281h-634v-95h517v-158l-513 -367v-271zM110 0v399l515 368v30h-496v283h831v-407l-508 -358v-32h508v-283h-850zM429 -271v210h212v-210h-212zM501 -202h65v70h-65v-70z" />
    <glyph glyph-name="uni1E97" unicode="&#x1e97;" horiz-adv-x="935" 
d="M294 0v798h-249v282h249v274h283v-274h248v-282h-248v-515h241v-283h-524zM388 93h338v95h-243v706h250v94h-250v273h-95v-273h-251v-94h251v-801zM542 1410v210h212v-210h-212zM126 1410v210h212v-210h-212zM198 1479h65v70h-65v-70zM615 1479h66v70h-66v-70z" />
    <glyph glyph-name="uni1E9E" unicode="&#x1e9e;" horiz-adv-x="1306" 
d="M85 0v1194l206 206h659l206 -206v-357l-89 -89l154 -155v-367l-226 -226h-375v283h237l81 81v101l-164 164v227l100 99v101l-61 61h-384l-61 -61v-1056h-283zM176 95h95v1021l92 94h515l89 -95v-203l-92 -93v-154l155 -156v-198l-126 -121h-203v-94h250l174 168v285
l-156 160v72l93 94v286l-136 143h-611l-139 -140v-1069z" />
    <glyph glyph-name="uni1EA0" unicode="&#x1ea0;" horiz-adv-x="1288" 
d="M115 0v1194l206 206h646l206 -206v-1194h-282v412h-494v-412h-282zM212 101h95v402h678v-402h95v1051l-160 160h-549l-159 -160v-1051zM397 694h494v362l-61 61h-372l-61 -61v-362zM307 598v510l109 109h459l110 -109v-510h-678zM539 -271v210h212v-210h-212zM611 -202
h65v70h-65v-70z" />
    <glyph glyph-name="uni1EA1" unicode="&#x1ea1;" horiz-adv-x="1253" 
d="M316 0l-206 206v285l206 206h544v39l-61 61h-675v283h813l206 -206v-668l-206 -206h-621zM411 188l-111 110v121l96 96h566v-211l-118 -116h-433zM366 93h523l168 167v565l-162 162h-672v-95h626l113 -111v-174h-603l-154 -153v-200zM454 283h345l61 61v80h-426l-42 -42
v-38zM522 -271v210h212v-210h-212zM594 -202h65v70h-65v-70z" />
    <glyph glyph-name="uni1EA2" unicode="&#x1ea2;" horiz-adv-x="1288" 
d="M115 0v1194l206 206h646l206 -206v-1194h-282v412h-494v-412h-282zM212 101h95v402h678v-402h95v1051l-160 160h-549l-159 -160v-1051zM397 694h494v362l-61 61h-372l-61 -61v-362zM307 598v510l109 109h459l110 -109v-510h-678zM406 1802h315l163 -189l-163 -187h-244
v157h134l30 30l-30 32h-205v157zM472 1750v-53h176l75 -84l-75 -82h-104v-53h140l121 135l-121 137h-212z" />
    <glyph glyph-name="uni1EA3" unicode="&#x1ea3;" horiz-adv-x="1253" 
d="M316 0l-206 206v285l206 206h544v39l-61 61h-675v283h813l206 -206v-668l-206 -206h-621zM411 188l-111 110v121l96 96h566v-211l-118 -116h-433zM366 93h523l168 167v565l-162 162h-672v-95h626l113 -111v-174h-603l-154 -153v-200zM454 283h345l61 61v80h-426l-42 -42
v-38zM389 1482h315l163 -189l-163 -187h-244v157h134l30 30l-30 32h-205v157zM455 1430v-53h176l75 -84l-75 -82h-104v-53h140l121 135l-121 137h-212z" />
    <glyph glyph-name="uni1EA4" unicode="&#x1ea4;" horiz-adv-x="1288" 
d="M115 0v1194l206 206h646l206 -206v-1194h-282v412h-494v-412h-282zM212 101h95v402h678v-402h95v1051l-160 160h-549l-159 -160v-1051zM397 694h494v362l-61 61h-372l-61 -61v-362zM307 598v510l109 109h459l110 -109v-510h-678zM519 1716h252l224 -284h-277l-73 108
l-73 -108h-277zM565 1655l-117 -154h89l75 106h64l74 -106h89l-117 154h-157zM841 1660l244 264h287l-284 -264h-247zM982 1715h77l156 153h-89z" />
    <glyph glyph-name="uni1EA5" unicode="&#x1ea5;" horiz-adv-x="1253" 
d="M316 0l-206 206v285l206 206h544v39l-61 61h-675v283h813l206 -206v-668l-206 -206h-621zM411 188l-111 110v121l96 96h566v-211l-118 -116h-433zM366 93h523l168 167v565l-162 162h-672v-95h626l113 -111v-174h-603l-154 -153v-200zM454 283h345l61 61v80h-426l-42 -42
v-38zM502 1396h252l224 -284h-277l-73 108l-73 -108h-277zM548 1335l-117 -154h89l75 106h64l74 -106h89l-117 154h-157zM824 1340l244 264h287l-284 -264h-247zM965 1395h77l156 153h-89z" />
    <glyph glyph-name="uni1EA6" unicode="&#x1ea6;" horiz-adv-x="1288" 
d="M115 0v1194l206 206h646l206 -206v-1194h-282v412h-494v-412h-282zM212 101h95v402h678v-402h95v1051l-160 160h-549l-159 -160v-1051zM397 694h494v362l-61 61h-372l-61 -61v-362zM307 598v510l109 109h459l110 -109v-510h-678zM519 1716h252l224 -284h-277l-73 108
l-73 -108h-277zM565 1655l-117 -154h89l75 106h64l74 -106h89l-117 154h-157zM1133 1660h-247l-284 264h287zM992 1715l-144 153h-89l156 -153h77z" />
    <glyph glyph-name="uni1EA7" unicode="&#x1ea7;" horiz-adv-x="1253" 
d="M316 0l-206 206v285l206 206h544v39l-61 61h-675v283h813l206 -206v-668l-206 -206h-621zM411 188l-111 110v121l96 96h566v-211l-118 -116h-433zM366 93h523l168 167v565l-162 162h-672v-95h626l113 -111v-174h-603l-154 -153v-200zM454 283h345l61 61v80h-426l-42 -42
v-38zM502 1396h252l224 -284h-277l-73 108l-73 -108h-277zM548 1335l-117 -154h89l75 106h64l74 -106h89l-117 154h-157zM1116 1340h-247l-284 264h287zM975 1395l-144 153h-89l156 -153h77z" />
    <glyph glyph-name="uni1EA8" unicode="&#x1ea8;" horiz-adv-x="1288" 
d="M115 0v1194l206 206h646l206 -206v-1194h-282v412h-494v-412h-282zM212 101h95v402h678v-402h95v1051l-160 160h-549l-159 -160v-1051zM397 694h494v362l-61 61h-372l-61 -61v-362zM307 598v510l109 109h459l110 -109v-510h-678zM519 1716h252l224 -284h-277l-73 108
l-73 -108h-277zM565 1655l-117 -154h89l75 106h64l74 -106h89l-117 154h-157zM785 1999h315l163 -189l-163 -187h-244v157h134l30 30l-30 32h-205v157zM851 1947v-53h176l75 -84l-75 -82h-104v-53h140l121 135l-121 137h-212z" />
    <glyph glyph-name="uni1EA9" unicode="&#x1ea9;" horiz-adv-x="1253" 
d="M316 0l-206 206v285l206 206h544v39l-61 61h-675v283h813l206 -206v-668l-206 -206h-621zM411 188l-111 110v121l96 96h566v-211l-118 -116h-433zM366 93h523l168 167v565l-162 162h-672v-95h626l113 -111v-174h-603l-154 -153v-200zM454 283h345l61 61v80h-426l-42 -42
v-38zM502 1396h252l224 -284h-277l-73 108l-73 -108h-277zM548 1335l-117 -154h89l75 106h64l74 -106h89l-117 154h-157zM768 1679h315l163 -189l-163 -187h-244v157h134l30 30l-30 32h-205v157zM834 1627v-53h176l75 -84l-75 -82h-104v-53h140l121 135l-121 137h-212z" />
    <glyph glyph-name="uni1EAA" unicode="&#x1eaa;" horiz-adv-x="1288" 
d="M115 0v1194l206 206h646l206 -206v-1194h-282v412h-494v-412h-282zM212 101h95v402h678v-402h95v1051l-160 160h-549l-159 -160v-1051zM397 694h494v362l-61 61h-372l-61 -61v-362zM307 598v510l109 109h459l110 -109v-510h-678zM519 1716h252l224 -284h-277l-73 108
l-73 -108h-277zM565 1655l-117 -154h89l75 106h64l74 -106h89l-117 154h-157zM366 1748v136l112 112h178l56 -56h18v56h192v-136l-112 -112h-178l-56 56h-18v-56h-192zM434 1804h64v24l41 45h61l65 -64h110l83 87v45h-64v-24l-41 -44h-66l-64 63h-106l-83 -87v-45z" />
    <glyph glyph-name="uni1EAB" unicode="&#x1eab;" horiz-adv-x="1253" 
d="M316 0l-206 206v285l206 206h544v39l-61 61h-675v283h813l206 -206v-668l-206 -206h-621zM411 188l-111 110v121l96 96h566v-211l-118 -116h-433zM366 93h523l168 167v565l-162 162h-672v-95h626l113 -111v-174h-603l-154 -153v-200zM454 283h345l61 61v80h-426l-42 -42
v-38zM502 1396h252l224 -284h-277l-73 108l-73 -108h-277zM548 1335l-117 -154h89l75 106h64l74 -106h89l-117 154h-157zM349 1428v136l112 112h178l56 -56h18v56h192v-136l-112 -112h-178l-56 56h-18v-56h-192zM417 1484h64v24l41 45h61l65 -64h110l83 87v45h-64v-24
l-41 -44h-66l-64 63h-106l-83 -87v-45z" />
    <glyph glyph-name="uni1EAC" unicode="&#x1eac;" horiz-adv-x="1288" 
d="M115 0v1194l206 206h646l206 -206v-1194h-282v412h-494v-412h-282zM212 101h95v402h678v-402h95v1051l-160 160h-549l-159 -160v-1051zM397 694h494v362l-61 61h-372l-61 -61v-362zM307 598v510l109 109h459l110 -109v-510h-678zM539 -271v210h212v-210h-212zM611 -202
h65v70h-65v-70zM519 1716h252l224 -284h-277l-73 108l-73 -108h-277zM565 1655l-117 -154h89l75 106h64l74 -106h89l-117 154h-157z" />
    <glyph glyph-name="uni1EAD" unicode="&#x1ead;" horiz-adv-x="1253" 
d="M316 0l-206 206v285l206 206h544v39l-61 61h-675v283h813l206 -206v-668l-206 -206h-621zM411 188l-111 110v121l96 96h566v-211l-118 -116h-433zM366 93h523l168 167v565l-162 162h-672v-95h626l113 -111v-174h-603l-154 -153v-200zM454 283h345l61 61v80h-426l-42 -42
v-38zM522 -271v210h212v-210h-212zM594 -202h65v70h-65v-70zM502 1396h252l224 -284h-277l-73 108l-73 -108h-277zM548 1335l-117 -154h89l75 106h64l74 -106h89l-117 154h-157z" />
    <glyph glyph-name="uni1EAE" unicode="&#x1eae;" horiz-adv-x="1288" 
d="M115 0v1194l206 206h646l206 -206v-1194h-282v412h-494v-412h-282zM212 101h95v402h678v-402h95v1051l-160 160h-549l-159 -160v-1051zM397 694h494v362l-61 61h-372l-61 -61v-362zM307 598v510l109 109h459l110 -109v-510h-678zM526 1432l-112 112v156h192v-76h78v76
h192v-156l-112 -112h-238zM565 1493h162l82 87v56h-64v-35l-41 -44h-117l-41 44v35h-64v-56zM522 1732l244 264h287l-284 -264h-247zM663 1787h77l156 153h-89z" />
    <glyph glyph-name="uni1EAF" unicode="&#x1eaf;" horiz-adv-x="1253" 
d="M316 0l-206 206v285l206 206h544v39l-61 61h-675v283h813l206 -206v-668l-206 -206h-621zM411 188l-111 110v121l96 96h566v-211l-118 -116h-433zM366 93h523l168 167v565l-162 162h-672v-95h626l113 -111v-174h-603l-154 -153v-200zM454 283h345l61 61v80h-426l-42 -42
v-38zM509 1112l-112 112v156h192v-76h78v76h192v-156l-112 -112h-238zM548 1173h162l82 87v56h-64v-35l-41 -44h-117l-41 44v35h-64v-56zM505 1412l244 264h287l-284 -264h-247zM646 1467h77l156 153h-89z" />
    <glyph glyph-name="uni1EB0" unicode="&#x1eb0;" horiz-adv-x="1288" 
d="M115 0v1194l206 206h646l206 -206v-1194h-282v412h-494v-412h-282zM212 101h95v402h678v-402h95v1051l-160 160h-549l-159 -160v-1051zM397 694h494v362l-61 61h-372l-61 -61v-362zM307 598v510l109 109h459l110 -109v-510h-678zM526 1432l-112 112v156h192v-76h78v76
h192v-156l-112 -112h-238zM565 1493h162l82 87v56h-64v-35l-41 -44h-117l-41 44v35h-64v-56zM790 1732h-247l-284 264h287zM649 1787l-144 153h-89l156 -153h77z" />
    <glyph glyph-name="uni1EB1" unicode="&#x1eb1;" horiz-adv-x="1253" 
d="M316 0l-206 206v285l206 206h544v39l-61 61h-675v283h813l206 -206v-668l-206 -206h-621zM411 188l-111 110v121l96 96h566v-211l-118 -116h-433zM366 93h523l168 167v565l-162 162h-672v-95h626l113 -111v-174h-603l-154 -153v-200zM454 283h345l61 61v80h-426l-42 -42
v-38zM509 1112l-112 112v156h192v-76h78v76h192v-156l-112 -112h-238zM548 1173h162l82 87v56h-64v-35l-41 -44h-117l-41 44v35h-64v-56zM773 1412h-247l-284 264h287zM632 1467l-144 153h-89l156 -153h77z" />
    <glyph glyph-name="uni1EB2" unicode="&#x1eb2;" horiz-adv-x="1288" 
d="M115 0v1194l206 206h646l206 -206v-1194h-282v412h-494v-412h-282zM212 101h95v402h678v-402h95v1051l-160 160h-549l-159 -160v-1051zM397 694h494v362l-61 61h-372l-61 -61v-362zM307 598v510l109 109h459l110 -109v-510h-678zM526 1432l-112 112v156h192v-76h78v76
h192v-156l-112 -112h-238zM565 1493h162l82 87v56h-64v-35l-41 -44h-117l-41 44v35h-64v-56zM406 2121h315l163 -189l-163 -187h-244v157h134l30 30l-30 32h-205v157zM472 2069v-53h176l75 -84l-75 -82h-104v-53h140l121 135l-121 137h-212z" />
    <glyph glyph-name="uni1EB3" unicode="&#x1eb3;" horiz-adv-x="1253" 
d="M316 0l-206 206v285l206 206h544v39l-61 61h-675v283h813l206 -206v-668l-206 -206h-621zM411 188l-111 110v121l96 96h566v-211l-118 -116h-433zM366 93h523l168 167v565l-162 162h-672v-95h626l113 -111v-174h-603l-154 -153v-200zM454 283h345l61 61v80h-426l-42 -42
v-38zM509 1112l-112 112v156h192v-76h78v76h192v-156l-112 -112h-238zM548 1173h162l82 87v56h-64v-35l-41 -44h-117l-41 44v35h-64v-56zM389 1782h315l163 -189l-163 -187h-244v157h134l30 30l-30 32h-205v157zM455 1730v-53h176l75 -84l-75 -82h-104v-53h140l121 135
l-121 137h-212z" />
    <glyph glyph-name="uni1EB4" unicode="&#x1eb4;" horiz-adv-x="1288" 
d="M115 0v1194l206 206h646l206 -206v-1194h-282v412h-494v-412h-282zM212 101h95v402h678v-402h95v1051l-160 160h-549l-159 -160v-1051zM397 694h494v362l-61 61h-372l-61 -61v-362zM307 598v510l109 109h459l110 -109v-510h-678zM526 1432l-112 112v156h192v-76h78v76
h192v-156l-112 -112h-238zM565 1493h162l82 87v56h-64v-35l-41 -44h-117l-41 44v35h-64v-56zM366 1732v136l112 112h178l56 -56h18v56h192v-136l-112 -112h-178l-56 56h-18v-56h-192zM434 1788h64v24l41 45h61l65 -64h110l83 87v45h-64v-24l-41 -44h-66l-64 63h-106l-83 -87
v-45z" />
    <glyph glyph-name="uni1EB5" unicode="&#x1eb5;" horiz-adv-x="1253" 
d="M316 0l-206 206v285l206 206h544v39l-61 61h-675v283h813l206 -206v-668l-206 -206h-621zM411 188l-111 110v121l96 96h566v-211l-118 -116h-433zM366 93h523l168 167v565l-162 162h-672v-95h626l113 -111v-174h-603l-154 -153v-200zM454 283h345l61 61v80h-426l-42 -42
v-38zM509 1112l-112 112v156h192v-76h78v76h192v-156l-112 -112h-238zM548 1173h162l82 87v56h-64v-35l-41 -44h-117l-41 44v35h-64v-56zM349 1412v136l112 112h178l56 -56h18v56h192v-136l-112 -112h-178l-56 56h-18v-56h-192zM417 1468h64v24l41 45h61l65 -64h110l83 87
v45h-64v-24l-41 -44h-66l-64 63h-106l-83 -87v-45z" />
    <glyph glyph-name="uni1EB6" unicode="&#x1eb6;" horiz-adv-x="1288" 
d="M115 0v1194l206 206h646l206 -206v-1194h-282v412h-494v-412h-282zM212 101h95v402h678v-402h95v1051l-160 160h-549l-159 -160v-1051zM397 694h494v362l-61 61h-372l-61 -61v-362zM307 598v510l109 109h459l110 -109v-510h-678zM539 -271v210h212v-210h-212zM611 -202
h65v70h-65v-70zM526 1432l-112 112v156h192v-76h78v76h192v-156l-112 -112h-238zM565 1493h162l82 87v56h-64v-35l-41 -44h-117l-41 44v35h-64v-56z" />
    <glyph glyph-name="uni1EB7" unicode="&#x1eb7;" horiz-adv-x="1253" 
d="M316 0l-206 206v285l206 206h544v39l-61 61h-675v283h813l206 -206v-668l-206 -206h-621zM411 188l-111 110v121l96 96h566v-211l-118 -116h-433zM366 93h523l168 167v565l-162 162h-672v-95h626l113 -111v-174h-603l-154 -153v-200zM454 283h345l61 61v80h-426l-42 -42
v-38zM522 -271v210h212v-210h-212zM594 -202h65v70h-65v-70zM509 1112l-112 112v156h192v-76h78v76h192v-156l-112 -112h-238zM548 1173h162l82 87v56h-64v-35l-41 -44h-117l-41 44v35h-64v-56z" />
    <glyph glyph-name="uni1EB8" unicode="&#x1eb8;" horiz-adv-x="1140" 
d="M115 0v1400h910v-283h-627v-269h558v-283h-558v-282h627v-283h-910zM211 97h732v95h-637v467h567v95h-567v459h637v95h-732v-1211zM456 -271v210h212v-210h-212zM528 -202h65v70h-65v-70z" />
    <glyph glyph-name="uni1EB9" unicode="&#x1eb9;" horiz-adv-x="1253" 
d="M937 1080l206 -206v-285l-206 -206h-544v-39l61 -61h675v-283h-813l-206 206v668l206 206h621zM842 892l111 -110v-121l-96 -96h-566v211l118 116h433zM887 987h-523l-168 -167v-565l162 -162h672v95h-626l-113 111v174h603l154 153v200zM799 797h-345l-61 -61v-80h426
l42 42v38zM524 -271v210h212v-210h-212zM596 -202h65v70h-65v-70z" />
    <glyph glyph-name="uni1EBA" unicode="&#x1eba;" horiz-adv-x="1140" 
d="M115 0v1400h910v-283h-627v-269h558v-283h-558v-282h627v-283h-910zM211 97h732v95h-637v467h567v95h-567v459h637v95h-732v-1211zM323 1802h315l163 -189l-163 -187h-244v157h134l30 30l-30 32h-205v157zM389 1750v-53h176l75 -84l-75 -82h-104v-53h140l121 135
l-121 137h-212z" />
    <glyph glyph-name="uni1EBB" unicode="&#x1ebb;" horiz-adv-x="1253" 
d="M937 1080l206 -206v-285l-206 -206h-544v-39l61 -61h675v-283h-813l-206 206v668l206 206h621zM842 892l111 -110v-121l-96 -96h-566v211l118 116h433zM887 987h-523l-168 -167v-565l162 -162h672v95h-626l-113 111v174h603l154 153v200zM799 797h-345l-61 -61v-80h426
l42 42v38zM390 1482h315l163 -189l-163 -187h-244v157h134l30 30l-30 32h-205v157zM456 1430v-53h176l75 -84l-75 -82h-104v-53h140l121 135l-121 137h-212z" />
    <glyph glyph-name="uni1EBC" unicode="&#x1ebc;" horiz-adv-x="1140" 
d="M115 0v1400h910v-283h-627v-269h558v-283h-558v-282h627v-283h-910zM211 97h732v95h-637v467h567v95h-567v459h637v95h-732v-1211zM283 1432v136l112 112h178l56 -56h18v56h192v-136l-112 -112h-178l-56 56h-18v-56h-192zM351 1488h64v24l41 45h61l65 -64h110l83 87v45
h-64v-24l-41 -44h-66l-64 63h-106l-83 -87v-45z" />
    <glyph glyph-name="uni1EBD" unicode="&#x1ebd;" horiz-adv-x="1253" 
d="M937 1080l206 -206v-285l-206 -206h-544v-39l61 -61h675v-283h-813l-206 206v668l206 206h621zM842 892l111 -110v-121l-96 -96h-566v211l118 116h433zM887 987h-523l-168 -167v-565l162 -162h672v95h-626l-113 111v174h603l154 153v200zM799 797h-345l-61 -61v-80h426
l42 42v38zM350 1112v136l112 112h178l56 -56h18v56h192v-136l-112 -112h-178l-56 56h-18v-56h-192zM418 1168h64v24l41 45h61l65 -64h110l83 87v45h-64v-24l-41 -44h-66l-64 63h-106l-83 -87v-45z" />
    <glyph glyph-name="uni1EBE" unicode="&#x1ebe;" horiz-adv-x="1140" 
d="M115 0v1400h910v-283h-627v-269h558v-283h-558v-282h627v-283h-910zM211 97h732v95h-637v467h567v95h-567v459h637v95h-732v-1211zM436 1716h252l224 -284h-277l-73 108l-73 -108h-277zM482 1655l-117 -154h89l75 106h64l74 -106h89l-117 154h-157zM758 1660l244 264h287
l-284 -264h-247zM899 1715h77l156 153h-89z" />
    <glyph glyph-name="uni1EBF" unicode="&#x1ebf;" horiz-adv-x="1253" 
d="M937 1080l206 -206v-285l-206 -206h-544v-39l61 -61h675v-283h-813l-206 206v668l206 206h621zM842 892l111 -110v-121l-96 -96h-566v211l118 116h433zM887 987h-523l-168 -167v-565l162 -162h672v95h-626l-113 111v174h603l154 153v200zM799 797h-345l-61 -61v-80h426
l42 42v38zM503 1396h252l224 -284h-277l-73 108l-73 -108h-277zM549 1335l-117 -154h89l75 106h64l74 -106h89l-117 154h-157zM825 1340l244 264h287l-284 -264h-247zM966 1395h77l156 153h-89z" />
    <glyph glyph-name="uni1EC0" unicode="&#x1ec0;" horiz-adv-x="1140" 
d="M115 0v1400h910v-283h-627v-269h558v-283h-558v-282h627v-283h-910zM211 97h732v95h-637v467h567v95h-567v459h637v95h-732v-1211zM436 1716h252l224 -284h-277l-73 108l-73 -108h-277zM482 1655l-117 -154h89l75 106h64l74 -106h89l-117 154h-157zM1050 1660h-247
l-284 264h287zM909 1715l-144 153h-89l156 -153h77z" />
    <glyph glyph-name="uni1EC1" unicode="&#x1ec1;" horiz-adv-x="1253" 
d="M937 1080l206 -206v-285l-206 -206h-544v-39l61 -61h675v-283h-813l-206 206v668l206 206h621zM842 892l111 -110v-121l-96 -96h-566v211l118 116h433zM887 987h-523l-168 -167v-565l162 -162h672v95h-626l-113 111v174h603l154 153v200zM799 797h-345l-61 -61v-80h426
l42 42v38zM503 1396h252l224 -284h-277l-73 108l-73 -108h-277zM549 1335l-117 -154h89l75 106h64l74 -106h89l-117 154h-157zM1117 1340h-247l-284 264h287zM976 1395l-144 153h-89l156 -153h77z" />
    <glyph glyph-name="uni1EC2" unicode="&#x1ec2;" horiz-adv-x="1140" 
d="M115 0v1400h910v-283h-627v-269h558v-283h-558v-282h627v-283h-910zM211 97h732v95h-637v467h567v95h-567v459h637v95h-732v-1211zM436 1716h252l224 -284h-277l-73 108l-73 -108h-277zM482 1655l-117 -154h89l75 106h64l74 -106h89l-117 154h-157zM702 1999h315
l163 -189l-163 -187h-244v157h134l30 30l-30 32h-205v157zM768 1947v-53h176l75 -84l-75 -82h-104v-53h140l121 135l-121 137h-212z" />
    <glyph glyph-name="uni1EC3" unicode="&#x1ec3;" horiz-adv-x="1253" 
d="M937 1080l206 -206v-285l-206 -206h-544v-39l61 -61h675v-283h-813l-206 206v668l206 206h621zM842 892l111 -110v-121l-96 -96h-566v211l118 116h433zM887 987h-523l-168 -167v-565l162 -162h672v95h-626l-113 111v174h603l154 153v200zM799 797h-345l-61 -61v-80h426
l42 42v38zM503 1396h252l224 -284h-277l-73 108l-73 -108h-277zM549 1335l-117 -154h89l75 106h64l74 -106h89l-117 154h-157zM769 1679h315l163 -189l-163 -187h-244v157h134l30 30l-30 32h-205v157zM835 1627v-53h176l75 -84l-75 -82h-104v-53h140l121 135l-121 137h-212z
" />
    <glyph glyph-name="uni1EC4" unicode="&#x1ec4;" horiz-adv-x="1140" 
d="M115 0v1400h910v-283h-627v-269h558v-283h-558v-282h627v-283h-910zM211 97h732v95h-637v467h567v95h-567v459h637v95h-732v-1211zM436 1716h252l224 -284h-277l-73 108l-73 -108h-277zM482 1655l-117 -154h89l75 106h64l74 -106h89l-117 154h-157zM283 1748v136l112 112
h178l56 -56h18v56h192v-136l-112 -112h-178l-56 56h-18v-56h-192zM351 1804h64v24l41 45h61l65 -64h110l83 87v45h-64v-24l-41 -44h-66l-64 63h-106l-83 -87v-45z" />
    <glyph glyph-name="uni1EC5" unicode="&#x1ec5;" horiz-adv-x="1253" 
d="M937 1080l206 -206v-285l-206 -206h-544v-39l61 -61h675v-283h-813l-206 206v668l206 206h621zM842 892l111 -110v-121l-96 -96h-566v211l118 116h433zM887 987h-523l-168 -167v-565l162 -162h672v95h-626l-113 111v174h603l154 153v200zM799 797h-345l-61 -61v-80h426
l42 42v38zM503 1396h252l224 -284h-277l-73 108l-73 -108h-277zM549 1335l-117 -154h89l75 106h64l74 -106h89l-117 154h-157zM350 1428v136l112 112h178l56 -56h18v56h192v-136l-112 -112h-178l-56 56h-18v-56h-192zM418 1484h64v24l41 45h61l65 -64h110l83 87v45h-64v-24
l-41 -44h-66l-64 63h-106l-83 -87v-45z" />
    <glyph glyph-name="uni1EC6" unicode="&#x1ec6;" horiz-adv-x="1140" 
d="M115 0v1400h910v-283h-627v-269h558v-283h-558v-282h627v-283h-910zM211 97h732v95h-637v467h567v95h-567v459h637v95h-732v-1211zM456 -271v210h212v-210h-212zM528 -202h65v70h-65v-70zM436 1716h252l224 -284h-277l-73 108l-73 -108h-277zM482 1655l-117 -154h89
l75 106h64l74 -106h89l-117 154h-157z" />
    <glyph glyph-name="uni1EC7" unicode="&#x1ec7;" horiz-adv-x="1253" 
d="M937 1080l206 -206v-285l-206 -206h-544v-39l61 -61h675v-283h-813l-206 206v668l206 206h621zM842 892l111 -110v-121l-96 -96h-566v211l118 116h433zM887 987h-523l-168 -167v-565l162 -162h672v95h-626l-113 111v174h603l154 153v200zM799 797h-345l-61 -61v-80h426
l42 42v38zM524 -271v210h212v-210h-212zM596 -202h65v70h-65v-70zM503 1396h252l224 -284h-277l-73 108l-73 -108h-277zM549 1335l-117 -154h89l75 106h64l74 -106h89l-117 154h-157z" />
    <glyph glyph-name="uni1EC8" unicode="&#x1ec8;" horiz-adv-x="1059" 
d="M115 0v283h274v834h-274v283h829v-283h-273v-834h273v-283h-829zM208 93h644v95h-281v1025h281v95h-644v-95h268v-1025h-268v-95zM291 1802h315l163 -189l-163 -187h-244v157h134l30 30l-30 32h-205v157zM357 1750v-53h176l75 -84l-75 -82h-104v-53h140l121 135l-121 137
h-212z" />
    <glyph glyph-name="uni1EC9" unicode="&#x1ec9;" horiz-adv-x="990" 
d="M114 0v283h240v514h-240v283h522v-797h240v-283h-762zM200 93h590v95h-254v800h-336v-95h241v-705h-241v-95zM256 1482h315l163 -189l-163 -187h-244v157h134l30 30l-30 32h-205v157zM322 1430v-53h176l75 -84l-75 -82h-104v-53h140l121 135l-121 137h-212z" />
    <glyph glyph-name="uni1ECA" unicode="&#x1eca;" horiz-adv-x="1059" 
d="M115 0v283h274v834h-274v283h829v-283h-273v-834h273v-283h-829zM208 93h644v95h-281v1025h281v95h-644v-95h268v-1025h-268v-95zM424 -271v210h212v-210h-212zM496 -202h65v70h-65v-70z" />
    <glyph glyph-name="uni1ECB" unicode="&#x1ecb;" horiz-adv-x="971" 
d="M337 1237v263h322v-263h-322zM444 1323h108v101h-108v-101zM110 0v283h267v514h-267v283h549v-797h267v-283h-816zM203 93h631v95h-275v800h-356v-95h261v-705h-261v-95zM412 -271v210h212v-210h-212zM484 -202h65v70h-65v-70z" />
    <glyph glyph-name="uni1ECC" unicode="&#x1ecc;" horiz-adv-x="1306" 
d="M321 0l-206 206v988l206 206h664l206 -206v-988l-206 -206h-664zM459 283h388l61 61v712l-61 61h-388l-61 -61v-712zM370 97h567l160 159v893l-160 159h-567l-159 -159v-893zM415 192l-109 108v805l109 108h477l110 -108v-805l-110 -108h-477zM554 -271v210h212v-210
h-212zM626 -202h65v70h-65v-70z" />
    <glyph glyph-name="uni1ECD" unicode="&#x1ecd;" horiz-adv-x="1257" 
d="M316 0l-206 206v668l206 206h625l206 -206v-668l-206 -206h-625zM373 93h519l161 161v572l-161 161h-524l-162 -162v-565zM418 188l-117 116v477l112 111h434l111 -110v-484l-111 -110h-429zM454 283h349l61 61v392l-61 61h-349l-61 -61v-392zM514 -271v210h212v-210
h-212zM586 -202h65v70h-65v-70z" />
    <glyph glyph-name="uni1ECE" unicode="&#x1ece;" horiz-adv-x="1306" 
d="M321 0l-206 206v988l206 206h664l206 -206v-988l-206 -206h-664zM459 283h388l61 61v712l-61 61h-388l-61 -61v-712zM370 97h567l160 159v893l-160 159h-567l-159 -159v-893zM415 192l-109 108v805l109 108h477l110 -108v-805l-110 -108h-477zM414 1802h315l163 -189
l-163 -187h-244v157h134l30 30l-30 32h-205v157zM480 1750v-53h176l75 -84l-75 -82h-104v-53h140l121 135l-121 137h-212z" />
    <glyph glyph-name="uni1ECF" unicode="&#x1ecf;" horiz-adv-x="1257" 
d="M316 0l-206 206v668l206 206h625l206 -206v-668l-206 -206h-625zM373 93h519l161 161v572l-161 161h-524l-162 -162v-565zM418 188l-117 116v477l112 111h434l111 -110v-484l-111 -110h-429zM454 283h349l61 61v392l-61 61h-349l-61 -61v-392zM389 1482h315l163 -189
l-163 -187h-244v157h134l30 30l-30 32h-205v157zM455 1430v-53h176l75 -84l-75 -82h-104v-53h140l121 135l-121 137h-212z" />
    <glyph glyph-name="uni1ED0" unicode="&#x1ed0;" horiz-adv-x="1306" 
d="M321 0l-206 206v988l206 206h664l206 -206v-988l-206 -206h-664zM459 283h388l61 61v712l-61 61h-388l-61 -61v-712zM370 97h567l160 159v893l-160 159h-567l-159 -159v-893zM415 192l-109 108v805l109 108h477l110 -108v-805l-110 -108h-477zM527 1716h252l224 -284
h-277l-73 108l-73 -108h-277zM573 1655l-117 -154h89l75 106h64l74 -106h89l-117 154h-157zM849 1660l244 264h287l-284 -264h-247zM990 1715h77l156 153h-89z" />
    <glyph glyph-name="uni1ED1" unicode="&#x1ed1;" horiz-adv-x="1257" 
d="M316 0l-206 206v668l206 206h625l206 -206v-668l-206 -206h-625zM373 93h519l161 161v572l-161 161h-524l-162 -162v-565zM418 188l-117 116v477l112 111h434l111 -110v-484l-111 -110h-429zM454 283h349l61 61v392l-61 61h-349l-61 -61v-392zM502 1396h252l224 -284
h-277l-73 108l-73 -108h-277zM548 1335l-117 -154h89l75 106h64l74 -106h89l-117 154h-157zM824 1340l244 264h287l-284 -264h-247zM965 1395h77l156 153h-89z" />
    <glyph glyph-name="uni1ED2" unicode="&#x1ed2;" horiz-adv-x="1306" 
d="M321 0l-206 206v988l206 206h664l206 -206v-988l-206 -206h-664zM459 283h388l61 61v712l-61 61h-388l-61 -61v-712zM370 97h567l160 159v893l-160 159h-567l-159 -159v-893zM415 192l-109 108v805l109 108h477l110 -108v-805l-110 -108h-477zM527 1716h252l224 -284
h-277l-73 108l-73 -108h-277zM573 1655l-117 -154h89l75 106h64l74 -106h89l-117 154h-157zM1141 1660h-247l-284 264h287zM1000 1715l-144 153h-89l156 -153h77z" />
    <glyph glyph-name="uni1ED3" unicode="&#x1ed3;" horiz-adv-x="1257" 
d="M316 0l-206 206v668l206 206h625l206 -206v-668l-206 -206h-625zM373 93h519l161 161v572l-161 161h-524l-162 -162v-565zM418 188l-117 116v477l112 111h434l111 -110v-484l-111 -110h-429zM454 283h349l61 61v392l-61 61h-349l-61 -61v-392zM502 1396h252l224 -284
h-277l-73 108l-73 -108h-277zM548 1335l-117 -154h89l75 106h64l74 -106h89l-117 154h-157zM1116 1340h-247l-284 264h287zM975 1395l-144 153h-89l156 -153h77z" />
    <glyph glyph-name="uni1ED4" unicode="&#x1ed4;" horiz-adv-x="1306" 
d="M321 0l-206 206v988l206 206h664l206 -206v-988l-206 -206h-664zM459 283h388l61 61v712l-61 61h-388l-61 -61v-712zM370 97h567l160 159v893l-160 159h-567l-159 -159v-893zM415 192l-109 108v805l109 108h477l110 -108v-805l-110 -108h-477zM527 1716h252l224 -284
h-277l-73 108l-73 -108h-277zM573 1655l-117 -154h89l75 106h64l74 -106h89l-117 154h-157zM793 1999h315l163 -189l-163 -187h-244v157h134l30 30l-30 32h-205v157zM859 1947v-53h176l75 -84l-75 -82h-104v-53h140l121 135l-121 137h-212z" />
    <glyph glyph-name="uni1ED5" unicode="&#x1ed5;" horiz-adv-x="1257" 
d="M316 0l-206 206v668l206 206h625l206 -206v-668l-206 -206h-625zM373 93h519l161 161v572l-161 161h-524l-162 -162v-565zM418 188l-117 116v477l112 111h434l111 -110v-484l-111 -110h-429zM454 283h349l61 61v392l-61 61h-349l-61 -61v-392zM502 1396h252l224 -284
h-277l-73 108l-73 -108h-277zM548 1335l-117 -154h89l75 106h64l74 -106h89l-117 154h-157zM768 1679h315l163 -189l-163 -187h-244v157h134l30 30l-30 32h-205v157zM834 1627v-53h176l75 -84l-75 -82h-104v-53h140l121 135l-121 137h-212z" />
    <glyph glyph-name="uni1ED6" unicode="&#x1ed6;" horiz-adv-x="1306" 
d="M321 0l-206 206v988l206 206h664l206 -206v-988l-206 -206h-664zM459 283h388l61 61v712l-61 61h-388l-61 -61v-712zM370 97h567l160 159v893l-160 159h-567l-159 -159v-893zM415 192l-109 108v805l109 108h477l110 -108v-805l-110 -108h-477zM527 1716h252l224 -284
h-277l-73 108l-73 -108h-277zM573 1655l-117 -154h89l75 106h64l74 -106h89l-117 154h-157zM374 1748v136l112 112h178l56 -56h18v56h192v-136l-112 -112h-178l-56 56h-18v-56h-192zM442 1804h64v24l41 45h61l65 -64h110l83 87v45h-64v-24l-41 -44h-66l-64 63h-106l-83 -87
v-45z" />
    <glyph glyph-name="uni1ED7" unicode="&#x1ed7;" horiz-adv-x="1257" 
d="M316 0l-206 206v668l206 206h625l206 -206v-668l-206 -206h-625zM373 93h519l161 161v572l-161 161h-524l-162 -162v-565zM418 188l-117 116v477l112 111h434l111 -110v-484l-111 -110h-429zM454 283h349l61 61v392l-61 61h-349l-61 -61v-392zM502 1396h252l224 -284
h-277l-73 108l-73 -108h-277zM548 1335l-117 -154h89l75 106h64l74 -106h89l-117 154h-157zM349 1428v136l112 112h178l56 -56h18v56h192v-136l-112 -112h-178l-56 56h-18v-56h-192zM417 1484h64v24l41 45h61l65 -64h110l83 87v45h-64v-24l-41 -44h-66l-64 63h-106l-83 -87
v-45z" />
    <glyph glyph-name="uni1ED8" unicode="&#x1ed8;" horiz-adv-x="1306" 
d="M321 0l-206 206v988l206 206h664l206 -206v-988l-206 -206h-664zM459 283h388l61 61v712l-61 61h-388l-61 -61v-712zM370 97h567l160 159v893l-160 159h-567l-159 -159v-893zM415 192l-109 108v805l109 108h477l110 -108v-805l-110 -108h-477zM554 -271v210h212v-210
h-212zM626 -202h65v70h-65v-70zM527 1716h252l224 -284h-277l-73 108l-73 -108h-277zM573 1655l-117 -154h89l75 106h64l74 -106h89l-117 154h-157z" />
    <glyph glyph-name="uni1ED9" unicode="&#x1ed9;" horiz-adv-x="1257" 
d="M316 0l-206 206v668l206 206h625l206 -206v-668l-206 -206h-625zM373 93h519l161 161v572l-161 161h-524l-162 -162v-565zM418 188l-117 116v477l112 111h434l111 -110v-484l-111 -110h-429zM454 283h349l61 61v392l-61 61h-349l-61 -61v-392zM514 -271v210h212v-210
h-212zM586 -202h65v70h-65v-70zM502 1396h252l224 -284h-277l-73 108l-73 -108h-277zM548 1335l-117 -154h89l75 106h64l74 -106h89l-117 154h-157z" />
    <glyph glyph-name="uni1EDA" unicode="&#x1eda;" horiz-adv-x="1329" 
d="M459 283h204l61 61v712l-61 61h-204l-61 -61v-712zM370 97h383l160 159v893l-160 159h-383l-159 -159v-893zM415 192l-109 108v805l109 108h293l110 -108v-805l-110 -108h-293zM1192 1296v-132l-83 -90h-196v-53h233l122 138v137h-76zM1116 1355h228v-199l-163 -187h-174
v-763l-206 -206h-480l-206 206v988l206 206h480l206 -206v-68h64l45 45v184zM438 1432l244 264h287l-284 -264h-247zM579 1487h77l156 153h-89z" />
    </font>
</defs>
</svg>
